%TF.GenerationSoftware,KiCad,Pcbnew,5.1.5+dfsg1-2build2*%
%TF.CreationDate,2021-07-06T16:50:00+02:00*%
%TF.ProjectId,airpcb_smd,61697270-6362-45f7-936d-642e6b696361,rev?*%
%TF.SameCoordinates,Original*%
%TF.FileFunction,Soldermask,Bot*%
%TF.FilePolarity,Negative*%
%FSLAX46Y46*%
G04 Gerber Fmt 4.6, Leading zero omitted, Abs format (unit mm)*
G04 Created by KiCad (PCBNEW 5.1.5+dfsg1-2build2) date 2021-07-06 16:50:00*
%MOMM*%
%LPD*%
G04 APERTURE LIST*
%ADD10O,1.800000X1.800000*%
%ADD11R,1.800000X1.800000*%
%ADD12C,1.624000*%
%ADD13C,3.900000*%
%ADD14R,2.000000X0.900000*%
%ADD15O,1.700000X2.100000*%
%ADD16R,2.100000X2.100000*%
%ADD17C,0.100000*%
%ADD18R,1.700000X1.700000*%
%ADD19O,1.700000X1.700000*%
G04 APERTURE END LIST*
D10*
%TO.C,J9*%
X62738000Y-45212000D03*
X60198000Y-45212000D03*
D11*
X57658000Y-45212000D03*
%TD*%
D12*
%TO.C,J11*%
X70096400Y-17889200D03*
X70096400Y-15349200D03*
X52230000Y-28262600D03*
X52230000Y-30802600D03*
X52230000Y-33342600D03*
%TD*%
D13*
%TO.C,M1*%
X53340000Y-11684000D03*
%TD*%
D10*
%TO.C,J6*%
X80772000Y-12446000D03*
X83312000Y-12446000D03*
X85852000Y-12446000D03*
X88392000Y-12446000D03*
X90932000Y-12446000D03*
X93472000Y-12446000D03*
X96012000Y-12446000D03*
D11*
X98552000Y-12446000D03*
%TD*%
D10*
%TO.C,J5*%
X98552000Y-41910000D03*
X96012000Y-41910000D03*
X93472000Y-41910000D03*
X90932000Y-41910000D03*
X88392000Y-41910000D03*
X85852000Y-41910000D03*
X83312000Y-41910000D03*
D11*
X80772000Y-41910000D03*
%TD*%
D14*
%TO.C,Q2*%
X71882000Y-30480000D03*
X74882000Y-31430000D03*
X74882000Y-29530000D03*
%TD*%
%TO.C,Q1*%
X71882000Y-24450000D03*
X74882000Y-25400000D03*
X74882000Y-23500000D03*
%TD*%
D13*
%TO.C,M2*%
X53340000Y-47244000D03*
%TD*%
D15*
%TO.C,U3*%
X80772000Y-15748000D03*
X83312000Y-15748000D03*
X85852000Y-15748000D03*
X88392000Y-15748000D03*
X90932000Y-15748000D03*
X93472000Y-15748000D03*
X96012000Y-15748000D03*
X98552000Y-15748000D03*
X98552000Y-38608000D03*
X96012000Y-38608000D03*
X93472000Y-38608000D03*
X90932000Y-38608000D03*
X88392000Y-38608000D03*
X85852000Y-38608000D03*
D16*
X80772000Y-38608000D03*
D15*
X83312000Y-38608000D03*
%TD*%
D11*
%TO.C,J1*%
X83820000Y-48006000D03*
D10*
X86360000Y-48006000D03*
X88900000Y-48006000D03*
X91440000Y-48006000D03*
%TD*%
%TO.C,J2*%
X81280000Y-48006000D03*
X78740000Y-48006000D03*
X76200000Y-48006000D03*
D11*
X73660000Y-48006000D03*
%TD*%
%TO.C,J3*%
X67056000Y-37338000D03*
D10*
X67056000Y-39878000D03*
%TD*%
%TO.C,J4*%
X52578000Y-39878000D03*
D11*
X52578000Y-37338000D03*
%TD*%
%TO.C,J7*%
X93980000Y-48006000D03*
D10*
X96520000Y-48006000D03*
X99060000Y-48006000D03*
%TD*%
%TO.C,J8*%
X71120000Y-48006000D03*
X68580000Y-48006000D03*
D11*
X66040000Y-48006000D03*
%TD*%
D17*
%TO.C,R1*%
G36*
X57542092Y-32017294D02*
G01*
X57568181Y-32021164D01*
X57593764Y-32027572D01*
X57618596Y-32036457D01*
X57642438Y-32047734D01*
X57665060Y-32061293D01*
X57686243Y-32077003D01*
X57705785Y-32094715D01*
X57723497Y-32114257D01*
X57739207Y-32135440D01*
X57752766Y-32158062D01*
X57764043Y-32181904D01*
X57772928Y-32206736D01*
X57779336Y-32232319D01*
X57783206Y-32258408D01*
X57784500Y-32284750D01*
X57784500Y-33247250D01*
X57783206Y-33273592D01*
X57779336Y-33299681D01*
X57772928Y-33325264D01*
X57764043Y-33350096D01*
X57752766Y-33373938D01*
X57739207Y-33396560D01*
X57723497Y-33417743D01*
X57705785Y-33437285D01*
X57686243Y-33454997D01*
X57665060Y-33470707D01*
X57642438Y-33484266D01*
X57618596Y-33495543D01*
X57593764Y-33504428D01*
X57568181Y-33510836D01*
X57542092Y-33514706D01*
X57515750Y-33516000D01*
X56978250Y-33516000D01*
X56951908Y-33514706D01*
X56925819Y-33510836D01*
X56900236Y-33504428D01*
X56875404Y-33495543D01*
X56851562Y-33484266D01*
X56828940Y-33470707D01*
X56807757Y-33454997D01*
X56788215Y-33437285D01*
X56770503Y-33417743D01*
X56754793Y-33396560D01*
X56741234Y-33373938D01*
X56729957Y-33350096D01*
X56721072Y-33325264D01*
X56714664Y-33299681D01*
X56710794Y-33273592D01*
X56709500Y-33247250D01*
X56709500Y-32284750D01*
X56710794Y-32258408D01*
X56714664Y-32232319D01*
X56721072Y-32206736D01*
X56729957Y-32181904D01*
X56741234Y-32158062D01*
X56754793Y-32135440D01*
X56770503Y-32114257D01*
X56788215Y-32094715D01*
X56807757Y-32077003D01*
X56828940Y-32061293D01*
X56851562Y-32047734D01*
X56875404Y-32036457D01*
X56900236Y-32027572D01*
X56925819Y-32021164D01*
X56951908Y-32017294D01*
X56978250Y-32016000D01*
X57515750Y-32016000D01*
X57542092Y-32017294D01*
G37*
G36*
X55667092Y-32017294D02*
G01*
X55693181Y-32021164D01*
X55718764Y-32027572D01*
X55743596Y-32036457D01*
X55767438Y-32047734D01*
X55790060Y-32061293D01*
X55811243Y-32077003D01*
X55830785Y-32094715D01*
X55848497Y-32114257D01*
X55864207Y-32135440D01*
X55877766Y-32158062D01*
X55889043Y-32181904D01*
X55897928Y-32206736D01*
X55904336Y-32232319D01*
X55908206Y-32258408D01*
X55909500Y-32284750D01*
X55909500Y-33247250D01*
X55908206Y-33273592D01*
X55904336Y-33299681D01*
X55897928Y-33325264D01*
X55889043Y-33350096D01*
X55877766Y-33373938D01*
X55864207Y-33396560D01*
X55848497Y-33417743D01*
X55830785Y-33437285D01*
X55811243Y-33454997D01*
X55790060Y-33470707D01*
X55767438Y-33484266D01*
X55743596Y-33495543D01*
X55718764Y-33504428D01*
X55693181Y-33510836D01*
X55667092Y-33514706D01*
X55640750Y-33516000D01*
X55103250Y-33516000D01*
X55076908Y-33514706D01*
X55050819Y-33510836D01*
X55025236Y-33504428D01*
X55000404Y-33495543D01*
X54976562Y-33484266D01*
X54953940Y-33470707D01*
X54932757Y-33454997D01*
X54913215Y-33437285D01*
X54895503Y-33417743D01*
X54879793Y-33396560D01*
X54866234Y-33373938D01*
X54854957Y-33350096D01*
X54846072Y-33325264D01*
X54839664Y-33299681D01*
X54835794Y-33273592D01*
X54834500Y-33247250D01*
X54834500Y-32284750D01*
X54835794Y-32258408D01*
X54839664Y-32232319D01*
X54846072Y-32206736D01*
X54854957Y-32181904D01*
X54866234Y-32158062D01*
X54879793Y-32135440D01*
X54895503Y-32114257D01*
X54913215Y-32094715D01*
X54932757Y-32077003D01*
X54953940Y-32061293D01*
X54976562Y-32047734D01*
X55000404Y-32036457D01*
X55025236Y-32027572D01*
X55050819Y-32021164D01*
X55076908Y-32017294D01*
X55103250Y-32016000D01*
X55640750Y-32016000D01*
X55667092Y-32017294D01*
G37*
%TD*%
%TO.C,R2*%
G36*
X55667092Y-28715294D02*
G01*
X55693181Y-28719164D01*
X55718764Y-28725572D01*
X55743596Y-28734457D01*
X55767438Y-28745734D01*
X55790060Y-28759293D01*
X55811243Y-28775003D01*
X55830785Y-28792715D01*
X55848497Y-28812257D01*
X55864207Y-28833440D01*
X55877766Y-28856062D01*
X55889043Y-28879904D01*
X55897928Y-28904736D01*
X55904336Y-28930319D01*
X55908206Y-28956408D01*
X55909500Y-28982750D01*
X55909500Y-29945250D01*
X55908206Y-29971592D01*
X55904336Y-29997681D01*
X55897928Y-30023264D01*
X55889043Y-30048096D01*
X55877766Y-30071938D01*
X55864207Y-30094560D01*
X55848497Y-30115743D01*
X55830785Y-30135285D01*
X55811243Y-30152997D01*
X55790060Y-30168707D01*
X55767438Y-30182266D01*
X55743596Y-30193543D01*
X55718764Y-30202428D01*
X55693181Y-30208836D01*
X55667092Y-30212706D01*
X55640750Y-30214000D01*
X55103250Y-30214000D01*
X55076908Y-30212706D01*
X55050819Y-30208836D01*
X55025236Y-30202428D01*
X55000404Y-30193543D01*
X54976562Y-30182266D01*
X54953940Y-30168707D01*
X54932757Y-30152997D01*
X54913215Y-30135285D01*
X54895503Y-30115743D01*
X54879793Y-30094560D01*
X54866234Y-30071938D01*
X54854957Y-30048096D01*
X54846072Y-30023264D01*
X54839664Y-29997681D01*
X54835794Y-29971592D01*
X54834500Y-29945250D01*
X54834500Y-28982750D01*
X54835794Y-28956408D01*
X54839664Y-28930319D01*
X54846072Y-28904736D01*
X54854957Y-28879904D01*
X54866234Y-28856062D01*
X54879793Y-28833440D01*
X54895503Y-28812257D01*
X54913215Y-28792715D01*
X54932757Y-28775003D01*
X54953940Y-28759293D01*
X54976562Y-28745734D01*
X55000404Y-28734457D01*
X55025236Y-28725572D01*
X55050819Y-28719164D01*
X55076908Y-28715294D01*
X55103250Y-28714000D01*
X55640750Y-28714000D01*
X55667092Y-28715294D01*
G37*
G36*
X57542092Y-28715294D02*
G01*
X57568181Y-28719164D01*
X57593764Y-28725572D01*
X57618596Y-28734457D01*
X57642438Y-28745734D01*
X57665060Y-28759293D01*
X57686243Y-28775003D01*
X57705785Y-28792715D01*
X57723497Y-28812257D01*
X57739207Y-28833440D01*
X57752766Y-28856062D01*
X57764043Y-28879904D01*
X57772928Y-28904736D01*
X57779336Y-28930319D01*
X57783206Y-28956408D01*
X57784500Y-28982750D01*
X57784500Y-29945250D01*
X57783206Y-29971592D01*
X57779336Y-29997681D01*
X57772928Y-30023264D01*
X57764043Y-30048096D01*
X57752766Y-30071938D01*
X57739207Y-30094560D01*
X57723497Y-30115743D01*
X57705785Y-30135285D01*
X57686243Y-30152997D01*
X57665060Y-30168707D01*
X57642438Y-30182266D01*
X57618596Y-30193543D01*
X57593764Y-30202428D01*
X57568181Y-30208836D01*
X57542092Y-30212706D01*
X57515750Y-30214000D01*
X56978250Y-30214000D01*
X56951908Y-30212706D01*
X56925819Y-30208836D01*
X56900236Y-30202428D01*
X56875404Y-30193543D01*
X56851562Y-30182266D01*
X56828940Y-30168707D01*
X56807757Y-30152997D01*
X56788215Y-30135285D01*
X56770503Y-30115743D01*
X56754793Y-30094560D01*
X56741234Y-30071938D01*
X56729957Y-30048096D01*
X56721072Y-30023264D01*
X56714664Y-29997681D01*
X56710794Y-29971592D01*
X56709500Y-29945250D01*
X56709500Y-28982750D01*
X56710794Y-28956408D01*
X56714664Y-28930319D01*
X56721072Y-28904736D01*
X56729957Y-28879904D01*
X56741234Y-28856062D01*
X56754793Y-28833440D01*
X56770503Y-28812257D01*
X56788215Y-28792715D01*
X56807757Y-28775003D01*
X56828940Y-28759293D01*
X56851562Y-28745734D01*
X56875404Y-28734457D01*
X56900236Y-28725572D01*
X56925819Y-28719164D01*
X56951908Y-28715294D01*
X56978250Y-28714000D01*
X57515750Y-28714000D01*
X57542092Y-28715294D01*
G37*
%TD*%
%TO.C,R3*%
G36*
X55667092Y-25413294D02*
G01*
X55693181Y-25417164D01*
X55718764Y-25423572D01*
X55743596Y-25432457D01*
X55767438Y-25443734D01*
X55790060Y-25457293D01*
X55811243Y-25473003D01*
X55830785Y-25490715D01*
X55848497Y-25510257D01*
X55864207Y-25531440D01*
X55877766Y-25554062D01*
X55889043Y-25577904D01*
X55897928Y-25602736D01*
X55904336Y-25628319D01*
X55908206Y-25654408D01*
X55909500Y-25680750D01*
X55909500Y-26643250D01*
X55908206Y-26669592D01*
X55904336Y-26695681D01*
X55897928Y-26721264D01*
X55889043Y-26746096D01*
X55877766Y-26769938D01*
X55864207Y-26792560D01*
X55848497Y-26813743D01*
X55830785Y-26833285D01*
X55811243Y-26850997D01*
X55790060Y-26866707D01*
X55767438Y-26880266D01*
X55743596Y-26891543D01*
X55718764Y-26900428D01*
X55693181Y-26906836D01*
X55667092Y-26910706D01*
X55640750Y-26912000D01*
X55103250Y-26912000D01*
X55076908Y-26910706D01*
X55050819Y-26906836D01*
X55025236Y-26900428D01*
X55000404Y-26891543D01*
X54976562Y-26880266D01*
X54953940Y-26866707D01*
X54932757Y-26850997D01*
X54913215Y-26833285D01*
X54895503Y-26813743D01*
X54879793Y-26792560D01*
X54866234Y-26769938D01*
X54854957Y-26746096D01*
X54846072Y-26721264D01*
X54839664Y-26695681D01*
X54835794Y-26669592D01*
X54834500Y-26643250D01*
X54834500Y-25680750D01*
X54835794Y-25654408D01*
X54839664Y-25628319D01*
X54846072Y-25602736D01*
X54854957Y-25577904D01*
X54866234Y-25554062D01*
X54879793Y-25531440D01*
X54895503Y-25510257D01*
X54913215Y-25490715D01*
X54932757Y-25473003D01*
X54953940Y-25457293D01*
X54976562Y-25443734D01*
X55000404Y-25432457D01*
X55025236Y-25423572D01*
X55050819Y-25417164D01*
X55076908Y-25413294D01*
X55103250Y-25412000D01*
X55640750Y-25412000D01*
X55667092Y-25413294D01*
G37*
G36*
X57542092Y-25413294D02*
G01*
X57568181Y-25417164D01*
X57593764Y-25423572D01*
X57618596Y-25432457D01*
X57642438Y-25443734D01*
X57665060Y-25457293D01*
X57686243Y-25473003D01*
X57705785Y-25490715D01*
X57723497Y-25510257D01*
X57739207Y-25531440D01*
X57752766Y-25554062D01*
X57764043Y-25577904D01*
X57772928Y-25602736D01*
X57779336Y-25628319D01*
X57783206Y-25654408D01*
X57784500Y-25680750D01*
X57784500Y-26643250D01*
X57783206Y-26669592D01*
X57779336Y-26695681D01*
X57772928Y-26721264D01*
X57764043Y-26746096D01*
X57752766Y-26769938D01*
X57739207Y-26792560D01*
X57723497Y-26813743D01*
X57705785Y-26833285D01*
X57686243Y-26850997D01*
X57665060Y-26866707D01*
X57642438Y-26880266D01*
X57618596Y-26891543D01*
X57593764Y-26900428D01*
X57568181Y-26906836D01*
X57542092Y-26910706D01*
X57515750Y-26912000D01*
X56978250Y-26912000D01*
X56951908Y-26910706D01*
X56925819Y-26906836D01*
X56900236Y-26900428D01*
X56875404Y-26891543D01*
X56851562Y-26880266D01*
X56828940Y-26866707D01*
X56807757Y-26850997D01*
X56788215Y-26833285D01*
X56770503Y-26813743D01*
X56754793Y-26792560D01*
X56741234Y-26769938D01*
X56729957Y-26746096D01*
X56721072Y-26721264D01*
X56714664Y-26695681D01*
X56710794Y-26669592D01*
X56709500Y-26643250D01*
X56709500Y-25680750D01*
X56710794Y-25654408D01*
X56714664Y-25628319D01*
X56721072Y-25602736D01*
X56729957Y-25577904D01*
X56741234Y-25554062D01*
X56754793Y-25531440D01*
X56770503Y-25510257D01*
X56788215Y-25490715D01*
X56807757Y-25473003D01*
X56828940Y-25457293D01*
X56851562Y-25443734D01*
X56875404Y-25432457D01*
X56900236Y-25423572D01*
X56925819Y-25417164D01*
X56951908Y-25413294D01*
X56978250Y-25412000D01*
X57515750Y-25412000D01*
X57542092Y-25413294D01*
G37*
%TD*%
%TO.C,R4*%
G36*
X62525092Y-32017294D02*
G01*
X62551181Y-32021164D01*
X62576764Y-32027572D01*
X62601596Y-32036457D01*
X62625438Y-32047734D01*
X62648060Y-32061293D01*
X62669243Y-32077003D01*
X62688785Y-32094715D01*
X62706497Y-32114257D01*
X62722207Y-32135440D01*
X62735766Y-32158062D01*
X62747043Y-32181904D01*
X62755928Y-32206736D01*
X62762336Y-32232319D01*
X62766206Y-32258408D01*
X62767500Y-32284750D01*
X62767500Y-33247250D01*
X62766206Y-33273592D01*
X62762336Y-33299681D01*
X62755928Y-33325264D01*
X62747043Y-33350096D01*
X62735766Y-33373938D01*
X62722207Y-33396560D01*
X62706497Y-33417743D01*
X62688785Y-33437285D01*
X62669243Y-33454997D01*
X62648060Y-33470707D01*
X62625438Y-33484266D01*
X62601596Y-33495543D01*
X62576764Y-33504428D01*
X62551181Y-33510836D01*
X62525092Y-33514706D01*
X62498750Y-33516000D01*
X61961250Y-33516000D01*
X61934908Y-33514706D01*
X61908819Y-33510836D01*
X61883236Y-33504428D01*
X61858404Y-33495543D01*
X61834562Y-33484266D01*
X61811940Y-33470707D01*
X61790757Y-33454997D01*
X61771215Y-33437285D01*
X61753503Y-33417743D01*
X61737793Y-33396560D01*
X61724234Y-33373938D01*
X61712957Y-33350096D01*
X61704072Y-33325264D01*
X61697664Y-33299681D01*
X61693794Y-33273592D01*
X61692500Y-33247250D01*
X61692500Y-32284750D01*
X61693794Y-32258408D01*
X61697664Y-32232319D01*
X61704072Y-32206736D01*
X61712957Y-32181904D01*
X61724234Y-32158062D01*
X61737793Y-32135440D01*
X61753503Y-32114257D01*
X61771215Y-32094715D01*
X61790757Y-32077003D01*
X61811940Y-32061293D01*
X61834562Y-32047734D01*
X61858404Y-32036457D01*
X61883236Y-32027572D01*
X61908819Y-32021164D01*
X61934908Y-32017294D01*
X61961250Y-32016000D01*
X62498750Y-32016000D01*
X62525092Y-32017294D01*
G37*
G36*
X60650092Y-32017294D02*
G01*
X60676181Y-32021164D01*
X60701764Y-32027572D01*
X60726596Y-32036457D01*
X60750438Y-32047734D01*
X60773060Y-32061293D01*
X60794243Y-32077003D01*
X60813785Y-32094715D01*
X60831497Y-32114257D01*
X60847207Y-32135440D01*
X60860766Y-32158062D01*
X60872043Y-32181904D01*
X60880928Y-32206736D01*
X60887336Y-32232319D01*
X60891206Y-32258408D01*
X60892500Y-32284750D01*
X60892500Y-33247250D01*
X60891206Y-33273592D01*
X60887336Y-33299681D01*
X60880928Y-33325264D01*
X60872043Y-33350096D01*
X60860766Y-33373938D01*
X60847207Y-33396560D01*
X60831497Y-33417743D01*
X60813785Y-33437285D01*
X60794243Y-33454997D01*
X60773060Y-33470707D01*
X60750438Y-33484266D01*
X60726596Y-33495543D01*
X60701764Y-33504428D01*
X60676181Y-33510836D01*
X60650092Y-33514706D01*
X60623750Y-33516000D01*
X60086250Y-33516000D01*
X60059908Y-33514706D01*
X60033819Y-33510836D01*
X60008236Y-33504428D01*
X59983404Y-33495543D01*
X59959562Y-33484266D01*
X59936940Y-33470707D01*
X59915757Y-33454997D01*
X59896215Y-33437285D01*
X59878503Y-33417743D01*
X59862793Y-33396560D01*
X59849234Y-33373938D01*
X59837957Y-33350096D01*
X59829072Y-33325264D01*
X59822664Y-33299681D01*
X59818794Y-33273592D01*
X59817500Y-33247250D01*
X59817500Y-32284750D01*
X59818794Y-32258408D01*
X59822664Y-32232319D01*
X59829072Y-32206736D01*
X59837957Y-32181904D01*
X59849234Y-32158062D01*
X59862793Y-32135440D01*
X59878503Y-32114257D01*
X59896215Y-32094715D01*
X59915757Y-32077003D01*
X59936940Y-32061293D01*
X59959562Y-32047734D01*
X59983404Y-32036457D01*
X60008236Y-32027572D01*
X60033819Y-32021164D01*
X60059908Y-32017294D01*
X60086250Y-32016000D01*
X60623750Y-32016000D01*
X60650092Y-32017294D01*
G37*
%TD*%
%TO.C,R5*%
G36*
X62622092Y-28715294D02*
G01*
X62648181Y-28719164D01*
X62673764Y-28725572D01*
X62698596Y-28734457D01*
X62722438Y-28745734D01*
X62745060Y-28759293D01*
X62766243Y-28775003D01*
X62785785Y-28792715D01*
X62803497Y-28812257D01*
X62819207Y-28833440D01*
X62832766Y-28856062D01*
X62844043Y-28879904D01*
X62852928Y-28904736D01*
X62859336Y-28930319D01*
X62863206Y-28956408D01*
X62864500Y-28982750D01*
X62864500Y-29945250D01*
X62863206Y-29971592D01*
X62859336Y-29997681D01*
X62852928Y-30023264D01*
X62844043Y-30048096D01*
X62832766Y-30071938D01*
X62819207Y-30094560D01*
X62803497Y-30115743D01*
X62785785Y-30135285D01*
X62766243Y-30152997D01*
X62745060Y-30168707D01*
X62722438Y-30182266D01*
X62698596Y-30193543D01*
X62673764Y-30202428D01*
X62648181Y-30208836D01*
X62622092Y-30212706D01*
X62595750Y-30214000D01*
X62058250Y-30214000D01*
X62031908Y-30212706D01*
X62005819Y-30208836D01*
X61980236Y-30202428D01*
X61955404Y-30193543D01*
X61931562Y-30182266D01*
X61908940Y-30168707D01*
X61887757Y-30152997D01*
X61868215Y-30135285D01*
X61850503Y-30115743D01*
X61834793Y-30094560D01*
X61821234Y-30071938D01*
X61809957Y-30048096D01*
X61801072Y-30023264D01*
X61794664Y-29997681D01*
X61790794Y-29971592D01*
X61789500Y-29945250D01*
X61789500Y-28982750D01*
X61790794Y-28956408D01*
X61794664Y-28930319D01*
X61801072Y-28904736D01*
X61809957Y-28879904D01*
X61821234Y-28856062D01*
X61834793Y-28833440D01*
X61850503Y-28812257D01*
X61868215Y-28792715D01*
X61887757Y-28775003D01*
X61908940Y-28759293D01*
X61931562Y-28745734D01*
X61955404Y-28734457D01*
X61980236Y-28725572D01*
X62005819Y-28719164D01*
X62031908Y-28715294D01*
X62058250Y-28714000D01*
X62595750Y-28714000D01*
X62622092Y-28715294D01*
G37*
G36*
X60747092Y-28715294D02*
G01*
X60773181Y-28719164D01*
X60798764Y-28725572D01*
X60823596Y-28734457D01*
X60847438Y-28745734D01*
X60870060Y-28759293D01*
X60891243Y-28775003D01*
X60910785Y-28792715D01*
X60928497Y-28812257D01*
X60944207Y-28833440D01*
X60957766Y-28856062D01*
X60969043Y-28879904D01*
X60977928Y-28904736D01*
X60984336Y-28930319D01*
X60988206Y-28956408D01*
X60989500Y-28982750D01*
X60989500Y-29945250D01*
X60988206Y-29971592D01*
X60984336Y-29997681D01*
X60977928Y-30023264D01*
X60969043Y-30048096D01*
X60957766Y-30071938D01*
X60944207Y-30094560D01*
X60928497Y-30115743D01*
X60910785Y-30135285D01*
X60891243Y-30152997D01*
X60870060Y-30168707D01*
X60847438Y-30182266D01*
X60823596Y-30193543D01*
X60798764Y-30202428D01*
X60773181Y-30208836D01*
X60747092Y-30212706D01*
X60720750Y-30214000D01*
X60183250Y-30214000D01*
X60156908Y-30212706D01*
X60130819Y-30208836D01*
X60105236Y-30202428D01*
X60080404Y-30193543D01*
X60056562Y-30182266D01*
X60033940Y-30168707D01*
X60012757Y-30152997D01*
X59993215Y-30135285D01*
X59975503Y-30115743D01*
X59959793Y-30094560D01*
X59946234Y-30071938D01*
X59934957Y-30048096D01*
X59926072Y-30023264D01*
X59919664Y-29997681D01*
X59915794Y-29971592D01*
X59914500Y-29945250D01*
X59914500Y-28982750D01*
X59915794Y-28956408D01*
X59919664Y-28930319D01*
X59926072Y-28904736D01*
X59934957Y-28879904D01*
X59946234Y-28856062D01*
X59959793Y-28833440D01*
X59975503Y-28812257D01*
X59993215Y-28792715D01*
X60012757Y-28775003D01*
X60033940Y-28759293D01*
X60056562Y-28745734D01*
X60080404Y-28734457D01*
X60105236Y-28725572D01*
X60130819Y-28719164D01*
X60156908Y-28715294D01*
X60183250Y-28714000D01*
X60720750Y-28714000D01*
X60747092Y-28715294D01*
G37*
%TD*%
%TO.C,R6*%
G36*
X60747092Y-25413294D02*
G01*
X60773181Y-25417164D01*
X60798764Y-25423572D01*
X60823596Y-25432457D01*
X60847438Y-25443734D01*
X60870060Y-25457293D01*
X60891243Y-25473003D01*
X60910785Y-25490715D01*
X60928497Y-25510257D01*
X60944207Y-25531440D01*
X60957766Y-25554062D01*
X60969043Y-25577904D01*
X60977928Y-25602736D01*
X60984336Y-25628319D01*
X60988206Y-25654408D01*
X60989500Y-25680750D01*
X60989500Y-26643250D01*
X60988206Y-26669592D01*
X60984336Y-26695681D01*
X60977928Y-26721264D01*
X60969043Y-26746096D01*
X60957766Y-26769938D01*
X60944207Y-26792560D01*
X60928497Y-26813743D01*
X60910785Y-26833285D01*
X60891243Y-26850997D01*
X60870060Y-26866707D01*
X60847438Y-26880266D01*
X60823596Y-26891543D01*
X60798764Y-26900428D01*
X60773181Y-26906836D01*
X60747092Y-26910706D01*
X60720750Y-26912000D01*
X60183250Y-26912000D01*
X60156908Y-26910706D01*
X60130819Y-26906836D01*
X60105236Y-26900428D01*
X60080404Y-26891543D01*
X60056562Y-26880266D01*
X60033940Y-26866707D01*
X60012757Y-26850997D01*
X59993215Y-26833285D01*
X59975503Y-26813743D01*
X59959793Y-26792560D01*
X59946234Y-26769938D01*
X59934957Y-26746096D01*
X59926072Y-26721264D01*
X59919664Y-26695681D01*
X59915794Y-26669592D01*
X59914500Y-26643250D01*
X59914500Y-25680750D01*
X59915794Y-25654408D01*
X59919664Y-25628319D01*
X59926072Y-25602736D01*
X59934957Y-25577904D01*
X59946234Y-25554062D01*
X59959793Y-25531440D01*
X59975503Y-25510257D01*
X59993215Y-25490715D01*
X60012757Y-25473003D01*
X60033940Y-25457293D01*
X60056562Y-25443734D01*
X60080404Y-25432457D01*
X60105236Y-25423572D01*
X60130819Y-25417164D01*
X60156908Y-25413294D01*
X60183250Y-25412000D01*
X60720750Y-25412000D01*
X60747092Y-25413294D01*
G37*
G36*
X62622092Y-25413294D02*
G01*
X62648181Y-25417164D01*
X62673764Y-25423572D01*
X62698596Y-25432457D01*
X62722438Y-25443734D01*
X62745060Y-25457293D01*
X62766243Y-25473003D01*
X62785785Y-25490715D01*
X62803497Y-25510257D01*
X62819207Y-25531440D01*
X62832766Y-25554062D01*
X62844043Y-25577904D01*
X62852928Y-25602736D01*
X62859336Y-25628319D01*
X62863206Y-25654408D01*
X62864500Y-25680750D01*
X62864500Y-26643250D01*
X62863206Y-26669592D01*
X62859336Y-26695681D01*
X62852928Y-26721264D01*
X62844043Y-26746096D01*
X62832766Y-26769938D01*
X62819207Y-26792560D01*
X62803497Y-26813743D01*
X62785785Y-26833285D01*
X62766243Y-26850997D01*
X62745060Y-26866707D01*
X62722438Y-26880266D01*
X62698596Y-26891543D01*
X62673764Y-26900428D01*
X62648181Y-26906836D01*
X62622092Y-26910706D01*
X62595750Y-26912000D01*
X62058250Y-26912000D01*
X62031908Y-26910706D01*
X62005819Y-26906836D01*
X61980236Y-26900428D01*
X61955404Y-26891543D01*
X61931562Y-26880266D01*
X61908940Y-26866707D01*
X61887757Y-26850997D01*
X61868215Y-26833285D01*
X61850503Y-26813743D01*
X61834793Y-26792560D01*
X61821234Y-26769938D01*
X61809957Y-26746096D01*
X61801072Y-26721264D01*
X61794664Y-26695681D01*
X61790794Y-26669592D01*
X61789500Y-26643250D01*
X61789500Y-25680750D01*
X61790794Y-25654408D01*
X61794664Y-25628319D01*
X61801072Y-25602736D01*
X61809957Y-25577904D01*
X61821234Y-25554062D01*
X61834793Y-25531440D01*
X61850503Y-25510257D01*
X61868215Y-25490715D01*
X61887757Y-25473003D01*
X61908940Y-25457293D01*
X61931562Y-25443734D01*
X61955404Y-25432457D01*
X61980236Y-25423572D01*
X62005819Y-25417164D01*
X62031908Y-25413294D01*
X62058250Y-25412000D01*
X62595750Y-25412000D01*
X62622092Y-25413294D01*
G37*
%TD*%
%TO.C,R7*%
G36*
X65700092Y-28715294D02*
G01*
X65726181Y-28719164D01*
X65751764Y-28725572D01*
X65776596Y-28734457D01*
X65800438Y-28745734D01*
X65823060Y-28759293D01*
X65844243Y-28775003D01*
X65863785Y-28792715D01*
X65881497Y-28812257D01*
X65897207Y-28833440D01*
X65910766Y-28856062D01*
X65922043Y-28879904D01*
X65930928Y-28904736D01*
X65937336Y-28930319D01*
X65941206Y-28956408D01*
X65942500Y-28982750D01*
X65942500Y-29945250D01*
X65941206Y-29971592D01*
X65937336Y-29997681D01*
X65930928Y-30023264D01*
X65922043Y-30048096D01*
X65910766Y-30071938D01*
X65897207Y-30094560D01*
X65881497Y-30115743D01*
X65863785Y-30135285D01*
X65844243Y-30152997D01*
X65823060Y-30168707D01*
X65800438Y-30182266D01*
X65776596Y-30193543D01*
X65751764Y-30202428D01*
X65726181Y-30208836D01*
X65700092Y-30212706D01*
X65673750Y-30214000D01*
X65136250Y-30214000D01*
X65109908Y-30212706D01*
X65083819Y-30208836D01*
X65058236Y-30202428D01*
X65033404Y-30193543D01*
X65009562Y-30182266D01*
X64986940Y-30168707D01*
X64965757Y-30152997D01*
X64946215Y-30135285D01*
X64928503Y-30115743D01*
X64912793Y-30094560D01*
X64899234Y-30071938D01*
X64887957Y-30048096D01*
X64879072Y-30023264D01*
X64872664Y-29997681D01*
X64868794Y-29971592D01*
X64867500Y-29945250D01*
X64867500Y-28982750D01*
X64868794Y-28956408D01*
X64872664Y-28930319D01*
X64879072Y-28904736D01*
X64887957Y-28879904D01*
X64899234Y-28856062D01*
X64912793Y-28833440D01*
X64928503Y-28812257D01*
X64946215Y-28792715D01*
X64965757Y-28775003D01*
X64986940Y-28759293D01*
X65009562Y-28745734D01*
X65033404Y-28734457D01*
X65058236Y-28725572D01*
X65083819Y-28719164D01*
X65109908Y-28715294D01*
X65136250Y-28714000D01*
X65673750Y-28714000D01*
X65700092Y-28715294D01*
G37*
G36*
X67575092Y-28715294D02*
G01*
X67601181Y-28719164D01*
X67626764Y-28725572D01*
X67651596Y-28734457D01*
X67675438Y-28745734D01*
X67698060Y-28759293D01*
X67719243Y-28775003D01*
X67738785Y-28792715D01*
X67756497Y-28812257D01*
X67772207Y-28833440D01*
X67785766Y-28856062D01*
X67797043Y-28879904D01*
X67805928Y-28904736D01*
X67812336Y-28930319D01*
X67816206Y-28956408D01*
X67817500Y-28982750D01*
X67817500Y-29945250D01*
X67816206Y-29971592D01*
X67812336Y-29997681D01*
X67805928Y-30023264D01*
X67797043Y-30048096D01*
X67785766Y-30071938D01*
X67772207Y-30094560D01*
X67756497Y-30115743D01*
X67738785Y-30135285D01*
X67719243Y-30152997D01*
X67698060Y-30168707D01*
X67675438Y-30182266D01*
X67651596Y-30193543D01*
X67626764Y-30202428D01*
X67601181Y-30208836D01*
X67575092Y-30212706D01*
X67548750Y-30214000D01*
X67011250Y-30214000D01*
X66984908Y-30212706D01*
X66958819Y-30208836D01*
X66933236Y-30202428D01*
X66908404Y-30193543D01*
X66884562Y-30182266D01*
X66861940Y-30168707D01*
X66840757Y-30152997D01*
X66821215Y-30135285D01*
X66803503Y-30115743D01*
X66787793Y-30094560D01*
X66774234Y-30071938D01*
X66762957Y-30048096D01*
X66754072Y-30023264D01*
X66747664Y-29997681D01*
X66743794Y-29971592D01*
X66742500Y-29945250D01*
X66742500Y-28982750D01*
X66743794Y-28956408D01*
X66747664Y-28930319D01*
X66754072Y-28904736D01*
X66762957Y-28879904D01*
X66774234Y-28856062D01*
X66787793Y-28833440D01*
X66803503Y-28812257D01*
X66821215Y-28792715D01*
X66840757Y-28775003D01*
X66861940Y-28759293D01*
X66884562Y-28745734D01*
X66908404Y-28734457D01*
X66933236Y-28725572D01*
X66958819Y-28719164D01*
X66984908Y-28715294D01*
X67011250Y-28714000D01*
X67548750Y-28714000D01*
X67575092Y-28715294D01*
G37*
%TD*%
%TO.C,R8*%
G36*
X67575092Y-25413294D02*
G01*
X67601181Y-25417164D01*
X67626764Y-25423572D01*
X67651596Y-25432457D01*
X67675438Y-25443734D01*
X67698060Y-25457293D01*
X67719243Y-25473003D01*
X67738785Y-25490715D01*
X67756497Y-25510257D01*
X67772207Y-25531440D01*
X67785766Y-25554062D01*
X67797043Y-25577904D01*
X67805928Y-25602736D01*
X67812336Y-25628319D01*
X67816206Y-25654408D01*
X67817500Y-25680750D01*
X67817500Y-26643250D01*
X67816206Y-26669592D01*
X67812336Y-26695681D01*
X67805928Y-26721264D01*
X67797043Y-26746096D01*
X67785766Y-26769938D01*
X67772207Y-26792560D01*
X67756497Y-26813743D01*
X67738785Y-26833285D01*
X67719243Y-26850997D01*
X67698060Y-26866707D01*
X67675438Y-26880266D01*
X67651596Y-26891543D01*
X67626764Y-26900428D01*
X67601181Y-26906836D01*
X67575092Y-26910706D01*
X67548750Y-26912000D01*
X67011250Y-26912000D01*
X66984908Y-26910706D01*
X66958819Y-26906836D01*
X66933236Y-26900428D01*
X66908404Y-26891543D01*
X66884562Y-26880266D01*
X66861940Y-26866707D01*
X66840757Y-26850997D01*
X66821215Y-26833285D01*
X66803503Y-26813743D01*
X66787793Y-26792560D01*
X66774234Y-26769938D01*
X66762957Y-26746096D01*
X66754072Y-26721264D01*
X66747664Y-26695681D01*
X66743794Y-26669592D01*
X66742500Y-26643250D01*
X66742500Y-25680750D01*
X66743794Y-25654408D01*
X66747664Y-25628319D01*
X66754072Y-25602736D01*
X66762957Y-25577904D01*
X66774234Y-25554062D01*
X66787793Y-25531440D01*
X66803503Y-25510257D01*
X66821215Y-25490715D01*
X66840757Y-25473003D01*
X66861940Y-25457293D01*
X66884562Y-25443734D01*
X66908404Y-25432457D01*
X66933236Y-25423572D01*
X66958819Y-25417164D01*
X66984908Y-25413294D01*
X67011250Y-25412000D01*
X67548750Y-25412000D01*
X67575092Y-25413294D01*
G37*
G36*
X65700092Y-25413294D02*
G01*
X65726181Y-25417164D01*
X65751764Y-25423572D01*
X65776596Y-25432457D01*
X65800438Y-25443734D01*
X65823060Y-25457293D01*
X65844243Y-25473003D01*
X65863785Y-25490715D01*
X65881497Y-25510257D01*
X65897207Y-25531440D01*
X65910766Y-25554062D01*
X65922043Y-25577904D01*
X65930928Y-25602736D01*
X65937336Y-25628319D01*
X65941206Y-25654408D01*
X65942500Y-25680750D01*
X65942500Y-26643250D01*
X65941206Y-26669592D01*
X65937336Y-26695681D01*
X65930928Y-26721264D01*
X65922043Y-26746096D01*
X65910766Y-26769938D01*
X65897207Y-26792560D01*
X65881497Y-26813743D01*
X65863785Y-26833285D01*
X65844243Y-26850997D01*
X65823060Y-26866707D01*
X65800438Y-26880266D01*
X65776596Y-26891543D01*
X65751764Y-26900428D01*
X65726181Y-26906836D01*
X65700092Y-26910706D01*
X65673750Y-26912000D01*
X65136250Y-26912000D01*
X65109908Y-26910706D01*
X65083819Y-26906836D01*
X65058236Y-26900428D01*
X65033404Y-26891543D01*
X65009562Y-26880266D01*
X64986940Y-26866707D01*
X64965757Y-26850997D01*
X64946215Y-26833285D01*
X64928503Y-26813743D01*
X64912793Y-26792560D01*
X64899234Y-26769938D01*
X64887957Y-26746096D01*
X64879072Y-26721264D01*
X64872664Y-26695681D01*
X64868794Y-26669592D01*
X64867500Y-26643250D01*
X64867500Y-25680750D01*
X64868794Y-25654408D01*
X64872664Y-25628319D01*
X64879072Y-25602736D01*
X64887957Y-25577904D01*
X64899234Y-25554062D01*
X64912793Y-25531440D01*
X64928503Y-25510257D01*
X64946215Y-25490715D01*
X64965757Y-25473003D01*
X64986940Y-25457293D01*
X65009562Y-25443734D01*
X65033404Y-25432457D01*
X65058236Y-25423572D01*
X65083819Y-25417164D01*
X65109908Y-25413294D01*
X65136250Y-25412000D01*
X65673750Y-25412000D01*
X65700092Y-25413294D01*
G37*
%TD*%
D18*
%TO.C,U1*%
X55118000Y-23622000D03*
D19*
X57658000Y-16002000D03*
X57658000Y-23622000D03*
X55118000Y-16002000D03*
%TD*%
%TO.C,U2*%
X63246000Y-16002000D03*
X65786000Y-23622000D03*
X65786000Y-16002000D03*
D18*
X63246000Y-23622000D03*
%TD*%
M02*
