%TF.GenerationSoftware,KiCad,Pcbnew,5.1.5+dfsg1-2build2*%
%TF.CreationDate,2021-07-06T16:50:00+02:00*%
%TF.ProjectId,airpcb_smd,61697270-6362-45f7-936d-642e6b696361,rev?*%
%TF.SameCoordinates,Original*%
%TF.FileFunction,Copper,L2,Bot*%
%TF.FilePolarity,Positive*%
%FSLAX46Y46*%
G04 Gerber Fmt 4.6, Leading zero omitted, Abs format (unit mm)*
G04 Created by KiCad (PCBNEW 5.1.5+dfsg1-2build2) date 2021-07-06 16:50:00*
%MOMM*%
%LPD*%
G04 APERTURE LIST*
%TA.AperFunction,ComponentPad*%
%ADD10O,1.700000X1.700000*%
%TD*%
%TA.AperFunction,ComponentPad*%
%ADD11R,1.700000X1.700000*%
%TD*%
%TA.AperFunction,ComponentPad*%
%ADD12C,1.524000*%
%TD*%
%TA.AperFunction,ComponentPad*%
%ADD13C,3.800000*%
%TD*%
%TA.AperFunction,SMDPad,CuDef*%
%ADD14R,1.900000X0.800000*%
%TD*%
%TA.AperFunction,ComponentPad*%
%ADD15O,1.600000X2.000000*%
%TD*%
%TA.AperFunction,ComponentPad*%
%ADD16R,2.000000X2.000000*%
%TD*%
%TA.AperFunction,SMDPad,CuDef*%
%ADD17C,0.100000*%
%TD*%
%TA.AperFunction,ComponentPad*%
%ADD18R,1.600000X1.600000*%
%TD*%
%TA.AperFunction,ComponentPad*%
%ADD19O,1.600000X1.600000*%
%TD*%
%TA.AperFunction,ViaPad*%
%ADD20C,0.800000*%
%TD*%
%TA.AperFunction,Conductor*%
%ADD21C,0.250000*%
%TD*%
G04 APERTURE END LIST*
D10*
%TO.P,J9,3*%
%TO.N,3V3*%
X62738000Y-45212000D03*
%TO.P,J9,2*%
%TO.N,PSU_OUT*%
X60198000Y-45212000D03*
D11*
%TO.P,J9,1*%
%TO.N,5V*%
X57658000Y-45212000D03*
%TD*%
D12*
%TO.P,J11,5*%
%TO.N,GND*%
X70096400Y-17889200D03*
%TO.P,J11,4*%
%TO.N,PSU_OUT*%
X70096400Y-15349200D03*
%TO.P,J11,3*%
%TO.N,Net-(J11-Pad3)*%
X52230000Y-28262600D03*
%TO.P,J11,2*%
%TO.N,B*%
X52230000Y-30802600D03*
%TO.P,J11,1*%
%TO.N,Net-(J11-Pad1)*%
X52230000Y-33342600D03*
%TD*%
D13*
%TO.P,M1,1*%
%TO.N,N/C*%
X53340000Y-11684000D03*
%TD*%
D10*
%TO.P,J6,8*%
%TO.N,ESP_TX*%
X80772000Y-12446000D03*
%TO.P,J6,7*%
%TO.N,ESP_RX*%
X83312000Y-12446000D03*
%TO.P,J6,6*%
%TO.N,SCL*%
X85852000Y-12446000D03*
%TO.P,J6,5*%
%TO.N,SDA*%
X88392000Y-12446000D03*
%TO.P,J6,4*%
%TO.N,D3*%
X90932000Y-12446000D03*
%TO.P,J6,3*%
%TO.N,D4*%
X93472000Y-12446000D03*
%TO.P,J6,2*%
%TO.N,GND*%
X96012000Y-12446000D03*
D11*
%TO.P,J6,1*%
%TO.N,5V*%
X98552000Y-12446000D03*
%TD*%
D10*
%TO.P,J5,8*%
%TO.N,3V3*%
X98552000Y-41910000D03*
%TO.P,J5,7*%
%TO.N,D8*%
X96012000Y-41910000D03*
%TO.P,J5,6*%
%TO.N,D7*%
X93472000Y-41910000D03*
%TO.P,J5,5*%
%TO.N,D6*%
X90932000Y-41910000D03*
%TO.P,J5,4*%
%TO.N,D5*%
X88392000Y-41910000D03*
%TO.P,J5,3*%
%TO.N,D0*%
X85852000Y-41910000D03*
%TO.P,J5,2*%
%TO.N,A0*%
X83312000Y-41910000D03*
D11*
%TO.P,J5,1*%
%TO.N,RST*%
X80772000Y-41910000D03*
%TD*%
D14*
%TO.P,Q2,3*%
%TO.N,Net-(D3-Pad2)*%
X71882000Y-30480000D03*
%TO.P,Q2,1*%
%TO.N,B*%
X74882000Y-31430000D03*
%TO.P,Q2,2*%
%TO.N,Net-(Q2-Pad2)*%
X74882000Y-29530000D03*
%TD*%
%TO.P,Q1,3*%
%TO.N,Net-(Q1-Pad3)*%
X71882000Y-24450000D03*
%TO.P,Q1,1*%
%TO.N,GND*%
X74882000Y-25400000D03*
%TO.P,Q1,2*%
%TO.N,Net-(Q1-Pad2)*%
X74882000Y-23500000D03*
%TD*%
D13*
%TO.P,M2,1*%
%TO.N,N/C*%
X53340000Y-47244000D03*
%TD*%
D15*
%TO.P,U3,16*%
%TO.N,ESP_TX*%
X80772000Y-15748000D03*
%TO.P,U3,15*%
%TO.N,ESP_RX*%
X83312000Y-15748000D03*
%TO.P,U3,14*%
%TO.N,SCL*%
X85852000Y-15748000D03*
%TO.P,U3,13*%
%TO.N,SDA*%
X88392000Y-15748000D03*
%TO.P,U3,12*%
%TO.N,D3*%
X90932000Y-15748000D03*
%TO.P,U3,11*%
%TO.N,D4*%
X93472000Y-15748000D03*
%TO.P,U3,10*%
%TO.N,GND*%
X96012000Y-15748000D03*
%TO.P,U3,9*%
%TO.N,5V*%
X98552000Y-15748000D03*
%TO.P,U3,8*%
%TO.N,3V3*%
X98552000Y-38608000D03*
%TO.P,U3,7*%
%TO.N,D8*%
X96012000Y-38608000D03*
%TO.P,U3,6*%
%TO.N,D7*%
X93472000Y-38608000D03*
%TO.P,U3,5*%
%TO.N,D6*%
X90932000Y-38608000D03*
%TO.P,U3,4*%
%TO.N,D5*%
X88392000Y-38608000D03*
%TO.P,U3,3*%
%TO.N,D0*%
X85852000Y-38608000D03*
D16*
%TO.P,U3,1*%
%TO.N,RST*%
X80772000Y-38608000D03*
D15*
%TO.P,U3,2*%
%TO.N,A0*%
X83312000Y-38608000D03*
%TD*%
D11*
%TO.P,J1,1*%
%TO.N,3V3*%
X83820000Y-48006000D03*
D10*
%TO.P,J1,2*%
%TO.N,GND*%
X86360000Y-48006000D03*
%TO.P,J1,3*%
%TO.N,SCL*%
X88900000Y-48006000D03*
%TO.P,J1,4*%
%TO.N,SDA*%
X91440000Y-48006000D03*
%TD*%
%TO.P,J2,4*%
%TO.N,GND*%
X81280000Y-48006000D03*
%TO.P,J2,3*%
%TO.N,Net-(J2-Pad3)*%
X78740000Y-48006000D03*
%TO.P,J2,2*%
%TO.N,D3*%
X76200000Y-48006000D03*
D11*
%TO.P,J2,1*%
%TO.N,3V3*%
X73660000Y-48006000D03*
%TD*%
%TO.P,J3,1*%
%TO.N,Net-(D5-Pad1)*%
X67056000Y-37338000D03*
D10*
%TO.P,J3,2*%
%TO.N,Net-(J11-Pad3)*%
X67056000Y-39878000D03*
%TD*%
%TO.P,J4,2*%
%TO.N,B*%
X52578000Y-39878000D03*
D11*
%TO.P,J4,1*%
%TO.N,A*%
X52578000Y-37338000D03*
%TD*%
%TO.P,J7,1*%
%TO.N,5V*%
X93980000Y-48006000D03*
D10*
%TO.P,J7,2*%
%TO.N,3V3*%
X96520000Y-48006000D03*
%TO.P,J7,3*%
%TO.N,GND*%
X99060000Y-48006000D03*
%TD*%
%TO.P,J8,3*%
%TO.N,GND*%
X71120000Y-48006000D03*
%TO.P,J8,2*%
%TO.N,D4*%
X68580000Y-48006000D03*
D11*
%TO.P,J8,1*%
%TO.N,5V*%
X66040000Y-48006000D03*
%TD*%
%TA.AperFunction,SMDPad,CuDef*%
D17*
%TO.P,R1,2*%
%TO.N,D8*%
G36*
X57514642Y-32067174D02*
G01*
X57538303Y-32070684D01*
X57561507Y-32076496D01*
X57584029Y-32084554D01*
X57605653Y-32094782D01*
X57626170Y-32107079D01*
X57645383Y-32121329D01*
X57663107Y-32137393D01*
X57679171Y-32155117D01*
X57693421Y-32174330D01*
X57705718Y-32194847D01*
X57715946Y-32216471D01*
X57724004Y-32238993D01*
X57729816Y-32262197D01*
X57733326Y-32285858D01*
X57734500Y-32309750D01*
X57734500Y-33222250D01*
X57733326Y-33246142D01*
X57729816Y-33269803D01*
X57724004Y-33293007D01*
X57715946Y-33315529D01*
X57705718Y-33337153D01*
X57693421Y-33357670D01*
X57679171Y-33376883D01*
X57663107Y-33394607D01*
X57645383Y-33410671D01*
X57626170Y-33424921D01*
X57605653Y-33437218D01*
X57584029Y-33447446D01*
X57561507Y-33455504D01*
X57538303Y-33461316D01*
X57514642Y-33464826D01*
X57490750Y-33466000D01*
X57003250Y-33466000D01*
X56979358Y-33464826D01*
X56955697Y-33461316D01*
X56932493Y-33455504D01*
X56909971Y-33447446D01*
X56888347Y-33437218D01*
X56867830Y-33424921D01*
X56848617Y-33410671D01*
X56830893Y-33394607D01*
X56814829Y-33376883D01*
X56800579Y-33357670D01*
X56788282Y-33337153D01*
X56778054Y-33315529D01*
X56769996Y-33293007D01*
X56764184Y-33269803D01*
X56760674Y-33246142D01*
X56759500Y-33222250D01*
X56759500Y-32309750D01*
X56760674Y-32285858D01*
X56764184Y-32262197D01*
X56769996Y-32238993D01*
X56778054Y-32216471D01*
X56788282Y-32194847D01*
X56800579Y-32174330D01*
X56814829Y-32155117D01*
X56830893Y-32137393D01*
X56848617Y-32121329D01*
X56867830Y-32107079D01*
X56888347Y-32094782D01*
X56909971Y-32084554D01*
X56932493Y-32076496D01*
X56955697Y-32070684D01*
X56979358Y-32067174D01*
X57003250Y-32066000D01*
X57490750Y-32066000D01*
X57514642Y-32067174D01*
G37*
%TD.AperFunction*%
%TA.AperFunction,SMDPad,CuDef*%
%TO.P,R1,1*%
%TO.N,Net-(Q1-Pad2)*%
G36*
X55639642Y-32067174D02*
G01*
X55663303Y-32070684D01*
X55686507Y-32076496D01*
X55709029Y-32084554D01*
X55730653Y-32094782D01*
X55751170Y-32107079D01*
X55770383Y-32121329D01*
X55788107Y-32137393D01*
X55804171Y-32155117D01*
X55818421Y-32174330D01*
X55830718Y-32194847D01*
X55840946Y-32216471D01*
X55849004Y-32238993D01*
X55854816Y-32262197D01*
X55858326Y-32285858D01*
X55859500Y-32309750D01*
X55859500Y-33222250D01*
X55858326Y-33246142D01*
X55854816Y-33269803D01*
X55849004Y-33293007D01*
X55840946Y-33315529D01*
X55830718Y-33337153D01*
X55818421Y-33357670D01*
X55804171Y-33376883D01*
X55788107Y-33394607D01*
X55770383Y-33410671D01*
X55751170Y-33424921D01*
X55730653Y-33437218D01*
X55709029Y-33447446D01*
X55686507Y-33455504D01*
X55663303Y-33461316D01*
X55639642Y-33464826D01*
X55615750Y-33466000D01*
X55128250Y-33466000D01*
X55104358Y-33464826D01*
X55080697Y-33461316D01*
X55057493Y-33455504D01*
X55034971Y-33447446D01*
X55013347Y-33437218D01*
X54992830Y-33424921D01*
X54973617Y-33410671D01*
X54955893Y-33394607D01*
X54939829Y-33376883D01*
X54925579Y-33357670D01*
X54913282Y-33337153D01*
X54903054Y-33315529D01*
X54894996Y-33293007D01*
X54889184Y-33269803D01*
X54885674Y-33246142D01*
X54884500Y-33222250D01*
X54884500Y-32309750D01*
X54885674Y-32285858D01*
X54889184Y-32262197D01*
X54894996Y-32238993D01*
X54903054Y-32216471D01*
X54913282Y-32194847D01*
X54925579Y-32174330D01*
X54939829Y-32155117D01*
X54955893Y-32137393D01*
X54973617Y-32121329D01*
X54992830Y-32107079D01*
X55013347Y-32094782D01*
X55034971Y-32084554D01*
X55057493Y-32076496D01*
X55080697Y-32070684D01*
X55104358Y-32067174D01*
X55128250Y-32066000D01*
X55615750Y-32066000D01*
X55639642Y-32067174D01*
G37*
%TD.AperFunction*%
%TD*%
%TA.AperFunction,SMDPad,CuDef*%
%TO.P,R2,1*%
%TO.N,A*%
G36*
X55639642Y-28765174D02*
G01*
X55663303Y-28768684D01*
X55686507Y-28774496D01*
X55709029Y-28782554D01*
X55730653Y-28792782D01*
X55751170Y-28805079D01*
X55770383Y-28819329D01*
X55788107Y-28835393D01*
X55804171Y-28853117D01*
X55818421Y-28872330D01*
X55830718Y-28892847D01*
X55840946Y-28914471D01*
X55849004Y-28936993D01*
X55854816Y-28960197D01*
X55858326Y-28983858D01*
X55859500Y-29007750D01*
X55859500Y-29920250D01*
X55858326Y-29944142D01*
X55854816Y-29967803D01*
X55849004Y-29991007D01*
X55840946Y-30013529D01*
X55830718Y-30035153D01*
X55818421Y-30055670D01*
X55804171Y-30074883D01*
X55788107Y-30092607D01*
X55770383Y-30108671D01*
X55751170Y-30122921D01*
X55730653Y-30135218D01*
X55709029Y-30145446D01*
X55686507Y-30153504D01*
X55663303Y-30159316D01*
X55639642Y-30162826D01*
X55615750Y-30164000D01*
X55128250Y-30164000D01*
X55104358Y-30162826D01*
X55080697Y-30159316D01*
X55057493Y-30153504D01*
X55034971Y-30145446D01*
X55013347Y-30135218D01*
X54992830Y-30122921D01*
X54973617Y-30108671D01*
X54955893Y-30092607D01*
X54939829Y-30074883D01*
X54925579Y-30055670D01*
X54913282Y-30035153D01*
X54903054Y-30013529D01*
X54894996Y-29991007D01*
X54889184Y-29967803D01*
X54885674Y-29944142D01*
X54884500Y-29920250D01*
X54884500Y-29007750D01*
X54885674Y-28983858D01*
X54889184Y-28960197D01*
X54894996Y-28936993D01*
X54903054Y-28914471D01*
X54913282Y-28892847D01*
X54925579Y-28872330D01*
X54939829Y-28853117D01*
X54955893Y-28835393D01*
X54973617Y-28819329D01*
X54992830Y-28805079D01*
X55013347Y-28792782D01*
X55034971Y-28782554D01*
X55057493Y-28774496D01*
X55080697Y-28768684D01*
X55104358Y-28765174D01*
X55128250Y-28764000D01*
X55615750Y-28764000D01*
X55639642Y-28765174D01*
G37*
%TD.AperFunction*%
%TA.AperFunction,SMDPad,CuDef*%
%TO.P,R2,2*%
%TO.N,Net-(D1-Pad1)*%
G36*
X57514642Y-28765174D02*
G01*
X57538303Y-28768684D01*
X57561507Y-28774496D01*
X57584029Y-28782554D01*
X57605653Y-28792782D01*
X57626170Y-28805079D01*
X57645383Y-28819329D01*
X57663107Y-28835393D01*
X57679171Y-28853117D01*
X57693421Y-28872330D01*
X57705718Y-28892847D01*
X57715946Y-28914471D01*
X57724004Y-28936993D01*
X57729816Y-28960197D01*
X57733326Y-28983858D01*
X57734500Y-29007750D01*
X57734500Y-29920250D01*
X57733326Y-29944142D01*
X57729816Y-29967803D01*
X57724004Y-29991007D01*
X57715946Y-30013529D01*
X57705718Y-30035153D01*
X57693421Y-30055670D01*
X57679171Y-30074883D01*
X57663107Y-30092607D01*
X57645383Y-30108671D01*
X57626170Y-30122921D01*
X57605653Y-30135218D01*
X57584029Y-30145446D01*
X57561507Y-30153504D01*
X57538303Y-30159316D01*
X57514642Y-30162826D01*
X57490750Y-30164000D01*
X57003250Y-30164000D01*
X56979358Y-30162826D01*
X56955697Y-30159316D01*
X56932493Y-30153504D01*
X56909971Y-30145446D01*
X56888347Y-30135218D01*
X56867830Y-30122921D01*
X56848617Y-30108671D01*
X56830893Y-30092607D01*
X56814829Y-30074883D01*
X56800579Y-30055670D01*
X56788282Y-30035153D01*
X56778054Y-30013529D01*
X56769996Y-29991007D01*
X56764184Y-29967803D01*
X56760674Y-29944142D01*
X56759500Y-29920250D01*
X56759500Y-29007750D01*
X56760674Y-28983858D01*
X56764184Y-28960197D01*
X56769996Y-28936993D01*
X56778054Y-28914471D01*
X56788282Y-28892847D01*
X56800579Y-28872330D01*
X56814829Y-28853117D01*
X56830893Y-28835393D01*
X56848617Y-28819329D01*
X56867830Y-28805079D01*
X56888347Y-28792782D01*
X56909971Y-28782554D01*
X56932493Y-28774496D01*
X56955697Y-28768684D01*
X56979358Y-28765174D01*
X57003250Y-28764000D01*
X57490750Y-28764000D01*
X57514642Y-28765174D01*
G37*
%TD.AperFunction*%
%TD*%
%TA.AperFunction,SMDPad,CuDef*%
%TO.P,R3,1*%
%TO.N,Net-(D2-Pad2)*%
G36*
X55639642Y-25463174D02*
G01*
X55663303Y-25466684D01*
X55686507Y-25472496D01*
X55709029Y-25480554D01*
X55730653Y-25490782D01*
X55751170Y-25503079D01*
X55770383Y-25517329D01*
X55788107Y-25533393D01*
X55804171Y-25551117D01*
X55818421Y-25570330D01*
X55830718Y-25590847D01*
X55840946Y-25612471D01*
X55849004Y-25634993D01*
X55854816Y-25658197D01*
X55858326Y-25681858D01*
X55859500Y-25705750D01*
X55859500Y-26618250D01*
X55858326Y-26642142D01*
X55854816Y-26665803D01*
X55849004Y-26689007D01*
X55840946Y-26711529D01*
X55830718Y-26733153D01*
X55818421Y-26753670D01*
X55804171Y-26772883D01*
X55788107Y-26790607D01*
X55770383Y-26806671D01*
X55751170Y-26820921D01*
X55730653Y-26833218D01*
X55709029Y-26843446D01*
X55686507Y-26851504D01*
X55663303Y-26857316D01*
X55639642Y-26860826D01*
X55615750Y-26862000D01*
X55128250Y-26862000D01*
X55104358Y-26860826D01*
X55080697Y-26857316D01*
X55057493Y-26851504D01*
X55034971Y-26843446D01*
X55013347Y-26833218D01*
X54992830Y-26820921D01*
X54973617Y-26806671D01*
X54955893Y-26790607D01*
X54939829Y-26772883D01*
X54925579Y-26753670D01*
X54913282Y-26733153D01*
X54903054Y-26711529D01*
X54894996Y-26689007D01*
X54889184Y-26665803D01*
X54885674Y-26642142D01*
X54884500Y-26618250D01*
X54884500Y-25705750D01*
X54885674Y-25681858D01*
X54889184Y-25658197D01*
X54894996Y-25634993D01*
X54903054Y-25612471D01*
X54913282Y-25590847D01*
X54925579Y-25570330D01*
X54939829Y-25551117D01*
X54955893Y-25533393D01*
X54973617Y-25517329D01*
X54992830Y-25503079D01*
X55013347Y-25490782D01*
X55034971Y-25480554D01*
X55057493Y-25472496D01*
X55080697Y-25466684D01*
X55104358Y-25463174D01*
X55128250Y-25462000D01*
X55615750Y-25462000D01*
X55639642Y-25463174D01*
G37*
%TD.AperFunction*%
%TA.AperFunction,SMDPad,CuDef*%
%TO.P,R3,2*%
%TO.N,A*%
G36*
X57514642Y-25463174D02*
G01*
X57538303Y-25466684D01*
X57561507Y-25472496D01*
X57584029Y-25480554D01*
X57605653Y-25490782D01*
X57626170Y-25503079D01*
X57645383Y-25517329D01*
X57663107Y-25533393D01*
X57679171Y-25551117D01*
X57693421Y-25570330D01*
X57705718Y-25590847D01*
X57715946Y-25612471D01*
X57724004Y-25634993D01*
X57729816Y-25658197D01*
X57733326Y-25681858D01*
X57734500Y-25705750D01*
X57734500Y-26618250D01*
X57733326Y-26642142D01*
X57729816Y-26665803D01*
X57724004Y-26689007D01*
X57715946Y-26711529D01*
X57705718Y-26733153D01*
X57693421Y-26753670D01*
X57679171Y-26772883D01*
X57663107Y-26790607D01*
X57645383Y-26806671D01*
X57626170Y-26820921D01*
X57605653Y-26833218D01*
X57584029Y-26843446D01*
X57561507Y-26851504D01*
X57538303Y-26857316D01*
X57514642Y-26860826D01*
X57490750Y-26862000D01*
X57003250Y-26862000D01*
X56979358Y-26860826D01*
X56955697Y-26857316D01*
X56932493Y-26851504D01*
X56909971Y-26843446D01*
X56888347Y-26833218D01*
X56867830Y-26820921D01*
X56848617Y-26806671D01*
X56830893Y-26790607D01*
X56814829Y-26772883D01*
X56800579Y-26753670D01*
X56788282Y-26733153D01*
X56778054Y-26711529D01*
X56769996Y-26689007D01*
X56764184Y-26665803D01*
X56760674Y-26642142D01*
X56759500Y-26618250D01*
X56759500Y-25705750D01*
X56760674Y-25681858D01*
X56764184Y-25658197D01*
X56769996Y-25634993D01*
X56778054Y-25612471D01*
X56788282Y-25590847D01*
X56800579Y-25570330D01*
X56814829Y-25551117D01*
X56830893Y-25533393D01*
X56848617Y-25517329D01*
X56867830Y-25503079D01*
X56888347Y-25490782D01*
X56909971Y-25480554D01*
X56932493Y-25472496D01*
X56955697Y-25466684D01*
X56979358Y-25463174D01*
X57003250Y-25462000D01*
X57490750Y-25462000D01*
X57514642Y-25463174D01*
G37*
%TD.AperFunction*%
%TD*%
%TA.AperFunction,SMDPad,CuDef*%
%TO.P,R4,2*%
%TO.N,3V3*%
G36*
X62497642Y-32067174D02*
G01*
X62521303Y-32070684D01*
X62544507Y-32076496D01*
X62567029Y-32084554D01*
X62588653Y-32094782D01*
X62609170Y-32107079D01*
X62628383Y-32121329D01*
X62646107Y-32137393D01*
X62662171Y-32155117D01*
X62676421Y-32174330D01*
X62688718Y-32194847D01*
X62698946Y-32216471D01*
X62707004Y-32238993D01*
X62712816Y-32262197D01*
X62716326Y-32285858D01*
X62717500Y-32309750D01*
X62717500Y-33222250D01*
X62716326Y-33246142D01*
X62712816Y-33269803D01*
X62707004Y-33293007D01*
X62698946Y-33315529D01*
X62688718Y-33337153D01*
X62676421Y-33357670D01*
X62662171Y-33376883D01*
X62646107Y-33394607D01*
X62628383Y-33410671D01*
X62609170Y-33424921D01*
X62588653Y-33437218D01*
X62567029Y-33447446D01*
X62544507Y-33455504D01*
X62521303Y-33461316D01*
X62497642Y-33464826D01*
X62473750Y-33466000D01*
X61986250Y-33466000D01*
X61962358Y-33464826D01*
X61938697Y-33461316D01*
X61915493Y-33455504D01*
X61892971Y-33447446D01*
X61871347Y-33437218D01*
X61850830Y-33424921D01*
X61831617Y-33410671D01*
X61813893Y-33394607D01*
X61797829Y-33376883D01*
X61783579Y-33357670D01*
X61771282Y-33337153D01*
X61761054Y-33315529D01*
X61752996Y-33293007D01*
X61747184Y-33269803D01*
X61743674Y-33246142D01*
X61742500Y-33222250D01*
X61742500Y-32309750D01*
X61743674Y-32285858D01*
X61747184Y-32262197D01*
X61752996Y-32238993D01*
X61761054Y-32216471D01*
X61771282Y-32194847D01*
X61783579Y-32174330D01*
X61797829Y-32155117D01*
X61813893Y-32137393D01*
X61831617Y-32121329D01*
X61850830Y-32107079D01*
X61871347Y-32094782D01*
X61892971Y-32084554D01*
X61915493Y-32076496D01*
X61938697Y-32070684D01*
X61962358Y-32067174D01*
X61986250Y-32066000D01*
X62473750Y-32066000D01*
X62497642Y-32067174D01*
G37*
%TD.AperFunction*%
%TA.AperFunction,SMDPad,CuDef*%
%TO.P,R4,1*%
%TO.N,Net-(Q1-Pad3)*%
G36*
X60622642Y-32067174D02*
G01*
X60646303Y-32070684D01*
X60669507Y-32076496D01*
X60692029Y-32084554D01*
X60713653Y-32094782D01*
X60734170Y-32107079D01*
X60753383Y-32121329D01*
X60771107Y-32137393D01*
X60787171Y-32155117D01*
X60801421Y-32174330D01*
X60813718Y-32194847D01*
X60823946Y-32216471D01*
X60832004Y-32238993D01*
X60837816Y-32262197D01*
X60841326Y-32285858D01*
X60842500Y-32309750D01*
X60842500Y-33222250D01*
X60841326Y-33246142D01*
X60837816Y-33269803D01*
X60832004Y-33293007D01*
X60823946Y-33315529D01*
X60813718Y-33337153D01*
X60801421Y-33357670D01*
X60787171Y-33376883D01*
X60771107Y-33394607D01*
X60753383Y-33410671D01*
X60734170Y-33424921D01*
X60713653Y-33437218D01*
X60692029Y-33447446D01*
X60669507Y-33455504D01*
X60646303Y-33461316D01*
X60622642Y-33464826D01*
X60598750Y-33466000D01*
X60111250Y-33466000D01*
X60087358Y-33464826D01*
X60063697Y-33461316D01*
X60040493Y-33455504D01*
X60017971Y-33447446D01*
X59996347Y-33437218D01*
X59975830Y-33424921D01*
X59956617Y-33410671D01*
X59938893Y-33394607D01*
X59922829Y-33376883D01*
X59908579Y-33357670D01*
X59896282Y-33337153D01*
X59886054Y-33315529D01*
X59877996Y-33293007D01*
X59872184Y-33269803D01*
X59868674Y-33246142D01*
X59867500Y-33222250D01*
X59867500Y-32309750D01*
X59868674Y-32285858D01*
X59872184Y-32262197D01*
X59877996Y-32238993D01*
X59886054Y-32216471D01*
X59896282Y-32194847D01*
X59908579Y-32174330D01*
X59922829Y-32155117D01*
X59938893Y-32137393D01*
X59956617Y-32121329D01*
X59975830Y-32107079D01*
X59996347Y-32094782D01*
X60017971Y-32084554D01*
X60040493Y-32076496D01*
X60063697Y-32070684D01*
X60087358Y-32067174D01*
X60111250Y-32066000D01*
X60598750Y-32066000D01*
X60622642Y-32067174D01*
G37*
%TD.AperFunction*%
%TD*%
%TA.AperFunction,SMDPad,CuDef*%
%TO.P,R5,2*%
%TO.N,GND*%
G36*
X62594642Y-28765174D02*
G01*
X62618303Y-28768684D01*
X62641507Y-28774496D01*
X62664029Y-28782554D01*
X62685653Y-28792782D01*
X62706170Y-28805079D01*
X62725383Y-28819329D01*
X62743107Y-28835393D01*
X62759171Y-28853117D01*
X62773421Y-28872330D01*
X62785718Y-28892847D01*
X62795946Y-28914471D01*
X62804004Y-28936993D01*
X62809816Y-28960197D01*
X62813326Y-28983858D01*
X62814500Y-29007750D01*
X62814500Y-29920250D01*
X62813326Y-29944142D01*
X62809816Y-29967803D01*
X62804004Y-29991007D01*
X62795946Y-30013529D01*
X62785718Y-30035153D01*
X62773421Y-30055670D01*
X62759171Y-30074883D01*
X62743107Y-30092607D01*
X62725383Y-30108671D01*
X62706170Y-30122921D01*
X62685653Y-30135218D01*
X62664029Y-30145446D01*
X62641507Y-30153504D01*
X62618303Y-30159316D01*
X62594642Y-30162826D01*
X62570750Y-30164000D01*
X62083250Y-30164000D01*
X62059358Y-30162826D01*
X62035697Y-30159316D01*
X62012493Y-30153504D01*
X61989971Y-30145446D01*
X61968347Y-30135218D01*
X61947830Y-30122921D01*
X61928617Y-30108671D01*
X61910893Y-30092607D01*
X61894829Y-30074883D01*
X61880579Y-30055670D01*
X61868282Y-30035153D01*
X61858054Y-30013529D01*
X61849996Y-29991007D01*
X61844184Y-29967803D01*
X61840674Y-29944142D01*
X61839500Y-29920250D01*
X61839500Y-29007750D01*
X61840674Y-28983858D01*
X61844184Y-28960197D01*
X61849996Y-28936993D01*
X61858054Y-28914471D01*
X61868282Y-28892847D01*
X61880579Y-28872330D01*
X61894829Y-28853117D01*
X61910893Y-28835393D01*
X61928617Y-28819329D01*
X61947830Y-28805079D01*
X61968347Y-28792782D01*
X61989971Y-28782554D01*
X62012493Y-28774496D01*
X62035697Y-28768684D01*
X62059358Y-28765174D01*
X62083250Y-28764000D01*
X62570750Y-28764000D01*
X62594642Y-28765174D01*
G37*
%TD.AperFunction*%
%TA.AperFunction,SMDPad,CuDef*%
%TO.P,R5,1*%
%TO.N,D7*%
G36*
X60719642Y-28765174D02*
G01*
X60743303Y-28768684D01*
X60766507Y-28774496D01*
X60789029Y-28782554D01*
X60810653Y-28792782D01*
X60831170Y-28805079D01*
X60850383Y-28819329D01*
X60868107Y-28835393D01*
X60884171Y-28853117D01*
X60898421Y-28872330D01*
X60910718Y-28892847D01*
X60920946Y-28914471D01*
X60929004Y-28936993D01*
X60934816Y-28960197D01*
X60938326Y-28983858D01*
X60939500Y-29007750D01*
X60939500Y-29920250D01*
X60938326Y-29944142D01*
X60934816Y-29967803D01*
X60929004Y-29991007D01*
X60920946Y-30013529D01*
X60910718Y-30035153D01*
X60898421Y-30055670D01*
X60884171Y-30074883D01*
X60868107Y-30092607D01*
X60850383Y-30108671D01*
X60831170Y-30122921D01*
X60810653Y-30135218D01*
X60789029Y-30145446D01*
X60766507Y-30153504D01*
X60743303Y-30159316D01*
X60719642Y-30162826D01*
X60695750Y-30164000D01*
X60208250Y-30164000D01*
X60184358Y-30162826D01*
X60160697Y-30159316D01*
X60137493Y-30153504D01*
X60114971Y-30145446D01*
X60093347Y-30135218D01*
X60072830Y-30122921D01*
X60053617Y-30108671D01*
X60035893Y-30092607D01*
X60019829Y-30074883D01*
X60005579Y-30055670D01*
X59993282Y-30035153D01*
X59983054Y-30013529D01*
X59974996Y-29991007D01*
X59969184Y-29967803D01*
X59965674Y-29944142D01*
X59964500Y-29920250D01*
X59964500Y-29007750D01*
X59965674Y-28983858D01*
X59969184Y-28960197D01*
X59974996Y-28936993D01*
X59983054Y-28914471D01*
X59993282Y-28892847D01*
X60005579Y-28872330D01*
X60019829Y-28853117D01*
X60035893Y-28835393D01*
X60053617Y-28819329D01*
X60072830Y-28805079D01*
X60093347Y-28792782D01*
X60114971Y-28782554D01*
X60137493Y-28774496D01*
X60160697Y-28768684D01*
X60184358Y-28765174D01*
X60208250Y-28764000D01*
X60695750Y-28764000D01*
X60719642Y-28765174D01*
G37*
%TD.AperFunction*%
%TD*%
%TA.AperFunction,SMDPad,CuDef*%
%TO.P,R6,1*%
%TO.N,Net-(Q2-Pad2)*%
G36*
X60719642Y-25463174D02*
G01*
X60743303Y-25466684D01*
X60766507Y-25472496D01*
X60789029Y-25480554D01*
X60810653Y-25490782D01*
X60831170Y-25503079D01*
X60850383Y-25517329D01*
X60868107Y-25533393D01*
X60884171Y-25551117D01*
X60898421Y-25570330D01*
X60910718Y-25590847D01*
X60920946Y-25612471D01*
X60929004Y-25634993D01*
X60934816Y-25658197D01*
X60938326Y-25681858D01*
X60939500Y-25705750D01*
X60939500Y-26618250D01*
X60938326Y-26642142D01*
X60934816Y-26665803D01*
X60929004Y-26689007D01*
X60920946Y-26711529D01*
X60910718Y-26733153D01*
X60898421Y-26753670D01*
X60884171Y-26772883D01*
X60868107Y-26790607D01*
X60850383Y-26806671D01*
X60831170Y-26820921D01*
X60810653Y-26833218D01*
X60789029Y-26843446D01*
X60766507Y-26851504D01*
X60743303Y-26857316D01*
X60719642Y-26860826D01*
X60695750Y-26862000D01*
X60208250Y-26862000D01*
X60184358Y-26860826D01*
X60160697Y-26857316D01*
X60137493Y-26851504D01*
X60114971Y-26843446D01*
X60093347Y-26833218D01*
X60072830Y-26820921D01*
X60053617Y-26806671D01*
X60035893Y-26790607D01*
X60019829Y-26772883D01*
X60005579Y-26753670D01*
X59993282Y-26733153D01*
X59983054Y-26711529D01*
X59974996Y-26689007D01*
X59969184Y-26665803D01*
X59965674Y-26642142D01*
X59964500Y-26618250D01*
X59964500Y-25705750D01*
X59965674Y-25681858D01*
X59969184Y-25658197D01*
X59974996Y-25634993D01*
X59983054Y-25612471D01*
X59993282Y-25590847D01*
X60005579Y-25570330D01*
X60019829Y-25551117D01*
X60035893Y-25533393D01*
X60053617Y-25517329D01*
X60072830Y-25503079D01*
X60093347Y-25490782D01*
X60114971Y-25480554D01*
X60137493Y-25472496D01*
X60160697Y-25466684D01*
X60184358Y-25463174D01*
X60208250Y-25462000D01*
X60695750Y-25462000D01*
X60719642Y-25463174D01*
G37*
%TD.AperFunction*%
%TA.AperFunction,SMDPad,CuDef*%
%TO.P,R6,2*%
%TO.N,Net-(R6-Pad2)*%
G36*
X62594642Y-25463174D02*
G01*
X62618303Y-25466684D01*
X62641507Y-25472496D01*
X62664029Y-25480554D01*
X62685653Y-25490782D01*
X62706170Y-25503079D01*
X62725383Y-25517329D01*
X62743107Y-25533393D01*
X62759171Y-25551117D01*
X62773421Y-25570330D01*
X62785718Y-25590847D01*
X62795946Y-25612471D01*
X62804004Y-25634993D01*
X62809816Y-25658197D01*
X62813326Y-25681858D01*
X62814500Y-25705750D01*
X62814500Y-26618250D01*
X62813326Y-26642142D01*
X62809816Y-26665803D01*
X62804004Y-26689007D01*
X62795946Y-26711529D01*
X62785718Y-26733153D01*
X62773421Y-26753670D01*
X62759171Y-26772883D01*
X62743107Y-26790607D01*
X62725383Y-26806671D01*
X62706170Y-26820921D01*
X62685653Y-26833218D01*
X62664029Y-26843446D01*
X62641507Y-26851504D01*
X62618303Y-26857316D01*
X62594642Y-26860826D01*
X62570750Y-26862000D01*
X62083250Y-26862000D01*
X62059358Y-26860826D01*
X62035697Y-26857316D01*
X62012493Y-26851504D01*
X61989971Y-26843446D01*
X61968347Y-26833218D01*
X61947830Y-26820921D01*
X61928617Y-26806671D01*
X61910893Y-26790607D01*
X61894829Y-26772883D01*
X61880579Y-26753670D01*
X61868282Y-26733153D01*
X61858054Y-26711529D01*
X61849996Y-26689007D01*
X61844184Y-26665803D01*
X61840674Y-26642142D01*
X61839500Y-26618250D01*
X61839500Y-25705750D01*
X61840674Y-25681858D01*
X61844184Y-25658197D01*
X61849996Y-25634993D01*
X61858054Y-25612471D01*
X61868282Y-25590847D01*
X61880579Y-25570330D01*
X61894829Y-25551117D01*
X61910893Y-25533393D01*
X61928617Y-25517329D01*
X61947830Y-25503079D01*
X61968347Y-25490782D01*
X61989971Y-25480554D01*
X62012493Y-25472496D01*
X62035697Y-25466684D01*
X62059358Y-25463174D01*
X62083250Y-25462000D01*
X62570750Y-25462000D01*
X62594642Y-25463174D01*
G37*
%TD.AperFunction*%
%TD*%
%TA.AperFunction,SMDPad,CuDef*%
%TO.P,R7,1*%
%TO.N,D3*%
G36*
X65672642Y-28765174D02*
G01*
X65696303Y-28768684D01*
X65719507Y-28774496D01*
X65742029Y-28782554D01*
X65763653Y-28792782D01*
X65784170Y-28805079D01*
X65803383Y-28819329D01*
X65821107Y-28835393D01*
X65837171Y-28853117D01*
X65851421Y-28872330D01*
X65863718Y-28892847D01*
X65873946Y-28914471D01*
X65882004Y-28936993D01*
X65887816Y-28960197D01*
X65891326Y-28983858D01*
X65892500Y-29007750D01*
X65892500Y-29920250D01*
X65891326Y-29944142D01*
X65887816Y-29967803D01*
X65882004Y-29991007D01*
X65873946Y-30013529D01*
X65863718Y-30035153D01*
X65851421Y-30055670D01*
X65837171Y-30074883D01*
X65821107Y-30092607D01*
X65803383Y-30108671D01*
X65784170Y-30122921D01*
X65763653Y-30135218D01*
X65742029Y-30145446D01*
X65719507Y-30153504D01*
X65696303Y-30159316D01*
X65672642Y-30162826D01*
X65648750Y-30164000D01*
X65161250Y-30164000D01*
X65137358Y-30162826D01*
X65113697Y-30159316D01*
X65090493Y-30153504D01*
X65067971Y-30145446D01*
X65046347Y-30135218D01*
X65025830Y-30122921D01*
X65006617Y-30108671D01*
X64988893Y-30092607D01*
X64972829Y-30074883D01*
X64958579Y-30055670D01*
X64946282Y-30035153D01*
X64936054Y-30013529D01*
X64927996Y-29991007D01*
X64922184Y-29967803D01*
X64918674Y-29944142D01*
X64917500Y-29920250D01*
X64917500Y-29007750D01*
X64918674Y-28983858D01*
X64922184Y-28960197D01*
X64927996Y-28936993D01*
X64936054Y-28914471D01*
X64946282Y-28892847D01*
X64958579Y-28872330D01*
X64972829Y-28853117D01*
X64988893Y-28835393D01*
X65006617Y-28819329D01*
X65025830Y-28805079D01*
X65046347Y-28792782D01*
X65067971Y-28782554D01*
X65090493Y-28774496D01*
X65113697Y-28768684D01*
X65137358Y-28765174D01*
X65161250Y-28764000D01*
X65648750Y-28764000D01*
X65672642Y-28765174D01*
G37*
%TD.AperFunction*%
%TA.AperFunction,SMDPad,CuDef*%
%TO.P,R7,2*%
%TO.N,3V3*%
G36*
X67547642Y-28765174D02*
G01*
X67571303Y-28768684D01*
X67594507Y-28774496D01*
X67617029Y-28782554D01*
X67638653Y-28792782D01*
X67659170Y-28805079D01*
X67678383Y-28819329D01*
X67696107Y-28835393D01*
X67712171Y-28853117D01*
X67726421Y-28872330D01*
X67738718Y-28892847D01*
X67748946Y-28914471D01*
X67757004Y-28936993D01*
X67762816Y-28960197D01*
X67766326Y-28983858D01*
X67767500Y-29007750D01*
X67767500Y-29920250D01*
X67766326Y-29944142D01*
X67762816Y-29967803D01*
X67757004Y-29991007D01*
X67748946Y-30013529D01*
X67738718Y-30035153D01*
X67726421Y-30055670D01*
X67712171Y-30074883D01*
X67696107Y-30092607D01*
X67678383Y-30108671D01*
X67659170Y-30122921D01*
X67638653Y-30135218D01*
X67617029Y-30145446D01*
X67594507Y-30153504D01*
X67571303Y-30159316D01*
X67547642Y-30162826D01*
X67523750Y-30164000D01*
X67036250Y-30164000D01*
X67012358Y-30162826D01*
X66988697Y-30159316D01*
X66965493Y-30153504D01*
X66942971Y-30145446D01*
X66921347Y-30135218D01*
X66900830Y-30122921D01*
X66881617Y-30108671D01*
X66863893Y-30092607D01*
X66847829Y-30074883D01*
X66833579Y-30055670D01*
X66821282Y-30035153D01*
X66811054Y-30013529D01*
X66802996Y-29991007D01*
X66797184Y-29967803D01*
X66793674Y-29944142D01*
X66792500Y-29920250D01*
X66792500Y-29007750D01*
X66793674Y-28983858D01*
X66797184Y-28960197D01*
X66802996Y-28936993D01*
X66811054Y-28914471D01*
X66821282Y-28892847D01*
X66833579Y-28872330D01*
X66847829Y-28853117D01*
X66863893Y-28835393D01*
X66881617Y-28819329D01*
X66900830Y-28805079D01*
X66921347Y-28792782D01*
X66942971Y-28782554D01*
X66965493Y-28774496D01*
X66988697Y-28768684D01*
X67012358Y-28765174D01*
X67036250Y-28764000D01*
X67523750Y-28764000D01*
X67547642Y-28765174D01*
G37*
%TD.AperFunction*%
%TD*%
%TA.AperFunction,SMDPad,CuDef*%
%TO.P,R8,2*%
%TO.N,A*%
G36*
X67547642Y-25463174D02*
G01*
X67571303Y-25466684D01*
X67594507Y-25472496D01*
X67617029Y-25480554D01*
X67638653Y-25490782D01*
X67659170Y-25503079D01*
X67678383Y-25517329D01*
X67696107Y-25533393D01*
X67712171Y-25551117D01*
X67726421Y-25570330D01*
X67738718Y-25590847D01*
X67748946Y-25612471D01*
X67757004Y-25634993D01*
X67762816Y-25658197D01*
X67766326Y-25681858D01*
X67767500Y-25705750D01*
X67767500Y-26618250D01*
X67766326Y-26642142D01*
X67762816Y-26665803D01*
X67757004Y-26689007D01*
X67748946Y-26711529D01*
X67738718Y-26733153D01*
X67726421Y-26753670D01*
X67712171Y-26772883D01*
X67696107Y-26790607D01*
X67678383Y-26806671D01*
X67659170Y-26820921D01*
X67638653Y-26833218D01*
X67617029Y-26843446D01*
X67594507Y-26851504D01*
X67571303Y-26857316D01*
X67547642Y-26860826D01*
X67523750Y-26862000D01*
X67036250Y-26862000D01*
X67012358Y-26860826D01*
X66988697Y-26857316D01*
X66965493Y-26851504D01*
X66942971Y-26843446D01*
X66921347Y-26833218D01*
X66900830Y-26820921D01*
X66881617Y-26806671D01*
X66863893Y-26790607D01*
X66847829Y-26772883D01*
X66833579Y-26753670D01*
X66821282Y-26733153D01*
X66811054Y-26711529D01*
X66802996Y-26689007D01*
X66797184Y-26665803D01*
X66793674Y-26642142D01*
X66792500Y-26618250D01*
X66792500Y-25705750D01*
X66793674Y-25681858D01*
X66797184Y-25658197D01*
X66802996Y-25634993D01*
X66811054Y-25612471D01*
X66821282Y-25590847D01*
X66833579Y-25570330D01*
X66847829Y-25551117D01*
X66863893Y-25533393D01*
X66881617Y-25517329D01*
X66900830Y-25503079D01*
X66921347Y-25490782D01*
X66942971Y-25480554D01*
X66965493Y-25472496D01*
X66988697Y-25466684D01*
X67012358Y-25463174D01*
X67036250Y-25462000D01*
X67523750Y-25462000D01*
X67547642Y-25463174D01*
G37*
%TD.AperFunction*%
%TA.AperFunction,SMDPad,CuDef*%
%TO.P,R8,1*%
%TO.N,Net-(D5-Pad2)*%
G36*
X65672642Y-25463174D02*
G01*
X65696303Y-25466684D01*
X65719507Y-25472496D01*
X65742029Y-25480554D01*
X65763653Y-25490782D01*
X65784170Y-25503079D01*
X65803383Y-25517329D01*
X65821107Y-25533393D01*
X65837171Y-25551117D01*
X65851421Y-25570330D01*
X65863718Y-25590847D01*
X65873946Y-25612471D01*
X65882004Y-25634993D01*
X65887816Y-25658197D01*
X65891326Y-25681858D01*
X65892500Y-25705750D01*
X65892500Y-26618250D01*
X65891326Y-26642142D01*
X65887816Y-26665803D01*
X65882004Y-26689007D01*
X65873946Y-26711529D01*
X65863718Y-26733153D01*
X65851421Y-26753670D01*
X65837171Y-26772883D01*
X65821107Y-26790607D01*
X65803383Y-26806671D01*
X65784170Y-26820921D01*
X65763653Y-26833218D01*
X65742029Y-26843446D01*
X65719507Y-26851504D01*
X65696303Y-26857316D01*
X65672642Y-26860826D01*
X65648750Y-26862000D01*
X65161250Y-26862000D01*
X65137358Y-26860826D01*
X65113697Y-26857316D01*
X65090493Y-26851504D01*
X65067971Y-26843446D01*
X65046347Y-26833218D01*
X65025830Y-26820921D01*
X65006617Y-26806671D01*
X64988893Y-26790607D01*
X64972829Y-26772883D01*
X64958579Y-26753670D01*
X64946282Y-26733153D01*
X64936054Y-26711529D01*
X64927996Y-26689007D01*
X64922184Y-26665803D01*
X64918674Y-26642142D01*
X64917500Y-26618250D01*
X64917500Y-25705750D01*
X64918674Y-25681858D01*
X64922184Y-25658197D01*
X64927996Y-25634993D01*
X64936054Y-25612471D01*
X64946282Y-25590847D01*
X64958579Y-25570330D01*
X64972829Y-25551117D01*
X64988893Y-25533393D01*
X65006617Y-25517329D01*
X65025830Y-25503079D01*
X65046347Y-25490782D01*
X65067971Y-25480554D01*
X65090493Y-25472496D01*
X65113697Y-25466684D01*
X65137358Y-25463174D01*
X65161250Y-25462000D01*
X65648750Y-25462000D01*
X65672642Y-25463174D01*
G37*
%TD.AperFunction*%
%TD*%
D18*
%TO.P,U1,1*%
%TO.N,Net-(D2-Pad1)*%
X55118000Y-23622000D03*
D19*
%TO.P,U1,3*%
%TO.N,D7*%
X57658000Y-16002000D03*
%TO.P,U1,2*%
%TO.N,Net-(D1-Pad1)*%
X57658000Y-23622000D03*
%TO.P,U1,4*%
%TO.N,3V3*%
X55118000Y-16002000D03*
%TD*%
%TO.P,U2,4*%
%TO.N,Net-(D3-Pad1)*%
X63246000Y-16002000D03*
%TO.P,U2,2*%
%TO.N,GND*%
X65786000Y-23622000D03*
%TO.P,U2,3*%
%TO.N,Net-(R6-Pad2)*%
X65786000Y-16002000D03*
D18*
%TO.P,U2,1*%
%TO.N,Net-(Q1-Pad3)*%
X63246000Y-23622000D03*
%TD*%
D20*
%TO.N,Net-(D2-Pad2)*%
X55133700Y-28155900D03*
%TO.N,Net-(D3-Pad2)*%
X60928000Y-39227200D03*
%TO.N,A*%
X59373300Y-30535800D03*
%TO.N,Net-(D5-Pad2)*%
X65282000Y-27997900D03*
%TO.N,D8*%
X75605200Y-27681600D03*
%TD*%
D21*
%TO.N,B*%
X52578000Y-39878000D02*
X53753300Y-39878000D01*
X74882000Y-31430000D02*
X74882000Y-33749300D01*
X74882000Y-33749300D02*
X67578000Y-41053300D01*
X67578000Y-41053300D02*
X54928600Y-41053300D01*
X54928600Y-41053300D02*
X53753300Y-39878000D01*
%TO.N,Net-(D1-Pad1)*%
X57658000Y-23622000D02*
X57658000Y-24747300D01*
X57658000Y-24747300D02*
X58063600Y-25152900D01*
X58063600Y-25152900D02*
X58063600Y-28647400D01*
X58063600Y-28647400D02*
X57247000Y-29464000D01*
%TO.N,Net-(D2-Pad2)*%
X55372000Y-26162000D02*
X55133700Y-26400300D01*
X55133700Y-26400300D02*
X55133700Y-28155900D01*
%TO.N,Net-(D3-Pad2)*%
X71882000Y-30480000D02*
X71882000Y-31205300D01*
X60928000Y-39227200D02*
X63992600Y-36162600D01*
X63992600Y-36162600D02*
X66924700Y-36162600D01*
X66924700Y-36162600D02*
X71882000Y-31205300D01*
%TO.N,A*%
X67280000Y-26162000D02*
X66342500Y-27099500D01*
X66342500Y-27099500D02*
X66342500Y-30041600D01*
X66342500Y-30041600D02*
X65398000Y-30986100D01*
X65398000Y-30986100D02*
X59823600Y-30986100D01*
X59823600Y-30986100D02*
X59373300Y-30535800D01*
X55590800Y-29316500D02*
X55443300Y-29464000D01*
X55443300Y-29464000D02*
X55372000Y-29464000D01*
X57247000Y-26162000D02*
X57247000Y-27660300D01*
X57247000Y-27660300D02*
X55590800Y-29316500D01*
X59373300Y-30535800D02*
X56810000Y-30535800D01*
X56810000Y-30535800D02*
X55590800Y-29316500D01*
%TO.N,Net-(D5-Pad2)*%
X65405000Y-26162000D02*
X65282000Y-26285000D01*
X65282000Y-26285000D02*
X65282000Y-27997900D01*
%TO.N,3V3*%
X67280000Y-29464000D02*
X67280000Y-29741000D01*
X67280000Y-29741000D02*
X64255000Y-32766000D01*
X64255000Y-32766000D02*
X62230000Y-32766000D01*
X53979700Y-27168800D02*
X53979700Y-29640700D01*
X53979700Y-29640700D02*
X55325300Y-30986300D01*
X55325300Y-30986300D02*
X58022400Y-30986300D01*
X58022400Y-30986300D02*
X58472600Y-31436500D01*
X58472600Y-31436500D02*
X60900500Y-31436500D01*
X60900500Y-31436500D02*
X62230000Y-32766000D01*
X55118000Y-17127300D02*
X53979700Y-18265600D01*
X53979700Y-18265600D02*
X53979700Y-27168800D01*
X53979700Y-27168800D02*
X51757600Y-27168800D01*
X51757600Y-27168800D02*
X51135400Y-27791000D01*
X51135400Y-27791000D02*
X51135400Y-40102500D01*
X51135400Y-40102500D02*
X54254300Y-43221400D01*
X54254300Y-43221400D02*
X60747400Y-43221400D01*
X60747400Y-43221400D02*
X62738000Y-45212000D01*
X55118000Y-16002000D02*
X55118000Y-17127300D01*
X98552000Y-41910000D02*
X98552000Y-43085300D01*
X96520000Y-48006000D02*
X96520000Y-45117300D01*
X96520000Y-45117300D02*
X98552000Y-43085300D01*
X98552000Y-38608000D02*
X98552000Y-41910000D01*
%TO.N,GND*%
X62327000Y-29464000D02*
X63165100Y-28625900D01*
X63165100Y-28625900D02*
X63165100Y-25450700D01*
X63165100Y-25450700D02*
X62850100Y-25135700D01*
X62850100Y-25135700D02*
X62667600Y-25135700D01*
X62667600Y-25135700D02*
X62120600Y-24588700D01*
X62120600Y-24588700D02*
X62120600Y-22623200D01*
X62120600Y-22623200D02*
X62247200Y-22496600D01*
X62247200Y-22496600D02*
X64660600Y-22496600D01*
X64660600Y-22496600D02*
X65786000Y-23622000D01*
X70007700Y-20525600D02*
X74156700Y-24674700D01*
X74156700Y-24674700D02*
X74882000Y-24674700D01*
X70096400Y-17889200D02*
X70007600Y-17978000D01*
X70007600Y-17978000D02*
X70007600Y-20525600D01*
X70007600Y-20525600D02*
X70007700Y-20525600D01*
X66911300Y-23622000D02*
X70007700Y-20525600D01*
X65786000Y-23622000D02*
X66911300Y-23622000D01*
X86360000Y-48006000D02*
X87535300Y-48006000D01*
X99060000Y-48006000D02*
X97884700Y-48006000D01*
X97884700Y-48006000D02*
X97884700Y-48373300D01*
X97884700Y-48373300D02*
X97076700Y-49181300D01*
X97076700Y-49181300D02*
X88343200Y-49181300D01*
X88343200Y-49181300D02*
X87535300Y-48373400D01*
X87535300Y-48373400D02*
X87535300Y-48006000D01*
X74882000Y-25400000D02*
X74882000Y-24674700D01*
X81280000Y-48006000D02*
X80104700Y-48006000D01*
X71120000Y-48006000D02*
X72295300Y-48006000D01*
X72295300Y-48006000D02*
X72295300Y-48814000D01*
X72295300Y-48814000D02*
X72662600Y-49181300D01*
X72662600Y-49181300D02*
X79296800Y-49181300D01*
X79296800Y-49181300D02*
X80104700Y-48373400D01*
X80104700Y-48373400D02*
X80104700Y-48006000D01*
X81280000Y-48006000D02*
X82455300Y-48006000D01*
X86360000Y-48006000D02*
X85184700Y-48006000D01*
X85184700Y-48006000D02*
X85184700Y-48814000D01*
X85184700Y-48814000D02*
X84817400Y-49181300D01*
X84817400Y-49181300D02*
X82822500Y-49181300D01*
X82822500Y-49181300D02*
X82455300Y-48814100D01*
X82455300Y-48814100D02*
X82455300Y-48006000D01*
%TO.N,SCL*%
X88900000Y-46830700D02*
X87185700Y-45116400D01*
X87185700Y-45116400D02*
X87185700Y-16519000D01*
X87185700Y-16519000D02*
X86414700Y-15748000D01*
X88900000Y-48006000D02*
X88900000Y-46830700D01*
X86414700Y-15748000D02*
X85852000Y-15185300D01*
X85852000Y-15185300D02*
X85852000Y-12446000D01*
X85852000Y-15748000D02*
X86414700Y-15748000D01*
%TO.N,SDA*%
X88392000Y-12446000D02*
X88392000Y-13621300D01*
X88954700Y-15748000D02*
X88954700Y-14184000D01*
X88954700Y-14184000D02*
X88392000Y-13621300D01*
X88954700Y-15748000D02*
X89517300Y-15748000D01*
X88392000Y-15748000D02*
X88954700Y-15748000D01*
X91440000Y-48006000D02*
X91440000Y-46830700D01*
X91440000Y-46830700D02*
X89662000Y-45052700D01*
X89662000Y-45052700D02*
X89662000Y-15892700D01*
X89662000Y-15892700D02*
X89517300Y-15748000D01*
%TO.N,5V*%
X98552000Y-15748000D02*
X97426700Y-15748000D01*
X93980000Y-48006000D02*
X93980000Y-46830700D01*
X93980000Y-46830700D02*
X94742000Y-46068700D01*
X94742000Y-46068700D02*
X94742000Y-19558000D01*
X94742000Y-19558000D02*
X97426700Y-16873300D01*
X97426700Y-16873300D02*
X97426700Y-15748000D01*
%TO.N,D3*%
X65405000Y-29464000D02*
X64336900Y-30532100D01*
X64336900Y-30532100D02*
X61850900Y-30532100D01*
X61850900Y-30532100D02*
X61389500Y-30070700D01*
X61389500Y-30070700D02*
X61389500Y-28880000D01*
X61389500Y-28880000D02*
X59622600Y-27113100D01*
X59622600Y-27113100D02*
X59622600Y-17987700D01*
X59622600Y-17987700D02*
X67273000Y-10337300D01*
X67273000Y-10337300D02*
X93045300Y-10337300D01*
X93045300Y-10337300D02*
X94687700Y-11979700D01*
X94687700Y-11979700D02*
X94687700Y-16364000D01*
X94687700Y-16364000D02*
X93962200Y-17089500D01*
X93962200Y-17089500D02*
X93013900Y-17089500D01*
X93013900Y-17089500D02*
X92057300Y-16132900D01*
X92057300Y-16132900D02*
X92057300Y-15748000D01*
X90932000Y-15748000D02*
X92057300Y-15748000D01*
X76200000Y-48006000D02*
X76200000Y-39210700D01*
X76200000Y-39210700D02*
X84582000Y-30828700D01*
X84582000Y-30828700D02*
X84582000Y-12022300D01*
X84582000Y-12022300D02*
X85333600Y-11270700D01*
X85333600Y-11270700D02*
X88948800Y-11270700D01*
X88948800Y-11270700D02*
X89756700Y-12078600D01*
X89756700Y-12078600D02*
X89756700Y-12446000D01*
X90932000Y-15748000D02*
X90932000Y-14422700D01*
X90344400Y-12446000D02*
X90344400Y-13835100D01*
X90344400Y-13835100D02*
X90932000Y-14422700D01*
X90344400Y-12446000D02*
X89756700Y-12446000D01*
X90932000Y-12446000D02*
X90344400Y-12446000D01*
%TO.N,ESP_TX*%
X80772000Y-15748000D02*
X80772000Y-12446000D01*
%TO.N,ESP_RX*%
X83312000Y-15748000D02*
X83312000Y-12446000D01*
%TO.N,D4*%
X93472000Y-12446000D02*
X92296700Y-12446000D01*
X68580000Y-48006000D02*
X68580000Y-43391400D01*
X68580000Y-43391400D02*
X82042000Y-29929400D01*
X82042000Y-29929400D02*
X82042000Y-12050900D01*
X82042000Y-12050900D02*
X83305200Y-10787700D01*
X83305200Y-10787700D02*
X91005700Y-10787700D01*
X91005700Y-10787700D02*
X92296700Y-12078700D01*
X92296700Y-12078700D02*
X92296700Y-12446000D01*
X93472000Y-15748000D02*
X93472000Y-12446000D01*
%TO.N,RST*%
X80772000Y-38608000D02*
X80772000Y-41910000D01*
%TO.N,D0*%
X85852000Y-38608000D02*
X85852000Y-41910000D01*
%TO.N,D5*%
X88392000Y-38608000D02*
X88392000Y-41910000D01*
%TO.N,D6*%
X90932000Y-38608000D02*
X90932000Y-41910000D01*
%TO.N,D7*%
X60452000Y-29464000D02*
X59168100Y-28180100D01*
X59168100Y-28180100D02*
X59168100Y-18637400D01*
X59168100Y-18637400D02*
X57658000Y-17127300D01*
X57658000Y-16002000D02*
X57658000Y-17127300D01*
X93472000Y-38608000D02*
X93472000Y-41910000D01*
%TO.N,D8*%
X57247000Y-32766000D02*
X59261800Y-34780800D01*
X59261800Y-34780800D02*
X65605100Y-34780800D01*
X65605100Y-34780800D02*
X72704300Y-27681600D01*
X72704300Y-27681600D02*
X75605200Y-27681600D01*
X96012000Y-38608000D02*
X96012000Y-41910000D01*
%TO.N,Net-(Q1-Pad2)*%
X74882000Y-23500000D02*
X76157400Y-24775400D01*
X76157400Y-24775400D02*
X76157400Y-26005100D01*
X76157400Y-26005100D02*
X75494300Y-26668200D01*
X75494300Y-26668200D02*
X72444000Y-26668200D01*
X72444000Y-26668200D02*
X64781800Y-34330400D01*
X64781800Y-34330400D02*
X60325800Y-34330400D01*
X60325800Y-34330400D02*
X57716900Y-31721500D01*
X57716900Y-31721500D02*
X56416500Y-31721500D01*
X56416500Y-31721500D02*
X55372000Y-32766000D01*
%TO.N,Net-(Q1-Pad3)*%
X68093800Y-24783700D02*
X70273000Y-24783700D01*
X70273000Y-24783700D02*
X70606700Y-24450000D01*
X64371300Y-23622000D02*
X64371300Y-23903300D01*
X64371300Y-23903300D02*
X65251700Y-24783700D01*
X65251700Y-24783700D02*
X68093800Y-24783700D01*
X60355000Y-32766000D02*
X61399500Y-33810500D01*
X61399500Y-33810500D02*
X64439800Y-33810500D01*
X64439800Y-33810500D02*
X68093800Y-30156500D01*
X68093800Y-30156500D02*
X68093800Y-24783700D01*
X71882000Y-24450000D02*
X70606700Y-24450000D01*
X63246000Y-23622000D02*
X64371300Y-23622000D01*
%TO.N,Net-(Q2-Pad2)*%
X74882000Y-28804700D02*
X75507900Y-28804700D01*
X75507900Y-28804700D02*
X76641600Y-27671000D01*
X76641600Y-27671000D02*
X76641600Y-22856200D01*
X76641600Y-22856200D02*
X70404600Y-16619200D01*
X70404600Y-16619200D02*
X68395300Y-16619200D01*
X68395300Y-16619200D02*
X66636100Y-14860000D01*
X66636100Y-14860000D02*
X65313100Y-14860000D01*
X65313100Y-14860000D02*
X64516000Y-15657100D01*
X64516000Y-15657100D02*
X64516000Y-16532200D01*
X64516000Y-16532200D02*
X60452000Y-20596200D01*
X60452000Y-20596200D02*
X60452000Y-26162000D01*
X74882000Y-29530000D02*
X74882000Y-28804700D01*
%TO.N,Net-(R6-Pad2)*%
X65786000Y-16002000D02*
X65786000Y-17127300D01*
X65786000Y-17127300D02*
X61666000Y-21247300D01*
X61666000Y-21247300D02*
X61666000Y-25501000D01*
X61666000Y-25501000D02*
X62327000Y-26162000D01*
%TO.N,Net-(J11-Pad3)*%
X67056000Y-39878000D02*
X65880700Y-39878000D01*
X52230000Y-28262600D02*
X52230000Y-28596500D01*
X52230000Y-28596500D02*
X54319800Y-30686300D01*
X54319800Y-30686300D02*
X54319800Y-33644700D01*
X54319800Y-33644700D02*
X60627600Y-39952500D01*
X60627600Y-39952500D02*
X65806200Y-39952500D01*
X65806200Y-39952500D02*
X65880700Y-39878000D01*
%TO.N,PSU_OUT*%
X61373300Y-45212000D02*
X61373300Y-45577300D01*
X61373300Y-45577300D02*
X62191400Y-46395400D01*
X62191400Y-46395400D02*
X63246600Y-46395400D01*
X63246600Y-46395400D02*
X77112000Y-32530000D01*
X77112000Y-32530000D02*
X77112000Y-22364800D01*
X77112000Y-22364800D02*
X70096400Y-15349200D01*
X60198000Y-45212000D02*
X61373300Y-45212000D01*
%TD*%
M02*
