M48
; DRILL file {KiCad 5.1.5+dfsg1-2build2} date mar 06 jul 2021 16:49:57
; FORMAT={-:-/ absolute / inch / decimal}
; #@! TF.CreationDate,2021-07-06T16:49:57+02:00
; #@! TF.GenerationSoftware,Kicad,Pcbnew,5.1.5+dfsg1-2build2
; #@! TF.FileFunction,Plated,1,2,PTH
FMAT,2
INCH
T1C0.0157
T2C0.0300
T3C0.0315
T4C0.0394
T5C0.0866
%
G90
G05
T1
X2.1706Y-1.1085
X2.3375Y-1.2022
X2.3987Y-1.5444
X2.5702Y-1.1023
X2.9766Y-1.0898
T2
X2.0563Y-1.1127
X2.0563Y-1.2127
X2.0563Y-1.3127
X2.7597Y-0.6043
X2.7597Y-0.7043
T3
X2.49Y-0.63
X2.49Y-0.93
X2.59Y-0.63
X2.59Y-0.93
X2.17Y-0.63
X2.17Y-0.93
X2.27Y-0.63
X2.27Y-0.93
T4
X3.3Y-1.89
X3.4Y-1.89
X3.5Y-1.89
X3.6Y-1.89
X2.27Y-1.78
X2.37Y-1.78
X2.47Y-1.78
X2.64Y-1.47
X2.64Y-1.57
X3.7Y-1.89
X3.8Y-1.89
X3.9Y-1.89
X3.18Y-1.65
X3.28Y-1.65
X3.38Y-1.65
X3.48Y-1.65
X3.58Y-1.65
X3.68Y-1.65
X3.78Y-1.65
X3.88Y-1.65
X3.18Y-0.62
X3.18Y-1.52
X3.28Y-0.62
X3.28Y-1.52
X3.38Y-0.62
X3.38Y-1.52
X3.48Y-0.62
X3.48Y-1.52
X3.58Y-0.62
X3.58Y-1.52
X3.68Y-0.62
X3.68Y-1.52
X3.78Y-0.62
X3.78Y-1.52
X3.88Y-0.62
X3.88Y-1.52
X3.18Y-0.49
X3.28Y-0.49
X3.38Y-0.49
X3.48Y-0.49
X3.58Y-0.49
X3.68Y-0.49
X3.78Y-0.49
X3.88Y-0.49
X2.07Y-1.47
X2.07Y-1.57
X2.6Y-1.89
X2.7Y-1.89
X2.8Y-1.89
X2.9Y-1.89
X3.0Y-1.89
X3.1Y-1.89
X3.2Y-1.89
T5
X2.1Y-1.86
X2.1Y-0.46
T0
M30
