%TF.GenerationSoftware,KiCad,Pcbnew,5.1.6-c6e7f7d~87~ubuntu18.04.1*%
%TF.CreationDate,2020-09-18T10:49:30+02:00*%
%TF.ProjectId,panel,70616e65-6c2e-46b6-9963-61645f706362,rev?*%
%TF.SameCoordinates,Original*%
%TF.FileFunction,Soldermask,Bot*%
%TF.FilePolarity,Negative*%
%FSLAX46Y46*%
G04 Gerber Fmt 4.6, Leading zero omitted, Abs format (unit mm)*
G04 Created by KiCad (PCBNEW 5.1.6-c6e7f7d~87~ubuntu18.04.1) date 2020-09-18 10:49:30*
%MOMM*%
%LPD*%
G01*
G04 APERTURE LIST*
%ADD10R,1.700000X1.700000*%
%ADD11O,1.700000X1.700000*%
%ADD12R,2.000000X0.900000*%
%ADD13R,1.800000X1.800000*%
%ADD14O,1.800000X1.800000*%
%ADD15C,1.624000*%
%ADD16C,3.900000*%
G04 APERTURE END LIST*
D10*
%TO.C,U2*%
X111976006Y-119652011D03*
D11*
X114516006Y-112032011D03*
X114516006Y-119652011D03*
X111976006Y-112032011D03*
%TD*%
%TO.C,U1*%
X103848006Y-112032011D03*
X106388006Y-119652011D03*
X106388006Y-112032011D03*
D10*
X103848006Y-119652011D03*
%TD*%
%TO.C,R8*%
G36*
G01*
X113597506Y-122673261D02*
X113597506Y-121710761D01*
G75*
G02*
X113866256Y-121442011I268750J0D01*
G01*
X114403756Y-121442011D01*
G75*
G02*
X114672506Y-121710761I0J-268750D01*
G01*
X114672506Y-122673261D01*
G75*
G02*
X114403756Y-122942011I-268750J0D01*
G01*
X113866256Y-122942011D01*
G75*
G02*
X113597506Y-122673261I0J268750D01*
G01*
G37*
G36*
G01*
X115472506Y-122673261D02*
X115472506Y-121710761D01*
G75*
G02*
X115741256Y-121442011I268750J0D01*
G01*
X116278756Y-121442011D01*
G75*
G02*
X116547506Y-121710761I0J-268750D01*
G01*
X116547506Y-122673261D01*
G75*
G02*
X116278756Y-122942011I-268750J0D01*
G01*
X115741256Y-122942011D01*
G75*
G02*
X115472506Y-122673261I0J268750D01*
G01*
G37*
%TD*%
%TO.C,R7*%
G36*
G01*
X115472506Y-125975261D02*
X115472506Y-125012761D01*
G75*
G02*
X115741256Y-124744011I268750J0D01*
G01*
X116278756Y-124744011D01*
G75*
G02*
X116547506Y-125012761I0J-268750D01*
G01*
X116547506Y-125975261D01*
G75*
G02*
X116278756Y-126244011I-268750J0D01*
G01*
X115741256Y-126244011D01*
G75*
G02*
X115472506Y-125975261I0J268750D01*
G01*
G37*
G36*
G01*
X113597506Y-125975261D02*
X113597506Y-125012761D01*
G75*
G02*
X113866256Y-124744011I268750J0D01*
G01*
X114403756Y-124744011D01*
G75*
G02*
X114672506Y-125012761I0J-268750D01*
G01*
X114672506Y-125975261D01*
G75*
G02*
X114403756Y-126244011I-268750J0D01*
G01*
X113866256Y-126244011D01*
G75*
G02*
X113597506Y-125975261I0J268750D01*
G01*
G37*
%TD*%
%TO.C,R6*%
G36*
G01*
X110519506Y-122673261D02*
X110519506Y-121710761D01*
G75*
G02*
X110788256Y-121442011I268750J0D01*
G01*
X111325756Y-121442011D01*
G75*
G02*
X111594506Y-121710761I0J-268750D01*
G01*
X111594506Y-122673261D01*
G75*
G02*
X111325756Y-122942011I-268750J0D01*
G01*
X110788256Y-122942011D01*
G75*
G02*
X110519506Y-122673261I0J268750D01*
G01*
G37*
G36*
G01*
X108644506Y-122673261D02*
X108644506Y-121710761D01*
G75*
G02*
X108913256Y-121442011I268750J0D01*
G01*
X109450756Y-121442011D01*
G75*
G02*
X109719506Y-121710761I0J-268750D01*
G01*
X109719506Y-122673261D01*
G75*
G02*
X109450756Y-122942011I-268750J0D01*
G01*
X108913256Y-122942011D01*
G75*
G02*
X108644506Y-122673261I0J268750D01*
G01*
G37*
%TD*%
%TO.C,R5*%
G36*
G01*
X108644506Y-125975261D02*
X108644506Y-125012761D01*
G75*
G02*
X108913256Y-124744011I268750J0D01*
G01*
X109450756Y-124744011D01*
G75*
G02*
X109719506Y-125012761I0J-268750D01*
G01*
X109719506Y-125975261D01*
G75*
G02*
X109450756Y-126244011I-268750J0D01*
G01*
X108913256Y-126244011D01*
G75*
G02*
X108644506Y-125975261I0J268750D01*
G01*
G37*
G36*
G01*
X110519506Y-125975261D02*
X110519506Y-125012761D01*
G75*
G02*
X110788256Y-124744011I268750J0D01*
G01*
X111325756Y-124744011D01*
G75*
G02*
X111594506Y-125012761I0J-268750D01*
G01*
X111594506Y-125975261D01*
G75*
G02*
X111325756Y-126244011I-268750J0D01*
G01*
X110788256Y-126244011D01*
G75*
G02*
X110519506Y-125975261I0J268750D01*
G01*
G37*
%TD*%
%TO.C,R4*%
G36*
G01*
X108547506Y-129277261D02*
X108547506Y-128314761D01*
G75*
G02*
X108816256Y-128046011I268750J0D01*
G01*
X109353756Y-128046011D01*
G75*
G02*
X109622506Y-128314761I0J-268750D01*
G01*
X109622506Y-129277261D01*
G75*
G02*
X109353756Y-129546011I-268750J0D01*
G01*
X108816256Y-129546011D01*
G75*
G02*
X108547506Y-129277261I0J268750D01*
G01*
G37*
G36*
G01*
X110422506Y-129277261D02*
X110422506Y-128314761D01*
G75*
G02*
X110691256Y-128046011I268750J0D01*
G01*
X111228756Y-128046011D01*
G75*
G02*
X111497506Y-128314761I0J-268750D01*
G01*
X111497506Y-129277261D01*
G75*
G02*
X111228756Y-129546011I-268750J0D01*
G01*
X110691256Y-129546011D01*
G75*
G02*
X110422506Y-129277261I0J268750D01*
G01*
G37*
%TD*%
%TO.C,R3*%
G36*
G01*
X105439506Y-122673261D02*
X105439506Y-121710761D01*
G75*
G02*
X105708256Y-121442011I268750J0D01*
G01*
X106245756Y-121442011D01*
G75*
G02*
X106514506Y-121710761I0J-268750D01*
G01*
X106514506Y-122673261D01*
G75*
G02*
X106245756Y-122942011I-268750J0D01*
G01*
X105708256Y-122942011D01*
G75*
G02*
X105439506Y-122673261I0J268750D01*
G01*
G37*
G36*
G01*
X103564506Y-122673261D02*
X103564506Y-121710761D01*
G75*
G02*
X103833256Y-121442011I268750J0D01*
G01*
X104370756Y-121442011D01*
G75*
G02*
X104639506Y-121710761I0J-268750D01*
G01*
X104639506Y-122673261D01*
G75*
G02*
X104370756Y-122942011I-268750J0D01*
G01*
X103833256Y-122942011D01*
G75*
G02*
X103564506Y-122673261I0J268750D01*
G01*
G37*
%TD*%
%TO.C,R2*%
G36*
G01*
X105439506Y-125975261D02*
X105439506Y-125012761D01*
G75*
G02*
X105708256Y-124744011I268750J0D01*
G01*
X106245756Y-124744011D01*
G75*
G02*
X106514506Y-125012761I0J-268750D01*
G01*
X106514506Y-125975261D01*
G75*
G02*
X106245756Y-126244011I-268750J0D01*
G01*
X105708256Y-126244011D01*
G75*
G02*
X105439506Y-125975261I0J268750D01*
G01*
G37*
G36*
G01*
X103564506Y-125975261D02*
X103564506Y-125012761D01*
G75*
G02*
X103833256Y-124744011I268750J0D01*
G01*
X104370756Y-124744011D01*
G75*
G02*
X104639506Y-125012761I0J-268750D01*
G01*
X104639506Y-125975261D01*
G75*
G02*
X104370756Y-126244011I-268750J0D01*
G01*
X103833256Y-126244011D01*
G75*
G02*
X103564506Y-125975261I0J268750D01*
G01*
G37*
%TD*%
%TO.C,R1*%
G36*
G01*
X103564506Y-129277261D02*
X103564506Y-128314761D01*
G75*
G02*
X103833256Y-128046011I268750J0D01*
G01*
X104370756Y-128046011D01*
G75*
G02*
X104639506Y-128314761I0J-268750D01*
G01*
X104639506Y-129277261D01*
G75*
G02*
X104370756Y-129546011I-268750J0D01*
G01*
X103833256Y-129546011D01*
G75*
G02*
X103564506Y-129277261I0J268750D01*
G01*
G37*
G36*
G01*
X105439506Y-129277261D02*
X105439506Y-128314761D01*
G75*
G02*
X105708256Y-128046011I268750J0D01*
G01*
X106245756Y-128046011D01*
G75*
G02*
X106514506Y-128314761I0J-268750D01*
G01*
X106514506Y-129277261D01*
G75*
G02*
X106245756Y-129546011I-268750J0D01*
G01*
X105708256Y-129546011D01*
G75*
G02*
X105439506Y-129277261I0J268750D01*
G01*
G37*
%TD*%
D12*
%TO.C,Q2*%
X121120006Y-126510011D03*
X124120006Y-127460011D03*
X124120006Y-125560011D03*
%TD*%
%TO.C,Q1*%
X124120006Y-119530011D03*
X124120006Y-121430011D03*
X121120006Y-120480011D03*
%TD*%
D13*
%TO.C,J8*%
X114262006Y-138194011D03*
D14*
X116802006Y-138194011D03*
X119342006Y-138194011D03*
%TD*%
%TO.C,J7*%
X147282006Y-138194011D03*
X144742006Y-138194011D03*
D13*
X142202006Y-138194011D03*
%TD*%
%TO.C,J4*%
X101308006Y-133368011D03*
D14*
X101308006Y-135908011D03*
%TD*%
%TO.C,J3*%
X119850006Y-134638011D03*
D13*
X119850006Y-132098011D03*
%TD*%
%TO.C,J2*%
X121882006Y-138194011D03*
D14*
X124422006Y-138194011D03*
X126962006Y-138194011D03*
X129502006Y-138194011D03*
%TD*%
%TO.C,J1*%
X139662006Y-138194011D03*
X137122006Y-138194011D03*
X134582006Y-138194011D03*
D13*
X132042006Y-138194011D03*
%TD*%
D15*
%TO.C,J11*%
X101468006Y-129144011D03*
X101468006Y-126604011D03*
X101468006Y-124064011D03*
X118928006Y-111684011D03*
X118928006Y-114224011D03*
%TD*%
D16*
%TO.C,M1*%
X115405006Y-134130011D03*
%TD*%
D10*
%TO.C,U2*%
X62446001Y-119652011D03*
D11*
X64986001Y-112032011D03*
X64986001Y-119652011D03*
X62446001Y-112032011D03*
%TD*%
%TO.C,U1*%
X54318001Y-112032011D03*
X56858001Y-119652011D03*
X56858001Y-112032011D03*
D10*
X54318001Y-119652011D03*
%TD*%
%TO.C,R8*%
G36*
G01*
X64067501Y-122673261D02*
X64067501Y-121710761D01*
G75*
G02*
X64336251Y-121442011I268750J0D01*
G01*
X64873751Y-121442011D01*
G75*
G02*
X65142501Y-121710761I0J-268750D01*
G01*
X65142501Y-122673261D01*
G75*
G02*
X64873751Y-122942011I-268750J0D01*
G01*
X64336251Y-122942011D01*
G75*
G02*
X64067501Y-122673261I0J268750D01*
G01*
G37*
G36*
G01*
X65942501Y-122673261D02*
X65942501Y-121710761D01*
G75*
G02*
X66211251Y-121442011I268750J0D01*
G01*
X66748751Y-121442011D01*
G75*
G02*
X67017501Y-121710761I0J-268750D01*
G01*
X67017501Y-122673261D01*
G75*
G02*
X66748751Y-122942011I-268750J0D01*
G01*
X66211251Y-122942011D01*
G75*
G02*
X65942501Y-122673261I0J268750D01*
G01*
G37*
%TD*%
%TO.C,R7*%
G36*
G01*
X65942501Y-125975261D02*
X65942501Y-125012761D01*
G75*
G02*
X66211251Y-124744011I268750J0D01*
G01*
X66748751Y-124744011D01*
G75*
G02*
X67017501Y-125012761I0J-268750D01*
G01*
X67017501Y-125975261D01*
G75*
G02*
X66748751Y-126244011I-268750J0D01*
G01*
X66211251Y-126244011D01*
G75*
G02*
X65942501Y-125975261I0J268750D01*
G01*
G37*
G36*
G01*
X64067501Y-125975261D02*
X64067501Y-125012761D01*
G75*
G02*
X64336251Y-124744011I268750J0D01*
G01*
X64873751Y-124744011D01*
G75*
G02*
X65142501Y-125012761I0J-268750D01*
G01*
X65142501Y-125975261D01*
G75*
G02*
X64873751Y-126244011I-268750J0D01*
G01*
X64336251Y-126244011D01*
G75*
G02*
X64067501Y-125975261I0J268750D01*
G01*
G37*
%TD*%
%TO.C,R6*%
G36*
G01*
X60989501Y-122673261D02*
X60989501Y-121710761D01*
G75*
G02*
X61258251Y-121442011I268750J0D01*
G01*
X61795751Y-121442011D01*
G75*
G02*
X62064501Y-121710761I0J-268750D01*
G01*
X62064501Y-122673261D01*
G75*
G02*
X61795751Y-122942011I-268750J0D01*
G01*
X61258251Y-122942011D01*
G75*
G02*
X60989501Y-122673261I0J268750D01*
G01*
G37*
G36*
G01*
X59114501Y-122673261D02*
X59114501Y-121710761D01*
G75*
G02*
X59383251Y-121442011I268750J0D01*
G01*
X59920751Y-121442011D01*
G75*
G02*
X60189501Y-121710761I0J-268750D01*
G01*
X60189501Y-122673261D01*
G75*
G02*
X59920751Y-122942011I-268750J0D01*
G01*
X59383251Y-122942011D01*
G75*
G02*
X59114501Y-122673261I0J268750D01*
G01*
G37*
%TD*%
%TO.C,R5*%
G36*
G01*
X59114501Y-125975261D02*
X59114501Y-125012761D01*
G75*
G02*
X59383251Y-124744011I268750J0D01*
G01*
X59920751Y-124744011D01*
G75*
G02*
X60189501Y-125012761I0J-268750D01*
G01*
X60189501Y-125975261D01*
G75*
G02*
X59920751Y-126244011I-268750J0D01*
G01*
X59383251Y-126244011D01*
G75*
G02*
X59114501Y-125975261I0J268750D01*
G01*
G37*
G36*
G01*
X60989501Y-125975261D02*
X60989501Y-125012761D01*
G75*
G02*
X61258251Y-124744011I268750J0D01*
G01*
X61795751Y-124744011D01*
G75*
G02*
X62064501Y-125012761I0J-268750D01*
G01*
X62064501Y-125975261D01*
G75*
G02*
X61795751Y-126244011I-268750J0D01*
G01*
X61258251Y-126244011D01*
G75*
G02*
X60989501Y-125975261I0J268750D01*
G01*
G37*
%TD*%
%TO.C,R4*%
G36*
G01*
X59017501Y-129277261D02*
X59017501Y-128314761D01*
G75*
G02*
X59286251Y-128046011I268750J0D01*
G01*
X59823751Y-128046011D01*
G75*
G02*
X60092501Y-128314761I0J-268750D01*
G01*
X60092501Y-129277261D01*
G75*
G02*
X59823751Y-129546011I-268750J0D01*
G01*
X59286251Y-129546011D01*
G75*
G02*
X59017501Y-129277261I0J268750D01*
G01*
G37*
G36*
G01*
X60892501Y-129277261D02*
X60892501Y-128314761D01*
G75*
G02*
X61161251Y-128046011I268750J0D01*
G01*
X61698751Y-128046011D01*
G75*
G02*
X61967501Y-128314761I0J-268750D01*
G01*
X61967501Y-129277261D01*
G75*
G02*
X61698751Y-129546011I-268750J0D01*
G01*
X61161251Y-129546011D01*
G75*
G02*
X60892501Y-129277261I0J268750D01*
G01*
G37*
%TD*%
%TO.C,R3*%
G36*
G01*
X55909501Y-122673261D02*
X55909501Y-121710761D01*
G75*
G02*
X56178251Y-121442011I268750J0D01*
G01*
X56715751Y-121442011D01*
G75*
G02*
X56984501Y-121710761I0J-268750D01*
G01*
X56984501Y-122673261D01*
G75*
G02*
X56715751Y-122942011I-268750J0D01*
G01*
X56178251Y-122942011D01*
G75*
G02*
X55909501Y-122673261I0J268750D01*
G01*
G37*
G36*
G01*
X54034501Y-122673261D02*
X54034501Y-121710761D01*
G75*
G02*
X54303251Y-121442011I268750J0D01*
G01*
X54840751Y-121442011D01*
G75*
G02*
X55109501Y-121710761I0J-268750D01*
G01*
X55109501Y-122673261D01*
G75*
G02*
X54840751Y-122942011I-268750J0D01*
G01*
X54303251Y-122942011D01*
G75*
G02*
X54034501Y-122673261I0J268750D01*
G01*
G37*
%TD*%
%TO.C,R2*%
G36*
G01*
X55909501Y-125975261D02*
X55909501Y-125012761D01*
G75*
G02*
X56178251Y-124744011I268750J0D01*
G01*
X56715751Y-124744011D01*
G75*
G02*
X56984501Y-125012761I0J-268750D01*
G01*
X56984501Y-125975261D01*
G75*
G02*
X56715751Y-126244011I-268750J0D01*
G01*
X56178251Y-126244011D01*
G75*
G02*
X55909501Y-125975261I0J268750D01*
G01*
G37*
G36*
G01*
X54034501Y-125975261D02*
X54034501Y-125012761D01*
G75*
G02*
X54303251Y-124744011I268750J0D01*
G01*
X54840751Y-124744011D01*
G75*
G02*
X55109501Y-125012761I0J-268750D01*
G01*
X55109501Y-125975261D01*
G75*
G02*
X54840751Y-126244011I-268750J0D01*
G01*
X54303251Y-126244011D01*
G75*
G02*
X54034501Y-125975261I0J268750D01*
G01*
G37*
%TD*%
%TO.C,R1*%
G36*
G01*
X54034501Y-129277261D02*
X54034501Y-128314761D01*
G75*
G02*
X54303251Y-128046011I268750J0D01*
G01*
X54840751Y-128046011D01*
G75*
G02*
X55109501Y-128314761I0J-268750D01*
G01*
X55109501Y-129277261D01*
G75*
G02*
X54840751Y-129546011I-268750J0D01*
G01*
X54303251Y-129546011D01*
G75*
G02*
X54034501Y-129277261I0J268750D01*
G01*
G37*
G36*
G01*
X55909501Y-129277261D02*
X55909501Y-128314761D01*
G75*
G02*
X56178251Y-128046011I268750J0D01*
G01*
X56715751Y-128046011D01*
G75*
G02*
X56984501Y-128314761I0J-268750D01*
G01*
X56984501Y-129277261D01*
G75*
G02*
X56715751Y-129546011I-268750J0D01*
G01*
X56178251Y-129546011D01*
G75*
G02*
X55909501Y-129277261I0J268750D01*
G01*
G37*
%TD*%
D12*
%TO.C,Q2*%
X71590001Y-126510011D03*
X74590001Y-127460011D03*
X74590001Y-125560011D03*
%TD*%
%TO.C,Q1*%
X74590001Y-119530011D03*
X74590001Y-121430011D03*
X71590001Y-120480011D03*
%TD*%
D13*
%TO.C,J8*%
X64732001Y-138194011D03*
D14*
X67272001Y-138194011D03*
X69812001Y-138194011D03*
%TD*%
%TO.C,J7*%
X97752001Y-138194011D03*
X95212001Y-138194011D03*
D13*
X92672001Y-138194011D03*
%TD*%
%TO.C,J4*%
X51778001Y-133368011D03*
D14*
X51778001Y-135908011D03*
%TD*%
%TO.C,J3*%
X70320001Y-134638011D03*
D13*
X70320001Y-132098011D03*
%TD*%
%TO.C,J2*%
X72352001Y-138194011D03*
D14*
X74892001Y-138194011D03*
X77432001Y-138194011D03*
X79972001Y-138194011D03*
%TD*%
%TO.C,J1*%
X90132001Y-138194011D03*
X87592001Y-138194011D03*
X85052001Y-138194011D03*
D13*
X82512001Y-138194011D03*
%TD*%
D15*
%TO.C,J11*%
X51938001Y-129144011D03*
X51938001Y-126604011D03*
X51938001Y-124064011D03*
X69398001Y-111684011D03*
X69398001Y-114224011D03*
%TD*%
D16*
%TO.C,M1*%
X65875001Y-134130011D03*
%TD*%
D10*
%TO.C,U2*%
X111976006Y-89652006D03*
D11*
X114516006Y-82032006D03*
X114516006Y-89652006D03*
X111976006Y-82032006D03*
%TD*%
%TO.C,U1*%
X103848006Y-82032006D03*
X106388006Y-89652006D03*
X106388006Y-82032006D03*
D10*
X103848006Y-89652006D03*
%TD*%
%TO.C,R8*%
G36*
G01*
X113597506Y-92673256D02*
X113597506Y-91710756D01*
G75*
G02*
X113866256Y-91442006I268750J0D01*
G01*
X114403756Y-91442006D01*
G75*
G02*
X114672506Y-91710756I0J-268750D01*
G01*
X114672506Y-92673256D01*
G75*
G02*
X114403756Y-92942006I-268750J0D01*
G01*
X113866256Y-92942006D01*
G75*
G02*
X113597506Y-92673256I0J268750D01*
G01*
G37*
G36*
G01*
X115472506Y-92673256D02*
X115472506Y-91710756D01*
G75*
G02*
X115741256Y-91442006I268750J0D01*
G01*
X116278756Y-91442006D01*
G75*
G02*
X116547506Y-91710756I0J-268750D01*
G01*
X116547506Y-92673256D01*
G75*
G02*
X116278756Y-92942006I-268750J0D01*
G01*
X115741256Y-92942006D01*
G75*
G02*
X115472506Y-92673256I0J268750D01*
G01*
G37*
%TD*%
%TO.C,R7*%
G36*
G01*
X115472506Y-95975256D02*
X115472506Y-95012756D01*
G75*
G02*
X115741256Y-94744006I268750J0D01*
G01*
X116278756Y-94744006D01*
G75*
G02*
X116547506Y-95012756I0J-268750D01*
G01*
X116547506Y-95975256D01*
G75*
G02*
X116278756Y-96244006I-268750J0D01*
G01*
X115741256Y-96244006D01*
G75*
G02*
X115472506Y-95975256I0J268750D01*
G01*
G37*
G36*
G01*
X113597506Y-95975256D02*
X113597506Y-95012756D01*
G75*
G02*
X113866256Y-94744006I268750J0D01*
G01*
X114403756Y-94744006D01*
G75*
G02*
X114672506Y-95012756I0J-268750D01*
G01*
X114672506Y-95975256D01*
G75*
G02*
X114403756Y-96244006I-268750J0D01*
G01*
X113866256Y-96244006D01*
G75*
G02*
X113597506Y-95975256I0J268750D01*
G01*
G37*
%TD*%
%TO.C,R6*%
G36*
G01*
X110519506Y-92673256D02*
X110519506Y-91710756D01*
G75*
G02*
X110788256Y-91442006I268750J0D01*
G01*
X111325756Y-91442006D01*
G75*
G02*
X111594506Y-91710756I0J-268750D01*
G01*
X111594506Y-92673256D01*
G75*
G02*
X111325756Y-92942006I-268750J0D01*
G01*
X110788256Y-92942006D01*
G75*
G02*
X110519506Y-92673256I0J268750D01*
G01*
G37*
G36*
G01*
X108644506Y-92673256D02*
X108644506Y-91710756D01*
G75*
G02*
X108913256Y-91442006I268750J0D01*
G01*
X109450756Y-91442006D01*
G75*
G02*
X109719506Y-91710756I0J-268750D01*
G01*
X109719506Y-92673256D01*
G75*
G02*
X109450756Y-92942006I-268750J0D01*
G01*
X108913256Y-92942006D01*
G75*
G02*
X108644506Y-92673256I0J268750D01*
G01*
G37*
%TD*%
%TO.C,R5*%
G36*
G01*
X108644506Y-95975256D02*
X108644506Y-95012756D01*
G75*
G02*
X108913256Y-94744006I268750J0D01*
G01*
X109450756Y-94744006D01*
G75*
G02*
X109719506Y-95012756I0J-268750D01*
G01*
X109719506Y-95975256D01*
G75*
G02*
X109450756Y-96244006I-268750J0D01*
G01*
X108913256Y-96244006D01*
G75*
G02*
X108644506Y-95975256I0J268750D01*
G01*
G37*
G36*
G01*
X110519506Y-95975256D02*
X110519506Y-95012756D01*
G75*
G02*
X110788256Y-94744006I268750J0D01*
G01*
X111325756Y-94744006D01*
G75*
G02*
X111594506Y-95012756I0J-268750D01*
G01*
X111594506Y-95975256D01*
G75*
G02*
X111325756Y-96244006I-268750J0D01*
G01*
X110788256Y-96244006D01*
G75*
G02*
X110519506Y-95975256I0J268750D01*
G01*
G37*
%TD*%
%TO.C,R4*%
G36*
G01*
X108547506Y-99277256D02*
X108547506Y-98314756D01*
G75*
G02*
X108816256Y-98046006I268750J0D01*
G01*
X109353756Y-98046006D01*
G75*
G02*
X109622506Y-98314756I0J-268750D01*
G01*
X109622506Y-99277256D01*
G75*
G02*
X109353756Y-99546006I-268750J0D01*
G01*
X108816256Y-99546006D01*
G75*
G02*
X108547506Y-99277256I0J268750D01*
G01*
G37*
G36*
G01*
X110422506Y-99277256D02*
X110422506Y-98314756D01*
G75*
G02*
X110691256Y-98046006I268750J0D01*
G01*
X111228756Y-98046006D01*
G75*
G02*
X111497506Y-98314756I0J-268750D01*
G01*
X111497506Y-99277256D01*
G75*
G02*
X111228756Y-99546006I-268750J0D01*
G01*
X110691256Y-99546006D01*
G75*
G02*
X110422506Y-99277256I0J268750D01*
G01*
G37*
%TD*%
%TO.C,R3*%
G36*
G01*
X105439506Y-92673256D02*
X105439506Y-91710756D01*
G75*
G02*
X105708256Y-91442006I268750J0D01*
G01*
X106245756Y-91442006D01*
G75*
G02*
X106514506Y-91710756I0J-268750D01*
G01*
X106514506Y-92673256D01*
G75*
G02*
X106245756Y-92942006I-268750J0D01*
G01*
X105708256Y-92942006D01*
G75*
G02*
X105439506Y-92673256I0J268750D01*
G01*
G37*
G36*
G01*
X103564506Y-92673256D02*
X103564506Y-91710756D01*
G75*
G02*
X103833256Y-91442006I268750J0D01*
G01*
X104370756Y-91442006D01*
G75*
G02*
X104639506Y-91710756I0J-268750D01*
G01*
X104639506Y-92673256D01*
G75*
G02*
X104370756Y-92942006I-268750J0D01*
G01*
X103833256Y-92942006D01*
G75*
G02*
X103564506Y-92673256I0J268750D01*
G01*
G37*
%TD*%
%TO.C,R2*%
G36*
G01*
X105439506Y-95975256D02*
X105439506Y-95012756D01*
G75*
G02*
X105708256Y-94744006I268750J0D01*
G01*
X106245756Y-94744006D01*
G75*
G02*
X106514506Y-95012756I0J-268750D01*
G01*
X106514506Y-95975256D01*
G75*
G02*
X106245756Y-96244006I-268750J0D01*
G01*
X105708256Y-96244006D01*
G75*
G02*
X105439506Y-95975256I0J268750D01*
G01*
G37*
G36*
G01*
X103564506Y-95975256D02*
X103564506Y-95012756D01*
G75*
G02*
X103833256Y-94744006I268750J0D01*
G01*
X104370756Y-94744006D01*
G75*
G02*
X104639506Y-95012756I0J-268750D01*
G01*
X104639506Y-95975256D01*
G75*
G02*
X104370756Y-96244006I-268750J0D01*
G01*
X103833256Y-96244006D01*
G75*
G02*
X103564506Y-95975256I0J268750D01*
G01*
G37*
%TD*%
%TO.C,R1*%
G36*
G01*
X103564506Y-99277256D02*
X103564506Y-98314756D01*
G75*
G02*
X103833256Y-98046006I268750J0D01*
G01*
X104370756Y-98046006D01*
G75*
G02*
X104639506Y-98314756I0J-268750D01*
G01*
X104639506Y-99277256D01*
G75*
G02*
X104370756Y-99546006I-268750J0D01*
G01*
X103833256Y-99546006D01*
G75*
G02*
X103564506Y-99277256I0J268750D01*
G01*
G37*
G36*
G01*
X105439506Y-99277256D02*
X105439506Y-98314756D01*
G75*
G02*
X105708256Y-98046006I268750J0D01*
G01*
X106245756Y-98046006D01*
G75*
G02*
X106514506Y-98314756I0J-268750D01*
G01*
X106514506Y-99277256D01*
G75*
G02*
X106245756Y-99546006I-268750J0D01*
G01*
X105708256Y-99546006D01*
G75*
G02*
X105439506Y-99277256I0J268750D01*
G01*
G37*
%TD*%
D12*
%TO.C,Q2*%
X121120006Y-96510006D03*
X124120006Y-97460006D03*
X124120006Y-95560006D03*
%TD*%
%TO.C,Q1*%
X124120006Y-89530006D03*
X124120006Y-91430006D03*
X121120006Y-90480006D03*
%TD*%
D13*
%TO.C,J8*%
X114262006Y-108194006D03*
D14*
X116802006Y-108194006D03*
X119342006Y-108194006D03*
%TD*%
%TO.C,J7*%
X147282006Y-108194006D03*
X144742006Y-108194006D03*
D13*
X142202006Y-108194006D03*
%TD*%
%TO.C,J4*%
X101308006Y-103368006D03*
D14*
X101308006Y-105908006D03*
%TD*%
%TO.C,J3*%
X119850006Y-104638006D03*
D13*
X119850006Y-102098006D03*
%TD*%
%TO.C,J2*%
X121882006Y-108194006D03*
D14*
X124422006Y-108194006D03*
X126962006Y-108194006D03*
X129502006Y-108194006D03*
%TD*%
%TO.C,J1*%
X139662006Y-108194006D03*
X137122006Y-108194006D03*
X134582006Y-108194006D03*
D13*
X132042006Y-108194006D03*
%TD*%
D15*
%TO.C,J11*%
X101468006Y-99144006D03*
X101468006Y-96604006D03*
X101468006Y-94064006D03*
X118928006Y-81684006D03*
X118928006Y-84224006D03*
%TD*%
D16*
%TO.C,M1*%
X115405006Y-104130006D03*
%TD*%
D10*
%TO.C,U2*%
X62446001Y-89652006D03*
D11*
X64986001Y-82032006D03*
X64986001Y-89652006D03*
X62446001Y-82032006D03*
%TD*%
%TO.C,U1*%
X54318001Y-82032006D03*
X56858001Y-89652006D03*
X56858001Y-82032006D03*
D10*
X54318001Y-89652006D03*
%TD*%
%TO.C,R8*%
G36*
G01*
X64067501Y-92673256D02*
X64067501Y-91710756D01*
G75*
G02*
X64336251Y-91442006I268750J0D01*
G01*
X64873751Y-91442006D01*
G75*
G02*
X65142501Y-91710756I0J-268750D01*
G01*
X65142501Y-92673256D01*
G75*
G02*
X64873751Y-92942006I-268750J0D01*
G01*
X64336251Y-92942006D01*
G75*
G02*
X64067501Y-92673256I0J268750D01*
G01*
G37*
G36*
G01*
X65942501Y-92673256D02*
X65942501Y-91710756D01*
G75*
G02*
X66211251Y-91442006I268750J0D01*
G01*
X66748751Y-91442006D01*
G75*
G02*
X67017501Y-91710756I0J-268750D01*
G01*
X67017501Y-92673256D01*
G75*
G02*
X66748751Y-92942006I-268750J0D01*
G01*
X66211251Y-92942006D01*
G75*
G02*
X65942501Y-92673256I0J268750D01*
G01*
G37*
%TD*%
%TO.C,R7*%
G36*
G01*
X65942501Y-95975256D02*
X65942501Y-95012756D01*
G75*
G02*
X66211251Y-94744006I268750J0D01*
G01*
X66748751Y-94744006D01*
G75*
G02*
X67017501Y-95012756I0J-268750D01*
G01*
X67017501Y-95975256D01*
G75*
G02*
X66748751Y-96244006I-268750J0D01*
G01*
X66211251Y-96244006D01*
G75*
G02*
X65942501Y-95975256I0J268750D01*
G01*
G37*
G36*
G01*
X64067501Y-95975256D02*
X64067501Y-95012756D01*
G75*
G02*
X64336251Y-94744006I268750J0D01*
G01*
X64873751Y-94744006D01*
G75*
G02*
X65142501Y-95012756I0J-268750D01*
G01*
X65142501Y-95975256D01*
G75*
G02*
X64873751Y-96244006I-268750J0D01*
G01*
X64336251Y-96244006D01*
G75*
G02*
X64067501Y-95975256I0J268750D01*
G01*
G37*
%TD*%
%TO.C,R6*%
G36*
G01*
X60989501Y-92673256D02*
X60989501Y-91710756D01*
G75*
G02*
X61258251Y-91442006I268750J0D01*
G01*
X61795751Y-91442006D01*
G75*
G02*
X62064501Y-91710756I0J-268750D01*
G01*
X62064501Y-92673256D01*
G75*
G02*
X61795751Y-92942006I-268750J0D01*
G01*
X61258251Y-92942006D01*
G75*
G02*
X60989501Y-92673256I0J268750D01*
G01*
G37*
G36*
G01*
X59114501Y-92673256D02*
X59114501Y-91710756D01*
G75*
G02*
X59383251Y-91442006I268750J0D01*
G01*
X59920751Y-91442006D01*
G75*
G02*
X60189501Y-91710756I0J-268750D01*
G01*
X60189501Y-92673256D01*
G75*
G02*
X59920751Y-92942006I-268750J0D01*
G01*
X59383251Y-92942006D01*
G75*
G02*
X59114501Y-92673256I0J268750D01*
G01*
G37*
%TD*%
%TO.C,R5*%
G36*
G01*
X59114501Y-95975256D02*
X59114501Y-95012756D01*
G75*
G02*
X59383251Y-94744006I268750J0D01*
G01*
X59920751Y-94744006D01*
G75*
G02*
X60189501Y-95012756I0J-268750D01*
G01*
X60189501Y-95975256D01*
G75*
G02*
X59920751Y-96244006I-268750J0D01*
G01*
X59383251Y-96244006D01*
G75*
G02*
X59114501Y-95975256I0J268750D01*
G01*
G37*
G36*
G01*
X60989501Y-95975256D02*
X60989501Y-95012756D01*
G75*
G02*
X61258251Y-94744006I268750J0D01*
G01*
X61795751Y-94744006D01*
G75*
G02*
X62064501Y-95012756I0J-268750D01*
G01*
X62064501Y-95975256D01*
G75*
G02*
X61795751Y-96244006I-268750J0D01*
G01*
X61258251Y-96244006D01*
G75*
G02*
X60989501Y-95975256I0J268750D01*
G01*
G37*
%TD*%
%TO.C,R4*%
G36*
G01*
X59017501Y-99277256D02*
X59017501Y-98314756D01*
G75*
G02*
X59286251Y-98046006I268750J0D01*
G01*
X59823751Y-98046006D01*
G75*
G02*
X60092501Y-98314756I0J-268750D01*
G01*
X60092501Y-99277256D01*
G75*
G02*
X59823751Y-99546006I-268750J0D01*
G01*
X59286251Y-99546006D01*
G75*
G02*
X59017501Y-99277256I0J268750D01*
G01*
G37*
G36*
G01*
X60892501Y-99277256D02*
X60892501Y-98314756D01*
G75*
G02*
X61161251Y-98046006I268750J0D01*
G01*
X61698751Y-98046006D01*
G75*
G02*
X61967501Y-98314756I0J-268750D01*
G01*
X61967501Y-99277256D01*
G75*
G02*
X61698751Y-99546006I-268750J0D01*
G01*
X61161251Y-99546006D01*
G75*
G02*
X60892501Y-99277256I0J268750D01*
G01*
G37*
%TD*%
%TO.C,R3*%
G36*
G01*
X55909501Y-92673256D02*
X55909501Y-91710756D01*
G75*
G02*
X56178251Y-91442006I268750J0D01*
G01*
X56715751Y-91442006D01*
G75*
G02*
X56984501Y-91710756I0J-268750D01*
G01*
X56984501Y-92673256D01*
G75*
G02*
X56715751Y-92942006I-268750J0D01*
G01*
X56178251Y-92942006D01*
G75*
G02*
X55909501Y-92673256I0J268750D01*
G01*
G37*
G36*
G01*
X54034501Y-92673256D02*
X54034501Y-91710756D01*
G75*
G02*
X54303251Y-91442006I268750J0D01*
G01*
X54840751Y-91442006D01*
G75*
G02*
X55109501Y-91710756I0J-268750D01*
G01*
X55109501Y-92673256D01*
G75*
G02*
X54840751Y-92942006I-268750J0D01*
G01*
X54303251Y-92942006D01*
G75*
G02*
X54034501Y-92673256I0J268750D01*
G01*
G37*
%TD*%
%TO.C,R2*%
G36*
G01*
X55909501Y-95975256D02*
X55909501Y-95012756D01*
G75*
G02*
X56178251Y-94744006I268750J0D01*
G01*
X56715751Y-94744006D01*
G75*
G02*
X56984501Y-95012756I0J-268750D01*
G01*
X56984501Y-95975256D01*
G75*
G02*
X56715751Y-96244006I-268750J0D01*
G01*
X56178251Y-96244006D01*
G75*
G02*
X55909501Y-95975256I0J268750D01*
G01*
G37*
G36*
G01*
X54034501Y-95975256D02*
X54034501Y-95012756D01*
G75*
G02*
X54303251Y-94744006I268750J0D01*
G01*
X54840751Y-94744006D01*
G75*
G02*
X55109501Y-95012756I0J-268750D01*
G01*
X55109501Y-95975256D01*
G75*
G02*
X54840751Y-96244006I-268750J0D01*
G01*
X54303251Y-96244006D01*
G75*
G02*
X54034501Y-95975256I0J268750D01*
G01*
G37*
%TD*%
%TO.C,R1*%
G36*
G01*
X54034501Y-99277256D02*
X54034501Y-98314756D01*
G75*
G02*
X54303251Y-98046006I268750J0D01*
G01*
X54840751Y-98046006D01*
G75*
G02*
X55109501Y-98314756I0J-268750D01*
G01*
X55109501Y-99277256D01*
G75*
G02*
X54840751Y-99546006I-268750J0D01*
G01*
X54303251Y-99546006D01*
G75*
G02*
X54034501Y-99277256I0J268750D01*
G01*
G37*
G36*
G01*
X55909501Y-99277256D02*
X55909501Y-98314756D01*
G75*
G02*
X56178251Y-98046006I268750J0D01*
G01*
X56715751Y-98046006D01*
G75*
G02*
X56984501Y-98314756I0J-268750D01*
G01*
X56984501Y-99277256D01*
G75*
G02*
X56715751Y-99546006I-268750J0D01*
G01*
X56178251Y-99546006D01*
G75*
G02*
X55909501Y-99277256I0J268750D01*
G01*
G37*
%TD*%
D12*
%TO.C,Q2*%
X71590001Y-96510006D03*
X74590001Y-97460006D03*
X74590001Y-95560006D03*
%TD*%
%TO.C,Q1*%
X74590001Y-89530006D03*
X74590001Y-91430006D03*
X71590001Y-90480006D03*
%TD*%
D13*
%TO.C,J8*%
X64732001Y-108194006D03*
D14*
X67272001Y-108194006D03*
X69812001Y-108194006D03*
%TD*%
%TO.C,J7*%
X97752001Y-108194006D03*
X95212001Y-108194006D03*
D13*
X92672001Y-108194006D03*
%TD*%
%TO.C,J4*%
X51778001Y-103368006D03*
D14*
X51778001Y-105908006D03*
%TD*%
%TO.C,J3*%
X70320001Y-104638006D03*
D13*
X70320001Y-102098006D03*
%TD*%
%TO.C,J2*%
X72352001Y-108194006D03*
D14*
X74892001Y-108194006D03*
X77432001Y-108194006D03*
X79972001Y-108194006D03*
%TD*%
%TO.C,J1*%
X90132001Y-108194006D03*
X87592001Y-108194006D03*
X85052001Y-108194006D03*
D13*
X82512001Y-108194006D03*
%TD*%
D15*
%TO.C,J11*%
X51938001Y-99144006D03*
X51938001Y-96604006D03*
X51938001Y-94064006D03*
X69398001Y-81684006D03*
X69398001Y-84224006D03*
%TD*%
D16*
%TO.C,M1*%
X65875001Y-104130006D03*
%TD*%
D10*
%TO.C,U2*%
X111976006Y-59652001D03*
D11*
X114516006Y-52032001D03*
X114516006Y-59652001D03*
X111976006Y-52032001D03*
%TD*%
%TO.C,U1*%
X103848006Y-52032001D03*
X106388006Y-59652001D03*
X106388006Y-52032001D03*
D10*
X103848006Y-59652001D03*
%TD*%
%TO.C,R8*%
G36*
G01*
X113597506Y-62673251D02*
X113597506Y-61710751D01*
G75*
G02*
X113866256Y-61442001I268750J0D01*
G01*
X114403756Y-61442001D01*
G75*
G02*
X114672506Y-61710751I0J-268750D01*
G01*
X114672506Y-62673251D01*
G75*
G02*
X114403756Y-62942001I-268750J0D01*
G01*
X113866256Y-62942001D01*
G75*
G02*
X113597506Y-62673251I0J268750D01*
G01*
G37*
G36*
G01*
X115472506Y-62673251D02*
X115472506Y-61710751D01*
G75*
G02*
X115741256Y-61442001I268750J0D01*
G01*
X116278756Y-61442001D01*
G75*
G02*
X116547506Y-61710751I0J-268750D01*
G01*
X116547506Y-62673251D01*
G75*
G02*
X116278756Y-62942001I-268750J0D01*
G01*
X115741256Y-62942001D01*
G75*
G02*
X115472506Y-62673251I0J268750D01*
G01*
G37*
%TD*%
%TO.C,R7*%
G36*
G01*
X115472506Y-65975251D02*
X115472506Y-65012751D01*
G75*
G02*
X115741256Y-64744001I268750J0D01*
G01*
X116278756Y-64744001D01*
G75*
G02*
X116547506Y-65012751I0J-268750D01*
G01*
X116547506Y-65975251D01*
G75*
G02*
X116278756Y-66244001I-268750J0D01*
G01*
X115741256Y-66244001D01*
G75*
G02*
X115472506Y-65975251I0J268750D01*
G01*
G37*
G36*
G01*
X113597506Y-65975251D02*
X113597506Y-65012751D01*
G75*
G02*
X113866256Y-64744001I268750J0D01*
G01*
X114403756Y-64744001D01*
G75*
G02*
X114672506Y-65012751I0J-268750D01*
G01*
X114672506Y-65975251D01*
G75*
G02*
X114403756Y-66244001I-268750J0D01*
G01*
X113866256Y-66244001D01*
G75*
G02*
X113597506Y-65975251I0J268750D01*
G01*
G37*
%TD*%
%TO.C,R6*%
G36*
G01*
X110519506Y-62673251D02*
X110519506Y-61710751D01*
G75*
G02*
X110788256Y-61442001I268750J0D01*
G01*
X111325756Y-61442001D01*
G75*
G02*
X111594506Y-61710751I0J-268750D01*
G01*
X111594506Y-62673251D01*
G75*
G02*
X111325756Y-62942001I-268750J0D01*
G01*
X110788256Y-62942001D01*
G75*
G02*
X110519506Y-62673251I0J268750D01*
G01*
G37*
G36*
G01*
X108644506Y-62673251D02*
X108644506Y-61710751D01*
G75*
G02*
X108913256Y-61442001I268750J0D01*
G01*
X109450756Y-61442001D01*
G75*
G02*
X109719506Y-61710751I0J-268750D01*
G01*
X109719506Y-62673251D01*
G75*
G02*
X109450756Y-62942001I-268750J0D01*
G01*
X108913256Y-62942001D01*
G75*
G02*
X108644506Y-62673251I0J268750D01*
G01*
G37*
%TD*%
%TO.C,R5*%
G36*
G01*
X108644506Y-65975251D02*
X108644506Y-65012751D01*
G75*
G02*
X108913256Y-64744001I268750J0D01*
G01*
X109450756Y-64744001D01*
G75*
G02*
X109719506Y-65012751I0J-268750D01*
G01*
X109719506Y-65975251D01*
G75*
G02*
X109450756Y-66244001I-268750J0D01*
G01*
X108913256Y-66244001D01*
G75*
G02*
X108644506Y-65975251I0J268750D01*
G01*
G37*
G36*
G01*
X110519506Y-65975251D02*
X110519506Y-65012751D01*
G75*
G02*
X110788256Y-64744001I268750J0D01*
G01*
X111325756Y-64744001D01*
G75*
G02*
X111594506Y-65012751I0J-268750D01*
G01*
X111594506Y-65975251D01*
G75*
G02*
X111325756Y-66244001I-268750J0D01*
G01*
X110788256Y-66244001D01*
G75*
G02*
X110519506Y-65975251I0J268750D01*
G01*
G37*
%TD*%
%TO.C,R4*%
G36*
G01*
X108547506Y-69277251D02*
X108547506Y-68314751D01*
G75*
G02*
X108816256Y-68046001I268750J0D01*
G01*
X109353756Y-68046001D01*
G75*
G02*
X109622506Y-68314751I0J-268750D01*
G01*
X109622506Y-69277251D01*
G75*
G02*
X109353756Y-69546001I-268750J0D01*
G01*
X108816256Y-69546001D01*
G75*
G02*
X108547506Y-69277251I0J268750D01*
G01*
G37*
G36*
G01*
X110422506Y-69277251D02*
X110422506Y-68314751D01*
G75*
G02*
X110691256Y-68046001I268750J0D01*
G01*
X111228756Y-68046001D01*
G75*
G02*
X111497506Y-68314751I0J-268750D01*
G01*
X111497506Y-69277251D01*
G75*
G02*
X111228756Y-69546001I-268750J0D01*
G01*
X110691256Y-69546001D01*
G75*
G02*
X110422506Y-69277251I0J268750D01*
G01*
G37*
%TD*%
%TO.C,R3*%
G36*
G01*
X105439506Y-62673251D02*
X105439506Y-61710751D01*
G75*
G02*
X105708256Y-61442001I268750J0D01*
G01*
X106245756Y-61442001D01*
G75*
G02*
X106514506Y-61710751I0J-268750D01*
G01*
X106514506Y-62673251D01*
G75*
G02*
X106245756Y-62942001I-268750J0D01*
G01*
X105708256Y-62942001D01*
G75*
G02*
X105439506Y-62673251I0J268750D01*
G01*
G37*
G36*
G01*
X103564506Y-62673251D02*
X103564506Y-61710751D01*
G75*
G02*
X103833256Y-61442001I268750J0D01*
G01*
X104370756Y-61442001D01*
G75*
G02*
X104639506Y-61710751I0J-268750D01*
G01*
X104639506Y-62673251D01*
G75*
G02*
X104370756Y-62942001I-268750J0D01*
G01*
X103833256Y-62942001D01*
G75*
G02*
X103564506Y-62673251I0J268750D01*
G01*
G37*
%TD*%
%TO.C,R2*%
G36*
G01*
X105439506Y-65975251D02*
X105439506Y-65012751D01*
G75*
G02*
X105708256Y-64744001I268750J0D01*
G01*
X106245756Y-64744001D01*
G75*
G02*
X106514506Y-65012751I0J-268750D01*
G01*
X106514506Y-65975251D01*
G75*
G02*
X106245756Y-66244001I-268750J0D01*
G01*
X105708256Y-66244001D01*
G75*
G02*
X105439506Y-65975251I0J268750D01*
G01*
G37*
G36*
G01*
X103564506Y-65975251D02*
X103564506Y-65012751D01*
G75*
G02*
X103833256Y-64744001I268750J0D01*
G01*
X104370756Y-64744001D01*
G75*
G02*
X104639506Y-65012751I0J-268750D01*
G01*
X104639506Y-65975251D01*
G75*
G02*
X104370756Y-66244001I-268750J0D01*
G01*
X103833256Y-66244001D01*
G75*
G02*
X103564506Y-65975251I0J268750D01*
G01*
G37*
%TD*%
%TO.C,R1*%
G36*
G01*
X103564506Y-69277251D02*
X103564506Y-68314751D01*
G75*
G02*
X103833256Y-68046001I268750J0D01*
G01*
X104370756Y-68046001D01*
G75*
G02*
X104639506Y-68314751I0J-268750D01*
G01*
X104639506Y-69277251D01*
G75*
G02*
X104370756Y-69546001I-268750J0D01*
G01*
X103833256Y-69546001D01*
G75*
G02*
X103564506Y-69277251I0J268750D01*
G01*
G37*
G36*
G01*
X105439506Y-69277251D02*
X105439506Y-68314751D01*
G75*
G02*
X105708256Y-68046001I268750J0D01*
G01*
X106245756Y-68046001D01*
G75*
G02*
X106514506Y-68314751I0J-268750D01*
G01*
X106514506Y-69277251D01*
G75*
G02*
X106245756Y-69546001I-268750J0D01*
G01*
X105708256Y-69546001D01*
G75*
G02*
X105439506Y-69277251I0J268750D01*
G01*
G37*
%TD*%
D12*
%TO.C,Q2*%
X121120006Y-66510001D03*
X124120006Y-67460001D03*
X124120006Y-65560001D03*
%TD*%
%TO.C,Q1*%
X124120006Y-59530001D03*
X124120006Y-61430001D03*
X121120006Y-60480001D03*
%TD*%
D13*
%TO.C,J8*%
X114262006Y-78194001D03*
D14*
X116802006Y-78194001D03*
X119342006Y-78194001D03*
%TD*%
%TO.C,J7*%
X147282006Y-78194001D03*
X144742006Y-78194001D03*
D13*
X142202006Y-78194001D03*
%TD*%
%TO.C,J4*%
X101308006Y-73368001D03*
D14*
X101308006Y-75908001D03*
%TD*%
%TO.C,J3*%
X119850006Y-74638001D03*
D13*
X119850006Y-72098001D03*
%TD*%
%TO.C,J2*%
X121882006Y-78194001D03*
D14*
X124422006Y-78194001D03*
X126962006Y-78194001D03*
X129502006Y-78194001D03*
%TD*%
%TO.C,J1*%
X139662006Y-78194001D03*
X137122006Y-78194001D03*
X134582006Y-78194001D03*
D13*
X132042006Y-78194001D03*
%TD*%
D15*
%TO.C,J11*%
X101468006Y-69144001D03*
X101468006Y-66604001D03*
X101468006Y-64064001D03*
X118928006Y-51684001D03*
X118928006Y-54224001D03*
%TD*%
D16*
%TO.C,M1*%
X115405006Y-74130001D03*
%TD*%
D10*
%TO.C,U2*%
X62446001Y-59652001D03*
D11*
X64986001Y-52032001D03*
X64986001Y-59652001D03*
X62446001Y-52032001D03*
%TD*%
%TO.C,U1*%
X54318001Y-52032001D03*
X56858001Y-59652001D03*
X56858001Y-52032001D03*
D10*
X54318001Y-59652001D03*
%TD*%
%TO.C,R8*%
G36*
G01*
X64067501Y-62673251D02*
X64067501Y-61710751D01*
G75*
G02*
X64336251Y-61442001I268750J0D01*
G01*
X64873751Y-61442001D01*
G75*
G02*
X65142501Y-61710751I0J-268750D01*
G01*
X65142501Y-62673251D01*
G75*
G02*
X64873751Y-62942001I-268750J0D01*
G01*
X64336251Y-62942001D01*
G75*
G02*
X64067501Y-62673251I0J268750D01*
G01*
G37*
G36*
G01*
X65942501Y-62673251D02*
X65942501Y-61710751D01*
G75*
G02*
X66211251Y-61442001I268750J0D01*
G01*
X66748751Y-61442001D01*
G75*
G02*
X67017501Y-61710751I0J-268750D01*
G01*
X67017501Y-62673251D01*
G75*
G02*
X66748751Y-62942001I-268750J0D01*
G01*
X66211251Y-62942001D01*
G75*
G02*
X65942501Y-62673251I0J268750D01*
G01*
G37*
%TD*%
%TO.C,R7*%
G36*
G01*
X65942501Y-65975251D02*
X65942501Y-65012751D01*
G75*
G02*
X66211251Y-64744001I268750J0D01*
G01*
X66748751Y-64744001D01*
G75*
G02*
X67017501Y-65012751I0J-268750D01*
G01*
X67017501Y-65975251D01*
G75*
G02*
X66748751Y-66244001I-268750J0D01*
G01*
X66211251Y-66244001D01*
G75*
G02*
X65942501Y-65975251I0J268750D01*
G01*
G37*
G36*
G01*
X64067501Y-65975251D02*
X64067501Y-65012751D01*
G75*
G02*
X64336251Y-64744001I268750J0D01*
G01*
X64873751Y-64744001D01*
G75*
G02*
X65142501Y-65012751I0J-268750D01*
G01*
X65142501Y-65975251D01*
G75*
G02*
X64873751Y-66244001I-268750J0D01*
G01*
X64336251Y-66244001D01*
G75*
G02*
X64067501Y-65975251I0J268750D01*
G01*
G37*
%TD*%
%TO.C,R6*%
G36*
G01*
X60989501Y-62673251D02*
X60989501Y-61710751D01*
G75*
G02*
X61258251Y-61442001I268750J0D01*
G01*
X61795751Y-61442001D01*
G75*
G02*
X62064501Y-61710751I0J-268750D01*
G01*
X62064501Y-62673251D01*
G75*
G02*
X61795751Y-62942001I-268750J0D01*
G01*
X61258251Y-62942001D01*
G75*
G02*
X60989501Y-62673251I0J268750D01*
G01*
G37*
G36*
G01*
X59114501Y-62673251D02*
X59114501Y-61710751D01*
G75*
G02*
X59383251Y-61442001I268750J0D01*
G01*
X59920751Y-61442001D01*
G75*
G02*
X60189501Y-61710751I0J-268750D01*
G01*
X60189501Y-62673251D01*
G75*
G02*
X59920751Y-62942001I-268750J0D01*
G01*
X59383251Y-62942001D01*
G75*
G02*
X59114501Y-62673251I0J268750D01*
G01*
G37*
%TD*%
%TO.C,R5*%
G36*
G01*
X59114501Y-65975251D02*
X59114501Y-65012751D01*
G75*
G02*
X59383251Y-64744001I268750J0D01*
G01*
X59920751Y-64744001D01*
G75*
G02*
X60189501Y-65012751I0J-268750D01*
G01*
X60189501Y-65975251D01*
G75*
G02*
X59920751Y-66244001I-268750J0D01*
G01*
X59383251Y-66244001D01*
G75*
G02*
X59114501Y-65975251I0J268750D01*
G01*
G37*
G36*
G01*
X60989501Y-65975251D02*
X60989501Y-65012751D01*
G75*
G02*
X61258251Y-64744001I268750J0D01*
G01*
X61795751Y-64744001D01*
G75*
G02*
X62064501Y-65012751I0J-268750D01*
G01*
X62064501Y-65975251D01*
G75*
G02*
X61795751Y-66244001I-268750J0D01*
G01*
X61258251Y-66244001D01*
G75*
G02*
X60989501Y-65975251I0J268750D01*
G01*
G37*
%TD*%
%TO.C,R4*%
G36*
G01*
X59017501Y-69277251D02*
X59017501Y-68314751D01*
G75*
G02*
X59286251Y-68046001I268750J0D01*
G01*
X59823751Y-68046001D01*
G75*
G02*
X60092501Y-68314751I0J-268750D01*
G01*
X60092501Y-69277251D01*
G75*
G02*
X59823751Y-69546001I-268750J0D01*
G01*
X59286251Y-69546001D01*
G75*
G02*
X59017501Y-69277251I0J268750D01*
G01*
G37*
G36*
G01*
X60892501Y-69277251D02*
X60892501Y-68314751D01*
G75*
G02*
X61161251Y-68046001I268750J0D01*
G01*
X61698751Y-68046001D01*
G75*
G02*
X61967501Y-68314751I0J-268750D01*
G01*
X61967501Y-69277251D01*
G75*
G02*
X61698751Y-69546001I-268750J0D01*
G01*
X61161251Y-69546001D01*
G75*
G02*
X60892501Y-69277251I0J268750D01*
G01*
G37*
%TD*%
%TO.C,R3*%
G36*
G01*
X55909501Y-62673251D02*
X55909501Y-61710751D01*
G75*
G02*
X56178251Y-61442001I268750J0D01*
G01*
X56715751Y-61442001D01*
G75*
G02*
X56984501Y-61710751I0J-268750D01*
G01*
X56984501Y-62673251D01*
G75*
G02*
X56715751Y-62942001I-268750J0D01*
G01*
X56178251Y-62942001D01*
G75*
G02*
X55909501Y-62673251I0J268750D01*
G01*
G37*
G36*
G01*
X54034501Y-62673251D02*
X54034501Y-61710751D01*
G75*
G02*
X54303251Y-61442001I268750J0D01*
G01*
X54840751Y-61442001D01*
G75*
G02*
X55109501Y-61710751I0J-268750D01*
G01*
X55109501Y-62673251D01*
G75*
G02*
X54840751Y-62942001I-268750J0D01*
G01*
X54303251Y-62942001D01*
G75*
G02*
X54034501Y-62673251I0J268750D01*
G01*
G37*
%TD*%
%TO.C,R2*%
G36*
G01*
X55909501Y-65975251D02*
X55909501Y-65012751D01*
G75*
G02*
X56178251Y-64744001I268750J0D01*
G01*
X56715751Y-64744001D01*
G75*
G02*
X56984501Y-65012751I0J-268750D01*
G01*
X56984501Y-65975251D01*
G75*
G02*
X56715751Y-66244001I-268750J0D01*
G01*
X56178251Y-66244001D01*
G75*
G02*
X55909501Y-65975251I0J268750D01*
G01*
G37*
G36*
G01*
X54034501Y-65975251D02*
X54034501Y-65012751D01*
G75*
G02*
X54303251Y-64744001I268750J0D01*
G01*
X54840751Y-64744001D01*
G75*
G02*
X55109501Y-65012751I0J-268750D01*
G01*
X55109501Y-65975251D01*
G75*
G02*
X54840751Y-66244001I-268750J0D01*
G01*
X54303251Y-66244001D01*
G75*
G02*
X54034501Y-65975251I0J268750D01*
G01*
G37*
%TD*%
%TO.C,R1*%
G36*
G01*
X54034501Y-69277251D02*
X54034501Y-68314751D01*
G75*
G02*
X54303251Y-68046001I268750J0D01*
G01*
X54840751Y-68046001D01*
G75*
G02*
X55109501Y-68314751I0J-268750D01*
G01*
X55109501Y-69277251D01*
G75*
G02*
X54840751Y-69546001I-268750J0D01*
G01*
X54303251Y-69546001D01*
G75*
G02*
X54034501Y-69277251I0J268750D01*
G01*
G37*
G36*
G01*
X55909501Y-69277251D02*
X55909501Y-68314751D01*
G75*
G02*
X56178251Y-68046001I268750J0D01*
G01*
X56715751Y-68046001D01*
G75*
G02*
X56984501Y-68314751I0J-268750D01*
G01*
X56984501Y-69277251D01*
G75*
G02*
X56715751Y-69546001I-268750J0D01*
G01*
X56178251Y-69546001D01*
G75*
G02*
X55909501Y-69277251I0J268750D01*
G01*
G37*
%TD*%
D12*
%TO.C,Q2*%
X71590001Y-66510001D03*
X74590001Y-67460001D03*
X74590001Y-65560001D03*
%TD*%
%TO.C,Q1*%
X74590001Y-59530001D03*
X74590001Y-61430001D03*
X71590001Y-60480001D03*
%TD*%
D13*
%TO.C,J8*%
X64732001Y-78194001D03*
D14*
X67272001Y-78194001D03*
X69812001Y-78194001D03*
%TD*%
%TO.C,J7*%
X97752001Y-78194001D03*
X95212001Y-78194001D03*
D13*
X92672001Y-78194001D03*
%TD*%
%TO.C,J4*%
X51778001Y-73368001D03*
D14*
X51778001Y-75908001D03*
%TD*%
%TO.C,J3*%
X70320001Y-74638001D03*
D13*
X70320001Y-72098001D03*
%TD*%
%TO.C,J2*%
X72352001Y-78194001D03*
D14*
X74892001Y-78194001D03*
X77432001Y-78194001D03*
X79972001Y-78194001D03*
%TD*%
%TO.C,J1*%
X90132001Y-78194001D03*
X87592001Y-78194001D03*
X85052001Y-78194001D03*
D13*
X82512001Y-78194001D03*
%TD*%
D15*
%TO.C,J11*%
X51938001Y-69144001D03*
X51938001Y-66604001D03*
X51938001Y-64064001D03*
X69398001Y-51684001D03*
X69398001Y-54224001D03*
%TD*%
D16*
%TO.C,M1*%
X65875001Y-74130001D03*
%TD*%
M02*
