%TF.GenerationSoftware,KiCad,Pcbnew,5.1.6-c6e7f7d~87~ubuntu18.04.1*%
%TF.CreationDate,2020-09-18T10:49:30+02:00*%
%TF.ProjectId,panel,70616e65-6c2e-46b6-9963-61645f706362,rev?*%
%TF.SameCoordinates,Original*%
%TF.FileFunction,Copper,L2,Bot*%
%TF.FilePolarity,Positive*%
%FSLAX46Y46*%
G04 Gerber Fmt 4.6, Leading zero omitted, Abs format (unit mm)*
G04 Created by KiCad (PCBNEW 5.1.6-c6e7f7d~87~ubuntu18.04.1) date 2020-09-18 10:49:30*
%MOMM*%
%LPD*%
G01*
G04 APERTURE LIST*
%TA.AperFunction,ComponentPad*%
%ADD10R,1.600000X1.600000*%
%TD*%
%TA.AperFunction,ComponentPad*%
%ADD11O,1.600000X1.600000*%
%TD*%
%TA.AperFunction,SMDPad,CuDef*%
%ADD12R,1.900000X0.800000*%
%TD*%
%TA.AperFunction,ComponentPad*%
%ADD13R,1.700000X1.700000*%
%TD*%
%TA.AperFunction,ComponentPad*%
%ADD14O,1.700000X1.700000*%
%TD*%
%TA.AperFunction,ComponentPad*%
%ADD15C,1.524000*%
%TD*%
%TA.AperFunction,ComponentPad*%
%ADD16C,3.800000*%
%TD*%
%TA.AperFunction,ViaPad*%
%ADD17C,0.800000*%
%TD*%
%TA.AperFunction,Conductor*%
%ADD18C,0.250000*%
%TD*%
G04 APERTURE END LIST*
D10*
%TO.P,U2,1*%
%TO.N,Board_6-Net-(Q1-Pad3)*%
X111976006Y-119652011D03*
D11*
%TO.P,U2,3*%
%TO.N,Board_6-Net-(R6-Pad2)*%
X114516006Y-112032011D03*
%TO.P,U2,2*%
%TO.N,Board_6-GND*%
X114516006Y-119652011D03*
%TO.P,U2,4*%
%TO.N,Board_6-Net-(D3-Pad1)*%
X111976006Y-112032011D03*
%TD*%
%TO.P,U1,4*%
%TO.N,Board_6-3V3*%
X103848006Y-112032011D03*
%TO.P,U1,2*%
%TO.N,Board_6-Net-(D1-Pad1)*%
X106388006Y-119652011D03*
%TO.P,U1,3*%
%TO.N,Board_6-D7*%
X106388006Y-112032011D03*
D10*
%TO.P,U1,1*%
%TO.N,Board_6-Net-(D2-Pad1)*%
X103848006Y-119652011D03*
%TD*%
%TO.P,R8,1*%
%TO.N,Board_6-Net-(D5-Pad2)*%
%TA.AperFunction,SMDPad,CuDef*%
G36*
G01*
X113647506Y-122648261D02*
X113647506Y-121735761D01*
G75*
G02*
X113891256Y-121492011I243750J0D01*
G01*
X114378756Y-121492011D01*
G75*
G02*
X114622506Y-121735761I0J-243750D01*
G01*
X114622506Y-122648261D01*
G75*
G02*
X114378756Y-122892011I-243750J0D01*
G01*
X113891256Y-122892011D01*
G75*
G02*
X113647506Y-122648261I0J243750D01*
G01*
G37*
%TD.AperFunction*%
%TO.P,R8,2*%
%TO.N,Board_6-A*%
%TA.AperFunction,SMDPad,CuDef*%
G36*
G01*
X115522506Y-122648261D02*
X115522506Y-121735761D01*
G75*
G02*
X115766256Y-121492011I243750J0D01*
G01*
X116253756Y-121492011D01*
G75*
G02*
X116497506Y-121735761I0J-243750D01*
G01*
X116497506Y-122648261D01*
G75*
G02*
X116253756Y-122892011I-243750J0D01*
G01*
X115766256Y-122892011D01*
G75*
G02*
X115522506Y-122648261I0J243750D01*
G01*
G37*
%TD.AperFunction*%
%TD*%
%TO.P,R7,2*%
%TO.N,Board_6-3V3*%
%TA.AperFunction,SMDPad,CuDef*%
G36*
G01*
X115522506Y-125950261D02*
X115522506Y-125037761D01*
G75*
G02*
X115766256Y-124794011I243750J0D01*
G01*
X116253756Y-124794011D01*
G75*
G02*
X116497506Y-125037761I0J-243750D01*
G01*
X116497506Y-125950261D01*
G75*
G02*
X116253756Y-126194011I-243750J0D01*
G01*
X115766256Y-126194011D01*
G75*
G02*
X115522506Y-125950261I0J243750D01*
G01*
G37*
%TD.AperFunction*%
%TO.P,R7,1*%
%TO.N,Board_6-D3*%
%TA.AperFunction,SMDPad,CuDef*%
G36*
G01*
X113647506Y-125950261D02*
X113647506Y-125037761D01*
G75*
G02*
X113891256Y-124794011I243750J0D01*
G01*
X114378756Y-124794011D01*
G75*
G02*
X114622506Y-125037761I0J-243750D01*
G01*
X114622506Y-125950261D01*
G75*
G02*
X114378756Y-126194011I-243750J0D01*
G01*
X113891256Y-126194011D01*
G75*
G02*
X113647506Y-125950261I0J243750D01*
G01*
G37*
%TD.AperFunction*%
%TD*%
%TO.P,R6,2*%
%TO.N,Board_6-Net-(R6-Pad2)*%
%TA.AperFunction,SMDPad,CuDef*%
G36*
G01*
X110569506Y-122648261D02*
X110569506Y-121735761D01*
G75*
G02*
X110813256Y-121492011I243750J0D01*
G01*
X111300756Y-121492011D01*
G75*
G02*
X111544506Y-121735761I0J-243750D01*
G01*
X111544506Y-122648261D01*
G75*
G02*
X111300756Y-122892011I-243750J0D01*
G01*
X110813256Y-122892011D01*
G75*
G02*
X110569506Y-122648261I0J243750D01*
G01*
G37*
%TD.AperFunction*%
%TO.P,R6,1*%
%TO.N,Board_6-Net-(Q2-Pad2)*%
%TA.AperFunction,SMDPad,CuDef*%
G36*
G01*
X108694506Y-122648261D02*
X108694506Y-121735761D01*
G75*
G02*
X108938256Y-121492011I243750J0D01*
G01*
X109425756Y-121492011D01*
G75*
G02*
X109669506Y-121735761I0J-243750D01*
G01*
X109669506Y-122648261D01*
G75*
G02*
X109425756Y-122892011I-243750J0D01*
G01*
X108938256Y-122892011D01*
G75*
G02*
X108694506Y-122648261I0J243750D01*
G01*
G37*
%TD.AperFunction*%
%TD*%
%TO.P,R5,1*%
%TO.N,Board_6-D7*%
%TA.AperFunction,SMDPad,CuDef*%
G36*
G01*
X108694506Y-125950261D02*
X108694506Y-125037761D01*
G75*
G02*
X108938256Y-124794011I243750J0D01*
G01*
X109425756Y-124794011D01*
G75*
G02*
X109669506Y-125037761I0J-243750D01*
G01*
X109669506Y-125950261D01*
G75*
G02*
X109425756Y-126194011I-243750J0D01*
G01*
X108938256Y-126194011D01*
G75*
G02*
X108694506Y-125950261I0J243750D01*
G01*
G37*
%TD.AperFunction*%
%TO.P,R5,2*%
%TO.N,Board_6-GND*%
%TA.AperFunction,SMDPad,CuDef*%
G36*
G01*
X110569506Y-125950261D02*
X110569506Y-125037761D01*
G75*
G02*
X110813256Y-124794011I243750J0D01*
G01*
X111300756Y-124794011D01*
G75*
G02*
X111544506Y-125037761I0J-243750D01*
G01*
X111544506Y-125950261D01*
G75*
G02*
X111300756Y-126194011I-243750J0D01*
G01*
X110813256Y-126194011D01*
G75*
G02*
X110569506Y-125950261I0J243750D01*
G01*
G37*
%TD.AperFunction*%
%TD*%
%TO.P,R4,1*%
%TO.N,Board_6-Net-(Q1-Pad3)*%
%TA.AperFunction,SMDPad,CuDef*%
G36*
G01*
X108597506Y-129252261D02*
X108597506Y-128339761D01*
G75*
G02*
X108841256Y-128096011I243750J0D01*
G01*
X109328756Y-128096011D01*
G75*
G02*
X109572506Y-128339761I0J-243750D01*
G01*
X109572506Y-129252261D01*
G75*
G02*
X109328756Y-129496011I-243750J0D01*
G01*
X108841256Y-129496011D01*
G75*
G02*
X108597506Y-129252261I0J243750D01*
G01*
G37*
%TD.AperFunction*%
%TO.P,R4,2*%
%TO.N,Board_6-3V3*%
%TA.AperFunction,SMDPad,CuDef*%
G36*
G01*
X110472506Y-129252261D02*
X110472506Y-128339761D01*
G75*
G02*
X110716256Y-128096011I243750J0D01*
G01*
X111203756Y-128096011D01*
G75*
G02*
X111447506Y-128339761I0J-243750D01*
G01*
X111447506Y-129252261D01*
G75*
G02*
X111203756Y-129496011I-243750J0D01*
G01*
X110716256Y-129496011D01*
G75*
G02*
X110472506Y-129252261I0J243750D01*
G01*
G37*
%TD.AperFunction*%
%TD*%
%TO.P,R3,2*%
%TO.N,Board_6-A*%
%TA.AperFunction,SMDPad,CuDef*%
G36*
G01*
X105489506Y-122648261D02*
X105489506Y-121735761D01*
G75*
G02*
X105733256Y-121492011I243750J0D01*
G01*
X106220756Y-121492011D01*
G75*
G02*
X106464506Y-121735761I0J-243750D01*
G01*
X106464506Y-122648261D01*
G75*
G02*
X106220756Y-122892011I-243750J0D01*
G01*
X105733256Y-122892011D01*
G75*
G02*
X105489506Y-122648261I0J243750D01*
G01*
G37*
%TD.AperFunction*%
%TO.P,R3,1*%
%TO.N,Board_6-Net-(D2-Pad2)*%
%TA.AperFunction,SMDPad,CuDef*%
G36*
G01*
X103614506Y-122648261D02*
X103614506Y-121735761D01*
G75*
G02*
X103858256Y-121492011I243750J0D01*
G01*
X104345756Y-121492011D01*
G75*
G02*
X104589506Y-121735761I0J-243750D01*
G01*
X104589506Y-122648261D01*
G75*
G02*
X104345756Y-122892011I-243750J0D01*
G01*
X103858256Y-122892011D01*
G75*
G02*
X103614506Y-122648261I0J243750D01*
G01*
G37*
%TD.AperFunction*%
%TD*%
%TO.P,R2,2*%
%TO.N,Board_6-Net-(D1-Pad1)*%
%TA.AperFunction,SMDPad,CuDef*%
G36*
G01*
X105489506Y-125950261D02*
X105489506Y-125037761D01*
G75*
G02*
X105733256Y-124794011I243750J0D01*
G01*
X106220756Y-124794011D01*
G75*
G02*
X106464506Y-125037761I0J-243750D01*
G01*
X106464506Y-125950261D01*
G75*
G02*
X106220756Y-126194011I-243750J0D01*
G01*
X105733256Y-126194011D01*
G75*
G02*
X105489506Y-125950261I0J243750D01*
G01*
G37*
%TD.AperFunction*%
%TO.P,R2,1*%
%TO.N,Board_6-A*%
%TA.AperFunction,SMDPad,CuDef*%
G36*
G01*
X103614506Y-125950261D02*
X103614506Y-125037761D01*
G75*
G02*
X103858256Y-124794011I243750J0D01*
G01*
X104345756Y-124794011D01*
G75*
G02*
X104589506Y-125037761I0J-243750D01*
G01*
X104589506Y-125950261D01*
G75*
G02*
X104345756Y-126194011I-243750J0D01*
G01*
X103858256Y-126194011D01*
G75*
G02*
X103614506Y-125950261I0J243750D01*
G01*
G37*
%TD.AperFunction*%
%TD*%
%TO.P,R1,1*%
%TO.N,Board_6-Net-(Q1-Pad2)*%
%TA.AperFunction,SMDPad,CuDef*%
G36*
G01*
X103614506Y-129252261D02*
X103614506Y-128339761D01*
G75*
G02*
X103858256Y-128096011I243750J0D01*
G01*
X104345756Y-128096011D01*
G75*
G02*
X104589506Y-128339761I0J-243750D01*
G01*
X104589506Y-129252261D01*
G75*
G02*
X104345756Y-129496011I-243750J0D01*
G01*
X103858256Y-129496011D01*
G75*
G02*
X103614506Y-129252261I0J243750D01*
G01*
G37*
%TD.AperFunction*%
%TO.P,R1,2*%
%TO.N,Board_6-D8*%
%TA.AperFunction,SMDPad,CuDef*%
G36*
G01*
X105489506Y-129252261D02*
X105489506Y-128339761D01*
G75*
G02*
X105733256Y-128096011I243750J0D01*
G01*
X106220756Y-128096011D01*
G75*
G02*
X106464506Y-128339761I0J-243750D01*
G01*
X106464506Y-129252261D01*
G75*
G02*
X106220756Y-129496011I-243750J0D01*
G01*
X105733256Y-129496011D01*
G75*
G02*
X105489506Y-129252261I0J243750D01*
G01*
G37*
%TD.AperFunction*%
%TD*%
D12*
%TO.P,Q2,3*%
%TO.N,Board_6-Net-(D3-Pad2)*%
X121120006Y-126510011D03*
%TO.P,Q2,2*%
%TO.N,Board_6-Net-(Q2-Pad2)*%
X124120006Y-127460011D03*
%TO.P,Q2,1*%
%TO.N,Board_6-B*%
X124120006Y-125560011D03*
%TD*%
%TO.P,Q1,1*%
%TO.N,Board_6-GND*%
X124120006Y-119530011D03*
%TO.P,Q1,2*%
%TO.N,Board_6-Net-(Q1-Pad2)*%
X124120006Y-121430011D03*
%TO.P,Q1,3*%
%TO.N,Board_6-Net-(Q1-Pad3)*%
X121120006Y-120480011D03*
%TD*%
D13*
%TO.P,J8,1*%
%TO.N,Board_6-5V*%
X114262006Y-138194011D03*
D14*
%TO.P,J8,2*%
%TO.N,Board_6-D4*%
X116802006Y-138194011D03*
%TO.P,J8,3*%
%TO.N,Board_6-GND*%
X119342006Y-138194011D03*
%TD*%
%TO.P,J7,3*%
%TO.N,Board_6-GND*%
X147282006Y-138194011D03*
%TO.P,J7,2*%
%TO.N,Board_6-3V3*%
X144742006Y-138194011D03*
D13*
%TO.P,J7,1*%
%TO.N,Board_6-5V*%
X142202006Y-138194011D03*
%TD*%
%TO.P,J4,1*%
%TO.N,Board_6-A*%
X101308006Y-133368011D03*
D14*
%TO.P,J4,2*%
%TO.N,Board_6-B*%
X101308006Y-135908011D03*
%TD*%
%TO.P,J3,2*%
%TO.N,Board_6-Net-(J11-Pad3)*%
X119850006Y-134638011D03*
D13*
%TO.P,J3,1*%
%TO.N,Board_6-Net-(D5-Pad1)*%
X119850006Y-132098011D03*
%TD*%
%TO.P,J2,1*%
%TO.N,Board_6-3V3*%
X121882006Y-138194011D03*
D14*
%TO.P,J2,2*%
%TO.N,Board_6-D3*%
X124422006Y-138194011D03*
%TO.P,J2,3*%
%TO.N,Board_6-Net-(J2-Pad3)*%
X126962006Y-138194011D03*
%TO.P,J2,4*%
%TO.N,Board_6-GND*%
X129502006Y-138194011D03*
%TD*%
%TO.P,J1,4*%
%TO.N,Board_6-SDA*%
X139662006Y-138194011D03*
%TO.P,J1,3*%
%TO.N,Board_6-SCL*%
X137122006Y-138194011D03*
%TO.P,J1,2*%
%TO.N,Board_6-GND*%
X134582006Y-138194011D03*
D13*
%TO.P,J1,1*%
%TO.N,Board_6-3V3*%
X132042006Y-138194011D03*
%TD*%
D15*
%TO.P,J11,1*%
%TO.N,Board_6-Net-(J11-Pad1)*%
X101468006Y-129144011D03*
%TO.P,J11,2*%
%TO.N,Board_6-B*%
X101468006Y-126604011D03*
%TO.P,J11,3*%
%TO.N,Board_6-Net-(J11-Pad3)*%
X101468006Y-124064011D03*
%TO.P,J11,4*%
%TO.N,Board_6-5V*%
X118928006Y-111684011D03*
%TO.P,J11,5*%
%TO.N,Board_6-GND*%
X118928006Y-114224011D03*
%TD*%
D16*
%TO.P,M1,1*%
%TO.N,N/C*%
X115405006Y-134130011D03*
%TD*%
D10*
%TO.P,U2,1*%
%TO.N,Board_5-Net-(Q1-Pad3)*%
X62446001Y-119652011D03*
D11*
%TO.P,U2,3*%
%TO.N,Board_5-Net-(R6-Pad2)*%
X64986001Y-112032011D03*
%TO.P,U2,2*%
%TO.N,Board_5-GND*%
X64986001Y-119652011D03*
%TO.P,U2,4*%
%TO.N,Board_5-Net-(D3-Pad1)*%
X62446001Y-112032011D03*
%TD*%
%TO.P,U1,4*%
%TO.N,Board_5-3V3*%
X54318001Y-112032011D03*
%TO.P,U1,2*%
%TO.N,Board_5-Net-(D1-Pad1)*%
X56858001Y-119652011D03*
%TO.P,U1,3*%
%TO.N,Board_5-D7*%
X56858001Y-112032011D03*
D10*
%TO.P,U1,1*%
%TO.N,Board_5-Net-(D2-Pad1)*%
X54318001Y-119652011D03*
%TD*%
%TO.P,R8,1*%
%TO.N,Board_5-Net-(D5-Pad2)*%
%TA.AperFunction,SMDPad,CuDef*%
G36*
G01*
X64117501Y-122648261D02*
X64117501Y-121735761D01*
G75*
G02*
X64361251Y-121492011I243750J0D01*
G01*
X64848751Y-121492011D01*
G75*
G02*
X65092501Y-121735761I0J-243750D01*
G01*
X65092501Y-122648261D01*
G75*
G02*
X64848751Y-122892011I-243750J0D01*
G01*
X64361251Y-122892011D01*
G75*
G02*
X64117501Y-122648261I0J243750D01*
G01*
G37*
%TD.AperFunction*%
%TO.P,R8,2*%
%TO.N,Board_5-A*%
%TA.AperFunction,SMDPad,CuDef*%
G36*
G01*
X65992501Y-122648261D02*
X65992501Y-121735761D01*
G75*
G02*
X66236251Y-121492011I243750J0D01*
G01*
X66723751Y-121492011D01*
G75*
G02*
X66967501Y-121735761I0J-243750D01*
G01*
X66967501Y-122648261D01*
G75*
G02*
X66723751Y-122892011I-243750J0D01*
G01*
X66236251Y-122892011D01*
G75*
G02*
X65992501Y-122648261I0J243750D01*
G01*
G37*
%TD.AperFunction*%
%TD*%
%TO.P,R7,2*%
%TO.N,Board_5-3V3*%
%TA.AperFunction,SMDPad,CuDef*%
G36*
G01*
X65992501Y-125950261D02*
X65992501Y-125037761D01*
G75*
G02*
X66236251Y-124794011I243750J0D01*
G01*
X66723751Y-124794011D01*
G75*
G02*
X66967501Y-125037761I0J-243750D01*
G01*
X66967501Y-125950261D01*
G75*
G02*
X66723751Y-126194011I-243750J0D01*
G01*
X66236251Y-126194011D01*
G75*
G02*
X65992501Y-125950261I0J243750D01*
G01*
G37*
%TD.AperFunction*%
%TO.P,R7,1*%
%TO.N,Board_5-D3*%
%TA.AperFunction,SMDPad,CuDef*%
G36*
G01*
X64117501Y-125950261D02*
X64117501Y-125037761D01*
G75*
G02*
X64361251Y-124794011I243750J0D01*
G01*
X64848751Y-124794011D01*
G75*
G02*
X65092501Y-125037761I0J-243750D01*
G01*
X65092501Y-125950261D01*
G75*
G02*
X64848751Y-126194011I-243750J0D01*
G01*
X64361251Y-126194011D01*
G75*
G02*
X64117501Y-125950261I0J243750D01*
G01*
G37*
%TD.AperFunction*%
%TD*%
%TO.P,R6,2*%
%TO.N,Board_5-Net-(R6-Pad2)*%
%TA.AperFunction,SMDPad,CuDef*%
G36*
G01*
X61039501Y-122648261D02*
X61039501Y-121735761D01*
G75*
G02*
X61283251Y-121492011I243750J0D01*
G01*
X61770751Y-121492011D01*
G75*
G02*
X62014501Y-121735761I0J-243750D01*
G01*
X62014501Y-122648261D01*
G75*
G02*
X61770751Y-122892011I-243750J0D01*
G01*
X61283251Y-122892011D01*
G75*
G02*
X61039501Y-122648261I0J243750D01*
G01*
G37*
%TD.AperFunction*%
%TO.P,R6,1*%
%TO.N,Board_5-Net-(Q2-Pad2)*%
%TA.AperFunction,SMDPad,CuDef*%
G36*
G01*
X59164501Y-122648261D02*
X59164501Y-121735761D01*
G75*
G02*
X59408251Y-121492011I243750J0D01*
G01*
X59895751Y-121492011D01*
G75*
G02*
X60139501Y-121735761I0J-243750D01*
G01*
X60139501Y-122648261D01*
G75*
G02*
X59895751Y-122892011I-243750J0D01*
G01*
X59408251Y-122892011D01*
G75*
G02*
X59164501Y-122648261I0J243750D01*
G01*
G37*
%TD.AperFunction*%
%TD*%
%TO.P,R5,1*%
%TO.N,Board_5-D7*%
%TA.AperFunction,SMDPad,CuDef*%
G36*
G01*
X59164501Y-125950261D02*
X59164501Y-125037761D01*
G75*
G02*
X59408251Y-124794011I243750J0D01*
G01*
X59895751Y-124794011D01*
G75*
G02*
X60139501Y-125037761I0J-243750D01*
G01*
X60139501Y-125950261D01*
G75*
G02*
X59895751Y-126194011I-243750J0D01*
G01*
X59408251Y-126194011D01*
G75*
G02*
X59164501Y-125950261I0J243750D01*
G01*
G37*
%TD.AperFunction*%
%TO.P,R5,2*%
%TO.N,Board_5-GND*%
%TA.AperFunction,SMDPad,CuDef*%
G36*
G01*
X61039501Y-125950261D02*
X61039501Y-125037761D01*
G75*
G02*
X61283251Y-124794011I243750J0D01*
G01*
X61770751Y-124794011D01*
G75*
G02*
X62014501Y-125037761I0J-243750D01*
G01*
X62014501Y-125950261D01*
G75*
G02*
X61770751Y-126194011I-243750J0D01*
G01*
X61283251Y-126194011D01*
G75*
G02*
X61039501Y-125950261I0J243750D01*
G01*
G37*
%TD.AperFunction*%
%TD*%
%TO.P,R4,1*%
%TO.N,Board_5-Net-(Q1-Pad3)*%
%TA.AperFunction,SMDPad,CuDef*%
G36*
G01*
X59067501Y-129252261D02*
X59067501Y-128339761D01*
G75*
G02*
X59311251Y-128096011I243750J0D01*
G01*
X59798751Y-128096011D01*
G75*
G02*
X60042501Y-128339761I0J-243750D01*
G01*
X60042501Y-129252261D01*
G75*
G02*
X59798751Y-129496011I-243750J0D01*
G01*
X59311251Y-129496011D01*
G75*
G02*
X59067501Y-129252261I0J243750D01*
G01*
G37*
%TD.AperFunction*%
%TO.P,R4,2*%
%TO.N,Board_5-3V3*%
%TA.AperFunction,SMDPad,CuDef*%
G36*
G01*
X60942501Y-129252261D02*
X60942501Y-128339761D01*
G75*
G02*
X61186251Y-128096011I243750J0D01*
G01*
X61673751Y-128096011D01*
G75*
G02*
X61917501Y-128339761I0J-243750D01*
G01*
X61917501Y-129252261D01*
G75*
G02*
X61673751Y-129496011I-243750J0D01*
G01*
X61186251Y-129496011D01*
G75*
G02*
X60942501Y-129252261I0J243750D01*
G01*
G37*
%TD.AperFunction*%
%TD*%
%TO.P,R3,2*%
%TO.N,Board_5-A*%
%TA.AperFunction,SMDPad,CuDef*%
G36*
G01*
X55959501Y-122648261D02*
X55959501Y-121735761D01*
G75*
G02*
X56203251Y-121492011I243750J0D01*
G01*
X56690751Y-121492011D01*
G75*
G02*
X56934501Y-121735761I0J-243750D01*
G01*
X56934501Y-122648261D01*
G75*
G02*
X56690751Y-122892011I-243750J0D01*
G01*
X56203251Y-122892011D01*
G75*
G02*
X55959501Y-122648261I0J243750D01*
G01*
G37*
%TD.AperFunction*%
%TO.P,R3,1*%
%TO.N,Board_5-Net-(D2-Pad2)*%
%TA.AperFunction,SMDPad,CuDef*%
G36*
G01*
X54084501Y-122648261D02*
X54084501Y-121735761D01*
G75*
G02*
X54328251Y-121492011I243750J0D01*
G01*
X54815751Y-121492011D01*
G75*
G02*
X55059501Y-121735761I0J-243750D01*
G01*
X55059501Y-122648261D01*
G75*
G02*
X54815751Y-122892011I-243750J0D01*
G01*
X54328251Y-122892011D01*
G75*
G02*
X54084501Y-122648261I0J243750D01*
G01*
G37*
%TD.AperFunction*%
%TD*%
%TO.P,R2,2*%
%TO.N,Board_5-Net-(D1-Pad1)*%
%TA.AperFunction,SMDPad,CuDef*%
G36*
G01*
X55959501Y-125950261D02*
X55959501Y-125037761D01*
G75*
G02*
X56203251Y-124794011I243750J0D01*
G01*
X56690751Y-124794011D01*
G75*
G02*
X56934501Y-125037761I0J-243750D01*
G01*
X56934501Y-125950261D01*
G75*
G02*
X56690751Y-126194011I-243750J0D01*
G01*
X56203251Y-126194011D01*
G75*
G02*
X55959501Y-125950261I0J243750D01*
G01*
G37*
%TD.AperFunction*%
%TO.P,R2,1*%
%TO.N,Board_5-A*%
%TA.AperFunction,SMDPad,CuDef*%
G36*
G01*
X54084501Y-125950261D02*
X54084501Y-125037761D01*
G75*
G02*
X54328251Y-124794011I243750J0D01*
G01*
X54815751Y-124794011D01*
G75*
G02*
X55059501Y-125037761I0J-243750D01*
G01*
X55059501Y-125950261D01*
G75*
G02*
X54815751Y-126194011I-243750J0D01*
G01*
X54328251Y-126194011D01*
G75*
G02*
X54084501Y-125950261I0J243750D01*
G01*
G37*
%TD.AperFunction*%
%TD*%
%TO.P,R1,1*%
%TO.N,Board_5-Net-(Q1-Pad2)*%
%TA.AperFunction,SMDPad,CuDef*%
G36*
G01*
X54084501Y-129252261D02*
X54084501Y-128339761D01*
G75*
G02*
X54328251Y-128096011I243750J0D01*
G01*
X54815751Y-128096011D01*
G75*
G02*
X55059501Y-128339761I0J-243750D01*
G01*
X55059501Y-129252261D01*
G75*
G02*
X54815751Y-129496011I-243750J0D01*
G01*
X54328251Y-129496011D01*
G75*
G02*
X54084501Y-129252261I0J243750D01*
G01*
G37*
%TD.AperFunction*%
%TO.P,R1,2*%
%TO.N,Board_5-D8*%
%TA.AperFunction,SMDPad,CuDef*%
G36*
G01*
X55959501Y-129252261D02*
X55959501Y-128339761D01*
G75*
G02*
X56203251Y-128096011I243750J0D01*
G01*
X56690751Y-128096011D01*
G75*
G02*
X56934501Y-128339761I0J-243750D01*
G01*
X56934501Y-129252261D01*
G75*
G02*
X56690751Y-129496011I-243750J0D01*
G01*
X56203251Y-129496011D01*
G75*
G02*
X55959501Y-129252261I0J243750D01*
G01*
G37*
%TD.AperFunction*%
%TD*%
D12*
%TO.P,Q2,3*%
%TO.N,Board_5-Net-(D3-Pad2)*%
X71590001Y-126510011D03*
%TO.P,Q2,2*%
%TO.N,Board_5-Net-(Q2-Pad2)*%
X74590001Y-127460011D03*
%TO.P,Q2,1*%
%TO.N,Board_5-B*%
X74590001Y-125560011D03*
%TD*%
%TO.P,Q1,1*%
%TO.N,Board_5-GND*%
X74590001Y-119530011D03*
%TO.P,Q1,2*%
%TO.N,Board_5-Net-(Q1-Pad2)*%
X74590001Y-121430011D03*
%TO.P,Q1,3*%
%TO.N,Board_5-Net-(Q1-Pad3)*%
X71590001Y-120480011D03*
%TD*%
D13*
%TO.P,J8,1*%
%TO.N,Board_5-5V*%
X64732001Y-138194011D03*
D14*
%TO.P,J8,2*%
%TO.N,Board_5-D4*%
X67272001Y-138194011D03*
%TO.P,J8,3*%
%TO.N,Board_5-GND*%
X69812001Y-138194011D03*
%TD*%
%TO.P,J7,3*%
%TO.N,Board_5-GND*%
X97752001Y-138194011D03*
%TO.P,J7,2*%
%TO.N,Board_5-3V3*%
X95212001Y-138194011D03*
D13*
%TO.P,J7,1*%
%TO.N,Board_5-5V*%
X92672001Y-138194011D03*
%TD*%
%TO.P,J4,1*%
%TO.N,Board_5-A*%
X51778001Y-133368011D03*
D14*
%TO.P,J4,2*%
%TO.N,Board_5-B*%
X51778001Y-135908011D03*
%TD*%
%TO.P,J3,2*%
%TO.N,Board_5-Net-(J11-Pad3)*%
X70320001Y-134638011D03*
D13*
%TO.P,J3,1*%
%TO.N,Board_5-Net-(D5-Pad1)*%
X70320001Y-132098011D03*
%TD*%
%TO.P,J2,1*%
%TO.N,Board_5-3V3*%
X72352001Y-138194011D03*
D14*
%TO.P,J2,2*%
%TO.N,Board_5-D3*%
X74892001Y-138194011D03*
%TO.P,J2,3*%
%TO.N,Board_5-Net-(J2-Pad3)*%
X77432001Y-138194011D03*
%TO.P,J2,4*%
%TO.N,Board_5-GND*%
X79972001Y-138194011D03*
%TD*%
%TO.P,J1,4*%
%TO.N,Board_5-SDA*%
X90132001Y-138194011D03*
%TO.P,J1,3*%
%TO.N,Board_5-SCL*%
X87592001Y-138194011D03*
%TO.P,J1,2*%
%TO.N,Board_5-GND*%
X85052001Y-138194011D03*
D13*
%TO.P,J1,1*%
%TO.N,Board_5-3V3*%
X82512001Y-138194011D03*
%TD*%
D15*
%TO.P,J11,1*%
%TO.N,Board_5-Net-(J11-Pad1)*%
X51938001Y-129144011D03*
%TO.P,J11,2*%
%TO.N,Board_5-B*%
X51938001Y-126604011D03*
%TO.P,J11,3*%
%TO.N,Board_5-Net-(J11-Pad3)*%
X51938001Y-124064011D03*
%TO.P,J11,4*%
%TO.N,Board_5-5V*%
X69398001Y-111684011D03*
%TO.P,J11,5*%
%TO.N,Board_5-GND*%
X69398001Y-114224011D03*
%TD*%
D16*
%TO.P,M1,1*%
%TO.N,N/C*%
X65875001Y-134130011D03*
%TD*%
D10*
%TO.P,U2,1*%
%TO.N,Board_4-Net-(Q1-Pad3)*%
X111976006Y-89652006D03*
D11*
%TO.P,U2,3*%
%TO.N,Board_4-Net-(R6-Pad2)*%
X114516006Y-82032006D03*
%TO.P,U2,2*%
%TO.N,Board_4-GND*%
X114516006Y-89652006D03*
%TO.P,U2,4*%
%TO.N,Board_4-Net-(D3-Pad1)*%
X111976006Y-82032006D03*
%TD*%
%TO.P,U1,4*%
%TO.N,Board_4-3V3*%
X103848006Y-82032006D03*
%TO.P,U1,2*%
%TO.N,Board_4-Net-(D1-Pad1)*%
X106388006Y-89652006D03*
%TO.P,U1,3*%
%TO.N,Board_4-D7*%
X106388006Y-82032006D03*
D10*
%TO.P,U1,1*%
%TO.N,Board_4-Net-(D2-Pad1)*%
X103848006Y-89652006D03*
%TD*%
%TO.P,R8,1*%
%TO.N,Board_4-Net-(D5-Pad2)*%
%TA.AperFunction,SMDPad,CuDef*%
G36*
G01*
X113647506Y-92648256D02*
X113647506Y-91735756D01*
G75*
G02*
X113891256Y-91492006I243750J0D01*
G01*
X114378756Y-91492006D01*
G75*
G02*
X114622506Y-91735756I0J-243750D01*
G01*
X114622506Y-92648256D01*
G75*
G02*
X114378756Y-92892006I-243750J0D01*
G01*
X113891256Y-92892006D01*
G75*
G02*
X113647506Y-92648256I0J243750D01*
G01*
G37*
%TD.AperFunction*%
%TO.P,R8,2*%
%TO.N,Board_4-A*%
%TA.AperFunction,SMDPad,CuDef*%
G36*
G01*
X115522506Y-92648256D02*
X115522506Y-91735756D01*
G75*
G02*
X115766256Y-91492006I243750J0D01*
G01*
X116253756Y-91492006D01*
G75*
G02*
X116497506Y-91735756I0J-243750D01*
G01*
X116497506Y-92648256D01*
G75*
G02*
X116253756Y-92892006I-243750J0D01*
G01*
X115766256Y-92892006D01*
G75*
G02*
X115522506Y-92648256I0J243750D01*
G01*
G37*
%TD.AperFunction*%
%TD*%
%TO.P,R7,2*%
%TO.N,Board_4-3V3*%
%TA.AperFunction,SMDPad,CuDef*%
G36*
G01*
X115522506Y-95950256D02*
X115522506Y-95037756D01*
G75*
G02*
X115766256Y-94794006I243750J0D01*
G01*
X116253756Y-94794006D01*
G75*
G02*
X116497506Y-95037756I0J-243750D01*
G01*
X116497506Y-95950256D01*
G75*
G02*
X116253756Y-96194006I-243750J0D01*
G01*
X115766256Y-96194006D01*
G75*
G02*
X115522506Y-95950256I0J243750D01*
G01*
G37*
%TD.AperFunction*%
%TO.P,R7,1*%
%TO.N,Board_4-D3*%
%TA.AperFunction,SMDPad,CuDef*%
G36*
G01*
X113647506Y-95950256D02*
X113647506Y-95037756D01*
G75*
G02*
X113891256Y-94794006I243750J0D01*
G01*
X114378756Y-94794006D01*
G75*
G02*
X114622506Y-95037756I0J-243750D01*
G01*
X114622506Y-95950256D01*
G75*
G02*
X114378756Y-96194006I-243750J0D01*
G01*
X113891256Y-96194006D01*
G75*
G02*
X113647506Y-95950256I0J243750D01*
G01*
G37*
%TD.AperFunction*%
%TD*%
%TO.P,R6,2*%
%TO.N,Board_4-Net-(R6-Pad2)*%
%TA.AperFunction,SMDPad,CuDef*%
G36*
G01*
X110569506Y-92648256D02*
X110569506Y-91735756D01*
G75*
G02*
X110813256Y-91492006I243750J0D01*
G01*
X111300756Y-91492006D01*
G75*
G02*
X111544506Y-91735756I0J-243750D01*
G01*
X111544506Y-92648256D01*
G75*
G02*
X111300756Y-92892006I-243750J0D01*
G01*
X110813256Y-92892006D01*
G75*
G02*
X110569506Y-92648256I0J243750D01*
G01*
G37*
%TD.AperFunction*%
%TO.P,R6,1*%
%TO.N,Board_4-Net-(Q2-Pad2)*%
%TA.AperFunction,SMDPad,CuDef*%
G36*
G01*
X108694506Y-92648256D02*
X108694506Y-91735756D01*
G75*
G02*
X108938256Y-91492006I243750J0D01*
G01*
X109425756Y-91492006D01*
G75*
G02*
X109669506Y-91735756I0J-243750D01*
G01*
X109669506Y-92648256D01*
G75*
G02*
X109425756Y-92892006I-243750J0D01*
G01*
X108938256Y-92892006D01*
G75*
G02*
X108694506Y-92648256I0J243750D01*
G01*
G37*
%TD.AperFunction*%
%TD*%
%TO.P,R5,1*%
%TO.N,Board_4-D7*%
%TA.AperFunction,SMDPad,CuDef*%
G36*
G01*
X108694506Y-95950256D02*
X108694506Y-95037756D01*
G75*
G02*
X108938256Y-94794006I243750J0D01*
G01*
X109425756Y-94794006D01*
G75*
G02*
X109669506Y-95037756I0J-243750D01*
G01*
X109669506Y-95950256D01*
G75*
G02*
X109425756Y-96194006I-243750J0D01*
G01*
X108938256Y-96194006D01*
G75*
G02*
X108694506Y-95950256I0J243750D01*
G01*
G37*
%TD.AperFunction*%
%TO.P,R5,2*%
%TO.N,Board_4-GND*%
%TA.AperFunction,SMDPad,CuDef*%
G36*
G01*
X110569506Y-95950256D02*
X110569506Y-95037756D01*
G75*
G02*
X110813256Y-94794006I243750J0D01*
G01*
X111300756Y-94794006D01*
G75*
G02*
X111544506Y-95037756I0J-243750D01*
G01*
X111544506Y-95950256D01*
G75*
G02*
X111300756Y-96194006I-243750J0D01*
G01*
X110813256Y-96194006D01*
G75*
G02*
X110569506Y-95950256I0J243750D01*
G01*
G37*
%TD.AperFunction*%
%TD*%
%TO.P,R4,1*%
%TO.N,Board_4-Net-(Q1-Pad3)*%
%TA.AperFunction,SMDPad,CuDef*%
G36*
G01*
X108597506Y-99252256D02*
X108597506Y-98339756D01*
G75*
G02*
X108841256Y-98096006I243750J0D01*
G01*
X109328756Y-98096006D01*
G75*
G02*
X109572506Y-98339756I0J-243750D01*
G01*
X109572506Y-99252256D01*
G75*
G02*
X109328756Y-99496006I-243750J0D01*
G01*
X108841256Y-99496006D01*
G75*
G02*
X108597506Y-99252256I0J243750D01*
G01*
G37*
%TD.AperFunction*%
%TO.P,R4,2*%
%TO.N,Board_4-3V3*%
%TA.AperFunction,SMDPad,CuDef*%
G36*
G01*
X110472506Y-99252256D02*
X110472506Y-98339756D01*
G75*
G02*
X110716256Y-98096006I243750J0D01*
G01*
X111203756Y-98096006D01*
G75*
G02*
X111447506Y-98339756I0J-243750D01*
G01*
X111447506Y-99252256D01*
G75*
G02*
X111203756Y-99496006I-243750J0D01*
G01*
X110716256Y-99496006D01*
G75*
G02*
X110472506Y-99252256I0J243750D01*
G01*
G37*
%TD.AperFunction*%
%TD*%
%TO.P,R3,2*%
%TO.N,Board_4-A*%
%TA.AperFunction,SMDPad,CuDef*%
G36*
G01*
X105489506Y-92648256D02*
X105489506Y-91735756D01*
G75*
G02*
X105733256Y-91492006I243750J0D01*
G01*
X106220756Y-91492006D01*
G75*
G02*
X106464506Y-91735756I0J-243750D01*
G01*
X106464506Y-92648256D01*
G75*
G02*
X106220756Y-92892006I-243750J0D01*
G01*
X105733256Y-92892006D01*
G75*
G02*
X105489506Y-92648256I0J243750D01*
G01*
G37*
%TD.AperFunction*%
%TO.P,R3,1*%
%TO.N,Board_4-Net-(D2-Pad2)*%
%TA.AperFunction,SMDPad,CuDef*%
G36*
G01*
X103614506Y-92648256D02*
X103614506Y-91735756D01*
G75*
G02*
X103858256Y-91492006I243750J0D01*
G01*
X104345756Y-91492006D01*
G75*
G02*
X104589506Y-91735756I0J-243750D01*
G01*
X104589506Y-92648256D01*
G75*
G02*
X104345756Y-92892006I-243750J0D01*
G01*
X103858256Y-92892006D01*
G75*
G02*
X103614506Y-92648256I0J243750D01*
G01*
G37*
%TD.AperFunction*%
%TD*%
%TO.P,R2,2*%
%TO.N,Board_4-Net-(D1-Pad1)*%
%TA.AperFunction,SMDPad,CuDef*%
G36*
G01*
X105489506Y-95950256D02*
X105489506Y-95037756D01*
G75*
G02*
X105733256Y-94794006I243750J0D01*
G01*
X106220756Y-94794006D01*
G75*
G02*
X106464506Y-95037756I0J-243750D01*
G01*
X106464506Y-95950256D01*
G75*
G02*
X106220756Y-96194006I-243750J0D01*
G01*
X105733256Y-96194006D01*
G75*
G02*
X105489506Y-95950256I0J243750D01*
G01*
G37*
%TD.AperFunction*%
%TO.P,R2,1*%
%TO.N,Board_4-A*%
%TA.AperFunction,SMDPad,CuDef*%
G36*
G01*
X103614506Y-95950256D02*
X103614506Y-95037756D01*
G75*
G02*
X103858256Y-94794006I243750J0D01*
G01*
X104345756Y-94794006D01*
G75*
G02*
X104589506Y-95037756I0J-243750D01*
G01*
X104589506Y-95950256D01*
G75*
G02*
X104345756Y-96194006I-243750J0D01*
G01*
X103858256Y-96194006D01*
G75*
G02*
X103614506Y-95950256I0J243750D01*
G01*
G37*
%TD.AperFunction*%
%TD*%
%TO.P,R1,1*%
%TO.N,Board_4-Net-(Q1-Pad2)*%
%TA.AperFunction,SMDPad,CuDef*%
G36*
G01*
X103614506Y-99252256D02*
X103614506Y-98339756D01*
G75*
G02*
X103858256Y-98096006I243750J0D01*
G01*
X104345756Y-98096006D01*
G75*
G02*
X104589506Y-98339756I0J-243750D01*
G01*
X104589506Y-99252256D01*
G75*
G02*
X104345756Y-99496006I-243750J0D01*
G01*
X103858256Y-99496006D01*
G75*
G02*
X103614506Y-99252256I0J243750D01*
G01*
G37*
%TD.AperFunction*%
%TO.P,R1,2*%
%TO.N,Board_4-D8*%
%TA.AperFunction,SMDPad,CuDef*%
G36*
G01*
X105489506Y-99252256D02*
X105489506Y-98339756D01*
G75*
G02*
X105733256Y-98096006I243750J0D01*
G01*
X106220756Y-98096006D01*
G75*
G02*
X106464506Y-98339756I0J-243750D01*
G01*
X106464506Y-99252256D01*
G75*
G02*
X106220756Y-99496006I-243750J0D01*
G01*
X105733256Y-99496006D01*
G75*
G02*
X105489506Y-99252256I0J243750D01*
G01*
G37*
%TD.AperFunction*%
%TD*%
D12*
%TO.P,Q2,3*%
%TO.N,Board_4-Net-(D3-Pad2)*%
X121120006Y-96510006D03*
%TO.P,Q2,2*%
%TO.N,Board_4-Net-(Q2-Pad2)*%
X124120006Y-97460006D03*
%TO.P,Q2,1*%
%TO.N,Board_4-B*%
X124120006Y-95560006D03*
%TD*%
%TO.P,Q1,1*%
%TO.N,Board_4-GND*%
X124120006Y-89530006D03*
%TO.P,Q1,2*%
%TO.N,Board_4-Net-(Q1-Pad2)*%
X124120006Y-91430006D03*
%TO.P,Q1,3*%
%TO.N,Board_4-Net-(Q1-Pad3)*%
X121120006Y-90480006D03*
%TD*%
D13*
%TO.P,J8,1*%
%TO.N,Board_4-5V*%
X114262006Y-108194006D03*
D14*
%TO.P,J8,2*%
%TO.N,Board_4-D4*%
X116802006Y-108194006D03*
%TO.P,J8,3*%
%TO.N,Board_4-GND*%
X119342006Y-108194006D03*
%TD*%
%TO.P,J7,3*%
%TO.N,Board_4-GND*%
X147282006Y-108194006D03*
%TO.P,J7,2*%
%TO.N,Board_4-3V3*%
X144742006Y-108194006D03*
D13*
%TO.P,J7,1*%
%TO.N,Board_4-5V*%
X142202006Y-108194006D03*
%TD*%
%TO.P,J4,1*%
%TO.N,Board_4-A*%
X101308006Y-103368006D03*
D14*
%TO.P,J4,2*%
%TO.N,Board_4-B*%
X101308006Y-105908006D03*
%TD*%
%TO.P,J3,2*%
%TO.N,Board_4-Net-(J11-Pad3)*%
X119850006Y-104638006D03*
D13*
%TO.P,J3,1*%
%TO.N,Board_4-Net-(D5-Pad1)*%
X119850006Y-102098006D03*
%TD*%
%TO.P,J2,1*%
%TO.N,Board_4-3V3*%
X121882006Y-108194006D03*
D14*
%TO.P,J2,2*%
%TO.N,Board_4-D3*%
X124422006Y-108194006D03*
%TO.P,J2,3*%
%TO.N,Board_4-Net-(J2-Pad3)*%
X126962006Y-108194006D03*
%TO.P,J2,4*%
%TO.N,Board_4-GND*%
X129502006Y-108194006D03*
%TD*%
%TO.P,J1,4*%
%TO.N,Board_4-SDA*%
X139662006Y-108194006D03*
%TO.P,J1,3*%
%TO.N,Board_4-SCL*%
X137122006Y-108194006D03*
%TO.P,J1,2*%
%TO.N,Board_4-GND*%
X134582006Y-108194006D03*
D13*
%TO.P,J1,1*%
%TO.N,Board_4-3V3*%
X132042006Y-108194006D03*
%TD*%
D15*
%TO.P,J11,1*%
%TO.N,Board_4-Net-(J11-Pad1)*%
X101468006Y-99144006D03*
%TO.P,J11,2*%
%TO.N,Board_4-B*%
X101468006Y-96604006D03*
%TO.P,J11,3*%
%TO.N,Board_4-Net-(J11-Pad3)*%
X101468006Y-94064006D03*
%TO.P,J11,4*%
%TO.N,Board_4-5V*%
X118928006Y-81684006D03*
%TO.P,J11,5*%
%TO.N,Board_4-GND*%
X118928006Y-84224006D03*
%TD*%
D16*
%TO.P,M1,1*%
%TO.N,N/C*%
X115405006Y-104130006D03*
%TD*%
D10*
%TO.P,U2,1*%
%TO.N,Board_3-Net-(Q1-Pad3)*%
X62446001Y-89652006D03*
D11*
%TO.P,U2,3*%
%TO.N,Board_3-Net-(R6-Pad2)*%
X64986001Y-82032006D03*
%TO.P,U2,2*%
%TO.N,Board_3-GND*%
X64986001Y-89652006D03*
%TO.P,U2,4*%
%TO.N,Board_3-Net-(D3-Pad1)*%
X62446001Y-82032006D03*
%TD*%
%TO.P,U1,4*%
%TO.N,Board_3-3V3*%
X54318001Y-82032006D03*
%TO.P,U1,2*%
%TO.N,Board_3-Net-(D1-Pad1)*%
X56858001Y-89652006D03*
%TO.P,U1,3*%
%TO.N,Board_3-D7*%
X56858001Y-82032006D03*
D10*
%TO.P,U1,1*%
%TO.N,Board_3-Net-(D2-Pad1)*%
X54318001Y-89652006D03*
%TD*%
%TO.P,R8,1*%
%TO.N,Board_3-Net-(D5-Pad2)*%
%TA.AperFunction,SMDPad,CuDef*%
G36*
G01*
X64117501Y-92648256D02*
X64117501Y-91735756D01*
G75*
G02*
X64361251Y-91492006I243750J0D01*
G01*
X64848751Y-91492006D01*
G75*
G02*
X65092501Y-91735756I0J-243750D01*
G01*
X65092501Y-92648256D01*
G75*
G02*
X64848751Y-92892006I-243750J0D01*
G01*
X64361251Y-92892006D01*
G75*
G02*
X64117501Y-92648256I0J243750D01*
G01*
G37*
%TD.AperFunction*%
%TO.P,R8,2*%
%TO.N,Board_3-A*%
%TA.AperFunction,SMDPad,CuDef*%
G36*
G01*
X65992501Y-92648256D02*
X65992501Y-91735756D01*
G75*
G02*
X66236251Y-91492006I243750J0D01*
G01*
X66723751Y-91492006D01*
G75*
G02*
X66967501Y-91735756I0J-243750D01*
G01*
X66967501Y-92648256D01*
G75*
G02*
X66723751Y-92892006I-243750J0D01*
G01*
X66236251Y-92892006D01*
G75*
G02*
X65992501Y-92648256I0J243750D01*
G01*
G37*
%TD.AperFunction*%
%TD*%
%TO.P,R7,2*%
%TO.N,Board_3-3V3*%
%TA.AperFunction,SMDPad,CuDef*%
G36*
G01*
X65992501Y-95950256D02*
X65992501Y-95037756D01*
G75*
G02*
X66236251Y-94794006I243750J0D01*
G01*
X66723751Y-94794006D01*
G75*
G02*
X66967501Y-95037756I0J-243750D01*
G01*
X66967501Y-95950256D01*
G75*
G02*
X66723751Y-96194006I-243750J0D01*
G01*
X66236251Y-96194006D01*
G75*
G02*
X65992501Y-95950256I0J243750D01*
G01*
G37*
%TD.AperFunction*%
%TO.P,R7,1*%
%TO.N,Board_3-D3*%
%TA.AperFunction,SMDPad,CuDef*%
G36*
G01*
X64117501Y-95950256D02*
X64117501Y-95037756D01*
G75*
G02*
X64361251Y-94794006I243750J0D01*
G01*
X64848751Y-94794006D01*
G75*
G02*
X65092501Y-95037756I0J-243750D01*
G01*
X65092501Y-95950256D01*
G75*
G02*
X64848751Y-96194006I-243750J0D01*
G01*
X64361251Y-96194006D01*
G75*
G02*
X64117501Y-95950256I0J243750D01*
G01*
G37*
%TD.AperFunction*%
%TD*%
%TO.P,R6,2*%
%TO.N,Board_3-Net-(R6-Pad2)*%
%TA.AperFunction,SMDPad,CuDef*%
G36*
G01*
X61039501Y-92648256D02*
X61039501Y-91735756D01*
G75*
G02*
X61283251Y-91492006I243750J0D01*
G01*
X61770751Y-91492006D01*
G75*
G02*
X62014501Y-91735756I0J-243750D01*
G01*
X62014501Y-92648256D01*
G75*
G02*
X61770751Y-92892006I-243750J0D01*
G01*
X61283251Y-92892006D01*
G75*
G02*
X61039501Y-92648256I0J243750D01*
G01*
G37*
%TD.AperFunction*%
%TO.P,R6,1*%
%TO.N,Board_3-Net-(Q2-Pad2)*%
%TA.AperFunction,SMDPad,CuDef*%
G36*
G01*
X59164501Y-92648256D02*
X59164501Y-91735756D01*
G75*
G02*
X59408251Y-91492006I243750J0D01*
G01*
X59895751Y-91492006D01*
G75*
G02*
X60139501Y-91735756I0J-243750D01*
G01*
X60139501Y-92648256D01*
G75*
G02*
X59895751Y-92892006I-243750J0D01*
G01*
X59408251Y-92892006D01*
G75*
G02*
X59164501Y-92648256I0J243750D01*
G01*
G37*
%TD.AperFunction*%
%TD*%
%TO.P,R5,1*%
%TO.N,Board_3-D7*%
%TA.AperFunction,SMDPad,CuDef*%
G36*
G01*
X59164501Y-95950256D02*
X59164501Y-95037756D01*
G75*
G02*
X59408251Y-94794006I243750J0D01*
G01*
X59895751Y-94794006D01*
G75*
G02*
X60139501Y-95037756I0J-243750D01*
G01*
X60139501Y-95950256D01*
G75*
G02*
X59895751Y-96194006I-243750J0D01*
G01*
X59408251Y-96194006D01*
G75*
G02*
X59164501Y-95950256I0J243750D01*
G01*
G37*
%TD.AperFunction*%
%TO.P,R5,2*%
%TO.N,Board_3-GND*%
%TA.AperFunction,SMDPad,CuDef*%
G36*
G01*
X61039501Y-95950256D02*
X61039501Y-95037756D01*
G75*
G02*
X61283251Y-94794006I243750J0D01*
G01*
X61770751Y-94794006D01*
G75*
G02*
X62014501Y-95037756I0J-243750D01*
G01*
X62014501Y-95950256D01*
G75*
G02*
X61770751Y-96194006I-243750J0D01*
G01*
X61283251Y-96194006D01*
G75*
G02*
X61039501Y-95950256I0J243750D01*
G01*
G37*
%TD.AperFunction*%
%TD*%
%TO.P,R4,1*%
%TO.N,Board_3-Net-(Q1-Pad3)*%
%TA.AperFunction,SMDPad,CuDef*%
G36*
G01*
X59067501Y-99252256D02*
X59067501Y-98339756D01*
G75*
G02*
X59311251Y-98096006I243750J0D01*
G01*
X59798751Y-98096006D01*
G75*
G02*
X60042501Y-98339756I0J-243750D01*
G01*
X60042501Y-99252256D01*
G75*
G02*
X59798751Y-99496006I-243750J0D01*
G01*
X59311251Y-99496006D01*
G75*
G02*
X59067501Y-99252256I0J243750D01*
G01*
G37*
%TD.AperFunction*%
%TO.P,R4,2*%
%TO.N,Board_3-3V3*%
%TA.AperFunction,SMDPad,CuDef*%
G36*
G01*
X60942501Y-99252256D02*
X60942501Y-98339756D01*
G75*
G02*
X61186251Y-98096006I243750J0D01*
G01*
X61673751Y-98096006D01*
G75*
G02*
X61917501Y-98339756I0J-243750D01*
G01*
X61917501Y-99252256D01*
G75*
G02*
X61673751Y-99496006I-243750J0D01*
G01*
X61186251Y-99496006D01*
G75*
G02*
X60942501Y-99252256I0J243750D01*
G01*
G37*
%TD.AperFunction*%
%TD*%
%TO.P,R3,2*%
%TO.N,Board_3-A*%
%TA.AperFunction,SMDPad,CuDef*%
G36*
G01*
X55959501Y-92648256D02*
X55959501Y-91735756D01*
G75*
G02*
X56203251Y-91492006I243750J0D01*
G01*
X56690751Y-91492006D01*
G75*
G02*
X56934501Y-91735756I0J-243750D01*
G01*
X56934501Y-92648256D01*
G75*
G02*
X56690751Y-92892006I-243750J0D01*
G01*
X56203251Y-92892006D01*
G75*
G02*
X55959501Y-92648256I0J243750D01*
G01*
G37*
%TD.AperFunction*%
%TO.P,R3,1*%
%TO.N,Board_3-Net-(D2-Pad2)*%
%TA.AperFunction,SMDPad,CuDef*%
G36*
G01*
X54084501Y-92648256D02*
X54084501Y-91735756D01*
G75*
G02*
X54328251Y-91492006I243750J0D01*
G01*
X54815751Y-91492006D01*
G75*
G02*
X55059501Y-91735756I0J-243750D01*
G01*
X55059501Y-92648256D01*
G75*
G02*
X54815751Y-92892006I-243750J0D01*
G01*
X54328251Y-92892006D01*
G75*
G02*
X54084501Y-92648256I0J243750D01*
G01*
G37*
%TD.AperFunction*%
%TD*%
%TO.P,R2,2*%
%TO.N,Board_3-Net-(D1-Pad1)*%
%TA.AperFunction,SMDPad,CuDef*%
G36*
G01*
X55959501Y-95950256D02*
X55959501Y-95037756D01*
G75*
G02*
X56203251Y-94794006I243750J0D01*
G01*
X56690751Y-94794006D01*
G75*
G02*
X56934501Y-95037756I0J-243750D01*
G01*
X56934501Y-95950256D01*
G75*
G02*
X56690751Y-96194006I-243750J0D01*
G01*
X56203251Y-96194006D01*
G75*
G02*
X55959501Y-95950256I0J243750D01*
G01*
G37*
%TD.AperFunction*%
%TO.P,R2,1*%
%TO.N,Board_3-A*%
%TA.AperFunction,SMDPad,CuDef*%
G36*
G01*
X54084501Y-95950256D02*
X54084501Y-95037756D01*
G75*
G02*
X54328251Y-94794006I243750J0D01*
G01*
X54815751Y-94794006D01*
G75*
G02*
X55059501Y-95037756I0J-243750D01*
G01*
X55059501Y-95950256D01*
G75*
G02*
X54815751Y-96194006I-243750J0D01*
G01*
X54328251Y-96194006D01*
G75*
G02*
X54084501Y-95950256I0J243750D01*
G01*
G37*
%TD.AperFunction*%
%TD*%
%TO.P,R1,1*%
%TO.N,Board_3-Net-(Q1-Pad2)*%
%TA.AperFunction,SMDPad,CuDef*%
G36*
G01*
X54084501Y-99252256D02*
X54084501Y-98339756D01*
G75*
G02*
X54328251Y-98096006I243750J0D01*
G01*
X54815751Y-98096006D01*
G75*
G02*
X55059501Y-98339756I0J-243750D01*
G01*
X55059501Y-99252256D01*
G75*
G02*
X54815751Y-99496006I-243750J0D01*
G01*
X54328251Y-99496006D01*
G75*
G02*
X54084501Y-99252256I0J243750D01*
G01*
G37*
%TD.AperFunction*%
%TO.P,R1,2*%
%TO.N,Board_3-D8*%
%TA.AperFunction,SMDPad,CuDef*%
G36*
G01*
X55959501Y-99252256D02*
X55959501Y-98339756D01*
G75*
G02*
X56203251Y-98096006I243750J0D01*
G01*
X56690751Y-98096006D01*
G75*
G02*
X56934501Y-98339756I0J-243750D01*
G01*
X56934501Y-99252256D01*
G75*
G02*
X56690751Y-99496006I-243750J0D01*
G01*
X56203251Y-99496006D01*
G75*
G02*
X55959501Y-99252256I0J243750D01*
G01*
G37*
%TD.AperFunction*%
%TD*%
D12*
%TO.P,Q2,3*%
%TO.N,Board_3-Net-(D3-Pad2)*%
X71590001Y-96510006D03*
%TO.P,Q2,2*%
%TO.N,Board_3-Net-(Q2-Pad2)*%
X74590001Y-97460006D03*
%TO.P,Q2,1*%
%TO.N,Board_3-B*%
X74590001Y-95560006D03*
%TD*%
%TO.P,Q1,1*%
%TO.N,Board_3-GND*%
X74590001Y-89530006D03*
%TO.P,Q1,2*%
%TO.N,Board_3-Net-(Q1-Pad2)*%
X74590001Y-91430006D03*
%TO.P,Q1,3*%
%TO.N,Board_3-Net-(Q1-Pad3)*%
X71590001Y-90480006D03*
%TD*%
D13*
%TO.P,J8,1*%
%TO.N,Board_3-5V*%
X64732001Y-108194006D03*
D14*
%TO.P,J8,2*%
%TO.N,Board_3-D4*%
X67272001Y-108194006D03*
%TO.P,J8,3*%
%TO.N,Board_3-GND*%
X69812001Y-108194006D03*
%TD*%
%TO.P,J7,3*%
%TO.N,Board_3-GND*%
X97752001Y-108194006D03*
%TO.P,J7,2*%
%TO.N,Board_3-3V3*%
X95212001Y-108194006D03*
D13*
%TO.P,J7,1*%
%TO.N,Board_3-5V*%
X92672001Y-108194006D03*
%TD*%
%TO.P,J4,1*%
%TO.N,Board_3-A*%
X51778001Y-103368006D03*
D14*
%TO.P,J4,2*%
%TO.N,Board_3-B*%
X51778001Y-105908006D03*
%TD*%
%TO.P,J3,2*%
%TO.N,Board_3-Net-(J11-Pad3)*%
X70320001Y-104638006D03*
D13*
%TO.P,J3,1*%
%TO.N,Board_3-Net-(D5-Pad1)*%
X70320001Y-102098006D03*
%TD*%
%TO.P,J2,1*%
%TO.N,Board_3-3V3*%
X72352001Y-108194006D03*
D14*
%TO.P,J2,2*%
%TO.N,Board_3-D3*%
X74892001Y-108194006D03*
%TO.P,J2,3*%
%TO.N,Board_3-Net-(J2-Pad3)*%
X77432001Y-108194006D03*
%TO.P,J2,4*%
%TO.N,Board_3-GND*%
X79972001Y-108194006D03*
%TD*%
%TO.P,J1,4*%
%TO.N,Board_3-SDA*%
X90132001Y-108194006D03*
%TO.P,J1,3*%
%TO.N,Board_3-SCL*%
X87592001Y-108194006D03*
%TO.P,J1,2*%
%TO.N,Board_3-GND*%
X85052001Y-108194006D03*
D13*
%TO.P,J1,1*%
%TO.N,Board_3-3V3*%
X82512001Y-108194006D03*
%TD*%
D15*
%TO.P,J11,1*%
%TO.N,Board_3-Net-(J11-Pad1)*%
X51938001Y-99144006D03*
%TO.P,J11,2*%
%TO.N,Board_3-B*%
X51938001Y-96604006D03*
%TO.P,J11,3*%
%TO.N,Board_3-Net-(J11-Pad3)*%
X51938001Y-94064006D03*
%TO.P,J11,4*%
%TO.N,Board_3-5V*%
X69398001Y-81684006D03*
%TO.P,J11,5*%
%TO.N,Board_3-GND*%
X69398001Y-84224006D03*
%TD*%
D16*
%TO.P,M1,1*%
%TO.N,N/C*%
X65875001Y-104130006D03*
%TD*%
D10*
%TO.P,U2,1*%
%TO.N,Board_2-Net-(Q1-Pad3)*%
X111976006Y-59652001D03*
D11*
%TO.P,U2,3*%
%TO.N,Board_2-Net-(R6-Pad2)*%
X114516006Y-52032001D03*
%TO.P,U2,2*%
%TO.N,Board_2-GND*%
X114516006Y-59652001D03*
%TO.P,U2,4*%
%TO.N,Board_2-Net-(D3-Pad1)*%
X111976006Y-52032001D03*
%TD*%
%TO.P,U1,4*%
%TO.N,Board_2-3V3*%
X103848006Y-52032001D03*
%TO.P,U1,2*%
%TO.N,Board_2-Net-(D1-Pad1)*%
X106388006Y-59652001D03*
%TO.P,U1,3*%
%TO.N,Board_2-D7*%
X106388006Y-52032001D03*
D10*
%TO.P,U1,1*%
%TO.N,Board_2-Net-(D2-Pad1)*%
X103848006Y-59652001D03*
%TD*%
%TO.P,R8,1*%
%TO.N,Board_2-Net-(D5-Pad2)*%
%TA.AperFunction,SMDPad,CuDef*%
G36*
G01*
X113647506Y-62648251D02*
X113647506Y-61735751D01*
G75*
G02*
X113891256Y-61492001I243750J0D01*
G01*
X114378756Y-61492001D01*
G75*
G02*
X114622506Y-61735751I0J-243750D01*
G01*
X114622506Y-62648251D01*
G75*
G02*
X114378756Y-62892001I-243750J0D01*
G01*
X113891256Y-62892001D01*
G75*
G02*
X113647506Y-62648251I0J243750D01*
G01*
G37*
%TD.AperFunction*%
%TO.P,R8,2*%
%TO.N,Board_2-A*%
%TA.AperFunction,SMDPad,CuDef*%
G36*
G01*
X115522506Y-62648251D02*
X115522506Y-61735751D01*
G75*
G02*
X115766256Y-61492001I243750J0D01*
G01*
X116253756Y-61492001D01*
G75*
G02*
X116497506Y-61735751I0J-243750D01*
G01*
X116497506Y-62648251D01*
G75*
G02*
X116253756Y-62892001I-243750J0D01*
G01*
X115766256Y-62892001D01*
G75*
G02*
X115522506Y-62648251I0J243750D01*
G01*
G37*
%TD.AperFunction*%
%TD*%
%TO.P,R7,2*%
%TO.N,Board_2-3V3*%
%TA.AperFunction,SMDPad,CuDef*%
G36*
G01*
X115522506Y-65950251D02*
X115522506Y-65037751D01*
G75*
G02*
X115766256Y-64794001I243750J0D01*
G01*
X116253756Y-64794001D01*
G75*
G02*
X116497506Y-65037751I0J-243750D01*
G01*
X116497506Y-65950251D01*
G75*
G02*
X116253756Y-66194001I-243750J0D01*
G01*
X115766256Y-66194001D01*
G75*
G02*
X115522506Y-65950251I0J243750D01*
G01*
G37*
%TD.AperFunction*%
%TO.P,R7,1*%
%TO.N,Board_2-D3*%
%TA.AperFunction,SMDPad,CuDef*%
G36*
G01*
X113647506Y-65950251D02*
X113647506Y-65037751D01*
G75*
G02*
X113891256Y-64794001I243750J0D01*
G01*
X114378756Y-64794001D01*
G75*
G02*
X114622506Y-65037751I0J-243750D01*
G01*
X114622506Y-65950251D01*
G75*
G02*
X114378756Y-66194001I-243750J0D01*
G01*
X113891256Y-66194001D01*
G75*
G02*
X113647506Y-65950251I0J243750D01*
G01*
G37*
%TD.AperFunction*%
%TD*%
%TO.P,R6,2*%
%TO.N,Board_2-Net-(R6-Pad2)*%
%TA.AperFunction,SMDPad,CuDef*%
G36*
G01*
X110569506Y-62648251D02*
X110569506Y-61735751D01*
G75*
G02*
X110813256Y-61492001I243750J0D01*
G01*
X111300756Y-61492001D01*
G75*
G02*
X111544506Y-61735751I0J-243750D01*
G01*
X111544506Y-62648251D01*
G75*
G02*
X111300756Y-62892001I-243750J0D01*
G01*
X110813256Y-62892001D01*
G75*
G02*
X110569506Y-62648251I0J243750D01*
G01*
G37*
%TD.AperFunction*%
%TO.P,R6,1*%
%TO.N,Board_2-Net-(Q2-Pad2)*%
%TA.AperFunction,SMDPad,CuDef*%
G36*
G01*
X108694506Y-62648251D02*
X108694506Y-61735751D01*
G75*
G02*
X108938256Y-61492001I243750J0D01*
G01*
X109425756Y-61492001D01*
G75*
G02*
X109669506Y-61735751I0J-243750D01*
G01*
X109669506Y-62648251D01*
G75*
G02*
X109425756Y-62892001I-243750J0D01*
G01*
X108938256Y-62892001D01*
G75*
G02*
X108694506Y-62648251I0J243750D01*
G01*
G37*
%TD.AperFunction*%
%TD*%
%TO.P,R5,1*%
%TO.N,Board_2-D7*%
%TA.AperFunction,SMDPad,CuDef*%
G36*
G01*
X108694506Y-65950251D02*
X108694506Y-65037751D01*
G75*
G02*
X108938256Y-64794001I243750J0D01*
G01*
X109425756Y-64794001D01*
G75*
G02*
X109669506Y-65037751I0J-243750D01*
G01*
X109669506Y-65950251D01*
G75*
G02*
X109425756Y-66194001I-243750J0D01*
G01*
X108938256Y-66194001D01*
G75*
G02*
X108694506Y-65950251I0J243750D01*
G01*
G37*
%TD.AperFunction*%
%TO.P,R5,2*%
%TO.N,Board_2-GND*%
%TA.AperFunction,SMDPad,CuDef*%
G36*
G01*
X110569506Y-65950251D02*
X110569506Y-65037751D01*
G75*
G02*
X110813256Y-64794001I243750J0D01*
G01*
X111300756Y-64794001D01*
G75*
G02*
X111544506Y-65037751I0J-243750D01*
G01*
X111544506Y-65950251D01*
G75*
G02*
X111300756Y-66194001I-243750J0D01*
G01*
X110813256Y-66194001D01*
G75*
G02*
X110569506Y-65950251I0J243750D01*
G01*
G37*
%TD.AperFunction*%
%TD*%
%TO.P,R4,1*%
%TO.N,Board_2-Net-(Q1-Pad3)*%
%TA.AperFunction,SMDPad,CuDef*%
G36*
G01*
X108597506Y-69252251D02*
X108597506Y-68339751D01*
G75*
G02*
X108841256Y-68096001I243750J0D01*
G01*
X109328756Y-68096001D01*
G75*
G02*
X109572506Y-68339751I0J-243750D01*
G01*
X109572506Y-69252251D01*
G75*
G02*
X109328756Y-69496001I-243750J0D01*
G01*
X108841256Y-69496001D01*
G75*
G02*
X108597506Y-69252251I0J243750D01*
G01*
G37*
%TD.AperFunction*%
%TO.P,R4,2*%
%TO.N,Board_2-3V3*%
%TA.AperFunction,SMDPad,CuDef*%
G36*
G01*
X110472506Y-69252251D02*
X110472506Y-68339751D01*
G75*
G02*
X110716256Y-68096001I243750J0D01*
G01*
X111203756Y-68096001D01*
G75*
G02*
X111447506Y-68339751I0J-243750D01*
G01*
X111447506Y-69252251D01*
G75*
G02*
X111203756Y-69496001I-243750J0D01*
G01*
X110716256Y-69496001D01*
G75*
G02*
X110472506Y-69252251I0J243750D01*
G01*
G37*
%TD.AperFunction*%
%TD*%
%TO.P,R3,2*%
%TO.N,Board_2-A*%
%TA.AperFunction,SMDPad,CuDef*%
G36*
G01*
X105489506Y-62648251D02*
X105489506Y-61735751D01*
G75*
G02*
X105733256Y-61492001I243750J0D01*
G01*
X106220756Y-61492001D01*
G75*
G02*
X106464506Y-61735751I0J-243750D01*
G01*
X106464506Y-62648251D01*
G75*
G02*
X106220756Y-62892001I-243750J0D01*
G01*
X105733256Y-62892001D01*
G75*
G02*
X105489506Y-62648251I0J243750D01*
G01*
G37*
%TD.AperFunction*%
%TO.P,R3,1*%
%TO.N,Board_2-Net-(D2-Pad2)*%
%TA.AperFunction,SMDPad,CuDef*%
G36*
G01*
X103614506Y-62648251D02*
X103614506Y-61735751D01*
G75*
G02*
X103858256Y-61492001I243750J0D01*
G01*
X104345756Y-61492001D01*
G75*
G02*
X104589506Y-61735751I0J-243750D01*
G01*
X104589506Y-62648251D01*
G75*
G02*
X104345756Y-62892001I-243750J0D01*
G01*
X103858256Y-62892001D01*
G75*
G02*
X103614506Y-62648251I0J243750D01*
G01*
G37*
%TD.AperFunction*%
%TD*%
%TO.P,R2,2*%
%TO.N,Board_2-Net-(D1-Pad1)*%
%TA.AperFunction,SMDPad,CuDef*%
G36*
G01*
X105489506Y-65950251D02*
X105489506Y-65037751D01*
G75*
G02*
X105733256Y-64794001I243750J0D01*
G01*
X106220756Y-64794001D01*
G75*
G02*
X106464506Y-65037751I0J-243750D01*
G01*
X106464506Y-65950251D01*
G75*
G02*
X106220756Y-66194001I-243750J0D01*
G01*
X105733256Y-66194001D01*
G75*
G02*
X105489506Y-65950251I0J243750D01*
G01*
G37*
%TD.AperFunction*%
%TO.P,R2,1*%
%TO.N,Board_2-A*%
%TA.AperFunction,SMDPad,CuDef*%
G36*
G01*
X103614506Y-65950251D02*
X103614506Y-65037751D01*
G75*
G02*
X103858256Y-64794001I243750J0D01*
G01*
X104345756Y-64794001D01*
G75*
G02*
X104589506Y-65037751I0J-243750D01*
G01*
X104589506Y-65950251D01*
G75*
G02*
X104345756Y-66194001I-243750J0D01*
G01*
X103858256Y-66194001D01*
G75*
G02*
X103614506Y-65950251I0J243750D01*
G01*
G37*
%TD.AperFunction*%
%TD*%
%TO.P,R1,1*%
%TO.N,Board_2-Net-(Q1-Pad2)*%
%TA.AperFunction,SMDPad,CuDef*%
G36*
G01*
X103614506Y-69252251D02*
X103614506Y-68339751D01*
G75*
G02*
X103858256Y-68096001I243750J0D01*
G01*
X104345756Y-68096001D01*
G75*
G02*
X104589506Y-68339751I0J-243750D01*
G01*
X104589506Y-69252251D01*
G75*
G02*
X104345756Y-69496001I-243750J0D01*
G01*
X103858256Y-69496001D01*
G75*
G02*
X103614506Y-69252251I0J243750D01*
G01*
G37*
%TD.AperFunction*%
%TO.P,R1,2*%
%TO.N,Board_2-D8*%
%TA.AperFunction,SMDPad,CuDef*%
G36*
G01*
X105489506Y-69252251D02*
X105489506Y-68339751D01*
G75*
G02*
X105733256Y-68096001I243750J0D01*
G01*
X106220756Y-68096001D01*
G75*
G02*
X106464506Y-68339751I0J-243750D01*
G01*
X106464506Y-69252251D01*
G75*
G02*
X106220756Y-69496001I-243750J0D01*
G01*
X105733256Y-69496001D01*
G75*
G02*
X105489506Y-69252251I0J243750D01*
G01*
G37*
%TD.AperFunction*%
%TD*%
D12*
%TO.P,Q2,3*%
%TO.N,Board_2-Net-(D3-Pad2)*%
X121120006Y-66510001D03*
%TO.P,Q2,2*%
%TO.N,Board_2-Net-(Q2-Pad2)*%
X124120006Y-67460001D03*
%TO.P,Q2,1*%
%TO.N,Board_2-B*%
X124120006Y-65560001D03*
%TD*%
%TO.P,Q1,1*%
%TO.N,Board_2-GND*%
X124120006Y-59530001D03*
%TO.P,Q1,2*%
%TO.N,Board_2-Net-(Q1-Pad2)*%
X124120006Y-61430001D03*
%TO.P,Q1,3*%
%TO.N,Board_2-Net-(Q1-Pad3)*%
X121120006Y-60480001D03*
%TD*%
D13*
%TO.P,J8,1*%
%TO.N,Board_2-5V*%
X114262006Y-78194001D03*
D14*
%TO.P,J8,2*%
%TO.N,Board_2-D4*%
X116802006Y-78194001D03*
%TO.P,J8,3*%
%TO.N,Board_2-GND*%
X119342006Y-78194001D03*
%TD*%
%TO.P,J7,3*%
%TO.N,Board_2-GND*%
X147282006Y-78194001D03*
%TO.P,J7,2*%
%TO.N,Board_2-3V3*%
X144742006Y-78194001D03*
D13*
%TO.P,J7,1*%
%TO.N,Board_2-5V*%
X142202006Y-78194001D03*
%TD*%
%TO.P,J4,1*%
%TO.N,Board_2-A*%
X101308006Y-73368001D03*
D14*
%TO.P,J4,2*%
%TO.N,Board_2-B*%
X101308006Y-75908001D03*
%TD*%
%TO.P,J3,2*%
%TO.N,Board_2-Net-(J11-Pad3)*%
X119850006Y-74638001D03*
D13*
%TO.P,J3,1*%
%TO.N,Board_2-Net-(D5-Pad1)*%
X119850006Y-72098001D03*
%TD*%
%TO.P,J2,1*%
%TO.N,Board_2-3V3*%
X121882006Y-78194001D03*
D14*
%TO.P,J2,2*%
%TO.N,Board_2-D3*%
X124422006Y-78194001D03*
%TO.P,J2,3*%
%TO.N,Board_2-Net-(J2-Pad3)*%
X126962006Y-78194001D03*
%TO.P,J2,4*%
%TO.N,Board_2-GND*%
X129502006Y-78194001D03*
%TD*%
%TO.P,J1,4*%
%TO.N,Board_2-SDA*%
X139662006Y-78194001D03*
%TO.P,J1,3*%
%TO.N,Board_2-SCL*%
X137122006Y-78194001D03*
%TO.P,J1,2*%
%TO.N,Board_2-GND*%
X134582006Y-78194001D03*
D13*
%TO.P,J1,1*%
%TO.N,Board_2-3V3*%
X132042006Y-78194001D03*
%TD*%
D15*
%TO.P,J11,1*%
%TO.N,Board_2-Net-(J11-Pad1)*%
X101468006Y-69144001D03*
%TO.P,J11,2*%
%TO.N,Board_2-B*%
X101468006Y-66604001D03*
%TO.P,J11,3*%
%TO.N,Board_2-Net-(J11-Pad3)*%
X101468006Y-64064001D03*
%TO.P,J11,4*%
%TO.N,Board_2-5V*%
X118928006Y-51684001D03*
%TO.P,J11,5*%
%TO.N,Board_2-GND*%
X118928006Y-54224001D03*
%TD*%
D16*
%TO.P,M1,1*%
%TO.N,N/C*%
X115405006Y-74130001D03*
%TD*%
D10*
%TO.P,U2,1*%
%TO.N,Board_1-Net-(Q1-Pad3)*%
X62446001Y-59652001D03*
D11*
%TO.P,U2,3*%
%TO.N,Board_1-Net-(R6-Pad2)*%
X64986001Y-52032001D03*
%TO.P,U2,2*%
%TO.N,Board_1-GND*%
X64986001Y-59652001D03*
%TO.P,U2,4*%
%TO.N,Board_1-Net-(D3-Pad1)*%
X62446001Y-52032001D03*
%TD*%
%TO.P,U1,4*%
%TO.N,Board_1-3V3*%
X54318001Y-52032001D03*
%TO.P,U1,2*%
%TO.N,Board_1-Net-(D1-Pad1)*%
X56858001Y-59652001D03*
%TO.P,U1,3*%
%TO.N,Board_1-D7*%
X56858001Y-52032001D03*
D10*
%TO.P,U1,1*%
%TO.N,Board_1-Net-(D2-Pad1)*%
X54318001Y-59652001D03*
%TD*%
%TO.P,R8,1*%
%TO.N,Board_1-Net-(D5-Pad2)*%
%TA.AperFunction,SMDPad,CuDef*%
G36*
G01*
X64117501Y-62648251D02*
X64117501Y-61735751D01*
G75*
G02*
X64361251Y-61492001I243750J0D01*
G01*
X64848751Y-61492001D01*
G75*
G02*
X65092501Y-61735751I0J-243750D01*
G01*
X65092501Y-62648251D01*
G75*
G02*
X64848751Y-62892001I-243750J0D01*
G01*
X64361251Y-62892001D01*
G75*
G02*
X64117501Y-62648251I0J243750D01*
G01*
G37*
%TD.AperFunction*%
%TO.P,R8,2*%
%TO.N,Board_1-A*%
%TA.AperFunction,SMDPad,CuDef*%
G36*
G01*
X65992501Y-62648251D02*
X65992501Y-61735751D01*
G75*
G02*
X66236251Y-61492001I243750J0D01*
G01*
X66723751Y-61492001D01*
G75*
G02*
X66967501Y-61735751I0J-243750D01*
G01*
X66967501Y-62648251D01*
G75*
G02*
X66723751Y-62892001I-243750J0D01*
G01*
X66236251Y-62892001D01*
G75*
G02*
X65992501Y-62648251I0J243750D01*
G01*
G37*
%TD.AperFunction*%
%TD*%
%TO.P,R7,2*%
%TO.N,Board_1-3V3*%
%TA.AperFunction,SMDPad,CuDef*%
G36*
G01*
X65992501Y-65950251D02*
X65992501Y-65037751D01*
G75*
G02*
X66236251Y-64794001I243750J0D01*
G01*
X66723751Y-64794001D01*
G75*
G02*
X66967501Y-65037751I0J-243750D01*
G01*
X66967501Y-65950251D01*
G75*
G02*
X66723751Y-66194001I-243750J0D01*
G01*
X66236251Y-66194001D01*
G75*
G02*
X65992501Y-65950251I0J243750D01*
G01*
G37*
%TD.AperFunction*%
%TO.P,R7,1*%
%TO.N,Board_1-D3*%
%TA.AperFunction,SMDPad,CuDef*%
G36*
G01*
X64117501Y-65950251D02*
X64117501Y-65037751D01*
G75*
G02*
X64361251Y-64794001I243750J0D01*
G01*
X64848751Y-64794001D01*
G75*
G02*
X65092501Y-65037751I0J-243750D01*
G01*
X65092501Y-65950251D01*
G75*
G02*
X64848751Y-66194001I-243750J0D01*
G01*
X64361251Y-66194001D01*
G75*
G02*
X64117501Y-65950251I0J243750D01*
G01*
G37*
%TD.AperFunction*%
%TD*%
%TO.P,R6,2*%
%TO.N,Board_1-Net-(R6-Pad2)*%
%TA.AperFunction,SMDPad,CuDef*%
G36*
G01*
X61039501Y-62648251D02*
X61039501Y-61735751D01*
G75*
G02*
X61283251Y-61492001I243750J0D01*
G01*
X61770751Y-61492001D01*
G75*
G02*
X62014501Y-61735751I0J-243750D01*
G01*
X62014501Y-62648251D01*
G75*
G02*
X61770751Y-62892001I-243750J0D01*
G01*
X61283251Y-62892001D01*
G75*
G02*
X61039501Y-62648251I0J243750D01*
G01*
G37*
%TD.AperFunction*%
%TO.P,R6,1*%
%TO.N,Board_1-Net-(Q2-Pad2)*%
%TA.AperFunction,SMDPad,CuDef*%
G36*
G01*
X59164501Y-62648251D02*
X59164501Y-61735751D01*
G75*
G02*
X59408251Y-61492001I243750J0D01*
G01*
X59895751Y-61492001D01*
G75*
G02*
X60139501Y-61735751I0J-243750D01*
G01*
X60139501Y-62648251D01*
G75*
G02*
X59895751Y-62892001I-243750J0D01*
G01*
X59408251Y-62892001D01*
G75*
G02*
X59164501Y-62648251I0J243750D01*
G01*
G37*
%TD.AperFunction*%
%TD*%
%TO.P,R5,1*%
%TO.N,Board_1-D7*%
%TA.AperFunction,SMDPad,CuDef*%
G36*
G01*
X59164501Y-65950251D02*
X59164501Y-65037751D01*
G75*
G02*
X59408251Y-64794001I243750J0D01*
G01*
X59895751Y-64794001D01*
G75*
G02*
X60139501Y-65037751I0J-243750D01*
G01*
X60139501Y-65950251D01*
G75*
G02*
X59895751Y-66194001I-243750J0D01*
G01*
X59408251Y-66194001D01*
G75*
G02*
X59164501Y-65950251I0J243750D01*
G01*
G37*
%TD.AperFunction*%
%TO.P,R5,2*%
%TO.N,Board_1-GND*%
%TA.AperFunction,SMDPad,CuDef*%
G36*
G01*
X61039501Y-65950251D02*
X61039501Y-65037751D01*
G75*
G02*
X61283251Y-64794001I243750J0D01*
G01*
X61770751Y-64794001D01*
G75*
G02*
X62014501Y-65037751I0J-243750D01*
G01*
X62014501Y-65950251D01*
G75*
G02*
X61770751Y-66194001I-243750J0D01*
G01*
X61283251Y-66194001D01*
G75*
G02*
X61039501Y-65950251I0J243750D01*
G01*
G37*
%TD.AperFunction*%
%TD*%
%TO.P,R4,1*%
%TO.N,Board_1-Net-(Q1-Pad3)*%
%TA.AperFunction,SMDPad,CuDef*%
G36*
G01*
X59067501Y-69252251D02*
X59067501Y-68339751D01*
G75*
G02*
X59311251Y-68096001I243750J0D01*
G01*
X59798751Y-68096001D01*
G75*
G02*
X60042501Y-68339751I0J-243750D01*
G01*
X60042501Y-69252251D01*
G75*
G02*
X59798751Y-69496001I-243750J0D01*
G01*
X59311251Y-69496001D01*
G75*
G02*
X59067501Y-69252251I0J243750D01*
G01*
G37*
%TD.AperFunction*%
%TO.P,R4,2*%
%TO.N,Board_1-3V3*%
%TA.AperFunction,SMDPad,CuDef*%
G36*
G01*
X60942501Y-69252251D02*
X60942501Y-68339751D01*
G75*
G02*
X61186251Y-68096001I243750J0D01*
G01*
X61673751Y-68096001D01*
G75*
G02*
X61917501Y-68339751I0J-243750D01*
G01*
X61917501Y-69252251D01*
G75*
G02*
X61673751Y-69496001I-243750J0D01*
G01*
X61186251Y-69496001D01*
G75*
G02*
X60942501Y-69252251I0J243750D01*
G01*
G37*
%TD.AperFunction*%
%TD*%
%TO.P,R3,2*%
%TO.N,Board_1-A*%
%TA.AperFunction,SMDPad,CuDef*%
G36*
G01*
X55959501Y-62648251D02*
X55959501Y-61735751D01*
G75*
G02*
X56203251Y-61492001I243750J0D01*
G01*
X56690751Y-61492001D01*
G75*
G02*
X56934501Y-61735751I0J-243750D01*
G01*
X56934501Y-62648251D01*
G75*
G02*
X56690751Y-62892001I-243750J0D01*
G01*
X56203251Y-62892001D01*
G75*
G02*
X55959501Y-62648251I0J243750D01*
G01*
G37*
%TD.AperFunction*%
%TO.P,R3,1*%
%TO.N,Board_1-Net-(D2-Pad2)*%
%TA.AperFunction,SMDPad,CuDef*%
G36*
G01*
X54084501Y-62648251D02*
X54084501Y-61735751D01*
G75*
G02*
X54328251Y-61492001I243750J0D01*
G01*
X54815751Y-61492001D01*
G75*
G02*
X55059501Y-61735751I0J-243750D01*
G01*
X55059501Y-62648251D01*
G75*
G02*
X54815751Y-62892001I-243750J0D01*
G01*
X54328251Y-62892001D01*
G75*
G02*
X54084501Y-62648251I0J243750D01*
G01*
G37*
%TD.AperFunction*%
%TD*%
%TO.P,R2,2*%
%TO.N,Board_1-Net-(D1-Pad1)*%
%TA.AperFunction,SMDPad,CuDef*%
G36*
G01*
X55959501Y-65950251D02*
X55959501Y-65037751D01*
G75*
G02*
X56203251Y-64794001I243750J0D01*
G01*
X56690751Y-64794001D01*
G75*
G02*
X56934501Y-65037751I0J-243750D01*
G01*
X56934501Y-65950251D01*
G75*
G02*
X56690751Y-66194001I-243750J0D01*
G01*
X56203251Y-66194001D01*
G75*
G02*
X55959501Y-65950251I0J243750D01*
G01*
G37*
%TD.AperFunction*%
%TO.P,R2,1*%
%TO.N,Board_1-A*%
%TA.AperFunction,SMDPad,CuDef*%
G36*
G01*
X54084501Y-65950251D02*
X54084501Y-65037751D01*
G75*
G02*
X54328251Y-64794001I243750J0D01*
G01*
X54815751Y-64794001D01*
G75*
G02*
X55059501Y-65037751I0J-243750D01*
G01*
X55059501Y-65950251D01*
G75*
G02*
X54815751Y-66194001I-243750J0D01*
G01*
X54328251Y-66194001D01*
G75*
G02*
X54084501Y-65950251I0J243750D01*
G01*
G37*
%TD.AperFunction*%
%TD*%
%TO.P,R1,1*%
%TO.N,Board_1-Net-(Q1-Pad2)*%
%TA.AperFunction,SMDPad,CuDef*%
G36*
G01*
X54084501Y-69252251D02*
X54084501Y-68339751D01*
G75*
G02*
X54328251Y-68096001I243750J0D01*
G01*
X54815751Y-68096001D01*
G75*
G02*
X55059501Y-68339751I0J-243750D01*
G01*
X55059501Y-69252251D01*
G75*
G02*
X54815751Y-69496001I-243750J0D01*
G01*
X54328251Y-69496001D01*
G75*
G02*
X54084501Y-69252251I0J243750D01*
G01*
G37*
%TD.AperFunction*%
%TO.P,R1,2*%
%TO.N,Board_1-D8*%
%TA.AperFunction,SMDPad,CuDef*%
G36*
G01*
X55959501Y-69252251D02*
X55959501Y-68339751D01*
G75*
G02*
X56203251Y-68096001I243750J0D01*
G01*
X56690751Y-68096001D01*
G75*
G02*
X56934501Y-68339751I0J-243750D01*
G01*
X56934501Y-69252251D01*
G75*
G02*
X56690751Y-69496001I-243750J0D01*
G01*
X56203251Y-69496001D01*
G75*
G02*
X55959501Y-69252251I0J243750D01*
G01*
G37*
%TD.AperFunction*%
%TD*%
D12*
%TO.P,Q2,3*%
%TO.N,Board_1-Net-(D3-Pad2)*%
X71590001Y-66510001D03*
%TO.P,Q2,2*%
%TO.N,Board_1-Net-(Q2-Pad2)*%
X74590001Y-67460001D03*
%TO.P,Q2,1*%
%TO.N,Board_1-B*%
X74590001Y-65560001D03*
%TD*%
%TO.P,Q1,1*%
%TO.N,Board_1-GND*%
X74590001Y-59530001D03*
%TO.P,Q1,2*%
%TO.N,Board_1-Net-(Q1-Pad2)*%
X74590001Y-61430001D03*
%TO.P,Q1,3*%
%TO.N,Board_1-Net-(Q1-Pad3)*%
X71590001Y-60480001D03*
%TD*%
D13*
%TO.P,J8,1*%
%TO.N,Board_1-5V*%
X64732001Y-78194001D03*
D14*
%TO.P,J8,2*%
%TO.N,Board_1-D4*%
X67272001Y-78194001D03*
%TO.P,J8,3*%
%TO.N,Board_1-GND*%
X69812001Y-78194001D03*
%TD*%
%TO.P,J7,3*%
%TO.N,Board_1-GND*%
X97752001Y-78194001D03*
%TO.P,J7,2*%
%TO.N,Board_1-3V3*%
X95212001Y-78194001D03*
D13*
%TO.P,J7,1*%
%TO.N,Board_1-5V*%
X92672001Y-78194001D03*
%TD*%
%TO.P,J4,1*%
%TO.N,Board_1-A*%
X51778001Y-73368001D03*
D14*
%TO.P,J4,2*%
%TO.N,Board_1-B*%
X51778001Y-75908001D03*
%TD*%
%TO.P,J3,2*%
%TO.N,Board_1-Net-(J11-Pad3)*%
X70320001Y-74638001D03*
D13*
%TO.P,J3,1*%
%TO.N,Board_1-Net-(D5-Pad1)*%
X70320001Y-72098001D03*
%TD*%
%TO.P,J2,1*%
%TO.N,Board_1-3V3*%
X72352001Y-78194001D03*
D14*
%TO.P,J2,2*%
%TO.N,Board_1-D3*%
X74892001Y-78194001D03*
%TO.P,J2,3*%
%TO.N,Board_1-Net-(J2-Pad3)*%
X77432001Y-78194001D03*
%TO.P,J2,4*%
%TO.N,Board_1-GND*%
X79972001Y-78194001D03*
%TD*%
%TO.P,J1,4*%
%TO.N,Board_1-SDA*%
X90132001Y-78194001D03*
%TO.P,J1,3*%
%TO.N,Board_1-SCL*%
X87592001Y-78194001D03*
%TO.P,J1,2*%
%TO.N,Board_1-GND*%
X85052001Y-78194001D03*
D13*
%TO.P,J1,1*%
%TO.N,Board_1-3V3*%
X82512001Y-78194001D03*
%TD*%
D15*
%TO.P,J11,1*%
%TO.N,Board_1-Net-(J11-Pad1)*%
X51938001Y-69144001D03*
%TO.P,J11,2*%
%TO.N,Board_1-B*%
X51938001Y-66604001D03*
%TO.P,J11,3*%
%TO.N,Board_1-Net-(J11-Pad3)*%
X51938001Y-64064001D03*
%TO.P,J11,4*%
%TO.N,Board_1-5V*%
X69398001Y-51684001D03*
%TO.P,J11,5*%
%TO.N,Board_1-GND*%
X69398001Y-54224001D03*
%TD*%
D16*
%TO.P,M1,1*%
%TO.N,N/C*%
X65875001Y-74130001D03*
%TD*%
D17*
%TO.N,Board_1-D3*%
X70939701Y-62470001D03*
X75281101Y-70318001D03*
%TO.N,Board_1-D8*%
X73724401Y-74970701D03*
%TO.N,Board_1-Net-(D2-Pad2)*%
X54333701Y-63843001D03*
%TO.N,Board_1-Net-(D3-Pad2)*%
X60819201Y-70569301D03*
%TO.N,Board_1-Net-(D5-Pad2)*%
X64245201Y-63519801D03*
%TO.N,Board_1-Net-(Q1-Pad3)*%
X63424701Y-67716001D03*
%TO.N,Board_2-D3*%
X120469706Y-62470001D03*
X124811106Y-70318001D03*
%TO.N,Board_2-D8*%
X123254406Y-74970701D03*
%TO.N,Board_2-Net-(D2-Pad2)*%
X103863706Y-63843001D03*
%TO.N,Board_2-Net-(D3-Pad2)*%
X110349206Y-70569301D03*
%TO.N,Board_2-Net-(D5-Pad2)*%
X113775206Y-63519801D03*
%TO.N,Board_2-Net-(Q1-Pad3)*%
X112954706Y-67716001D03*
%TO.N,Board_3-D3*%
X70939701Y-92470006D03*
X75281101Y-100318006D03*
%TO.N,Board_3-D8*%
X73724401Y-104970706D03*
%TO.N,Board_3-Net-(D2-Pad2)*%
X54333701Y-93843006D03*
%TO.N,Board_3-Net-(D3-Pad2)*%
X60819201Y-100569306D03*
%TO.N,Board_3-Net-(D5-Pad2)*%
X64245201Y-93519806D03*
%TO.N,Board_3-Net-(Q1-Pad3)*%
X63424701Y-97716006D03*
%TO.N,Board_4-D3*%
X120469706Y-92470006D03*
X124811106Y-100318006D03*
%TO.N,Board_4-D8*%
X123254406Y-104970706D03*
%TO.N,Board_4-Net-(D2-Pad2)*%
X103863706Y-93843006D03*
%TO.N,Board_4-Net-(D3-Pad2)*%
X110349206Y-100569306D03*
%TO.N,Board_4-Net-(D5-Pad2)*%
X113775206Y-93519806D03*
%TO.N,Board_4-Net-(Q1-Pad3)*%
X112954706Y-97716006D03*
%TO.N,Board_5-D3*%
X70939701Y-122470011D03*
X75281101Y-130318011D03*
%TO.N,Board_5-D8*%
X73724401Y-134970711D03*
%TO.N,Board_5-Net-(D2-Pad2)*%
X54333701Y-123843011D03*
%TO.N,Board_5-Net-(D3-Pad2)*%
X60819201Y-130569311D03*
%TO.N,Board_5-Net-(D5-Pad2)*%
X64245201Y-123519811D03*
%TO.N,Board_5-Net-(Q1-Pad3)*%
X63424701Y-127716011D03*
%TO.N,Board_6-D3*%
X120469706Y-122470011D03*
X124811106Y-130318011D03*
%TO.N,Board_6-D8*%
X123254406Y-134970711D03*
%TO.N,Board_6-Net-(D2-Pad2)*%
X103863706Y-123843011D03*
%TO.N,Board_6-Net-(D3-Pad2)*%
X110349206Y-130569311D03*
%TO.N,Board_6-Net-(D5-Pad2)*%
X113775206Y-123519811D03*
%TO.N,Board_6-Net-(Q1-Pad3)*%
X112954706Y-127716011D03*
%TD*%
D18*
%TO.N,Board_1-3V3*%
X50586001Y-74549601D02*
X50586001Y-56889301D01*
X50586001Y-56889301D02*
X54318001Y-53157301D01*
X72352001Y-78194001D02*
X71167101Y-79378901D01*
X71167101Y-79378901D02*
X53553401Y-79378901D01*
X53553401Y-79378901D02*
X50586001Y-76411501D01*
X50586001Y-76411501D02*
X50586001Y-74549601D01*
X50586001Y-74549601D02*
X52770201Y-74549601D01*
X52770201Y-74549601D02*
X55509501Y-71810301D01*
X55509501Y-71810301D02*
X55509501Y-68213801D01*
X55509501Y-68213801D02*
X55981901Y-67741401D01*
X55981901Y-67741401D02*
X56967101Y-67741401D01*
X56967101Y-67741401D02*
X59048001Y-69822301D01*
X59048001Y-69822301D02*
X60403701Y-69822301D01*
X60403701Y-69822301D02*
X61430001Y-68796001D01*
X66480001Y-65494001D02*
X66480001Y-65823601D01*
X66480001Y-65823601D02*
X63507701Y-68795901D01*
X63507701Y-68795901D02*
X61430001Y-68795901D01*
X61430001Y-68795901D02*
X61430001Y-68796001D01*
X54318001Y-52032001D02*
X54318001Y-53157301D01*
X98260001Y-74638001D02*
X97134701Y-74638001D01*
X95212001Y-78194001D02*
X95212001Y-77018701D01*
X95212001Y-77018701D02*
X97134701Y-75096001D01*
X97134701Y-75096001D02*
X97134701Y-74638001D01*
%TO.N,Board_1-5V*%
X98260001Y-51778001D02*
X97134701Y-51778001D01*
X92672001Y-78194001D02*
X92672001Y-77018701D01*
X92672001Y-77018701D02*
X94450001Y-75240701D01*
X94450001Y-75240701D02*
X94450001Y-55588001D01*
X94450001Y-55588001D02*
X97134701Y-52903301D01*
X97134701Y-52903301D02*
X97134701Y-51778001D01*
%TO.N,Board_1-A*%
X51778001Y-73368001D02*
X51778001Y-72192701D01*
X55155901Y-66537101D02*
X53445501Y-68247501D01*
X53445501Y-68247501D02*
X53445501Y-70525201D01*
X53445501Y-70525201D02*
X51778001Y-72192701D01*
X66480001Y-62192001D02*
X66480001Y-62310801D01*
X66480001Y-62310801D02*
X64545701Y-64245101D01*
X64545701Y-64245101D02*
X64348901Y-64245101D01*
X64348901Y-64245101D02*
X62056901Y-66537101D01*
X62056901Y-66537101D02*
X55155901Y-66537101D01*
X54572001Y-65494001D02*
X54572001Y-65953201D01*
X54572001Y-65953201D02*
X55155901Y-66537101D01*
X56447001Y-62192001D02*
X56447001Y-63619001D01*
X56447001Y-63619001D02*
X54572001Y-65494001D01*
%TO.N,Board_1-B*%
X74590001Y-66285301D02*
X73864701Y-66285301D01*
X73864701Y-66285301D02*
X73314601Y-66835401D01*
X73314601Y-66835401D02*
X73314601Y-70578201D01*
X73314601Y-70578201D02*
X74479101Y-71742701D01*
X74479101Y-71742701D02*
X74479101Y-75242301D01*
X74479101Y-75242301D02*
X73326601Y-76394801D01*
X73326601Y-76394801D02*
X53440101Y-76394801D01*
X53440101Y-76394801D02*
X52953301Y-75908001D01*
X74590001Y-65560001D02*
X74590001Y-66285301D01*
X51778001Y-75908001D02*
X52953301Y-75908001D01*
%TO.N,Board_1-D3*%
X64605001Y-65494001D02*
X64605001Y-65197401D01*
X64605001Y-65197401D02*
X66412701Y-63389701D01*
X66412701Y-63389701D02*
X70020001Y-63389701D01*
X70020001Y-63389701D02*
X70939701Y-62470001D01*
X74892001Y-78194001D02*
X74892001Y-77018701D01*
X75281101Y-70318001D02*
X75281101Y-76629601D01*
X75281101Y-76629601D02*
X74892001Y-77018701D01*
%TO.N,Board_1-D7*%
X58384401Y-52032001D02*
X58384401Y-64226401D01*
X58384401Y-64226401D02*
X59652001Y-65494001D01*
X93180001Y-74638001D02*
X93180001Y-56149601D01*
X93180001Y-56149601D02*
X89370001Y-52339601D01*
X89370001Y-52339601D02*
X89370001Y-51189701D01*
X89370001Y-51189701D02*
X88622301Y-50442001D01*
X88622301Y-50442001D02*
X59974401Y-50442001D01*
X59974401Y-50442001D02*
X58384401Y-52032001D01*
X57983301Y-52032001D02*
X58384401Y-52032001D01*
X56858001Y-52032001D02*
X57983301Y-52032001D01*
%TO.N,Board_1-D8*%
X73724401Y-74970701D02*
X72027101Y-73273401D01*
X72027101Y-73273401D02*
X69227701Y-73273401D01*
X69227701Y-73273401D02*
X67327501Y-71373201D01*
X67327501Y-71373201D02*
X59024201Y-71373201D01*
X59024201Y-71373201D02*
X56447001Y-68796001D01*
%TO.N,Board_1-GND*%
X85052001Y-78194001D02*
X83876701Y-78194001D01*
X79384401Y-78194001D02*
X80559701Y-79369301D01*
X80559701Y-79369301D02*
X83509501Y-79369301D01*
X83509501Y-79369301D02*
X83876701Y-79002101D01*
X83876701Y-79002101D02*
X83876701Y-78194001D01*
X79384401Y-78194001D02*
X78796701Y-78194001D01*
X79972001Y-78194001D02*
X79384401Y-78194001D01*
X78796701Y-78194001D02*
X78796701Y-63120001D01*
X78796701Y-63120001D02*
X75116001Y-59439301D01*
X75116001Y-59439301D02*
X74590001Y-59439301D01*
X74590001Y-59439301D02*
X74590001Y-59348601D01*
X74590001Y-59530001D02*
X74590001Y-59439301D01*
X61527001Y-65494001D02*
X63265401Y-63755601D01*
X63265401Y-63755601D02*
X63265401Y-61958501D01*
X63265401Y-61958501D02*
X64446601Y-60777301D01*
X64446601Y-60777301D02*
X64986001Y-60777301D01*
X69398001Y-54224001D02*
X74522601Y-59348601D01*
X74522601Y-59348601D02*
X74590001Y-59348601D01*
X85052001Y-78194001D02*
X86227301Y-78194001D01*
X97752001Y-78194001D02*
X96576701Y-78194001D01*
X96576701Y-78194001D02*
X96576701Y-78561301D01*
X96576701Y-78561301D02*
X95768701Y-79369301D01*
X95768701Y-79369301D02*
X87035201Y-79369301D01*
X87035201Y-79369301D02*
X86227301Y-78561401D01*
X86227301Y-78561401D02*
X86227301Y-78194001D01*
X69812001Y-78194001D02*
X70987301Y-78194001D01*
X70987301Y-78194001D02*
X70987301Y-77386001D01*
X70987301Y-77386001D02*
X71354701Y-77018601D01*
X71354701Y-77018601D02*
X73383101Y-77018601D01*
X73383101Y-77018601D02*
X73527401Y-77162901D01*
X73527401Y-77162901D02*
X73527401Y-78542001D01*
X73527401Y-78542001D02*
X74354701Y-79369301D01*
X74354701Y-79369301D02*
X77988801Y-79369301D01*
X77988801Y-79369301D02*
X78796701Y-78561401D01*
X78796701Y-78561401D02*
X78796701Y-78194001D01*
X64986001Y-59652001D02*
X64986001Y-60777301D01*
%TO.N,Board_1-Net-(D1-Pad1)*%
X56858001Y-59652001D02*
X56858001Y-60777301D01*
X56858001Y-60777301D02*
X57261501Y-61180801D01*
X57261501Y-61180801D02*
X57261501Y-64679501D01*
X57261501Y-64679501D02*
X56447001Y-65494001D01*
%TO.N,Board_1-Net-(D2-Pad2)*%
X54572001Y-62192001D02*
X54572001Y-63604701D01*
X54572001Y-63604701D02*
X54333701Y-63843001D01*
%TO.N,Board_1-Net-(D3-Pad2)*%
X60819201Y-70569301D02*
X68256001Y-70569301D01*
X68256001Y-70569301D02*
X71590001Y-67235301D01*
X71590001Y-66510001D02*
X71590001Y-67235301D01*
%TO.N,Board_1-Net-(D5-Pad2)*%
X64605001Y-62192001D02*
X64605001Y-63160001D01*
X64605001Y-63160001D02*
X64245201Y-63519801D01*
%TO.N,Board_1-Net-(Q1-Pad2)*%
X54572001Y-68796001D02*
X54572001Y-68464101D01*
X54572001Y-68464101D02*
X56048601Y-66987501D01*
X56048601Y-66987501D02*
X64679201Y-66987501D01*
X64679201Y-66987501D02*
X65418801Y-66247901D01*
X65418801Y-66247901D02*
X65418801Y-65020501D01*
X65418801Y-65020501D02*
X66599201Y-63840101D01*
X66599201Y-63840101D02*
X72905201Y-63840101D01*
X72905201Y-63840101D02*
X74590001Y-62155301D01*
X74590001Y-61430001D02*
X74590001Y-62155301D01*
%TO.N,Board_1-Net-(Q1-Pad3)*%
X59555001Y-68796001D02*
X60634901Y-67716101D01*
X60634901Y-67716101D02*
X63424701Y-67716101D01*
X63424701Y-67716101D02*
X63424701Y-67716001D01*
X63571301Y-59652001D02*
X63571301Y-59370701D01*
X63571301Y-59370701D02*
X64431201Y-58510801D01*
X64431201Y-58510801D02*
X70346101Y-58510801D01*
X70346101Y-58510801D02*
X71590001Y-59754701D01*
X71590001Y-60480001D02*
X71590001Y-59754701D01*
X62446001Y-59652001D02*
X63571301Y-59652001D01*
%TO.N,Board_1-Net-(Q2-Pad2)*%
X74590001Y-67460001D02*
X75866301Y-66183701D01*
X75866301Y-66183701D02*
X75866301Y-60835501D01*
X75866301Y-60835501D02*
X75690201Y-60659401D01*
X75690201Y-60659401D02*
X73601001Y-60659401D01*
X73601001Y-60659401D02*
X70967301Y-58025701D01*
X70967301Y-58025701D02*
X61948101Y-58025701D01*
X61948101Y-58025701D02*
X61320601Y-58653201D01*
X61320601Y-58653201D02*
X61320601Y-60613701D01*
X61320601Y-60613701D02*
X61872601Y-61165701D01*
X61872601Y-61165701D02*
X62056801Y-61165701D01*
X62056801Y-61165701D02*
X62385101Y-61494001D01*
X62385101Y-61494001D02*
X62385101Y-62898501D01*
X62385101Y-62898501D02*
X62017001Y-63266601D01*
X62017001Y-63266601D02*
X60726601Y-63266601D01*
X60726601Y-63266601D02*
X59652001Y-62192001D01*
%TO.N,Board_1-Net-(R6-Pad2)*%
X64986001Y-52032001D02*
X64986001Y-53157301D01*
X64986001Y-53157301D02*
X60861901Y-57281401D01*
X60861901Y-57281401D02*
X60861901Y-61526901D01*
X60861901Y-61526901D02*
X61527001Y-62192001D01*
%TO.N,Board_1-SCL*%
X85560001Y-51778001D02*
X86685301Y-51778001D01*
X87592001Y-78194001D02*
X87592001Y-77018701D01*
X87592001Y-77018701D02*
X86685301Y-76112001D01*
X86685301Y-76112001D02*
X86685301Y-51778001D01*
%TO.N,Board_1-SDA*%
X88100001Y-51778001D02*
X88100001Y-53103301D01*
X88100001Y-53103301D02*
X89421601Y-54424901D01*
X89421601Y-54424901D02*
X89421601Y-76308301D01*
X89421601Y-76308301D02*
X90132001Y-77018701D01*
X90132001Y-78194001D02*
X90132001Y-77018701D01*
%TO.N,Board_2-3V3*%
X100116006Y-74549601D02*
X100116006Y-56889301D01*
X100116006Y-56889301D02*
X103848006Y-53157301D01*
X121882006Y-78194001D02*
X120697106Y-79378901D01*
X120697106Y-79378901D02*
X103083406Y-79378901D01*
X103083406Y-79378901D02*
X100116006Y-76411501D01*
X100116006Y-76411501D02*
X100116006Y-74549601D01*
X100116006Y-74549601D02*
X102300206Y-74549601D01*
X102300206Y-74549601D02*
X105039506Y-71810301D01*
X105039506Y-71810301D02*
X105039506Y-68213801D01*
X105039506Y-68213801D02*
X105511906Y-67741401D01*
X105511906Y-67741401D02*
X106497106Y-67741401D01*
X106497106Y-67741401D02*
X108578006Y-69822301D01*
X108578006Y-69822301D02*
X109933706Y-69822301D01*
X109933706Y-69822301D02*
X110960006Y-68796001D01*
X116010006Y-65494001D02*
X116010006Y-65823601D01*
X116010006Y-65823601D02*
X113037706Y-68795901D01*
X113037706Y-68795901D02*
X110960006Y-68795901D01*
X110960006Y-68795901D02*
X110960006Y-68796001D01*
X103848006Y-52032001D02*
X103848006Y-53157301D01*
X147790006Y-74638001D02*
X146664706Y-74638001D01*
X144742006Y-78194001D02*
X144742006Y-77018701D01*
X144742006Y-77018701D02*
X146664706Y-75096001D01*
X146664706Y-75096001D02*
X146664706Y-74638001D01*
%TO.N,Board_2-5V*%
X147790006Y-51778001D02*
X146664706Y-51778001D01*
X142202006Y-78194001D02*
X142202006Y-77018701D01*
X142202006Y-77018701D02*
X143980006Y-75240701D01*
X143980006Y-75240701D02*
X143980006Y-55588001D01*
X143980006Y-55588001D02*
X146664706Y-52903301D01*
X146664706Y-52903301D02*
X146664706Y-51778001D01*
%TO.N,Board_2-A*%
X101308006Y-73368001D02*
X101308006Y-72192701D01*
X104685906Y-66537101D02*
X102975506Y-68247501D01*
X102975506Y-68247501D02*
X102975506Y-70525201D01*
X102975506Y-70525201D02*
X101308006Y-72192701D01*
X116010006Y-62192001D02*
X116010006Y-62310801D01*
X116010006Y-62310801D02*
X114075706Y-64245101D01*
X114075706Y-64245101D02*
X113878906Y-64245101D01*
X113878906Y-64245101D02*
X111586906Y-66537101D01*
X111586906Y-66537101D02*
X104685906Y-66537101D01*
X104102006Y-65494001D02*
X104102006Y-65953201D01*
X104102006Y-65953201D02*
X104685906Y-66537101D01*
X105977006Y-62192001D02*
X105977006Y-63619001D01*
X105977006Y-63619001D02*
X104102006Y-65494001D01*
%TO.N,Board_2-B*%
X124120006Y-66285301D02*
X123394706Y-66285301D01*
X123394706Y-66285301D02*
X122844606Y-66835401D01*
X122844606Y-66835401D02*
X122844606Y-70578201D01*
X122844606Y-70578201D02*
X124009106Y-71742701D01*
X124009106Y-71742701D02*
X124009106Y-75242301D01*
X124009106Y-75242301D02*
X122856606Y-76394801D01*
X122856606Y-76394801D02*
X102970106Y-76394801D01*
X102970106Y-76394801D02*
X102483306Y-75908001D01*
X124120006Y-65560001D02*
X124120006Y-66285301D01*
X101308006Y-75908001D02*
X102483306Y-75908001D01*
%TO.N,Board_2-D3*%
X114135006Y-65494001D02*
X114135006Y-65197401D01*
X114135006Y-65197401D02*
X115942706Y-63389701D01*
X115942706Y-63389701D02*
X119550006Y-63389701D01*
X119550006Y-63389701D02*
X120469706Y-62470001D01*
X124422006Y-78194001D02*
X124422006Y-77018701D01*
X124811106Y-70318001D02*
X124811106Y-76629601D01*
X124811106Y-76629601D02*
X124422006Y-77018701D01*
%TO.N,Board_2-D7*%
X107914406Y-52032001D02*
X107914406Y-64226401D01*
X107914406Y-64226401D02*
X109182006Y-65494001D01*
X142710006Y-74638001D02*
X142710006Y-56149601D01*
X142710006Y-56149601D02*
X138900006Y-52339601D01*
X138900006Y-52339601D02*
X138900006Y-51189701D01*
X138900006Y-51189701D02*
X138152306Y-50442001D01*
X138152306Y-50442001D02*
X109504406Y-50442001D01*
X109504406Y-50442001D02*
X107914406Y-52032001D01*
X107513306Y-52032001D02*
X107914406Y-52032001D01*
X106388006Y-52032001D02*
X107513306Y-52032001D01*
%TO.N,Board_2-D8*%
X123254406Y-74970701D02*
X121557106Y-73273401D01*
X121557106Y-73273401D02*
X118757706Y-73273401D01*
X118757706Y-73273401D02*
X116857506Y-71373201D01*
X116857506Y-71373201D02*
X108554206Y-71373201D01*
X108554206Y-71373201D02*
X105977006Y-68796001D01*
%TO.N,Board_2-GND*%
X134582006Y-78194001D02*
X133406706Y-78194001D01*
X128914406Y-78194001D02*
X130089706Y-79369301D01*
X130089706Y-79369301D02*
X133039506Y-79369301D01*
X133039506Y-79369301D02*
X133406706Y-79002101D01*
X133406706Y-79002101D02*
X133406706Y-78194001D01*
X128914406Y-78194001D02*
X128326706Y-78194001D01*
X129502006Y-78194001D02*
X128914406Y-78194001D01*
X128326706Y-78194001D02*
X128326706Y-63120001D01*
X128326706Y-63120001D02*
X124646006Y-59439301D01*
X124646006Y-59439301D02*
X124120006Y-59439301D01*
X124120006Y-59439301D02*
X124120006Y-59348601D01*
X124120006Y-59530001D02*
X124120006Y-59439301D01*
X111057006Y-65494001D02*
X112795406Y-63755601D01*
X112795406Y-63755601D02*
X112795406Y-61958501D01*
X112795406Y-61958501D02*
X113976606Y-60777301D01*
X113976606Y-60777301D02*
X114516006Y-60777301D01*
X118928006Y-54224001D02*
X124052606Y-59348601D01*
X124052606Y-59348601D02*
X124120006Y-59348601D01*
X134582006Y-78194001D02*
X135757306Y-78194001D01*
X147282006Y-78194001D02*
X146106706Y-78194001D01*
X146106706Y-78194001D02*
X146106706Y-78561301D01*
X146106706Y-78561301D02*
X145298706Y-79369301D01*
X145298706Y-79369301D02*
X136565206Y-79369301D01*
X136565206Y-79369301D02*
X135757306Y-78561401D01*
X135757306Y-78561401D02*
X135757306Y-78194001D01*
X119342006Y-78194001D02*
X120517306Y-78194001D01*
X120517306Y-78194001D02*
X120517306Y-77386001D01*
X120517306Y-77386001D02*
X120884706Y-77018601D01*
X120884706Y-77018601D02*
X122913106Y-77018601D01*
X122913106Y-77018601D02*
X123057406Y-77162901D01*
X123057406Y-77162901D02*
X123057406Y-78542001D01*
X123057406Y-78542001D02*
X123884706Y-79369301D01*
X123884706Y-79369301D02*
X127518806Y-79369301D01*
X127518806Y-79369301D02*
X128326706Y-78561401D01*
X128326706Y-78561401D02*
X128326706Y-78194001D01*
X114516006Y-59652001D02*
X114516006Y-60777301D01*
%TO.N,Board_2-Net-(D1-Pad1)*%
X106388006Y-59652001D02*
X106388006Y-60777301D01*
X106388006Y-60777301D02*
X106791506Y-61180801D01*
X106791506Y-61180801D02*
X106791506Y-64679501D01*
X106791506Y-64679501D02*
X105977006Y-65494001D01*
%TO.N,Board_2-Net-(D2-Pad2)*%
X104102006Y-62192001D02*
X104102006Y-63604701D01*
X104102006Y-63604701D02*
X103863706Y-63843001D01*
%TO.N,Board_2-Net-(D3-Pad2)*%
X110349206Y-70569301D02*
X117786006Y-70569301D01*
X117786006Y-70569301D02*
X121120006Y-67235301D01*
X121120006Y-66510001D02*
X121120006Y-67235301D01*
%TO.N,Board_2-Net-(D5-Pad2)*%
X114135006Y-62192001D02*
X114135006Y-63160001D01*
X114135006Y-63160001D02*
X113775206Y-63519801D01*
%TO.N,Board_2-Net-(Q1-Pad2)*%
X104102006Y-68796001D02*
X104102006Y-68464101D01*
X104102006Y-68464101D02*
X105578606Y-66987501D01*
X105578606Y-66987501D02*
X114209206Y-66987501D01*
X114209206Y-66987501D02*
X114948806Y-66247901D01*
X114948806Y-66247901D02*
X114948806Y-65020501D01*
X114948806Y-65020501D02*
X116129206Y-63840101D01*
X116129206Y-63840101D02*
X122435206Y-63840101D01*
X122435206Y-63840101D02*
X124120006Y-62155301D01*
X124120006Y-61430001D02*
X124120006Y-62155301D01*
%TO.N,Board_2-Net-(Q1-Pad3)*%
X109085006Y-68796001D02*
X110164906Y-67716101D01*
X110164906Y-67716101D02*
X112954706Y-67716101D01*
X112954706Y-67716101D02*
X112954706Y-67716001D01*
X113101306Y-59652001D02*
X113101306Y-59370701D01*
X113101306Y-59370701D02*
X113961206Y-58510801D01*
X113961206Y-58510801D02*
X119876106Y-58510801D01*
X119876106Y-58510801D02*
X121120006Y-59754701D01*
X121120006Y-60480001D02*
X121120006Y-59754701D01*
X111976006Y-59652001D02*
X113101306Y-59652001D01*
%TO.N,Board_2-Net-(Q2-Pad2)*%
X124120006Y-67460001D02*
X125396306Y-66183701D01*
X125396306Y-66183701D02*
X125396306Y-60835501D01*
X125396306Y-60835501D02*
X125220206Y-60659401D01*
X125220206Y-60659401D02*
X123131006Y-60659401D01*
X123131006Y-60659401D02*
X120497306Y-58025701D01*
X120497306Y-58025701D02*
X111478106Y-58025701D01*
X111478106Y-58025701D02*
X110850606Y-58653201D01*
X110850606Y-58653201D02*
X110850606Y-60613701D01*
X110850606Y-60613701D02*
X111402606Y-61165701D01*
X111402606Y-61165701D02*
X111586806Y-61165701D01*
X111586806Y-61165701D02*
X111915106Y-61494001D01*
X111915106Y-61494001D02*
X111915106Y-62898501D01*
X111915106Y-62898501D02*
X111547006Y-63266601D01*
X111547006Y-63266601D02*
X110256606Y-63266601D01*
X110256606Y-63266601D02*
X109182006Y-62192001D01*
%TO.N,Board_2-Net-(R6-Pad2)*%
X114516006Y-52032001D02*
X114516006Y-53157301D01*
X114516006Y-53157301D02*
X110391906Y-57281401D01*
X110391906Y-57281401D02*
X110391906Y-61526901D01*
X110391906Y-61526901D02*
X111057006Y-62192001D01*
%TO.N,Board_2-SCL*%
X135090006Y-51778001D02*
X136215306Y-51778001D01*
X137122006Y-78194001D02*
X137122006Y-77018701D01*
X137122006Y-77018701D02*
X136215306Y-76112001D01*
X136215306Y-76112001D02*
X136215306Y-51778001D01*
%TO.N,Board_2-SDA*%
X137630006Y-51778001D02*
X137630006Y-53103301D01*
X137630006Y-53103301D02*
X138951606Y-54424901D01*
X138951606Y-54424901D02*
X138951606Y-76308301D01*
X138951606Y-76308301D02*
X139662006Y-77018701D01*
X139662006Y-78194001D02*
X139662006Y-77018701D01*
%TO.N,Board_3-3V3*%
X50586001Y-104549606D02*
X50586001Y-86889306D01*
X50586001Y-86889306D02*
X54318001Y-83157306D01*
X72352001Y-108194006D02*
X71167101Y-109378906D01*
X71167101Y-109378906D02*
X53553401Y-109378906D01*
X53553401Y-109378906D02*
X50586001Y-106411506D01*
X50586001Y-106411506D02*
X50586001Y-104549606D01*
X50586001Y-104549606D02*
X52770201Y-104549606D01*
X52770201Y-104549606D02*
X55509501Y-101810306D01*
X55509501Y-101810306D02*
X55509501Y-98213806D01*
X55509501Y-98213806D02*
X55981901Y-97741406D01*
X55981901Y-97741406D02*
X56967101Y-97741406D01*
X56967101Y-97741406D02*
X59048001Y-99822306D01*
X59048001Y-99822306D02*
X60403701Y-99822306D01*
X60403701Y-99822306D02*
X61430001Y-98796006D01*
X66480001Y-95494006D02*
X66480001Y-95823606D01*
X66480001Y-95823606D02*
X63507701Y-98795906D01*
X63507701Y-98795906D02*
X61430001Y-98795906D01*
X61430001Y-98795906D02*
X61430001Y-98796006D01*
X54318001Y-82032006D02*
X54318001Y-83157306D01*
X98260001Y-104638006D02*
X97134701Y-104638006D01*
X95212001Y-108194006D02*
X95212001Y-107018706D01*
X95212001Y-107018706D02*
X97134701Y-105096006D01*
X97134701Y-105096006D02*
X97134701Y-104638006D01*
%TO.N,Board_3-5V*%
X98260001Y-81778006D02*
X97134701Y-81778006D01*
X92672001Y-108194006D02*
X92672001Y-107018706D01*
X92672001Y-107018706D02*
X94450001Y-105240706D01*
X94450001Y-105240706D02*
X94450001Y-85588006D01*
X94450001Y-85588006D02*
X97134701Y-82903306D01*
X97134701Y-82903306D02*
X97134701Y-81778006D01*
%TO.N,Board_3-A*%
X51778001Y-103368006D02*
X51778001Y-102192706D01*
X55155901Y-96537106D02*
X53445501Y-98247506D01*
X53445501Y-98247506D02*
X53445501Y-100525206D01*
X53445501Y-100525206D02*
X51778001Y-102192706D01*
X66480001Y-92192006D02*
X66480001Y-92310806D01*
X66480001Y-92310806D02*
X64545701Y-94245106D01*
X64545701Y-94245106D02*
X64348901Y-94245106D01*
X64348901Y-94245106D02*
X62056901Y-96537106D01*
X62056901Y-96537106D02*
X55155901Y-96537106D01*
X54572001Y-95494006D02*
X54572001Y-95953206D01*
X54572001Y-95953206D02*
X55155901Y-96537106D01*
X56447001Y-92192006D02*
X56447001Y-93619006D01*
X56447001Y-93619006D02*
X54572001Y-95494006D01*
%TO.N,Board_3-B*%
X74590001Y-96285306D02*
X73864701Y-96285306D01*
X73864701Y-96285306D02*
X73314601Y-96835406D01*
X73314601Y-96835406D02*
X73314601Y-100578206D01*
X73314601Y-100578206D02*
X74479101Y-101742706D01*
X74479101Y-101742706D02*
X74479101Y-105242306D01*
X74479101Y-105242306D02*
X73326601Y-106394806D01*
X73326601Y-106394806D02*
X53440101Y-106394806D01*
X53440101Y-106394806D02*
X52953301Y-105908006D01*
X74590001Y-95560006D02*
X74590001Y-96285306D01*
X51778001Y-105908006D02*
X52953301Y-105908006D01*
%TO.N,Board_3-D3*%
X64605001Y-95494006D02*
X64605001Y-95197406D01*
X64605001Y-95197406D02*
X66412701Y-93389706D01*
X66412701Y-93389706D02*
X70020001Y-93389706D01*
X70020001Y-93389706D02*
X70939701Y-92470006D01*
X74892001Y-108194006D02*
X74892001Y-107018706D01*
X75281101Y-100318006D02*
X75281101Y-106629606D01*
X75281101Y-106629606D02*
X74892001Y-107018706D01*
%TO.N,Board_3-D7*%
X58384401Y-82032006D02*
X58384401Y-94226406D01*
X58384401Y-94226406D02*
X59652001Y-95494006D01*
X93180001Y-104638006D02*
X93180001Y-86149606D01*
X93180001Y-86149606D02*
X89370001Y-82339606D01*
X89370001Y-82339606D02*
X89370001Y-81189706D01*
X89370001Y-81189706D02*
X88622301Y-80442006D01*
X88622301Y-80442006D02*
X59974401Y-80442006D01*
X59974401Y-80442006D02*
X58384401Y-82032006D01*
X57983301Y-82032006D02*
X58384401Y-82032006D01*
X56858001Y-82032006D02*
X57983301Y-82032006D01*
%TO.N,Board_3-D8*%
X73724401Y-104970706D02*
X72027101Y-103273406D01*
X72027101Y-103273406D02*
X69227701Y-103273406D01*
X69227701Y-103273406D02*
X67327501Y-101373206D01*
X67327501Y-101373206D02*
X59024201Y-101373206D01*
X59024201Y-101373206D02*
X56447001Y-98796006D01*
%TO.N,Board_3-GND*%
X85052001Y-108194006D02*
X83876701Y-108194006D01*
X79384401Y-108194006D02*
X80559701Y-109369306D01*
X80559701Y-109369306D02*
X83509501Y-109369306D01*
X83509501Y-109369306D02*
X83876701Y-109002106D01*
X83876701Y-109002106D02*
X83876701Y-108194006D01*
X79384401Y-108194006D02*
X78796701Y-108194006D01*
X79972001Y-108194006D02*
X79384401Y-108194006D01*
X78796701Y-108194006D02*
X78796701Y-93120006D01*
X78796701Y-93120006D02*
X75116001Y-89439306D01*
X75116001Y-89439306D02*
X74590001Y-89439306D01*
X74590001Y-89439306D02*
X74590001Y-89348606D01*
X74590001Y-89530006D02*
X74590001Y-89439306D01*
X61527001Y-95494006D02*
X63265401Y-93755606D01*
X63265401Y-93755606D02*
X63265401Y-91958506D01*
X63265401Y-91958506D02*
X64446601Y-90777306D01*
X64446601Y-90777306D02*
X64986001Y-90777306D01*
X69398001Y-84224006D02*
X74522601Y-89348606D01*
X74522601Y-89348606D02*
X74590001Y-89348606D01*
X85052001Y-108194006D02*
X86227301Y-108194006D01*
X97752001Y-108194006D02*
X96576701Y-108194006D01*
X96576701Y-108194006D02*
X96576701Y-108561306D01*
X96576701Y-108561306D02*
X95768701Y-109369306D01*
X95768701Y-109369306D02*
X87035201Y-109369306D01*
X87035201Y-109369306D02*
X86227301Y-108561406D01*
X86227301Y-108561406D02*
X86227301Y-108194006D01*
X69812001Y-108194006D02*
X70987301Y-108194006D01*
X70987301Y-108194006D02*
X70987301Y-107386006D01*
X70987301Y-107386006D02*
X71354701Y-107018606D01*
X71354701Y-107018606D02*
X73383101Y-107018606D01*
X73383101Y-107018606D02*
X73527401Y-107162906D01*
X73527401Y-107162906D02*
X73527401Y-108542006D01*
X73527401Y-108542006D02*
X74354701Y-109369306D01*
X74354701Y-109369306D02*
X77988801Y-109369306D01*
X77988801Y-109369306D02*
X78796701Y-108561406D01*
X78796701Y-108561406D02*
X78796701Y-108194006D01*
X64986001Y-89652006D02*
X64986001Y-90777306D01*
%TO.N,Board_3-Net-(D1-Pad1)*%
X56858001Y-89652006D02*
X56858001Y-90777306D01*
X56858001Y-90777306D02*
X57261501Y-91180806D01*
X57261501Y-91180806D02*
X57261501Y-94679506D01*
X57261501Y-94679506D02*
X56447001Y-95494006D01*
%TO.N,Board_3-Net-(D2-Pad2)*%
X54572001Y-92192006D02*
X54572001Y-93604706D01*
X54572001Y-93604706D02*
X54333701Y-93843006D01*
%TO.N,Board_3-Net-(D3-Pad2)*%
X60819201Y-100569306D02*
X68256001Y-100569306D01*
X68256001Y-100569306D02*
X71590001Y-97235306D01*
X71590001Y-96510006D02*
X71590001Y-97235306D01*
%TO.N,Board_3-Net-(D5-Pad2)*%
X64605001Y-92192006D02*
X64605001Y-93160006D01*
X64605001Y-93160006D02*
X64245201Y-93519806D01*
%TO.N,Board_3-Net-(Q1-Pad2)*%
X54572001Y-98796006D02*
X54572001Y-98464106D01*
X54572001Y-98464106D02*
X56048601Y-96987506D01*
X56048601Y-96987506D02*
X64679201Y-96987506D01*
X64679201Y-96987506D02*
X65418801Y-96247906D01*
X65418801Y-96247906D02*
X65418801Y-95020506D01*
X65418801Y-95020506D02*
X66599201Y-93840106D01*
X66599201Y-93840106D02*
X72905201Y-93840106D01*
X72905201Y-93840106D02*
X74590001Y-92155306D01*
X74590001Y-91430006D02*
X74590001Y-92155306D01*
%TO.N,Board_3-Net-(Q1-Pad3)*%
X59555001Y-98796006D02*
X60634901Y-97716106D01*
X60634901Y-97716106D02*
X63424701Y-97716106D01*
X63424701Y-97716106D02*
X63424701Y-97716006D01*
X63571301Y-89652006D02*
X63571301Y-89370706D01*
X63571301Y-89370706D02*
X64431201Y-88510806D01*
X64431201Y-88510806D02*
X70346101Y-88510806D01*
X70346101Y-88510806D02*
X71590001Y-89754706D01*
X71590001Y-90480006D02*
X71590001Y-89754706D01*
X62446001Y-89652006D02*
X63571301Y-89652006D01*
%TO.N,Board_3-Net-(Q2-Pad2)*%
X74590001Y-97460006D02*
X75866301Y-96183706D01*
X75866301Y-96183706D02*
X75866301Y-90835506D01*
X75866301Y-90835506D02*
X75690201Y-90659406D01*
X75690201Y-90659406D02*
X73601001Y-90659406D01*
X73601001Y-90659406D02*
X70967301Y-88025706D01*
X70967301Y-88025706D02*
X61948101Y-88025706D01*
X61948101Y-88025706D02*
X61320601Y-88653206D01*
X61320601Y-88653206D02*
X61320601Y-90613706D01*
X61320601Y-90613706D02*
X61872601Y-91165706D01*
X61872601Y-91165706D02*
X62056801Y-91165706D01*
X62056801Y-91165706D02*
X62385101Y-91494006D01*
X62385101Y-91494006D02*
X62385101Y-92898506D01*
X62385101Y-92898506D02*
X62017001Y-93266606D01*
X62017001Y-93266606D02*
X60726601Y-93266606D01*
X60726601Y-93266606D02*
X59652001Y-92192006D01*
%TO.N,Board_3-Net-(R6-Pad2)*%
X64986001Y-82032006D02*
X64986001Y-83157306D01*
X64986001Y-83157306D02*
X60861901Y-87281406D01*
X60861901Y-87281406D02*
X60861901Y-91526906D01*
X60861901Y-91526906D02*
X61527001Y-92192006D01*
%TO.N,Board_3-SCL*%
X85560001Y-81778006D02*
X86685301Y-81778006D01*
X87592001Y-108194006D02*
X87592001Y-107018706D01*
X87592001Y-107018706D02*
X86685301Y-106112006D01*
X86685301Y-106112006D02*
X86685301Y-81778006D01*
%TO.N,Board_3-SDA*%
X88100001Y-81778006D02*
X88100001Y-83103306D01*
X88100001Y-83103306D02*
X89421601Y-84424906D01*
X89421601Y-84424906D02*
X89421601Y-106308306D01*
X89421601Y-106308306D02*
X90132001Y-107018706D01*
X90132001Y-108194006D02*
X90132001Y-107018706D01*
%TO.N,Board_4-3V3*%
X100116006Y-104549606D02*
X100116006Y-86889306D01*
X100116006Y-86889306D02*
X103848006Y-83157306D01*
X121882006Y-108194006D02*
X120697106Y-109378906D01*
X120697106Y-109378906D02*
X103083406Y-109378906D01*
X103083406Y-109378906D02*
X100116006Y-106411506D01*
X100116006Y-106411506D02*
X100116006Y-104549606D01*
X100116006Y-104549606D02*
X102300206Y-104549606D01*
X102300206Y-104549606D02*
X105039506Y-101810306D01*
X105039506Y-101810306D02*
X105039506Y-98213806D01*
X105039506Y-98213806D02*
X105511906Y-97741406D01*
X105511906Y-97741406D02*
X106497106Y-97741406D01*
X106497106Y-97741406D02*
X108578006Y-99822306D01*
X108578006Y-99822306D02*
X109933706Y-99822306D01*
X109933706Y-99822306D02*
X110960006Y-98796006D01*
X116010006Y-95494006D02*
X116010006Y-95823606D01*
X116010006Y-95823606D02*
X113037706Y-98795906D01*
X113037706Y-98795906D02*
X110960006Y-98795906D01*
X110960006Y-98795906D02*
X110960006Y-98796006D01*
X103848006Y-82032006D02*
X103848006Y-83157306D01*
X147790006Y-104638006D02*
X146664706Y-104638006D01*
X144742006Y-108194006D02*
X144742006Y-107018706D01*
X144742006Y-107018706D02*
X146664706Y-105096006D01*
X146664706Y-105096006D02*
X146664706Y-104638006D01*
%TO.N,Board_4-5V*%
X147790006Y-81778006D02*
X146664706Y-81778006D01*
X142202006Y-108194006D02*
X142202006Y-107018706D01*
X142202006Y-107018706D02*
X143980006Y-105240706D01*
X143980006Y-105240706D02*
X143980006Y-85588006D01*
X143980006Y-85588006D02*
X146664706Y-82903306D01*
X146664706Y-82903306D02*
X146664706Y-81778006D01*
%TO.N,Board_4-A*%
X101308006Y-103368006D02*
X101308006Y-102192706D01*
X104685906Y-96537106D02*
X102975506Y-98247506D01*
X102975506Y-98247506D02*
X102975506Y-100525206D01*
X102975506Y-100525206D02*
X101308006Y-102192706D01*
X116010006Y-92192006D02*
X116010006Y-92310806D01*
X116010006Y-92310806D02*
X114075706Y-94245106D01*
X114075706Y-94245106D02*
X113878906Y-94245106D01*
X113878906Y-94245106D02*
X111586906Y-96537106D01*
X111586906Y-96537106D02*
X104685906Y-96537106D01*
X104102006Y-95494006D02*
X104102006Y-95953206D01*
X104102006Y-95953206D02*
X104685906Y-96537106D01*
X105977006Y-92192006D02*
X105977006Y-93619006D01*
X105977006Y-93619006D02*
X104102006Y-95494006D01*
%TO.N,Board_4-B*%
X124120006Y-96285306D02*
X123394706Y-96285306D01*
X123394706Y-96285306D02*
X122844606Y-96835406D01*
X122844606Y-96835406D02*
X122844606Y-100578206D01*
X122844606Y-100578206D02*
X124009106Y-101742706D01*
X124009106Y-101742706D02*
X124009106Y-105242306D01*
X124009106Y-105242306D02*
X122856606Y-106394806D01*
X122856606Y-106394806D02*
X102970106Y-106394806D01*
X102970106Y-106394806D02*
X102483306Y-105908006D01*
X124120006Y-95560006D02*
X124120006Y-96285306D01*
X101308006Y-105908006D02*
X102483306Y-105908006D01*
%TO.N,Board_4-D3*%
X114135006Y-95494006D02*
X114135006Y-95197406D01*
X114135006Y-95197406D02*
X115942706Y-93389706D01*
X115942706Y-93389706D02*
X119550006Y-93389706D01*
X119550006Y-93389706D02*
X120469706Y-92470006D01*
X124422006Y-108194006D02*
X124422006Y-107018706D01*
X124811106Y-100318006D02*
X124811106Y-106629606D01*
X124811106Y-106629606D02*
X124422006Y-107018706D01*
%TO.N,Board_4-D7*%
X107914406Y-82032006D02*
X107914406Y-94226406D01*
X107914406Y-94226406D02*
X109182006Y-95494006D01*
X142710006Y-104638006D02*
X142710006Y-86149606D01*
X142710006Y-86149606D02*
X138900006Y-82339606D01*
X138900006Y-82339606D02*
X138900006Y-81189706D01*
X138900006Y-81189706D02*
X138152306Y-80442006D01*
X138152306Y-80442006D02*
X109504406Y-80442006D01*
X109504406Y-80442006D02*
X107914406Y-82032006D01*
X107513306Y-82032006D02*
X107914406Y-82032006D01*
X106388006Y-82032006D02*
X107513306Y-82032006D01*
%TO.N,Board_4-D8*%
X123254406Y-104970706D02*
X121557106Y-103273406D01*
X121557106Y-103273406D02*
X118757706Y-103273406D01*
X118757706Y-103273406D02*
X116857506Y-101373206D01*
X116857506Y-101373206D02*
X108554206Y-101373206D01*
X108554206Y-101373206D02*
X105977006Y-98796006D01*
%TO.N,Board_4-GND*%
X134582006Y-108194006D02*
X133406706Y-108194006D01*
X128914406Y-108194006D02*
X130089706Y-109369306D01*
X130089706Y-109369306D02*
X133039506Y-109369306D01*
X133039506Y-109369306D02*
X133406706Y-109002106D01*
X133406706Y-109002106D02*
X133406706Y-108194006D01*
X128914406Y-108194006D02*
X128326706Y-108194006D01*
X129502006Y-108194006D02*
X128914406Y-108194006D01*
X128326706Y-108194006D02*
X128326706Y-93120006D01*
X128326706Y-93120006D02*
X124646006Y-89439306D01*
X124646006Y-89439306D02*
X124120006Y-89439306D01*
X124120006Y-89439306D02*
X124120006Y-89348606D01*
X124120006Y-89530006D02*
X124120006Y-89439306D01*
X111057006Y-95494006D02*
X112795406Y-93755606D01*
X112795406Y-93755606D02*
X112795406Y-91958506D01*
X112795406Y-91958506D02*
X113976606Y-90777306D01*
X113976606Y-90777306D02*
X114516006Y-90777306D01*
X118928006Y-84224006D02*
X124052606Y-89348606D01*
X124052606Y-89348606D02*
X124120006Y-89348606D01*
X134582006Y-108194006D02*
X135757306Y-108194006D01*
X147282006Y-108194006D02*
X146106706Y-108194006D01*
X146106706Y-108194006D02*
X146106706Y-108561306D01*
X146106706Y-108561306D02*
X145298706Y-109369306D01*
X145298706Y-109369306D02*
X136565206Y-109369306D01*
X136565206Y-109369306D02*
X135757306Y-108561406D01*
X135757306Y-108561406D02*
X135757306Y-108194006D01*
X119342006Y-108194006D02*
X120517306Y-108194006D01*
X120517306Y-108194006D02*
X120517306Y-107386006D01*
X120517306Y-107386006D02*
X120884706Y-107018606D01*
X120884706Y-107018606D02*
X122913106Y-107018606D01*
X122913106Y-107018606D02*
X123057406Y-107162906D01*
X123057406Y-107162906D02*
X123057406Y-108542006D01*
X123057406Y-108542006D02*
X123884706Y-109369306D01*
X123884706Y-109369306D02*
X127518806Y-109369306D01*
X127518806Y-109369306D02*
X128326706Y-108561406D01*
X128326706Y-108561406D02*
X128326706Y-108194006D01*
X114516006Y-89652006D02*
X114516006Y-90777306D01*
%TO.N,Board_4-Net-(D1-Pad1)*%
X106388006Y-89652006D02*
X106388006Y-90777306D01*
X106388006Y-90777306D02*
X106791506Y-91180806D01*
X106791506Y-91180806D02*
X106791506Y-94679506D01*
X106791506Y-94679506D02*
X105977006Y-95494006D01*
%TO.N,Board_4-Net-(D2-Pad2)*%
X104102006Y-92192006D02*
X104102006Y-93604706D01*
X104102006Y-93604706D02*
X103863706Y-93843006D01*
%TO.N,Board_4-Net-(D3-Pad2)*%
X110349206Y-100569306D02*
X117786006Y-100569306D01*
X117786006Y-100569306D02*
X121120006Y-97235306D01*
X121120006Y-96510006D02*
X121120006Y-97235306D01*
%TO.N,Board_4-Net-(D5-Pad2)*%
X114135006Y-92192006D02*
X114135006Y-93160006D01*
X114135006Y-93160006D02*
X113775206Y-93519806D01*
%TO.N,Board_4-Net-(Q1-Pad2)*%
X104102006Y-98796006D02*
X104102006Y-98464106D01*
X104102006Y-98464106D02*
X105578606Y-96987506D01*
X105578606Y-96987506D02*
X114209206Y-96987506D01*
X114209206Y-96987506D02*
X114948806Y-96247906D01*
X114948806Y-96247906D02*
X114948806Y-95020506D01*
X114948806Y-95020506D02*
X116129206Y-93840106D01*
X116129206Y-93840106D02*
X122435206Y-93840106D01*
X122435206Y-93840106D02*
X124120006Y-92155306D01*
X124120006Y-91430006D02*
X124120006Y-92155306D01*
%TO.N,Board_4-Net-(Q1-Pad3)*%
X109085006Y-98796006D02*
X110164906Y-97716106D01*
X110164906Y-97716106D02*
X112954706Y-97716106D01*
X112954706Y-97716106D02*
X112954706Y-97716006D01*
X113101306Y-89652006D02*
X113101306Y-89370706D01*
X113101306Y-89370706D02*
X113961206Y-88510806D01*
X113961206Y-88510806D02*
X119876106Y-88510806D01*
X119876106Y-88510806D02*
X121120006Y-89754706D01*
X121120006Y-90480006D02*
X121120006Y-89754706D01*
X111976006Y-89652006D02*
X113101306Y-89652006D01*
%TO.N,Board_4-Net-(Q2-Pad2)*%
X124120006Y-97460006D02*
X125396306Y-96183706D01*
X125396306Y-96183706D02*
X125396306Y-90835506D01*
X125396306Y-90835506D02*
X125220206Y-90659406D01*
X125220206Y-90659406D02*
X123131006Y-90659406D01*
X123131006Y-90659406D02*
X120497306Y-88025706D01*
X120497306Y-88025706D02*
X111478106Y-88025706D01*
X111478106Y-88025706D02*
X110850606Y-88653206D01*
X110850606Y-88653206D02*
X110850606Y-90613706D01*
X110850606Y-90613706D02*
X111402606Y-91165706D01*
X111402606Y-91165706D02*
X111586806Y-91165706D01*
X111586806Y-91165706D02*
X111915106Y-91494006D01*
X111915106Y-91494006D02*
X111915106Y-92898506D01*
X111915106Y-92898506D02*
X111547006Y-93266606D01*
X111547006Y-93266606D02*
X110256606Y-93266606D01*
X110256606Y-93266606D02*
X109182006Y-92192006D01*
%TO.N,Board_4-Net-(R6-Pad2)*%
X114516006Y-82032006D02*
X114516006Y-83157306D01*
X114516006Y-83157306D02*
X110391906Y-87281406D01*
X110391906Y-87281406D02*
X110391906Y-91526906D01*
X110391906Y-91526906D02*
X111057006Y-92192006D01*
%TO.N,Board_4-SCL*%
X135090006Y-81778006D02*
X136215306Y-81778006D01*
X137122006Y-108194006D02*
X137122006Y-107018706D01*
X137122006Y-107018706D02*
X136215306Y-106112006D01*
X136215306Y-106112006D02*
X136215306Y-81778006D01*
%TO.N,Board_4-SDA*%
X137630006Y-81778006D02*
X137630006Y-83103306D01*
X137630006Y-83103306D02*
X138951606Y-84424906D01*
X138951606Y-84424906D02*
X138951606Y-106308306D01*
X138951606Y-106308306D02*
X139662006Y-107018706D01*
X139662006Y-108194006D02*
X139662006Y-107018706D01*
%TO.N,Board_5-3V3*%
X50586001Y-134549611D02*
X50586001Y-116889311D01*
X50586001Y-116889311D02*
X54318001Y-113157311D01*
X72352001Y-138194011D02*
X71167101Y-139378911D01*
X71167101Y-139378911D02*
X53553401Y-139378911D01*
X53553401Y-139378911D02*
X50586001Y-136411511D01*
X50586001Y-136411511D02*
X50586001Y-134549611D01*
X50586001Y-134549611D02*
X52770201Y-134549611D01*
X52770201Y-134549611D02*
X55509501Y-131810311D01*
X55509501Y-131810311D02*
X55509501Y-128213811D01*
X55509501Y-128213811D02*
X55981901Y-127741411D01*
X55981901Y-127741411D02*
X56967101Y-127741411D01*
X56967101Y-127741411D02*
X59048001Y-129822311D01*
X59048001Y-129822311D02*
X60403701Y-129822311D01*
X60403701Y-129822311D02*
X61430001Y-128796011D01*
X66480001Y-125494011D02*
X66480001Y-125823611D01*
X66480001Y-125823611D02*
X63507701Y-128795911D01*
X63507701Y-128795911D02*
X61430001Y-128795911D01*
X61430001Y-128795911D02*
X61430001Y-128796011D01*
X54318001Y-112032011D02*
X54318001Y-113157311D01*
X98260001Y-134638011D02*
X97134701Y-134638011D01*
X95212001Y-138194011D02*
X95212001Y-137018711D01*
X95212001Y-137018711D02*
X97134701Y-135096011D01*
X97134701Y-135096011D02*
X97134701Y-134638011D01*
%TO.N,Board_5-5V*%
X98260001Y-111778011D02*
X97134701Y-111778011D01*
X92672001Y-138194011D02*
X92672001Y-137018711D01*
X92672001Y-137018711D02*
X94450001Y-135240711D01*
X94450001Y-135240711D02*
X94450001Y-115588011D01*
X94450001Y-115588011D02*
X97134701Y-112903311D01*
X97134701Y-112903311D02*
X97134701Y-111778011D01*
%TO.N,Board_5-A*%
X51778001Y-133368011D02*
X51778001Y-132192711D01*
X55155901Y-126537111D02*
X53445501Y-128247511D01*
X53445501Y-128247511D02*
X53445501Y-130525211D01*
X53445501Y-130525211D02*
X51778001Y-132192711D01*
X66480001Y-122192011D02*
X66480001Y-122310811D01*
X66480001Y-122310811D02*
X64545701Y-124245111D01*
X64545701Y-124245111D02*
X64348901Y-124245111D01*
X64348901Y-124245111D02*
X62056901Y-126537111D01*
X62056901Y-126537111D02*
X55155901Y-126537111D01*
X54572001Y-125494011D02*
X54572001Y-125953211D01*
X54572001Y-125953211D02*
X55155901Y-126537111D01*
X56447001Y-122192011D02*
X56447001Y-123619011D01*
X56447001Y-123619011D02*
X54572001Y-125494011D01*
%TO.N,Board_5-B*%
X74590001Y-126285311D02*
X73864701Y-126285311D01*
X73864701Y-126285311D02*
X73314601Y-126835411D01*
X73314601Y-126835411D02*
X73314601Y-130578211D01*
X73314601Y-130578211D02*
X74479101Y-131742711D01*
X74479101Y-131742711D02*
X74479101Y-135242311D01*
X74479101Y-135242311D02*
X73326601Y-136394811D01*
X73326601Y-136394811D02*
X53440101Y-136394811D01*
X53440101Y-136394811D02*
X52953301Y-135908011D01*
X74590001Y-125560011D02*
X74590001Y-126285311D01*
X51778001Y-135908011D02*
X52953301Y-135908011D01*
%TO.N,Board_5-D3*%
X64605001Y-125494011D02*
X64605001Y-125197411D01*
X64605001Y-125197411D02*
X66412701Y-123389711D01*
X66412701Y-123389711D02*
X70020001Y-123389711D01*
X70020001Y-123389711D02*
X70939701Y-122470011D01*
X74892001Y-138194011D02*
X74892001Y-137018711D01*
X75281101Y-130318011D02*
X75281101Y-136629611D01*
X75281101Y-136629611D02*
X74892001Y-137018711D01*
%TO.N,Board_5-D7*%
X58384401Y-112032011D02*
X58384401Y-124226411D01*
X58384401Y-124226411D02*
X59652001Y-125494011D01*
X93180001Y-134638011D02*
X93180001Y-116149611D01*
X93180001Y-116149611D02*
X89370001Y-112339611D01*
X89370001Y-112339611D02*
X89370001Y-111189711D01*
X89370001Y-111189711D02*
X88622301Y-110442011D01*
X88622301Y-110442011D02*
X59974401Y-110442011D01*
X59974401Y-110442011D02*
X58384401Y-112032011D01*
X57983301Y-112032011D02*
X58384401Y-112032011D01*
X56858001Y-112032011D02*
X57983301Y-112032011D01*
%TO.N,Board_5-D8*%
X73724401Y-134970711D02*
X72027101Y-133273411D01*
X72027101Y-133273411D02*
X69227701Y-133273411D01*
X69227701Y-133273411D02*
X67327501Y-131373211D01*
X67327501Y-131373211D02*
X59024201Y-131373211D01*
X59024201Y-131373211D02*
X56447001Y-128796011D01*
%TO.N,Board_5-GND*%
X85052001Y-138194011D02*
X83876701Y-138194011D01*
X79384401Y-138194011D02*
X80559701Y-139369311D01*
X80559701Y-139369311D02*
X83509501Y-139369311D01*
X83509501Y-139369311D02*
X83876701Y-139002111D01*
X83876701Y-139002111D02*
X83876701Y-138194011D01*
X79384401Y-138194011D02*
X78796701Y-138194011D01*
X79972001Y-138194011D02*
X79384401Y-138194011D01*
X78796701Y-138194011D02*
X78796701Y-123120011D01*
X78796701Y-123120011D02*
X75116001Y-119439311D01*
X75116001Y-119439311D02*
X74590001Y-119439311D01*
X74590001Y-119439311D02*
X74590001Y-119348611D01*
X74590001Y-119530011D02*
X74590001Y-119439311D01*
X61527001Y-125494011D02*
X63265401Y-123755611D01*
X63265401Y-123755611D02*
X63265401Y-121958511D01*
X63265401Y-121958511D02*
X64446601Y-120777311D01*
X64446601Y-120777311D02*
X64986001Y-120777311D01*
X69398001Y-114224011D02*
X74522601Y-119348611D01*
X74522601Y-119348611D02*
X74590001Y-119348611D01*
X85052001Y-138194011D02*
X86227301Y-138194011D01*
X97752001Y-138194011D02*
X96576701Y-138194011D01*
X96576701Y-138194011D02*
X96576701Y-138561311D01*
X96576701Y-138561311D02*
X95768701Y-139369311D01*
X95768701Y-139369311D02*
X87035201Y-139369311D01*
X87035201Y-139369311D02*
X86227301Y-138561411D01*
X86227301Y-138561411D02*
X86227301Y-138194011D01*
X69812001Y-138194011D02*
X70987301Y-138194011D01*
X70987301Y-138194011D02*
X70987301Y-137386011D01*
X70987301Y-137386011D02*
X71354701Y-137018611D01*
X71354701Y-137018611D02*
X73383101Y-137018611D01*
X73383101Y-137018611D02*
X73527401Y-137162911D01*
X73527401Y-137162911D02*
X73527401Y-138542011D01*
X73527401Y-138542011D02*
X74354701Y-139369311D01*
X74354701Y-139369311D02*
X77988801Y-139369311D01*
X77988801Y-139369311D02*
X78796701Y-138561411D01*
X78796701Y-138561411D02*
X78796701Y-138194011D01*
X64986001Y-119652011D02*
X64986001Y-120777311D01*
%TO.N,Board_5-Net-(D1-Pad1)*%
X56858001Y-119652011D02*
X56858001Y-120777311D01*
X56858001Y-120777311D02*
X57261501Y-121180811D01*
X57261501Y-121180811D02*
X57261501Y-124679511D01*
X57261501Y-124679511D02*
X56447001Y-125494011D01*
%TO.N,Board_5-Net-(D2-Pad2)*%
X54572001Y-122192011D02*
X54572001Y-123604711D01*
X54572001Y-123604711D02*
X54333701Y-123843011D01*
%TO.N,Board_5-Net-(D3-Pad2)*%
X60819201Y-130569311D02*
X68256001Y-130569311D01*
X68256001Y-130569311D02*
X71590001Y-127235311D01*
X71590001Y-126510011D02*
X71590001Y-127235311D01*
%TO.N,Board_5-Net-(D5-Pad2)*%
X64605001Y-122192011D02*
X64605001Y-123160011D01*
X64605001Y-123160011D02*
X64245201Y-123519811D01*
%TO.N,Board_5-Net-(Q1-Pad2)*%
X54572001Y-128796011D02*
X54572001Y-128464111D01*
X54572001Y-128464111D02*
X56048601Y-126987511D01*
X56048601Y-126987511D02*
X64679201Y-126987511D01*
X64679201Y-126987511D02*
X65418801Y-126247911D01*
X65418801Y-126247911D02*
X65418801Y-125020511D01*
X65418801Y-125020511D02*
X66599201Y-123840111D01*
X66599201Y-123840111D02*
X72905201Y-123840111D01*
X72905201Y-123840111D02*
X74590001Y-122155311D01*
X74590001Y-121430011D02*
X74590001Y-122155311D01*
%TO.N,Board_5-Net-(Q1-Pad3)*%
X59555001Y-128796011D02*
X60634901Y-127716111D01*
X60634901Y-127716111D02*
X63424701Y-127716111D01*
X63424701Y-127716111D02*
X63424701Y-127716011D01*
X63571301Y-119652011D02*
X63571301Y-119370711D01*
X63571301Y-119370711D02*
X64431201Y-118510811D01*
X64431201Y-118510811D02*
X70346101Y-118510811D01*
X70346101Y-118510811D02*
X71590001Y-119754711D01*
X71590001Y-120480011D02*
X71590001Y-119754711D01*
X62446001Y-119652011D02*
X63571301Y-119652011D01*
%TO.N,Board_5-Net-(Q2-Pad2)*%
X74590001Y-127460011D02*
X75866301Y-126183711D01*
X75866301Y-126183711D02*
X75866301Y-120835511D01*
X75866301Y-120835511D02*
X75690201Y-120659411D01*
X75690201Y-120659411D02*
X73601001Y-120659411D01*
X73601001Y-120659411D02*
X70967301Y-118025711D01*
X70967301Y-118025711D02*
X61948101Y-118025711D01*
X61948101Y-118025711D02*
X61320601Y-118653211D01*
X61320601Y-118653211D02*
X61320601Y-120613711D01*
X61320601Y-120613711D02*
X61872601Y-121165711D01*
X61872601Y-121165711D02*
X62056801Y-121165711D01*
X62056801Y-121165711D02*
X62385101Y-121494011D01*
X62385101Y-121494011D02*
X62385101Y-122898511D01*
X62385101Y-122898511D02*
X62017001Y-123266611D01*
X62017001Y-123266611D02*
X60726601Y-123266611D01*
X60726601Y-123266611D02*
X59652001Y-122192011D01*
%TO.N,Board_5-Net-(R6-Pad2)*%
X64986001Y-112032011D02*
X64986001Y-113157311D01*
X64986001Y-113157311D02*
X60861901Y-117281411D01*
X60861901Y-117281411D02*
X60861901Y-121526911D01*
X60861901Y-121526911D02*
X61527001Y-122192011D01*
%TO.N,Board_5-SCL*%
X85560001Y-111778011D02*
X86685301Y-111778011D01*
X87592001Y-138194011D02*
X87592001Y-137018711D01*
X87592001Y-137018711D02*
X86685301Y-136112011D01*
X86685301Y-136112011D02*
X86685301Y-111778011D01*
%TO.N,Board_5-SDA*%
X88100001Y-111778011D02*
X88100001Y-113103311D01*
X88100001Y-113103311D02*
X89421601Y-114424911D01*
X89421601Y-114424911D02*
X89421601Y-136308311D01*
X89421601Y-136308311D02*
X90132001Y-137018711D01*
X90132001Y-138194011D02*
X90132001Y-137018711D01*
%TO.N,Board_6-3V3*%
X100116006Y-134549611D02*
X100116006Y-116889311D01*
X100116006Y-116889311D02*
X103848006Y-113157311D01*
X121882006Y-138194011D02*
X120697106Y-139378911D01*
X120697106Y-139378911D02*
X103083406Y-139378911D01*
X103083406Y-139378911D02*
X100116006Y-136411511D01*
X100116006Y-136411511D02*
X100116006Y-134549611D01*
X100116006Y-134549611D02*
X102300206Y-134549611D01*
X102300206Y-134549611D02*
X105039506Y-131810311D01*
X105039506Y-131810311D02*
X105039506Y-128213811D01*
X105039506Y-128213811D02*
X105511906Y-127741411D01*
X105511906Y-127741411D02*
X106497106Y-127741411D01*
X106497106Y-127741411D02*
X108578006Y-129822311D01*
X108578006Y-129822311D02*
X109933706Y-129822311D01*
X109933706Y-129822311D02*
X110960006Y-128796011D01*
X116010006Y-125494011D02*
X116010006Y-125823611D01*
X116010006Y-125823611D02*
X113037706Y-128795911D01*
X113037706Y-128795911D02*
X110960006Y-128795911D01*
X110960006Y-128795911D02*
X110960006Y-128796011D01*
X103848006Y-112032011D02*
X103848006Y-113157311D01*
X147790006Y-134638011D02*
X146664706Y-134638011D01*
X144742006Y-138194011D02*
X144742006Y-137018711D01*
X144742006Y-137018711D02*
X146664706Y-135096011D01*
X146664706Y-135096011D02*
X146664706Y-134638011D01*
%TO.N,Board_6-5V*%
X147790006Y-111778011D02*
X146664706Y-111778011D01*
X142202006Y-138194011D02*
X142202006Y-137018711D01*
X142202006Y-137018711D02*
X143980006Y-135240711D01*
X143980006Y-135240711D02*
X143980006Y-115588011D01*
X143980006Y-115588011D02*
X146664706Y-112903311D01*
X146664706Y-112903311D02*
X146664706Y-111778011D01*
%TO.N,Board_6-A*%
X101308006Y-133368011D02*
X101308006Y-132192711D01*
X104685906Y-126537111D02*
X102975506Y-128247511D01*
X102975506Y-128247511D02*
X102975506Y-130525211D01*
X102975506Y-130525211D02*
X101308006Y-132192711D01*
X116010006Y-122192011D02*
X116010006Y-122310811D01*
X116010006Y-122310811D02*
X114075706Y-124245111D01*
X114075706Y-124245111D02*
X113878906Y-124245111D01*
X113878906Y-124245111D02*
X111586906Y-126537111D01*
X111586906Y-126537111D02*
X104685906Y-126537111D01*
X104102006Y-125494011D02*
X104102006Y-125953211D01*
X104102006Y-125953211D02*
X104685906Y-126537111D01*
X105977006Y-122192011D02*
X105977006Y-123619011D01*
X105977006Y-123619011D02*
X104102006Y-125494011D01*
%TO.N,Board_6-B*%
X124120006Y-126285311D02*
X123394706Y-126285311D01*
X123394706Y-126285311D02*
X122844606Y-126835411D01*
X122844606Y-126835411D02*
X122844606Y-130578211D01*
X122844606Y-130578211D02*
X124009106Y-131742711D01*
X124009106Y-131742711D02*
X124009106Y-135242311D01*
X124009106Y-135242311D02*
X122856606Y-136394811D01*
X122856606Y-136394811D02*
X102970106Y-136394811D01*
X102970106Y-136394811D02*
X102483306Y-135908011D01*
X124120006Y-125560011D02*
X124120006Y-126285311D01*
X101308006Y-135908011D02*
X102483306Y-135908011D01*
%TO.N,Board_6-D3*%
X114135006Y-125494011D02*
X114135006Y-125197411D01*
X114135006Y-125197411D02*
X115942706Y-123389711D01*
X115942706Y-123389711D02*
X119550006Y-123389711D01*
X119550006Y-123389711D02*
X120469706Y-122470011D01*
X124422006Y-138194011D02*
X124422006Y-137018711D01*
X124811106Y-130318011D02*
X124811106Y-136629611D01*
X124811106Y-136629611D02*
X124422006Y-137018711D01*
%TO.N,Board_6-D7*%
X107914406Y-112032011D02*
X107914406Y-124226411D01*
X107914406Y-124226411D02*
X109182006Y-125494011D01*
X142710006Y-134638011D02*
X142710006Y-116149611D01*
X142710006Y-116149611D02*
X138900006Y-112339611D01*
X138900006Y-112339611D02*
X138900006Y-111189711D01*
X138900006Y-111189711D02*
X138152306Y-110442011D01*
X138152306Y-110442011D02*
X109504406Y-110442011D01*
X109504406Y-110442011D02*
X107914406Y-112032011D01*
X107513306Y-112032011D02*
X107914406Y-112032011D01*
X106388006Y-112032011D02*
X107513306Y-112032011D01*
%TO.N,Board_6-D8*%
X123254406Y-134970711D02*
X121557106Y-133273411D01*
X121557106Y-133273411D02*
X118757706Y-133273411D01*
X118757706Y-133273411D02*
X116857506Y-131373211D01*
X116857506Y-131373211D02*
X108554206Y-131373211D01*
X108554206Y-131373211D02*
X105977006Y-128796011D01*
%TO.N,Board_6-GND*%
X134582006Y-138194011D02*
X133406706Y-138194011D01*
X128914406Y-138194011D02*
X130089706Y-139369311D01*
X130089706Y-139369311D02*
X133039506Y-139369311D01*
X133039506Y-139369311D02*
X133406706Y-139002111D01*
X133406706Y-139002111D02*
X133406706Y-138194011D01*
X128914406Y-138194011D02*
X128326706Y-138194011D01*
X129502006Y-138194011D02*
X128914406Y-138194011D01*
X128326706Y-138194011D02*
X128326706Y-123120011D01*
X128326706Y-123120011D02*
X124646006Y-119439311D01*
X124646006Y-119439311D02*
X124120006Y-119439311D01*
X124120006Y-119439311D02*
X124120006Y-119348611D01*
X124120006Y-119530011D02*
X124120006Y-119439311D01*
X111057006Y-125494011D02*
X112795406Y-123755611D01*
X112795406Y-123755611D02*
X112795406Y-121958511D01*
X112795406Y-121958511D02*
X113976606Y-120777311D01*
X113976606Y-120777311D02*
X114516006Y-120777311D01*
X118928006Y-114224011D02*
X124052606Y-119348611D01*
X124052606Y-119348611D02*
X124120006Y-119348611D01*
X134582006Y-138194011D02*
X135757306Y-138194011D01*
X147282006Y-138194011D02*
X146106706Y-138194011D01*
X146106706Y-138194011D02*
X146106706Y-138561311D01*
X146106706Y-138561311D02*
X145298706Y-139369311D01*
X145298706Y-139369311D02*
X136565206Y-139369311D01*
X136565206Y-139369311D02*
X135757306Y-138561411D01*
X135757306Y-138561411D02*
X135757306Y-138194011D01*
X119342006Y-138194011D02*
X120517306Y-138194011D01*
X120517306Y-138194011D02*
X120517306Y-137386011D01*
X120517306Y-137386011D02*
X120884706Y-137018611D01*
X120884706Y-137018611D02*
X122913106Y-137018611D01*
X122913106Y-137018611D02*
X123057406Y-137162911D01*
X123057406Y-137162911D02*
X123057406Y-138542011D01*
X123057406Y-138542011D02*
X123884706Y-139369311D01*
X123884706Y-139369311D02*
X127518806Y-139369311D01*
X127518806Y-139369311D02*
X128326706Y-138561411D01*
X128326706Y-138561411D02*
X128326706Y-138194011D01*
X114516006Y-119652011D02*
X114516006Y-120777311D01*
%TO.N,Board_6-Net-(D1-Pad1)*%
X106388006Y-119652011D02*
X106388006Y-120777311D01*
X106388006Y-120777311D02*
X106791506Y-121180811D01*
X106791506Y-121180811D02*
X106791506Y-124679511D01*
X106791506Y-124679511D02*
X105977006Y-125494011D01*
%TO.N,Board_6-Net-(D2-Pad2)*%
X104102006Y-122192011D02*
X104102006Y-123604711D01*
X104102006Y-123604711D02*
X103863706Y-123843011D01*
%TO.N,Board_6-Net-(D3-Pad2)*%
X110349206Y-130569311D02*
X117786006Y-130569311D01*
X117786006Y-130569311D02*
X121120006Y-127235311D01*
X121120006Y-126510011D02*
X121120006Y-127235311D01*
%TO.N,Board_6-Net-(D5-Pad2)*%
X114135006Y-122192011D02*
X114135006Y-123160011D01*
X114135006Y-123160011D02*
X113775206Y-123519811D01*
%TO.N,Board_6-Net-(Q1-Pad2)*%
X104102006Y-128796011D02*
X104102006Y-128464111D01*
X104102006Y-128464111D02*
X105578606Y-126987511D01*
X105578606Y-126987511D02*
X114209206Y-126987511D01*
X114209206Y-126987511D02*
X114948806Y-126247911D01*
X114948806Y-126247911D02*
X114948806Y-125020511D01*
X114948806Y-125020511D02*
X116129206Y-123840111D01*
X116129206Y-123840111D02*
X122435206Y-123840111D01*
X122435206Y-123840111D02*
X124120006Y-122155311D01*
X124120006Y-121430011D02*
X124120006Y-122155311D01*
%TO.N,Board_6-Net-(Q1-Pad3)*%
X109085006Y-128796011D02*
X110164906Y-127716111D01*
X110164906Y-127716111D02*
X112954706Y-127716111D01*
X112954706Y-127716111D02*
X112954706Y-127716011D01*
X113101306Y-119652011D02*
X113101306Y-119370711D01*
X113101306Y-119370711D02*
X113961206Y-118510811D01*
X113961206Y-118510811D02*
X119876106Y-118510811D01*
X119876106Y-118510811D02*
X121120006Y-119754711D01*
X121120006Y-120480011D02*
X121120006Y-119754711D01*
X111976006Y-119652011D02*
X113101306Y-119652011D01*
%TO.N,Board_6-Net-(Q2-Pad2)*%
X124120006Y-127460011D02*
X125396306Y-126183711D01*
X125396306Y-126183711D02*
X125396306Y-120835511D01*
X125396306Y-120835511D02*
X125220206Y-120659411D01*
X125220206Y-120659411D02*
X123131006Y-120659411D01*
X123131006Y-120659411D02*
X120497306Y-118025711D01*
X120497306Y-118025711D02*
X111478106Y-118025711D01*
X111478106Y-118025711D02*
X110850606Y-118653211D01*
X110850606Y-118653211D02*
X110850606Y-120613711D01*
X110850606Y-120613711D02*
X111402606Y-121165711D01*
X111402606Y-121165711D02*
X111586806Y-121165711D01*
X111586806Y-121165711D02*
X111915106Y-121494011D01*
X111915106Y-121494011D02*
X111915106Y-122898511D01*
X111915106Y-122898511D02*
X111547006Y-123266611D01*
X111547006Y-123266611D02*
X110256606Y-123266611D01*
X110256606Y-123266611D02*
X109182006Y-122192011D01*
%TO.N,Board_6-Net-(R6-Pad2)*%
X114516006Y-112032011D02*
X114516006Y-113157311D01*
X114516006Y-113157311D02*
X110391906Y-117281411D01*
X110391906Y-117281411D02*
X110391906Y-121526911D01*
X110391906Y-121526911D02*
X111057006Y-122192011D01*
%TO.N,Board_6-SCL*%
X135090006Y-111778011D02*
X136215306Y-111778011D01*
X137122006Y-138194011D02*
X137122006Y-137018711D01*
X137122006Y-137018711D02*
X136215306Y-136112011D01*
X136215306Y-136112011D02*
X136215306Y-111778011D01*
%TO.N,Board_6-SDA*%
X137630006Y-111778011D02*
X137630006Y-113103311D01*
X137630006Y-113103311D02*
X138951606Y-114424911D01*
X138951606Y-114424911D02*
X138951606Y-136308311D01*
X138951606Y-136308311D02*
X139662006Y-137018711D01*
X139662006Y-138194011D02*
X139662006Y-137018711D01*
%TD*%
M02*
