M48
; DRILL file {KiCad 5.1.6-c6e7f7d~87~ubuntu18.04.1} date Fri Sep 18 10:48:25 2020
; FORMAT={-:-/ absolute / inch / decimal}
; #@! TF.CreationDate,2020-09-18T10:48:25+02:00
; #@! TF.GenerationSoftware,Kicad,Pcbnew,5.1.6-c6e7f7d~87~ubuntu18.04.1
; #@! TF.FileFunction,Plated,1,2,PTH
FMAT,2
INCH
T1C0.0157
T2C0.0300
T3C0.0315
T4C0.0394
T5C0.0866
%
G90
G05
T1
X2.1391Y-2.5135
X2.1391Y-3.6946
X2.1391Y-4.8757
X2.3945Y-2.7783
X2.3945Y-3.9594
X2.3945Y-5.1405
X2.497Y-2.666
X2.497Y-3.8471
X2.497Y-5.0282
X2.5293Y-2.5008
X2.5293Y-3.6819
X2.5293Y-4.863
X2.7929Y-2.4594
X2.7929Y-3.6406
X2.7929Y-4.8217
X2.9025Y-2.9516
X2.9025Y-4.1327
X2.9025Y-5.3138
X2.9638Y-2.7684
X2.9638Y-3.9495
X2.9638Y-5.1306
X4.0891Y-2.5135
X4.0891Y-3.6946
X4.0891Y-4.8757
X4.3445Y-2.7783
X4.3445Y-3.9594
X4.3445Y-5.1405
X4.447Y-2.666
X4.447Y-3.8471
X4.447Y-5.0282
X4.4793Y-2.5008
X4.4793Y-3.6819
X4.4793Y-4.863
X4.7429Y-2.4594
X4.7429Y-3.6406
X4.7429Y-4.8217
X4.8525Y-2.9516
X4.8525Y-4.1327
X4.8525Y-5.3138
X4.9138Y-2.7684
X4.9138Y-3.9495
X4.9138Y-5.1306
T2
X3.9948Y-3.7033
X3.9948Y-3.8033
X3.9948Y-3.9033
X4.6822Y-3.2159
X4.6822Y-3.3159
X3.9948Y-4.8844
X3.9948Y-4.9844
X3.9948Y-5.0844
X4.6822Y-4.397
X4.6822Y-4.497
X2.0448Y-4.8844
X2.0448Y-4.9844
X2.0448Y-5.0844
X2.7322Y-4.397
X2.7322Y-4.497
X2.0448Y-3.7033
X2.0448Y-3.8033
X2.0448Y-3.9033
X2.7322Y-3.2159
X2.7322Y-3.3159
X3.9948Y-2.5222
X3.9948Y-2.6222
X3.9948Y-2.7222
X4.6822Y-2.0348
X4.6822Y-2.1348
X2.0448Y-2.5222
X2.0448Y-2.6222
X2.0448Y-2.7222
X2.7322Y-2.0348
X2.7322Y-2.1348
T3
X2.1385Y-2.0485
X2.1385Y-2.3485
X2.2385Y-2.0485
X2.2385Y-2.3485
X4.4085Y-3.2296
X4.4085Y-3.5296
X4.5085Y-3.2296
X4.5085Y-3.5296
X2.4585Y-2.0485
X2.4585Y-2.3485
X2.5585Y-2.0485
X2.5585Y-2.3485
X2.1385Y-3.2296
X2.1385Y-3.5296
X2.2385Y-3.2296
X2.2385Y-3.5296
X4.0885Y-4.4107
X4.0885Y-4.7107
X4.1885Y-4.4107
X4.1885Y-4.7107
X2.4585Y-4.4107
X2.4585Y-4.7107
X2.5585Y-4.4107
X2.5585Y-4.7107
X2.1385Y-4.4107
X2.1385Y-4.7107
X2.2385Y-4.4107
X2.2385Y-4.7107
X4.0885Y-3.2296
X4.0885Y-3.5296
X4.1885Y-3.2296
X4.1885Y-3.5296
X4.4085Y-4.4107
X4.4085Y-4.7107
X4.5085Y-4.4107
X4.5085Y-4.7107
X4.0885Y-2.0485
X4.0885Y-2.3485
X4.1885Y-2.0485
X4.1885Y-2.3485
X4.4085Y-2.0485
X4.4085Y-2.3485
X4.5085Y-2.0485
X4.5085Y-2.3485
X2.4585Y-3.2296
X2.4585Y-3.5296
X2.5585Y-3.2296
X2.5585Y-3.5296
T4
X2.5485Y-4.2596
X2.6485Y-4.2596
X2.7485Y-4.2596
X3.2485Y-5.4407
X3.3485Y-5.4407
X3.4485Y-5.4407
X3.5485Y-5.4407
X2.0385Y-5.2507
X2.0385Y-5.3507
X5.1985Y-5.4407
X5.2985Y-5.4407
X5.3985Y-5.4407
X5.4985Y-5.4407
X3.2485Y-4.2596
X3.3485Y-4.2596
X3.4485Y-4.2596
X3.5485Y-4.2596
X2.5485Y-5.4407
X2.6485Y-5.4407
X2.7485Y-5.4407
X3.6485Y-3.0785
X3.7485Y-3.0785
X3.8485Y-3.0785
X2.7685Y-5.2007
X2.7685Y-5.3007
X4.4985Y-3.0785
X4.5985Y-3.0785
X4.6985Y-3.0785
X2.8485Y-3.0785
X2.9485Y-3.0785
X3.0485Y-3.0785
X3.1485Y-3.0785
X2.0385Y-2.8885
X2.0385Y-2.9885
X2.7685Y-2.8385
X2.7685Y-2.9385
X5.5985Y-4.2596
X5.6985Y-4.2596
X5.7985Y-4.2596
X3.9885Y-5.2507
X3.9885Y-5.3507
X2.8485Y-4.2596
X2.9485Y-4.2596
X3.0485Y-4.2596
X3.1485Y-4.2596
X2.8485Y-5.4407
X2.9485Y-5.4407
X3.0485Y-5.4407
X3.1485Y-5.4407
X4.7185Y-5.2007
X4.7185Y-5.3007
X5.1985Y-4.2596
X5.2985Y-4.2596
X5.3985Y-4.2596
X5.4985Y-4.2596
X5.1985Y-3.0785
X5.2985Y-3.0785
X5.3985Y-3.0785
X5.4985Y-3.0785
X3.6485Y-4.2596
X3.7485Y-4.2596
X3.8485Y-4.2596
X4.7985Y-4.2596
X4.8985Y-4.2596
X4.9985Y-4.2596
X5.0985Y-4.2596
X4.4985Y-5.4407
X4.5985Y-5.4407
X4.6985Y-5.4407
X2.7685Y-4.0196
X2.7685Y-4.1196
X4.7185Y-4.0196
X4.7185Y-4.1196
X5.5985Y-3.0785
X5.6985Y-3.0785
X5.7985Y-3.0785
X3.9885Y-4.0696
X3.9885Y-4.1696
X2.0385Y-4.0696
X2.0385Y-4.1696
X2.5485Y-3.0785
X2.6485Y-3.0785
X2.7485Y-3.0785
X5.5985Y-5.4407
X5.6985Y-5.4407
X5.7985Y-5.4407
X4.4985Y-4.2596
X4.5985Y-4.2596
X4.6985Y-4.2596
X4.7185Y-2.8385
X4.7185Y-2.9385
X4.7985Y-5.4407
X4.8985Y-5.4407
X4.9985Y-5.4407
X5.0985Y-5.4407
X3.2485Y-3.0785
X3.3485Y-3.0785
X3.4485Y-3.0785
X3.5485Y-3.0785
X3.9885Y-2.8885
X3.9885Y-2.9885
X4.7985Y-3.0785
X4.8985Y-3.0785
X4.9985Y-3.0785
X5.0985Y-3.0785
X3.6485Y-5.4407
X3.7485Y-5.4407
X3.8485Y-5.4407
T5
X4.5435Y-5.2807
X4.5435Y-4.0996
X2.5935Y-4.0996
X2.5935Y-5.2807
X4.5435Y-2.9185
X2.5935Y-2.9185
T0
M30
