%TF.GenerationSoftware,KiCad,Pcbnew,5.1.6-c6e7f7d~87~ubuntu18.04.1*%
%TF.CreationDate,2020-09-18T10:49:30+02:00*%
%TF.ProjectId,panel,70616e65-6c2e-46b6-9963-61645f706362,rev?*%
%TF.SameCoordinates,Original*%
%TF.FileFunction,Paste,Top*%
%TF.FilePolarity,Positive*%
%FSLAX46Y46*%
G04 Gerber Fmt 4.6, Leading zero omitted, Abs format (unit mm)*
G04 Created by KiCad (PCBNEW 5.1.6-c6e7f7d~87~ubuntu18.04.1) date 2020-09-18 10:49:30*
%MOMM*%
%LPD*%
G01*
G04 APERTURE LIST*
%ADD10R,3.300000X1.700000*%
%ADD11R,1.800000X2.500000*%
%ADD12R,1.000000X2.500000*%
%ADD13R,1.800000X1.000000*%
G04 APERTURE END LIST*
D10*
%TO.C,D3*%
X104825006Y-135400011D03*
X110325006Y-135400011D03*
%TD*%
%TO.C,D1*%
X110325006Y-132860011D03*
X104825006Y-132860011D03*
%TD*%
D11*
%TO.C,D5*%
X115532006Y-127716011D03*
X115532006Y-123716011D03*
%TD*%
%TO.C,D4*%
X110452006Y-127748011D03*
X110452006Y-123748011D03*
%TD*%
%TO.C,D2*%
X105372006Y-123716011D03*
X105372006Y-127716011D03*
%TD*%
D12*
%TO.C,U4*%
X131844006Y-130808011D03*
X133844006Y-130808011D03*
X135844006Y-130808011D03*
X137844006Y-130808011D03*
X139844006Y-130808011D03*
X141844006Y-130808011D03*
X143844006Y-130808011D03*
X145844006Y-130808011D03*
D13*
X147344006Y-128208011D03*
X147344006Y-126208011D03*
X147344006Y-124208011D03*
X147344006Y-122208011D03*
X147344006Y-120208011D03*
X147344006Y-118208011D03*
D12*
X145844006Y-115608011D03*
X143844006Y-115608011D03*
X141844006Y-115608011D03*
X139844006Y-115608011D03*
X137844006Y-115608011D03*
X135844006Y-115608011D03*
X133844006Y-115608011D03*
X131844006Y-115608011D03*
%TD*%
D10*
%TO.C,D3*%
X55295001Y-135400011D03*
X60795001Y-135400011D03*
%TD*%
%TO.C,D1*%
X60795001Y-132860011D03*
X55295001Y-132860011D03*
%TD*%
D11*
%TO.C,D5*%
X66002001Y-127716011D03*
X66002001Y-123716011D03*
%TD*%
%TO.C,D4*%
X60922001Y-127748011D03*
X60922001Y-123748011D03*
%TD*%
%TO.C,D2*%
X55842001Y-123716011D03*
X55842001Y-127716011D03*
%TD*%
D12*
%TO.C,U4*%
X82314001Y-130808011D03*
X84314001Y-130808011D03*
X86314001Y-130808011D03*
X88314001Y-130808011D03*
X90314001Y-130808011D03*
X92314001Y-130808011D03*
X94314001Y-130808011D03*
X96314001Y-130808011D03*
D13*
X97814001Y-128208011D03*
X97814001Y-126208011D03*
X97814001Y-124208011D03*
X97814001Y-122208011D03*
X97814001Y-120208011D03*
X97814001Y-118208011D03*
D12*
X96314001Y-115608011D03*
X94314001Y-115608011D03*
X92314001Y-115608011D03*
X90314001Y-115608011D03*
X88314001Y-115608011D03*
X86314001Y-115608011D03*
X84314001Y-115608011D03*
X82314001Y-115608011D03*
%TD*%
D10*
%TO.C,D3*%
X104825006Y-105400006D03*
X110325006Y-105400006D03*
%TD*%
%TO.C,D1*%
X110325006Y-102860006D03*
X104825006Y-102860006D03*
%TD*%
D11*
%TO.C,D5*%
X115532006Y-97716006D03*
X115532006Y-93716006D03*
%TD*%
%TO.C,D4*%
X110452006Y-97748006D03*
X110452006Y-93748006D03*
%TD*%
%TO.C,D2*%
X105372006Y-93716006D03*
X105372006Y-97716006D03*
%TD*%
D12*
%TO.C,U4*%
X131844006Y-100808006D03*
X133844006Y-100808006D03*
X135844006Y-100808006D03*
X137844006Y-100808006D03*
X139844006Y-100808006D03*
X141844006Y-100808006D03*
X143844006Y-100808006D03*
X145844006Y-100808006D03*
D13*
X147344006Y-98208006D03*
X147344006Y-96208006D03*
X147344006Y-94208006D03*
X147344006Y-92208006D03*
X147344006Y-90208006D03*
X147344006Y-88208006D03*
D12*
X145844006Y-85608006D03*
X143844006Y-85608006D03*
X141844006Y-85608006D03*
X139844006Y-85608006D03*
X137844006Y-85608006D03*
X135844006Y-85608006D03*
X133844006Y-85608006D03*
X131844006Y-85608006D03*
%TD*%
D10*
%TO.C,D3*%
X55295001Y-105400006D03*
X60795001Y-105400006D03*
%TD*%
%TO.C,D1*%
X60795001Y-102860006D03*
X55295001Y-102860006D03*
%TD*%
D11*
%TO.C,D5*%
X66002001Y-97716006D03*
X66002001Y-93716006D03*
%TD*%
%TO.C,D4*%
X60922001Y-97748006D03*
X60922001Y-93748006D03*
%TD*%
%TO.C,D2*%
X55842001Y-93716006D03*
X55842001Y-97716006D03*
%TD*%
D12*
%TO.C,U4*%
X82314001Y-100808006D03*
X84314001Y-100808006D03*
X86314001Y-100808006D03*
X88314001Y-100808006D03*
X90314001Y-100808006D03*
X92314001Y-100808006D03*
X94314001Y-100808006D03*
X96314001Y-100808006D03*
D13*
X97814001Y-98208006D03*
X97814001Y-96208006D03*
X97814001Y-94208006D03*
X97814001Y-92208006D03*
X97814001Y-90208006D03*
X97814001Y-88208006D03*
D12*
X96314001Y-85608006D03*
X94314001Y-85608006D03*
X92314001Y-85608006D03*
X90314001Y-85608006D03*
X88314001Y-85608006D03*
X86314001Y-85608006D03*
X84314001Y-85608006D03*
X82314001Y-85608006D03*
%TD*%
D10*
%TO.C,D3*%
X104825006Y-75400001D03*
X110325006Y-75400001D03*
%TD*%
%TO.C,D1*%
X110325006Y-72860001D03*
X104825006Y-72860001D03*
%TD*%
D11*
%TO.C,D5*%
X115532006Y-67716001D03*
X115532006Y-63716001D03*
%TD*%
%TO.C,D4*%
X110452006Y-67748001D03*
X110452006Y-63748001D03*
%TD*%
%TO.C,D2*%
X105372006Y-63716001D03*
X105372006Y-67716001D03*
%TD*%
D12*
%TO.C,U4*%
X131844006Y-70808001D03*
X133844006Y-70808001D03*
X135844006Y-70808001D03*
X137844006Y-70808001D03*
X139844006Y-70808001D03*
X141844006Y-70808001D03*
X143844006Y-70808001D03*
X145844006Y-70808001D03*
D13*
X147344006Y-68208001D03*
X147344006Y-66208001D03*
X147344006Y-64208001D03*
X147344006Y-62208001D03*
X147344006Y-60208001D03*
X147344006Y-58208001D03*
D12*
X145844006Y-55608001D03*
X143844006Y-55608001D03*
X141844006Y-55608001D03*
X139844006Y-55608001D03*
X137844006Y-55608001D03*
X135844006Y-55608001D03*
X133844006Y-55608001D03*
X131844006Y-55608001D03*
%TD*%
D10*
%TO.C,D3*%
X55295001Y-75400001D03*
X60795001Y-75400001D03*
%TD*%
%TO.C,D1*%
X60795001Y-72860001D03*
X55295001Y-72860001D03*
%TD*%
D11*
%TO.C,D5*%
X66002001Y-67716001D03*
X66002001Y-63716001D03*
%TD*%
%TO.C,D4*%
X60922001Y-67748001D03*
X60922001Y-63748001D03*
%TD*%
%TO.C,D2*%
X55842001Y-63716001D03*
X55842001Y-67716001D03*
%TD*%
D12*
%TO.C,U4*%
X82314001Y-70808001D03*
X84314001Y-70808001D03*
X86314001Y-70808001D03*
X88314001Y-70808001D03*
X90314001Y-70808001D03*
X92314001Y-70808001D03*
X94314001Y-70808001D03*
X96314001Y-70808001D03*
D13*
X97814001Y-68208001D03*
X97814001Y-66208001D03*
X97814001Y-64208001D03*
X97814001Y-62208001D03*
X97814001Y-60208001D03*
X97814001Y-58208001D03*
D12*
X96314001Y-55608001D03*
X94314001Y-55608001D03*
X92314001Y-55608001D03*
X90314001Y-55608001D03*
X88314001Y-55608001D03*
X86314001Y-55608001D03*
X84314001Y-55608001D03*
X82314001Y-55608001D03*
%TD*%
M02*
