%TF.GenerationSoftware,KiCad,Pcbnew,5.1.6-c6e7f7d~87~ubuntu18.04.1*%
%TF.CreationDate,2020-09-18T10:49:30+02:00*%
%TF.ProjectId,panel,70616e65-6c2e-46b6-9963-61645f706362,rev?*%
%TF.SameCoordinates,Original*%
%TF.FileFunction,Paste,Bot*%
%TF.FilePolarity,Positive*%
%FSLAX46Y46*%
G04 Gerber Fmt 4.6, Leading zero omitted, Abs format (unit mm)*
G04 Created by KiCad (PCBNEW 5.1.6-c6e7f7d~87~ubuntu18.04.1) date 2020-09-18 10:49:30*
%MOMM*%
%LPD*%
G01*
G04 APERTURE LIST*
%ADD10R,1.900000X0.800000*%
G04 APERTURE END LIST*
%TO.C,R8*%
G36*
G01*
X113647506Y-122648261D02*
X113647506Y-121735761D01*
G75*
G02*
X113891256Y-121492011I243750J0D01*
G01*
X114378756Y-121492011D01*
G75*
G02*
X114622506Y-121735761I0J-243750D01*
G01*
X114622506Y-122648261D01*
G75*
G02*
X114378756Y-122892011I-243750J0D01*
G01*
X113891256Y-122892011D01*
G75*
G02*
X113647506Y-122648261I0J243750D01*
G01*
G37*
G36*
G01*
X115522506Y-122648261D02*
X115522506Y-121735761D01*
G75*
G02*
X115766256Y-121492011I243750J0D01*
G01*
X116253756Y-121492011D01*
G75*
G02*
X116497506Y-121735761I0J-243750D01*
G01*
X116497506Y-122648261D01*
G75*
G02*
X116253756Y-122892011I-243750J0D01*
G01*
X115766256Y-122892011D01*
G75*
G02*
X115522506Y-122648261I0J243750D01*
G01*
G37*
%TD*%
%TO.C,R7*%
G36*
G01*
X115522506Y-125950261D02*
X115522506Y-125037761D01*
G75*
G02*
X115766256Y-124794011I243750J0D01*
G01*
X116253756Y-124794011D01*
G75*
G02*
X116497506Y-125037761I0J-243750D01*
G01*
X116497506Y-125950261D01*
G75*
G02*
X116253756Y-126194011I-243750J0D01*
G01*
X115766256Y-126194011D01*
G75*
G02*
X115522506Y-125950261I0J243750D01*
G01*
G37*
G36*
G01*
X113647506Y-125950261D02*
X113647506Y-125037761D01*
G75*
G02*
X113891256Y-124794011I243750J0D01*
G01*
X114378756Y-124794011D01*
G75*
G02*
X114622506Y-125037761I0J-243750D01*
G01*
X114622506Y-125950261D01*
G75*
G02*
X114378756Y-126194011I-243750J0D01*
G01*
X113891256Y-126194011D01*
G75*
G02*
X113647506Y-125950261I0J243750D01*
G01*
G37*
%TD*%
%TO.C,R6*%
G36*
G01*
X110569506Y-122648261D02*
X110569506Y-121735761D01*
G75*
G02*
X110813256Y-121492011I243750J0D01*
G01*
X111300756Y-121492011D01*
G75*
G02*
X111544506Y-121735761I0J-243750D01*
G01*
X111544506Y-122648261D01*
G75*
G02*
X111300756Y-122892011I-243750J0D01*
G01*
X110813256Y-122892011D01*
G75*
G02*
X110569506Y-122648261I0J243750D01*
G01*
G37*
G36*
G01*
X108694506Y-122648261D02*
X108694506Y-121735761D01*
G75*
G02*
X108938256Y-121492011I243750J0D01*
G01*
X109425756Y-121492011D01*
G75*
G02*
X109669506Y-121735761I0J-243750D01*
G01*
X109669506Y-122648261D01*
G75*
G02*
X109425756Y-122892011I-243750J0D01*
G01*
X108938256Y-122892011D01*
G75*
G02*
X108694506Y-122648261I0J243750D01*
G01*
G37*
%TD*%
%TO.C,R5*%
G36*
G01*
X108694506Y-125950261D02*
X108694506Y-125037761D01*
G75*
G02*
X108938256Y-124794011I243750J0D01*
G01*
X109425756Y-124794011D01*
G75*
G02*
X109669506Y-125037761I0J-243750D01*
G01*
X109669506Y-125950261D01*
G75*
G02*
X109425756Y-126194011I-243750J0D01*
G01*
X108938256Y-126194011D01*
G75*
G02*
X108694506Y-125950261I0J243750D01*
G01*
G37*
G36*
G01*
X110569506Y-125950261D02*
X110569506Y-125037761D01*
G75*
G02*
X110813256Y-124794011I243750J0D01*
G01*
X111300756Y-124794011D01*
G75*
G02*
X111544506Y-125037761I0J-243750D01*
G01*
X111544506Y-125950261D01*
G75*
G02*
X111300756Y-126194011I-243750J0D01*
G01*
X110813256Y-126194011D01*
G75*
G02*
X110569506Y-125950261I0J243750D01*
G01*
G37*
%TD*%
%TO.C,R4*%
G36*
G01*
X108597506Y-129252261D02*
X108597506Y-128339761D01*
G75*
G02*
X108841256Y-128096011I243750J0D01*
G01*
X109328756Y-128096011D01*
G75*
G02*
X109572506Y-128339761I0J-243750D01*
G01*
X109572506Y-129252261D01*
G75*
G02*
X109328756Y-129496011I-243750J0D01*
G01*
X108841256Y-129496011D01*
G75*
G02*
X108597506Y-129252261I0J243750D01*
G01*
G37*
G36*
G01*
X110472506Y-129252261D02*
X110472506Y-128339761D01*
G75*
G02*
X110716256Y-128096011I243750J0D01*
G01*
X111203756Y-128096011D01*
G75*
G02*
X111447506Y-128339761I0J-243750D01*
G01*
X111447506Y-129252261D01*
G75*
G02*
X111203756Y-129496011I-243750J0D01*
G01*
X110716256Y-129496011D01*
G75*
G02*
X110472506Y-129252261I0J243750D01*
G01*
G37*
%TD*%
%TO.C,R3*%
G36*
G01*
X105489506Y-122648261D02*
X105489506Y-121735761D01*
G75*
G02*
X105733256Y-121492011I243750J0D01*
G01*
X106220756Y-121492011D01*
G75*
G02*
X106464506Y-121735761I0J-243750D01*
G01*
X106464506Y-122648261D01*
G75*
G02*
X106220756Y-122892011I-243750J0D01*
G01*
X105733256Y-122892011D01*
G75*
G02*
X105489506Y-122648261I0J243750D01*
G01*
G37*
G36*
G01*
X103614506Y-122648261D02*
X103614506Y-121735761D01*
G75*
G02*
X103858256Y-121492011I243750J0D01*
G01*
X104345756Y-121492011D01*
G75*
G02*
X104589506Y-121735761I0J-243750D01*
G01*
X104589506Y-122648261D01*
G75*
G02*
X104345756Y-122892011I-243750J0D01*
G01*
X103858256Y-122892011D01*
G75*
G02*
X103614506Y-122648261I0J243750D01*
G01*
G37*
%TD*%
%TO.C,R2*%
G36*
G01*
X105489506Y-125950261D02*
X105489506Y-125037761D01*
G75*
G02*
X105733256Y-124794011I243750J0D01*
G01*
X106220756Y-124794011D01*
G75*
G02*
X106464506Y-125037761I0J-243750D01*
G01*
X106464506Y-125950261D01*
G75*
G02*
X106220756Y-126194011I-243750J0D01*
G01*
X105733256Y-126194011D01*
G75*
G02*
X105489506Y-125950261I0J243750D01*
G01*
G37*
G36*
G01*
X103614506Y-125950261D02*
X103614506Y-125037761D01*
G75*
G02*
X103858256Y-124794011I243750J0D01*
G01*
X104345756Y-124794011D01*
G75*
G02*
X104589506Y-125037761I0J-243750D01*
G01*
X104589506Y-125950261D01*
G75*
G02*
X104345756Y-126194011I-243750J0D01*
G01*
X103858256Y-126194011D01*
G75*
G02*
X103614506Y-125950261I0J243750D01*
G01*
G37*
%TD*%
%TO.C,R1*%
G36*
G01*
X103614506Y-129252261D02*
X103614506Y-128339761D01*
G75*
G02*
X103858256Y-128096011I243750J0D01*
G01*
X104345756Y-128096011D01*
G75*
G02*
X104589506Y-128339761I0J-243750D01*
G01*
X104589506Y-129252261D01*
G75*
G02*
X104345756Y-129496011I-243750J0D01*
G01*
X103858256Y-129496011D01*
G75*
G02*
X103614506Y-129252261I0J243750D01*
G01*
G37*
G36*
G01*
X105489506Y-129252261D02*
X105489506Y-128339761D01*
G75*
G02*
X105733256Y-128096011I243750J0D01*
G01*
X106220756Y-128096011D01*
G75*
G02*
X106464506Y-128339761I0J-243750D01*
G01*
X106464506Y-129252261D01*
G75*
G02*
X106220756Y-129496011I-243750J0D01*
G01*
X105733256Y-129496011D01*
G75*
G02*
X105489506Y-129252261I0J243750D01*
G01*
G37*
%TD*%
D10*
%TO.C,Q2*%
X121120006Y-126510011D03*
X124120006Y-127460011D03*
X124120006Y-125560011D03*
%TD*%
%TO.C,Q1*%
X124120006Y-119530011D03*
X124120006Y-121430011D03*
X121120006Y-120480011D03*
%TD*%
%TO.C,R8*%
G36*
G01*
X64117501Y-122648261D02*
X64117501Y-121735761D01*
G75*
G02*
X64361251Y-121492011I243750J0D01*
G01*
X64848751Y-121492011D01*
G75*
G02*
X65092501Y-121735761I0J-243750D01*
G01*
X65092501Y-122648261D01*
G75*
G02*
X64848751Y-122892011I-243750J0D01*
G01*
X64361251Y-122892011D01*
G75*
G02*
X64117501Y-122648261I0J243750D01*
G01*
G37*
G36*
G01*
X65992501Y-122648261D02*
X65992501Y-121735761D01*
G75*
G02*
X66236251Y-121492011I243750J0D01*
G01*
X66723751Y-121492011D01*
G75*
G02*
X66967501Y-121735761I0J-243750D01*
G01*
X66967501Y-122648261D01*
G75*
G02*
X66723751Y-122892011I-243750J0D01*
G01*
X66236251Y-122892011D01*
G75*
G02*
X65992501Y-122648261I0J243750D01*
G01*
G37*
%TD*%
%TO.C,R7*%
G36*
G01*
X65992501Y-125950261D02*
X65992501Y-125037761D01*
G75*
G02*
X66236251Y-124794011I243750J0D01*
G01*
X66723751Y-124794011D01*
G75*
G02*
X66967501Y-125037761I0J-243750D01*
G01*
X66967501Y-125950261D01*
G75*
G02*
X66723751Y-126194011I-243750J0D01*
G01*
X66236251Y-126194011D01*
G75*
G02*
X65992501Y-125950261I0J243750D01*
G01*
G37*
G36*
G01*
X64117501Y-125950261D02*
X64117501Y-125037761D01*
G75*
G02*
X64361251Y-124794011I243750J0D01*
G01*
X64848751Y-124794011D01*
G75*
G02*
X65092501Y-125037761I0J-243750D01*
G01*
X65092501Y-125950261D01*
G75*
G02*
X64848751Y-126194011I-243750J0D01*
G01*
X64361251Y-126194011D01*
G75*
G02*
X64117501Y-125950261I0J243750D01*
G01*
G37*
%TD*%
%TO.C,R6*%
G36*
G01*
X61039501Y-122648261D02*
X61039501Y-121735761D01*
G75*
G02*
X61283251Y-121492011I243750J0D01*
G01*
X61770751Y-121492011D01*
G75*
G02*
X62014501Y-121735761I0J-243750D01*
G01*
X62014501Y-122648261D01*
G75*
G02*
X61770751Y-122892011I-243750J0D01*
G01*
X61283251Y-122892011D01*
G75*
G02*
X61039501Y-122648261I0J243750D01*
G01*
G37*
G36*
G01*
X59164501Y-122648261D02*
X59164501Y-121735761D01*
G75*
G02*
X59408251Y-121492011I243750J0D01*
G01*
X59895751Y-121492011D01*
G75*
G02*
X60139501Y-121735761I0J-243750D01*
G01*
X60139501Y-122648261D01*
G75*
G02*
X59895751Y-122892011I-243750J0D01*
G01*
X59408251Y-122892011D01*
G75*
G02*
X59164501Y-122648261I0J243750D01*
G01*
G37*
%TD*%
%TO.C,R5*%
G36*
G01*
X59164501Y-125950261D02*
X59164501Y-125037761D01*
G75*
G02*
X59408251Y-124794011I243750J0D01*
G01*
X59895751Y-124794011D01*
G75*
G02*
X60139501Y-125037761I0J-243750D01*
G01*
X60139501Y-125950261D01*
G75*
G02*
X59895751Y-126194011I-243750J0D01*
G01*
X59408251Y-126194011D01*
G75*
G02*
X59164501Y-125950261I0J243750D01*
G01*
G37*
G36*
G01*
X61039501Y-125950261D02*
X61039501Y-125037761D01*
G75*
G02*
X61283251Y-124794011I243750J0D01*
G01*
X61770751Y-124794011D01*
G75*
G02*
X62014501Y-125037761I0J-243750D01*
G01*
X62014501Y-125950261D01*
G75*
G02*
X61770751Y-126194011I-243750J0D01*
G01*
X61283251Y-126194011D01*
G75*
G02*
X61039501Y-125950261I0J243750D01*
G01*
G37*
%TD*%
%TO.C,R4*%
G36*
G01*
X59067501Y-129252261D02*
X59067501Y-128339761D01*
G75*
G02*
X59311251Y-128096011I243750J0D01*
G01*
X59798751Y-128096011D01*
G75*
G02*
X60042501Y-128339761I0J-243750D01*
G01*
X60042501Y-129252261D01*
G75*
G02*
X59798751Y-129496011I-243750J0D01*
G01*
X59311251Y-129496011D01*
G75*
G02*
X59067501Y-129252261I0J243750D01*
G01*
G37*
G36*
G01*
X60942501Y-129252261D02*
X60942501Y-128339761D01*
G75*
G02*
X61186251Y-128096011I243750J0D01*
G01*
X61673751Y-128096011D01*
G75*
G02*
X61917501Y-128339761I0J-243750D01*
G01*
X61917501Y-129252261D01*
G75*
G02*
X61673751Y-129496011I-243750J0D01*
G01*
X61186251Y-129496011D01*
G75*
G02*
X60942501Y-129252261I0J243750D01*
G01*
G37*
%TD*%
%TO.C,R3*%
G36*
G01*
X55959501Y-122648261D02*
X55959501Y-121735761D01*
G75*
G02*
X56203251Y-121492011I243750J0D01*
G01*
X56690751Y-121492011D01*
G75*
G02*
X56934501Y-121735761I0J-243750D01*
G01*
X56934501Y-122648261D01*
G75*
G02*
X56690751Y-122892011I-243750J0D01*
G01*
X56203251Y-122892011D01*
G75*
G02*
X55959501Y-122648261I0J243750D01*
G01*
G37*
G36*
G01*
X54084501Y-122648261D02*
X54084501Y-121735761D01*
G75*
G02*
X54328251Y-121492011I243750J0D01*
G01*
X54815751Y-121492011D01*
G75*
G02*
X55059501Y-121735761I0J-243750D01*
G01*
X55059501Y-122648261D01*
G75*
G02*
X54815751Y-122892011I-243750J0D01*
G01*
X54328251Y-122892011D01*
G75*
G02*
X54084501Y-122648261I0J243750D01*
G01*
G37*
%TD*%
%TO.C,R2*%
G36*
G01*
X55959501Y-125950261D02*
X55959501Y-125037761D01*
G75*
G02*
X56203251Y-124794011I243750J0D01*
G01*
X56690751Y-124794011D01*
G75*
G02*
X56934501Y-125037761I0J-243750D01*
G01*
X56934501Y-125950261D01*
G75*
G02*
X56690751Y-126194011I-243750J0D01*
G01*
X56203251Y-126194011D01*
G75*
G02*
X55959501Y-125950261I0J243750D01*
G01*
G37*
G36*
G01*
X54084501Y-125950261D02*
X54084501Y-125037761D01*
G75*
G02*
X54328251Y-124794011I243750J0D01*
G01*
X54815751Y-124794011D01*
G75*
G02*
X55059501Y-125037761I0J-243750D01*
G01*
X55059501Y-125950261D01*
G75*
G02*
X54815751Y-126194011I-243750J0D01*
G01*
X54328251Y-126194011D01*
G75*
G02*
X54084501Y-125950261I0J243750D01*
G01*
G37*
%TD*%
%TO.C,R1*%
G36*
G01*
X54084501Y-129252261D02*
X54084501Y-128339761D01*
G75*
G02*
X54328251Y-128096011I243750J0D01*
G01*
X54815751Y-128096011D01*
G75*
G02*
X55059501Y-128339761I0J-243750D01*
G01*
X55059501Y-129252261D01*
G75*
G02*
X54815751Y-129496011I-243750J0D01*
G01*
X54328251Y-129496011D01*
G75*
G02*
X54084501Y-129252261I0J243750D01*
G01*
G37*
G36*
G01*
X55959501Y-129252261D02*
X55959501Y-128339761D01*
G75*
G02*
X56203251Y-128096011I243750J0D01*
G01*
X56690751Y-128096011D01*
G75*
G02*
X56934501Y-128339761I0J-243750D01*
G01*
X56934501Y-129252261D01*
G75*
G02*
X56690751Y-129496011I-243750J0D01*
G01*
X56203251Y-129496011D01*
G75*
G02*
X55959501Y-129252261I0J243750D01*
G01*
G37*
%TD*%
%TO.C,Q2*%
X71590001Y-126510011D03*
X74590001Y-127460011D03*
X74590001Y-125560011D03*
%TD*%
%TO.C,Q1*%
X74590001Y-119530011D03*
X74590001Y-121430011D03*
X71590001Y-120480011D03*
%TD*%
%TO.C,R8*%
G36*
G01*
X113647506Y-92648256D02*
X113647506Y-91735756D01*
G75*
G02*
X113891256Y-91492006I243750J0D01*
G01*
X114378756Y-91492006D01*
G75*
G02*
X114622506Y-91735756I0J-243750D01*
G01*
X114622506Y-92648256D01*
G75*
G02*
X114378756Y-92892006I-243750J0D01*
G01*
X113891256Y-92892006D01*
G75*
G02*
X113647506Y-92648256I0J243750D01*
G01*
G37*
G36*
G01*
X115522506Y-92648256D02*
X115522506Y-91735756D01*
G75*
G02*
X115766256Y-91492006I243750J0D01*
G01*
X116253756Y-91492006D01*
G75*
G02*
X116497506Y-91735756I0J-243750D01*
G01*
X116497506Y-92648256D01*
G75*
G02*
X116253756Y-92892006I-243750J0D01*
G01*
X115766256Y-92892006D01*
G75*
G02*
X115522506Y-92648256I0J243750D01*
G01*
G37*
%TD*%
%TO.C,R7*%
G36*
G01*
X115522506Y-95950256D02*
X115522506Y-95037756D01*
G75*
G02*
X115766256Y-94794006I243750J0D01*
G01*
X116253756Y-94794006D01*
G75*
G02*
X116497506Y-95037756I0J-243750D01*
G01*
X116497506Y-95950256D01*
G75*
G02*
X116253756Y-96194006I-243750J0D01*
G01*
X115766256Y-96194006D01*
G75*
G02*
X115522506Y-95950256I0J243750D01*
G01*
G37*
G36*
G01*
X113647506Y-95950256D02*
X113647506Y-95037756D01*
G75*
G02*
X113891256Y-94794006I243750J0D01*
G01*
X114378756Y-94794006D01*
G75*
G02*
X114622506Y-95037756I0J-243750D01*
G01*
X114622506Y-95950256D01*
G75*
G02*
X114378756Y-96194006I-243750J0D01*
G01*
X113891256Y-96194006D01*
G75*
G02*
X113647506Y-95950256I0J243750D01*
G01*
G37*
%TD*%
%TO.C,R6*%
G36*
G01*
X110569506Y-92648256D02*
X110569506Y-91735756D01*
G75*
G02*
X110813256Y-91492006I243750J0D01*
G01*
X111300756Y-91492006D01*
G75*
G02*
X111544506Y-91735756I0J-243750D01*
G01*
X111544506Y-92648256D01*
G75*
G02*
X111300756Y-92892006I-243750J0D01*
G01*
X110813256Y-92892006D01*
G75*
G02*
X110569506Y-92648256I0J243750D01*
G01*
G37*
G36*
G01*
X108694506Y-92648256D02*
X108694506Y-91735756D01*
G75*
G02*
X108938256Y-91492006I243750J0D01*
G01*
X109425756Y-91492006D01*
G75*
G02*
X109669506Y-91735756I0J-243750D01*
G01*
X109669506Y-92648256D01*
G75*
G02*
X109425756Y-92892006I-243750J0D01*
G01*
X108938256Y-92892006D01*
G75*
G02*
X108694506Y-92648256I0J243750D01*
G01*
G37*
%TD*%
%TO.C,R5*%
G36*
G01*
X108694506Y-95950256D02*
X108694506Y-95037756D01*
G75*
G02*
X108938256Y-94794006I243750J0D01*
G01*
X109425756Y-94794006D01*
G75*
G02*
X109669506Y-95037756I0J-243750D01*
G01*
X109669506Y-95950256D01*
G75*
G02*
X109425756Y-96194006I-243750J0D01*
G01*
X108938256Y-96194006D01*
G75*
G02*
X108694506Y-95950256I0J243750D01*
G01*
G37*
G36*
G01*
X110569506Y-95950256D02*
X110569506Y-95037756D01*
G75*
G02*
X110813256Y-94794006I243750J0D01*
G01*
X111300756Y-94794006D01*
G75*
G02*
X111544506Y-95037756I0J-243750D01*
G01*
X111544506Y-95950256D01*
G75*
G02*
X111300756Y-96194006I-243750J0D01*
G01*
X110813256Y-96194006D01*
G75*
G02*
X110569506Y-95950256I0J243750D01*
G01*
G37*
%TD*%
%TO.C,R4*%
G36*
G01*
X108597506Y-99252256D02*
X108597506Y-98339756D01*
G75*
G02*
X108841256Y-98096006I243750J0D01*
G01*
X109328756Y-98096006D01*
G75*
G02*
X109572506Y-98339756I0J-243750D01*
G01*
X109572506Y-99252256D01*
G75*
G02*
X109328756Y-99496006I-243750J0D01*
G01*
X108841256Y-99496006D01*
G75*
G02*
X108597506Y-99252256I0J243750D01*
G01*
G37*
G36*
G01*
X110472506Y-99252256D02*
X110472506Y-98339756D01*
G75*
G02*
X110716256Y-98096006I243750J0D01*
G01*
X111203756Y-98096006D01*
G75*
G02*
X111447506Y-98339756I0J-243750D01*
G01*
X111447506Y-99252256D01*
G75*
G02*
X111203756Y-99496006I-243750J0D01*
G01*
X110716256Y-99496006D01*
G75*
G02*
X110472506Y-99252256I0J243750D01*
G01*
G37*
%TD*%
%TO.C,R3*%
G36*
G01*
X105489506Y-92648256D02*
X105489506Y-91735756D01*
G75*
G02*
X105733256Y-91492006I243750J0D01*
G01*
X106220756Y-91492006D01*
G75*
G02*
X106464506Y-91735756I0J-243750D01*
G01*
X106464506Y-92648256D01*
G75*
G02*
X106220756Y-92892006I-243750J0D01*
G01*
X105733256Y-92892006D01*
G75*
G02*
X105489506Y-92648256I0J243750D01*
G01*
G37*
G36*
G01*
X103614506Y-92648256D02*
X103614506Y-91735756D01*
G75*
G02*
X103858256Y-91492006I243750J0D01*
G01*
X104345756Y-91492006D01*
G75*
G02*
X104589506Y-91735756I0J-243750D01*
G01*
X104589506Y-92648256D01*
G75*
G02*
X104345756Y-92892006I-243750J0D01*
G01*
X103858256Y-92892006D01*
G75*
G02*
X103614506Y-92648256I0J243750D01*
G01*
G37*
%TD*%
%TO.C,R2*%
G36*
G01*
X105489506Y-95950256D02*
X105489506Y-95037756D01*
G75*
G02*
X105733256Y-94794006I243750J0D01*
G01*
X106220756Y-94794006D01*
G75*
G02*
X106464506Y-95037756I0J-243750D01*
G01*
X106464506Y-95950256D01*
G75*
G02*
X106220756Y-96194006I-243750J0D01*
G01*
X105733256Y-96194006D01*
G75*
G02*
X105489506Y-95950256I0J243750D01*
G01*
G37*
G36*
G01*
X103614506Y-95950256D02*
X103614506Y-95037756D01*
G75*
G02*
X103858256Y-94794006I243750J0D01*
G01*
X104345756Y-94794006D01*
G75*
G02*
X104589506Y-95037756I0J-243750D01*
G01*
X104589506Y-95950256D01*
G75*
G02*
X104345756Y-96194006I-243750J0D01*
G01*
X103858256Y-96194006D01*
G75*
G02*
X103614506Y-95950256I0J243750D01*
G01*
G37*
%TD*%
%TO.C,R1*%
G36*
G01*
X103614506Y-99252256D02*
X103614506Y-98339756D01*
G75*
G02*
X103858256Y-98096006I243750J0D01*
G01*
X104345756Y-98096006D01*
G75*
G02*
X104589506Y-98339756I0J-243750D01*
G01*
X104589506Y-99252256D01*
G75*
G02*
X104345756Y-99496006I-243750J0D01*
G01*
X103858256Y-99496006D01*
G75*
G02*
X103614506Y-99252256I0J243750D01*
G01*
G37*
G36*
G01*
X105489506Y-99252256D02*
X105489506Y-98339756D01*
G75*
G02*
X105733256Y-98096006I243750J0D01*
G01*
X106220756Y-98096006D01*
G75*
G02*
X106464506Y-98339756I0J-243750D01*
G01*
X106464506Y-99252256D01*
G75*
G02*
X106220756Y-99496006I-243750J0D01*
G01*
X105733256Y-99496006D01*
G75*
G02*
X105489506Y-99252256I0J243750D01*
G01*
G37*
%TD*%
%TO.C,Q2*%
X121120006Y-96510006D03*
X124120006Y-97460006D03*
X124120006Y-95560006D03*
%TD*%
%TO.C,Q1*%
X124120006Y-89530006D03*
X124120006Y-91430006D03*
X121120006Y-90480006D03*
%TD*%
%TO.C,R8*%
G36*
G01*
X64117501Y-92648256D02*
X64117501Y-91735756D01*
G75*
G02*
X64361251Y-91492006I243750J0D01*
G01*
X64848751Y-91492006D01*
G75*
G02*
X65092501Y-91735756I0J-243750D01*
G01*
X65092501Y-92648256D01*
G75*
G02*
X64848751Y-92892006I-243750J0D01*
G01*
X64361251Y-92892006D01*
G75*
G02*
X64117501Y-92648256I0J243750D01*
G01*
G37*
G36*
G01*
X65992501Y-92648256D02*
X65992501Y-91735756D01*
G75*
G02*
X66236251Y-91492006I243750J0D01*
G01*
X66723751Y-91492006D01*
G75*
G02*
X66967501Y-91735756I0J-243750D01*
G01*
X66967501Y-92648256D01*
G75*
G02*
X66723751Y-92892006I-243750J0D01*
G01*
X66236251Y-92892006D01*
G75*
G02*
X65992501Y-92648256I0J243750D01*
G01*
G37*
%TD*%
%TO.C,R7*%
G36*
G01*
X65992501Y-95950256D02*
X65992501Y-95037756D01*
G75*
G02*
X66236251Y-94794006I243750J0D01*
G01*
X66723751Y-94794006D01*
G75*
G02*
X66967501Y-95037756I0J-243750D01*
G01*
X66967501Y-95950256D01*
G75*
G02*
X66723751Y-96194006I-243750J0D01*
G01*
X66236251Y-96194006D01*
G75*
G02*
X65992501Y-95950256I0J243750D01*
G01*
G37*
G36*
G01*
X64117501Y-95950256D02*
X64117501Y-95037756D01*
G75*
G02*
X64361251Y-94794006I243750J0D01*
G01*
X64848751Y-94794006D01*
G75*
G02*
X65092501Y-95037756I0J-243750D01*
G01*
X65092501Y-95950256D01*
G75*
G02*
X64848751Y-96194006I-243750J0D01*
G01*
X64361251Y-96194006D01*
G75*
G02*
X64117501Y-95950256I0J243750D01*
G01*
G37*
%TD*%
%TO.C,R6*%
G36*
G01*
X61039501Y-92648256D02*
X61039501Y-91735756D01*
G75*
G02*
X61283251Y-91492006I243750J0D01*
G01*
X61770751Y-91492006D01*
G75*
G02*
X62014501Y-91735756I0J-243750D01*
G01*
X62014501Y-92648256D01*
G75*
G02*
X61770751Y-92892006I-243750J0D01*
G01*
X61283251Y-92892006D01*
G75*
G02*
X61039501Y-92648256I0J243750D01*
G01*
G37*
G36*
G01*
X59164501Y-92648256D02*
X59164501Y-91735756D01*
G75*
G02*
X59408251Y-91492006I243750J0D01*
G01*
X59895751Y-91492006D01*
G75*
G02*
X60139501Y-91735756I0J-243750D01*
G01*
X60139501Y-92648256D01*
G75*
G02*
X59895751Y-92892006I-243750J0D01*
G01*
X59408251Y-92892006D01*
G75*
G02*
X59164501Y-92648256I0J243750D01*
G01*
G37*
%TD*%
%TO.C,R5*%
G36*
G01*
X59164501Y-95950256D02*
X59164501Y-95037756D01*
G75*
G02*
X59408251Y-94794006I243750J0D01*
G01*
X59895751Y-94794006D01*
G75*
G02*
X60139501Y-95037756I0J-243750D01*
G01*
X60139501Y-95950256D01*
G75*
G02*
X59895751Y-96194006I-243750J0D01*
G01*
X59408251Y-96194006D01*
G75*
G02*
X59164501Y-95950256I0J243750D01*
G01*
G37*
G36*
G01*
X61039501Y-95950256D02*
X61039501Y-95037756D01*
G75*
G02*
X61283251Y-94794006I243750J0D01*
G01*
X61770751Y-94794006D01*
G75*
G02*
X62014501Y-95037756I0J-243750D01*
G01*
X62014501Y-95950256D01*
G75*
G02*
X61770751Y-96194006I-243750J0D01*
G01*
X61283251Y-96194006D01*
G75*
G02*
X61039501Y-95950256I0J243750D01*
G01*
G37*
%TD*%
%TO.C,R4*%
G36*
G01*
X59067501Y-99252256D02*
X59067501Y-98339756D01*
G75*
G02*
X59311251Y-98096006I243750J0D01*
G01*
X59798751Y-98096006D01*
G75*
G02*
X60042501Y-98339756I0J-243750D01*
G01*
X60042501Y-99252256D01*
G75*
G02*
X59798751Y-99496006I-243750J0D01*
G01*
X59311251Y-99496006D01*
G75*
G02*
X59067501Y-99252256I0J243750D01*
G01*
G37*
G36*
G01*
X60942501Y-99252256D02*
X60942501Y-98339756D01*
G75*
G02*
X61186251Y-98096006I243750J0D01*
G01*
X61673751Y-98096006D01*
G75*
G02*
X61917501Y-98339756I0J-243750D01*
G01*
X61917501Y-99252256D01*
G75*
G02*
X61673751Y-99496006I-243750J0D01*
G01*
X61186251Y-99496006D01*
G75*
G02*
X60942501Y-99252256I0J243750D01*
G01*
G37*
%TD*%
%TO.C,R3*%
G36*
G01*
X55959501Y-92648256D02*
X55959501Y-91735756D01*
G75*
G02*
X56203251Y-91492006I243750J0D01*
G01*
X56690751Y-91492006D01*
G75*
G02*
X56934501Y-91735756I0J-243750D01*
G01*
X56934501Y-92648256D01*
G75*
G02*
X56690751Y-92892006I-243750J0D01*
G01*
X56203251Y-92892006D01*
G75*
G02*
X55959501Y-92648256I0J243750D01*
G01*
G37*
G36*
G01*
X54084501Y-92648256D02*
X54084501Y-91735756D01*
G75*
G02*
X54328251Y-91492006I243750J0D01*
G01*
X54815751Y-91492006D01*
G75*
G02*
X55059501Y-91735756I0J-243750D01*
G01*
X55059501Y-92648256D01*
G75*
G02*
X54815751Y-92892006I-243750J0D01*
G01*
X54328251Y-92892006D01*
G75*
G02*
X54084501Y-92648256I0J243750D01*
G01*
G37*
%TD*%
%TO.C,R2*%
G36*
G01*
X55959501Y-95950256D02*
X55959501Y-95037756D01*
G75*
G02*
X56203251Y-94794006I243750J0D01*
G01*
X56690751Y-94794006D01*
G75*
G02*
X56934501Y-95037756I0J-243750D01*
G01*
X56934501Y-95950256D01*
G75*
G02*
X56690751Y-96194006I-243750J0D01*
G01*
X56203251Y-96194006D01*
G75*
G02*
X55959501Y-95950256I0J243750D01*
G01*
G37*
G36*
G01*
X54084501Y-95950256D02*
X54084501Y-95037756D01*
G75*
G02*
X54328251Y-94794006I243750J0D01*
G01*
X54815751Y-94794006D01*
G75*
G02*
X55059501Y-95037756I0J-243750D01*
G01*
X55059501Y-95950256D01*
G75*
G02*
X54815751Y-96194006I-243750J0D01*
G01*
X54328251Y-96194006D01*
G75*
G02*
X54084501Y-95950256I0J243750D01*
G01*
G37*
%TD*%
%TO.C,R1*%
G36*
G01*
X54084501Y-99252256D02*
X54084501Y-98339756D01*
G75*
G02*
X54328251Y-98096006I243750J0D01*
G01*
X54815751Y-98096006D01*
G75*
G02*
X55059501Y-98339756I0J-243750D01*
G01*
X55059501Y-99252256D01*
G75*
G02*
X54815751Y-99496006I-243750J0D01*
G01*
X54328251Y-99496006D01*
G75*
G02*
X54084501Y-99252256I0J243750D01*
G01*
G37*
G36*
G01*
X55959501Y-99252256D02*
X55959501Y-98339756D01*
G75*
G02*
X56203251Y-98096006I243750J0D01*
G01*
X56690751Y-98096006D01*
G75*
G02*
X56934501Y-98339756I0J-243750D01*
G01*
X56934501Y-99252256D01*
G75*
G02*
X56690751Y-99496006I-243750J0D01*
G01*
X56203251Y-99496006D01*
G75*
G02*
X55959501Y-99252256I0J243750D01*
G01*
G37*
%TD*%
%TO.C,Q2*%
X71590001Y-96510006D03*
X74590001Y-97460006D03*
X74590001Y-95560006D03*
%TD*%
%TO.C,Q1*%
X74590001Y-89530006D03*
X74590001Y-91430006D03*
X71590001Y-90480006D03*
%TD*%
%TO.C,R8*%
G36*
G01*
X113647506Y-62648251D02*
X113647506Y-61735751D01*
G75*
G02*
X113891256Y-61492001I243750J0D01*
G01*
X114378756Y-61492001D01*
G75*
G02*
X114622506Y-61735751I0J-243750D01*
G01*
X114622506Y-62648251D01*
G75*
G02*
X114378756Y-62892001I-243750J0D01*
G01*
X113891256Y-62892001D01*
G75*
G02*
X113647506Y-62648251I0J243750D01*
G01*
G37*
G36*
G01*
X115522506Y-62648251D02*
X115522506Y-61735751D01*
G75*
G02*
X115766256Y-61492001I243750J0D01*
G01*
X116253756Y-61492001D01*
G75*
G02*
X116497506Y-61735751I0J-243750D01*
G01*
X116497506Y-62648251D01*
G75*
G02*
X116253756Y-62892001I-243750J0D01*
G01*
X115766256Y-62892001D01*
G75*
G02*
X115522506Y-62648251I0J243750D01*
G01*
G37*
%TD*%
%TO.C,R7*%
G36*
G01*
X115522506Y-65950251D02*
X115522506Y-65037751D01*
G75*
G02*
X115766256Y-64794001I243750J0D01*
G01*
X116253756Y-64794001D01*
G75*
G02*
X116497506Y-65037751I0J-243750D01*
G01*
X116497506Y-65950251D01*
G75*
G02*
X116253756Y-66194001I-243750J0D01*
G01*
X115766256Y-66194001D01*
G75*
G02*
X115522506Y-65950251I0J243750D01*
G01*
G37*
G36*
G01*
X113647506Y-65950251D02*
X113647506Y-65037751D01*
G75*
G02*
X113891256Y-64794001I243750J0D01*
G01*
X114378756Y-64794001D01*
G75*
G02*
X114622506Y-65037751I0J-243750D01*
G01*
X114622506Y-65950251D01*
G75*
G02*
X114378756Y-66194001I-243750J0D01*
G01*
X113891256Y-66194001D01*
G75*
G02*
X113647506Y-65950251I0J243750D01*
G01*
G37*
%TD*%
%TO.C,R6*%
G36*
G01*
X110569506Y-62648251D02*
X110569506Y-61735751D01*
G75*
G02*
X110813256Y-61492001I243750J0D01*
G01*
X111300756Y-61492001D01*
G75*
G02*
X111544506Y-61735751I0J-243750D01*
G01*
X111544506Y-62648251D01*
G75*
G02*
X111300756Y-62892001I-243750J0D01*
G01*
X110813256Y-62892001D01*
G75*
G02*
X110569506Y-62648251I0J243750D01*
G01*
G37*
G36*
G01*
X108694506Y-62648251D02*
X108694506Y-61735751D01*
G75*
G02*
X108938256Y-61492001I243750J0D01*
G01*
X109425756Y-61492001D01*
G75*
G02*
X109669506Y-61735751I0J-243750D01*
G01*
X109669506Y-62648251D01*
G75*
G02*
X109425756Y-62892001I-243750J0D01*
G01*
X108938256Y-62892001D01*
G75*
G02*
X108694506Y-62648251I0J243750D01*
G01*
G37*
%TD*%
%TO.C,R5*%
G36*
G01*
X108694506Y-65950251D02*
X108694506Y-65037751D01*
G75*
G02*
X108938256Y-64794001I243750J0D01*
G01*
X109425756Y-64794001D01*
G75*
G02*
X109669506Y-65037751I0J-243750D01*
G01*
X109669506Y-65950251D01*
G75*
G02*
X109425756Y-66194001I-243750J0D01*
G01*
X108938256Y-66194001D01*
G75*
G02*
X108694506Y-65950251I0J243750D01*
G01*
G37*
G36*
G01*
X110569506Y-65950251D02*
X110569506Y-65037751D01*
G75*
G02*
X110813256Y-64794001I243750J0D01*
G01*
X111300756Y-64794001D01*
G75*
G02*
X111544506Y-65037751I0J-243750D01*
G01*
X111544506Y-65950251D01*
G75*
G02*
X111300756Y-66194001I-243750J0D01*
G01*
X110813256Y-66194001D01*
G75*
G02*
X110569506Y-65950251I0J243750D01*
G01*
G37*
%TD*%
%TO.C,R4*%
G36*
G01*
X108597506Y-69252251D02*
X108597506Y-68339751D01*
G75*
G02*
X108841256Y-68096001I243750J0D01*
G01*
X109328756Y-68096001D01*
G75*
G02*
X109572506Y-68339751I0J-243750D01*
G01*
X109572506Y-69252251D01*
G75*
G02*
X109328756Y-69496001I-243750J0D01*
G01*
X108841256Y-69496001D01*
G75*
G02*
X108597506Y-69252251I0J243750D01*
G01*
G37*
G36*
G01*
X110472506Y-69252251D02*
X110472506Y-68339751D01*
G75*
G02*
X110716256Y-68096001I243750J0D01*
G01*
X111203756Y-68096001D01*
G75*
G02*
X111447506Y-68339751I0J-243750D01*
G01*
X111447506Y-69252251D01*
G75*
G02*
X111203756Y-69496001I-243750J0D01*
G01*
X110716256Y-69496001D01*
G75*
G02*
X110472506Y-69252251I0J243750D01*
G01*
G37*
%TD*%
%TO.C,R3*%
G36*
G01*
X105489506Y-62648251D02*
X105489506Y-61735751D01*
G75*
G02*
X105733256Y-61492001I243750J0D01*
G01*
X106220756Y-61492001D01*
G75*
G02*
X106464506Y-61735751I0J-243750D01*
G01*
X106464506Y-62648251D01*
G75*
G02*
X106220756Y-62892001I-243750J0D01*
G01*
X105733256Y-62892001D01*
G75*
G02*
X105489506Y-62648251I0J243750D01*
G01*
G37*
G36*
G01*
X103614506Y-62648251D02*
X103614506Y-61735751D01*
G75*
G02*
X103858256Y-61492001I243750J0D01*
G01*
X104345756Y-61492001D01*
G75*
G02*
X104589506Y-61735751I0J-243750D01*
G01*
X104589506Y-62648251D01*
G75*
G02*
X104345756Y-62892001I-243750J0D01*
G01*
X103858256Y-62892001D01*
G75*
G02*
X103614506Y-62648251I0J243750D01*
G01*
G37*
%TD*%
%TO.C,R2*%
G36*
G01*
X105489506Y-65950251D02*
X105489506Y-65037751D01*
G75*
G02*
X105733256Y-64794001I243750J0D01*
G01*
X106220756Y-64794001D01*
G75*
G02*
X106464506Y-65037751I0J-243750D01*
G01*
X106464506Y-65950251D01*
G75*
G02*
X106220756Y-66194001I-243750J0D01*
G01*
X105733256Y-66194001D01*
G75*
G02*
X105489506Y-65950251I0J243750D01*
G01*
G37*
G36*
G01*
X103614506Y-65950251D02*
X103614506Y-65037751D01*
G75*
G02*
X103858256Y-64794001I243750J0D01*
G01*
X104345756Y-64794001D01*
G75*
G02*
X104589506Y-65037751I0J-243750D01*
G01*
X104589506Y-65950251D01*
G75*
G02*
X104345756Y-66194001I-243750J0D01*
G01*
X103858256Y-66194001D01*
G75*
G02*
X103614506Y-65950251I0J243750D01*
G01*
G37*
%TD*%
%TO.C,R1*%
G36*
G01*
X103614506Y-69252251D02*
X103614506Y-68339751D01*
G75*
G02*
X103858256Y-68096001I243750J0D01*
G01*
X104345756Y-68096001D01*
G75*
G02*
X104589506Y-68339751I0J-243750D01*
G01*
X104589506Y-69252251D01*
G75*
G02*
X104345756Y-69496001I-243750J0D01*
G01*
X103858256Y-69496001D01*
G75*
G02*
X103614506Y-69252251I0J243750D01*
G01*
G37*
G36*
G01*
X105489506Y-69252251D02*
X105489506Y-68339751D01*
G75*
G02*
X105733256Y-68096001I243750J0D01*
G01*
X106220756Y-68096001D01*
G75*
G02*
X106464506Y-68339751I0J-243750D01*
G01*
X106464506Y-69252251D01*
G75*
G02*
X106220756Y-69496001I-243750J0D01*
G01*
X105733256Y-69496001D01*
G75*
G02*
X105489506Y-69252251I0J243750D01*
G01*
G37*
%TD*%
%TO.C,Q2*%
X121120006Y-66510001D03*
X124120006Y-67460001D03*
X124120006Y-65560001D03*
%TD*%
%TO.C,Q1*%
X124120006Y-59530001D03*
X124120006Y-61430001D03*
X121120006Y-60480001D03*
%TD*%
%TO.C,R8*%
G36*
G01*
X64117501Y-62648251D02*
X64117501Y-61735751D01*
G75*
G02*
X64361251Y-61492001I243750J0D01*
G01*
X64848751Y-61492001D01*
G75*
G02*
X65092501Y-61735751I0J-243750D01*
G01*
X65092501Y-62648251D01*
G75*
G02*
X64848751Y-62892001I-243750J0D01*
G01*
X64361251Y-62892001D01*
G75*
G02*
X64117501Y-62648251I0J243750D01*
G01*
G37*
G36*
G01*
X65992501Y-62648251D02*
X65992501Y-61735751D01*
G75*
G02*
X66236251Y-61492001I243750J0D01*
G01*
X66723751Y-61492001D01*
G75*
G02*
X66967501Y-61735751I0J-243750D01*
G01*
X66967501Y-62648251D01*
G75*
G02*
X66723751Y-62892001I-243750J0D01*
G01*
X66236251Y-62892001D01*
G75*
G02*
X65992501Y-62648251I0J243750D01*
G01*
G37*
%TD*%
%TO.C,R7*%
G36*
G01*
X65992501Y-65950251D02*
X65992501Y-65037751D01*
G75*
G02*
X66236251Y-64794001I243750J0D01*
G01*
X66723751Y-64794001D01*
G75*
G02*
X66967501Y-65037751I0J-243750D01*
G01*
X66967501Y-65950251D01*
G75*
G02*
X66723751Y-66194001I-243750J0D01*
G01*
X66236251Y-66194001D01*
G75*
G02*
X65992501Y-65950251I0J243750D01*
G01*
G37*
G36*
G01*
X64117501Y-65950251D02*
X64117501Y-65037751D01*
G75*
G02*
X64361251Y-64794001I243750J0D01*
G01*
X64848751Y-64794001D01*
G75*
G02*
X65092501Y-65037751I0J-243750D01*
G01*
X65092501Y-65950251D01*
G75*
G02*
X64848751Y-66194001I-243750J0D01*
G01*
X64361251Y-66194001D01*
G75*
G02*
X64117501Y-65950251I0J243750D01*
G01*
G37*
%TD*%
%TO.C,R6*%
G36*
G01*
X61039501Y-62648251D02*
X61039501Y-61735751D01*
G75*
G02*
X61283251Y-61492001I243750J0D01*
G01*
X61770751Y-61492001D01*
G75*
G02*
X62014501Y-61735751I0J-243750D01*
G01*
X62014501Y-62648251D01*
G75*
G02*
X61770751Y-62892001I-243750J0D01*
G01*
X61283251Y-62892001D01*
G75*
G02*
X61039501Y-62648251I0J243750D01*
G01*
G37*
G36*
G01*
X59164501Y-62648251D02*
X59164501Y-61735751D01*
G75*
G02*
X59408251Y-61492001I243750J0D01*
G01*
X59895751Y-61492001D01*
G75*
G02*
X60139501Y-61735751I0J-243750D01*
G01*
X60139501Y-62648251D01*
G75*
G02*
X59895751Y-62892001I-243750J0D01*
G01*
X59408251Y-62892001D01*
G75*
G02*
X59164501Y-62648251I0J243750D01*
G01*
G37*
%TD*%
%TO.C,R5*%
G36*
G01*
X59164501Y-65950251D02*
X59164501Y-65037751D01*
G75*
G02*
X59408251Y-64794001I243750J0D01*
G01*
X59895751Y-64794001D01*
G75*
G02*
X60139501Y-65037751I0J-243750D01*
G01*
X60139501Y-65950251D01*
G75*
G02*
X59895751Y-66194001I-243750J0D01*
G01*
X59408251Y-66194001D01*
G75*
G02*
X59164501Y-65950251I0J243750D01*
G01*
G37*
G36*
G01*
X61039501Y-65950251D02*
X61039501Y-65037751D01*
G75*
G02*
X61283251Y-64794001I243750J0D01*
G01*
X61770751Y-64794001D01*
G75*
G02*
X62014501Y-65037751I0J-243750D01*
G01*
X62014501Y-65950251D01*
G75*
G02*
X61770751Y-66194001I-243750J0D01*
G01*
X61283251Y-66194001D01*
G75*
G02*
X61039501Y-65950251I0J243750D01*
G01*
G37*
%TD*%
%TO.C,R4*%
G36*
G01*
X59067501Y-69252251D02*
X59067501Y-68339751D01*
G75*
G02*
X59311251Y-68096001I243750J0D01*
G01*
X59798751Y-68096001D01*
G75*
G02*
X60042501Y-68339751I0J-243750D01*
G01*
X60042501Y-69252251D01*
G75*
G02*
X59798751Y-69496001I-243750J0D01*
G01*
X59311251Y-69496001D01*
G75*
G02*
X59067501Y-69252251I0J243750D01*
G01*
G37*
G36*
G01*
X60942501Y-69252251D02*
X60942501Y-68339751D01*
G75*
G02*
X61186251Y-68096001I243750J0D01*
G01*
X61673751Y-68096001D01*
G75*
G02*
X61917501Y-68339751I0J-243750D01*
G01*
X61917501Y-69252251D01*
G75*
G02*
X61673751Y-69496001I-243750J0D01*
G01*
X61186251Y-69496001D01*
G75*
G02*
X60942501Y-69252251I0J243750D01*
G01*
G37*
%TD*%
%TO.C,R3*%
G36*
G01*
X55959501Y-62648251D02*
X55959501Y-61735751D01*
G75*
G02*
X56203251Y-61492001I243750J0D01*
G01*
X56690751Y-61492001D01*
G75*
G02*
X56934501Y-61735751I0J-243750D01*
G01*
X56934501Y-62648251D01*
G75*
G02*
X56690751Y-62892001I-243750J0D01*
G01*
X56203251Y-62892001D01*
G75*
G02*
X55959501Y-62648251I0J243750D01*
G01*
G37*
G36*
G01*
X54084501Y-62648251D02*
X54084501Y-61735751D01*
G75*
G02*
X54328251Y-61492001I243750J0D01*
G01*
X54815751Y-61492001D01*
G75*
G02*
X55059501Y-61735751I0J-243750D01*
G01*
X55059501Y-62648251D01*
G75*
G02*
X54815751Y-62892001I-243750J0D01*
G01*
X54328251Y-62892001D01*
G75*
G02*
X54084501Y-62648251I0J243750D01*
G01*
G37*
%TD*%
%TO.C,R2*%
G36*
G01*
X55959501Y-65950251D02*
X55959501Y-65037751D01*
G75*
G02*
X56203251Y-64794001I243750J0D01*
G01*
X56690751Y-64794001D01*
G75*
G02*
X56934501Y-65037751I0J-243750D01*
G01*
X56934501Y-65950251D01*
G75*
G02*
X56690751Y-66194001I-243750J0D01*
G01*
X56203251Y-66194001D01*
G75*
G02*
X55959501Y-65950251I0J243750D01*
G01*
G37*
G36*
G01*
X54084501Y-65950251D02*
X54084501Y-65037751D01*
G75*
G02*
X54328251Y-64794001I243750J0D01*
G01*
X54815751Y-64794001D01*
G75*
G02*
X55059501Y-65037751I0J-243750D01*
G01*
X55059501Y-65950251D01*
G75*
G02*
X54815751Y-66194001I-243750J0D01*
G01*
X54328251Y-66194001D01*
G75*
G02*
X54084501Y-65950251I0J243750D01*
G01*
G37*
%TD*%
%TO.C,R1*%
G36*
G01*
X54084501Y-69252251D02*
X54084501Y-68339751D01*
G75*
G02*
X54328251Y-68096001I243750J0D01*
G01*
X54815751Y-68096001D01*
G75*
G02*
X55059501Y-68339751I0J-243750D01*
G01*
X55059501Y-69252251D01*
G75*
G02*
X54815751Y-69496001I-243750J0D01*
G01*
X54328251Y-69496001D01*
G75*
G02*
X54084501Y-69252251I0J243750D01*
G01*
G37*
G36*
G01*
X55959501Y-69252251D02*
X55959501Y-68339751D01*
G75*
G02*
X56203251Y-68096001I243750J0D01*
G01*
X56690751Y-68096001D01*
G75*
G02*
X56934501Y-68339751I0J-243750D01*
G01*
X56934501Y-69252251D01*
G75*
G02*
X56690751Y-69496001I-243750J0D01*
G01*
X56203251Y-69496001D01*
G75*
G02*
X55959501Y-69252251I0J243750D01*
G01*
G37*
%TD*%
%TO.C,Q2*%
X71590001Y-66510001D03*
X74590001Y-67460001D03*
X74590001Y-65560001D03*
%TD*%
%TO.C,Q1*%
X74590001Y-59530001D03*
X74590001Y-61430001D03*
X71590001Y-60480001D03*
%TD*%
M02*
