%TF.GenerationSoftware,KiCad,Pcbnew,5.1.6-c6e7f7d~87~ubuntu18.04.1*%
%TF.CreationDate,2020-09-18T10:49:30+02:00*%
%TF.ProjectId,panel,70616e65-6c2e-46b6-9963-61645f706362,rev?*%
%TF.SameCoordinates,Original*%
%TF.FileFunction,Soldermask,Top*%
%TF.FilePolarity,Negative*%
%FSLAX46Y46*%
G04 Gerber Fmt 4.6, Leading zero omitted, Abs format (unit mm)*
G04 Created by KiCad (PCBNEW 5.1.6-c6e7f7d~87~ubuntu18.04.1) date 2020-09-18 10:49:30*
%MOMM*%
%LPD*%
G01*
G04 APERTURE LIST*
%ADD10R,3.400000X1.800000*%
%ADD11R,1.700000X1.700000*%
%ADD12O,1.700000X1.700000*%
%ADD13R,1.800000X1.800000*%
%ADD14O,1.800000X1.800000*%
%ADD15R,1.900000X2.600000*%
%ADD16R,1.100000X2.600000*%
%ADD17R,1.900000X1.100000*%
%ADD18C,1.624000*%
%ADD19C,3.900000*%
G04 APERTURE END LIST*
D10*
%TO.C,D3*%
X104825006Y-135400011D03*
X110325006Y-135400011D03*
%TD*%
%TO.C,D1*%
X110325006Y-132860011D03*
X104825006Y-132860011D03*
%TD*%
D11*
%TO.C,U2*%
X111976006Y-119652011D03*
D12*
X114516006Y-112032011D03*
X114516006Y-119652011D03*
X111976006Y-112032011D03*
%TD*%
%TO.C,U1*%
X103848006Y-112032011D03*
X106388006Y-119652011D03*
X106388006Y-112032011D03*
D11*
X103848006Y-119652011D03*
%TD*%
D13*
%TO.C,J8*%
X114262006Y-138194011D03*
D14*
X116802006Y-138194011D03*
X119342006Y-138194011D03*
%TD*%
%TO.C,J7*%
X147282006Y-138194011D03*
X144742006Y-138194011D03*
D13*
X142202006Y-138194011D03*
%TD*%
%TO.C,J4*%
X101308006Y-133368011D03*
D14*
X101308006Y-135908011D03*
%TD*%
%TO.C,J3*%
X119850006Y-134638011D03*
D13*
X119850006Y-132098011D03*
%TD*%
%TO.C,J2*%
X121882006Y-138194011D03*
D14*
X124422006Y-138194011D03*
X126962006Y-138194011D03*
X129502006Y-138194011D03*
%TD*%
%TO.C,J1*%
X139662006Y-138194011D03*
X137122006Y-138194011D03*
X134582006Y-138194011D03*
D13*
X132042006Y-138194011D03*
%TD*%
D15*
%TO.C,D5*%
X115532006Y-127716011D03*
X115532006Y-123716011D03*
%TD*%
%TO.C,D4*%
X110452006Y-127748011D03*
X110452006Y-123748011D03*
%TD*%
%TO.C,D2*%
X105372006Y-123716011D03*
X105372006Y-127716011D03*
%TD*%
D16*
%TO.C,U4*%
X131844006Y-130808011D03*
X133844006Y-130808011D03*
X135844006Y-130808011D03*
X137844006Y-130808011D03*
X139844006Y-130808011D03*
X141844006Y-130808011D03*
X143844006Y-130808011D03*
X145844006Y-130808011D03*
D17*
X147344006Y-128208011D03*
X147344006Y-126208011D03*
X147344006Y-124208011D03*
X147344006Y-122208011D03*
X147344006Y-120208011D03*
X147344006Y-118208011D03*
D16*
X145844006Y-115608011D03*
X143844006Y-115608011D03*
X141844006Y-115608011D03*
X139844006Y-115608011D03*
X137844006Y-115608011D03*
X135844006Y-115608011D03*
X133844006Y-115608011D03*
X131844006Y-115608011D03*
%TD*%
D18*
%TO.C,J11*%
X101468006Y-129144011D03*
X101468006Y-126604011D03*
X101468006Y-124064011D03*
X118928006Y-111684011D03*
X118928006Y-114224011D03*
%TD*%
D19*
%TO.C,M1*%
X115405006Y-134130011D03*
%TD*%
D10*
%TO.C,D3*%
X55295001Y-135400011D03*
X60795001Y-135400011D03*
%TD*%
%TO.C,D1*%
X60795001Y-132860011D03*
X55295001Y-132860011D03*
%TD*%
D11*
%TO.C,U2*%
X62446001Y-119652011D03*
D12*
X64986001Y-112032011D03*
X64986001Y-119652011D03*
X62446001Y-112032011D03*
%TD*%
%TO.C,U1*%
X54318001Y-112032011D03*
X56858001Y-119652011D03*
X56858001Y-112032011D03*
D11*
X54318001Y-119652011D03*
%TD*%
D13*
%TO.C,J8*%
X64732001Y-138194011D03*
D14*
X67272001Y-138194011D03*
X69812001Y-138194011D03*
%TD*%
%TO.C,J7*%
X97752001Y-138194011D03*
X95212001Y-138194011D03*
D13*
X92672001Y-138194011D03*
%TD*%
%TO.C,J4*%
X51778001Y-133368011D03*
D14*
X51778001Y-135908011D03*
%TD*%
%TO.C,J3*%
X70320001Y-134638011D03*
D13*
X70320001Y-132098011D03*
%TD*%
%TO.C,J2*%
X72352001Y-138194011D03*
D14*
X74892001Y-138194011D03*
X77432001Y-138194011D03*
X79972001Y-138194011D03*
%TD*%
%TO.C,J1*%
X90132001Y-138194011D03*
X87592001Y-138194011D03*
X85052001Y-138194011D03*
D13*
X82512001Y-138194011D03*
%TD*%
D15*
%TO.C,D5*%
X66002001Y-127716011D03*
X66002001Y-123716011D03*
%TD*%
%TO.C,D4*%
X60922001Y-127748011D03*
X60922001Y-123748011D03*
%TD*%
%TO.C,D2*%
X55842001Y-123716011D03*
X55842001Y-127716011D03*
%TD*%
D16*
%TO.C,U4*%
X82314001Y-130808011D03*
X84314001Y-130808011D03*
X86314001Y-130808011D03*
X88314001Y-130808011D03*
X90314001Y-130808011D03*
X92314001Y-130808011D03*
X94314001Y-130808011D03*
X96314001Y-130808011D03*
D17*
X97814001Y-128208011D03*
X97814001Y-126208011D03*
X97814001Y-124208011D03*
X97814001Y-122208011D03*
X97814001Y-120208011D03*
X97814001Y-118208011D03*
D16*
X96314001Y-115608011D03*
X94314001Y-115608011D03*
X92314001Y-115608011D03*
X90314001Y-115608011D03*
X88314001Y-115608011D03*
X86314001Y-115608011D03*
X84314001Y-115608011D03*
X82314001Y-115608011D03*
%TD*%
D18*
%TO.C,J11*%
X51938001Y-129144011D03*
X51938001Y-126604011D03*
X51938001Y-124064011D03*
X69398001Y-111684011D03*
X69398001Y-114224011D03*
%TD*%
D19*
%TO.C,M1*%
X65875001Y-134130011D03*
%TD*%
D10*
%TO.C,D3*%
X104825006Y-105400006D03*
X110325006Y-105400006D03*
%TD*%
%TO.C,D1*%
X110325006Y-102860006D03*
X104825006Y-102860006D03*
%TD*%
D11*
%TO.C,U2*%
X111976006Y-89652006D03*
D12*
X114516006Y-82032006D03*
X114516006Y-89652006D03*
X111976006Y-82032006D03*
%TD*%
%TO.C,U1*%
X103848006Y-82032006D03*
X106388006Y-89652006D03*
X106388006Y-82032006D03*
D11*
X103848006Y-89652006D03*
%TD*%
D13*
%TO.C,J8*%
X114262006Y-108194006D03*
D14*
X116802006Y-108194006D03*
X119342006Y-108194006D03*
%TD*%
%TO.C,J7*%
X147282006Y-108194006D03*
X144742006Y-108194006D03*
D13*
X142202006Y-108194006D03*
%TD*%
%TO.C,J4*%
X101308006Y-103368006D03*
D14*
X101308006Y-105908006D03*
%TD*%
%TO.C,J3*%
X119850006Y-104638006D03*
D13*
X119850006Y-102098006D03*
%TD*%
%TO.C,J2*%
X121882006Y-108194006D03*
D14*
X124422006Y-108194006D03*
X126962006Y-108194006D03*
X129502006Y-108194006D03*
%TD*%
%TO.C,J1*%
X139662006Y-108194006D03*
X137122006Y-108194006D03*
X134582006Y-108194006D03*
D13*
X132042006Y-108194006D03*
%TD*%
D15*
%TO.C,D5*%
X115532006Y-97716006D03*
X115532006Y-93716006D03*
%TD*%
%TO.C,D4*%
X110452006Y-97748006D03*
X110452006Y-93748006D03*
%TD*%
%TO.C,D2*%
X105372006Y-93716006D03*
X105372006Y-97716006D03*
%TD*%
D16*
%TO.C,U4*%
X131844006Y-100808006D03*
X133844006Y-100808006D03*
X135844006Y-100808006D03*
X137844006Y-100808006D03*
X139844006Y-100808006D03*
X141844006Y-100808006D03*
X143844006Y-100808006D03*
X145844006Y-100808006D03*
D17*
X147344006Y-98208006D03*
X147344006Y-96208006D03*
X147344006Y-94208006D03*
X147344006Y-92208006D03*
X147344006Y-90208006D03*
X147344006Y-88208006D03*
D16*
X145844006Y-85608006D03*
X143844006Y-85608006D03*
X141844006Y-85608006D03*
X139844006Y-85608006D03*
X137844006Y-85608006D03*
X135844006Y-85608006D03*
X133844006Y-85608006D03*
X131844006Y-85608006D03*
%TD*%
D18*
%TO.C,J11*%
X101468006Y-99144006D03*
X101468006Y-96604006D03*
X101468006Y-94064006D03*
X118928006Y-81684006D03*
X118928006Y-84224006D03*
%TD*%
D19*
%TO.C,M1*%
X115405006Y-104130006D03*
%TD*%
D10*
%TO.C,D3*%
X55295001Y-105400006D03*
X60795001Y-105400006D03*
%TD*%
%TO.C,D1*%
X60795001Y-102860006D03*
X55295001Y-102860006D03*
%TD*%
D11*
%TO.C,U2*%
X62446001Y-89652006D03*
D12*
X64986001Y-82032006D03*
X64986001Y-89652006D03*
X62446001Y-82032006D03*
%TD*%
%TO.C,U1*%
X54318001Y-82032006D03*
X56858001Y-89652006D03*
X56858001Y-82032006D03*
D11*
X54318001Y-89652006D03*
%TD*%
D13*
%TO.C,J8*%
X64732001Y-108194006D03*
D14*
X67272001Y-108194006D03*
X69812001Y-108194006D03*
%TD*%
%TO.C,J7*%
X97752001Y-108194006D03*
X95212001Y-108194006D03*
D13*
X92672001Y-108194006D03*
%TD*%
%TO.C,J4*%
X51778001Y-103368006D03*
D14*
X51778001Y-105908006D03*
%TD*%
%TO.C,J3*%
X70320001Y-104638006D03*
D13*
X70320001Y-102098006D03*
%TD*%
%TO.C,J2*%
X72352001Y-108194006D03*
D14*
X74892001Y-108194006D03*
X77432001Y-108194006D03*
X79972001Y-108194006D03*
%TD*%
%TO.C,J1*%
X90132001Y-108194006D03*
X87592001Y-108194006D03*
X85052001Y-108194006D03*
D13*
X82512001Y-108194006D03*
%TD*%
D15*
%TO.C,D5*%
X66002001Y-97716006D03*
X66002001Y-93716006D03*
%TD*%
%TO.C,D4*%
X60922001Y-97748006D03*
X60922001Y-93748006D03*
%TD*%
%TO.C,D2*%
X55842001Y-93716006D03*
X55842001Y-97716006D03*
%TD*%
D16*
%TO.C,U4*%
X82314001Y-100808006D03*
X84314001Y-100808006D03*
X86314001Y-100808006D03*
X88314001Y-100808006D03*
X90314001Y-100808006D03*
X92314001Y-100808006D03*
X94314001Y-100808006D03*
X96314001Y-100808006D03*
D17*
X97814001Y-98208006D03*
X97814001Y-96208006D03*
X97814001Y-94208006D03*
X97814001Y-92208006D03*
X97814001Y-90208006D03*
X97814001Y-88208006D03*
D16*
X96314001Y-85608006D03*
X94314001Y-85608006D03*
X92314001Y-85608006D03*
X90314001Y-85608006D03*
X88314001Y-85608006D03*
X86314001Y-85608006D03*
X84314001Y-85608006D03*
X82314001Y-85608006D03*
%TD*%
D18*
%TO.C,J11*%
X51938001Y-99144006D03*
X51938001Y-96604006D03*
X51938001Y-94064006D03*
X69398001Y-81684006D03*
X69398001Y-84224006D03*
%TD*%
D19*
%TO.C,M1*%
X65875001Y-104130006D03*
%TD*%
D10*
%TO.C,D3*%
X104825006Y-75400001D03*
X110325006Y-75400001D03*
%TD*%
%TO.C,D1*%
X110325006Y-72860001D03*
X104825006Y-72860001D03*
%TD*%
D11*
%TO.C,U2*%
X111976006Y-59652001D03*
D12*
X114516006Y-52032001D03*
X114516006Y-59652001D03*
X111976006Y-52032001D03*
%TD*%
%TO.C,U1*%
X103848006Y-52032001D03*
X106388006Y-59652001D03*
X106388006Y-52032001D03*
D11*
X103848006Y-59652001D03*
%TD*%
D13*
%TO.C,J8*%
X114262006Y-78194001D03*
D14*
X116802006Y-78194001D03*
X119342006Y-78194001D03*
%TD*%
%TO.C,J7*%
X147282006Y-78194001D03*
X144742006Y-78194001D03*
D13*
X142202006Y-78194001D03*
%TD*%
%TO.C,J4*%
X101308006Y-73368001D03*
D14*
X101308006Y-75908001D03*
%TD*%
%TO.C,J3*%
X119850006Y-74638001D03*
D13*
X119850006Y-72098001D03*
%TD*%
%TO.C,J2*%
X121882006Y-78194001D03*
D14*
X124422006Y-78194001D03*
X126962006Y-78194001D03*
X129502006Y-78194001D03*
%TD*%
%TO.C,J1*%
X139662006Y-78194001D03*
X137122006Y-78194001D03*
X134582006Y-78194001D03*
D13*
X132042006Y-78194001D03*
%TD*%
D15*
%TO.C,D5*%
X115532006Y-67716001D03*
X115532006Y-63716001D03*
%TD*%
%TO.C,D4*%
X110452006Y-67748001D03*
X110452006Y-63748001D03*
%TD*%
%TO.C,D2*%
X105372006Y-63716001D03*
X105372006Y-67716001D03*
%TD*%
D16*
%TO.C,U4*%
X131844006Y-70808001D03*
X133844006Y-70808001D03*
X135844006Y-70808001D03*
X137844006Y-70808001D03*
X139844006Y-70808001D03*
X141844006Y-70808001D03*
X143844006Y-70808001D03*
X145844006Y-70808001D03*
D17*
X147344006Y-68208001D03*
X147344006Y-66208001D03*
X147344006Y-64208001D03*
X147344006Y-62208001D03*
X147344006Y-60208001D03*
X147344006Y-58208001D03*
D16*
X145844006Y-55608001D03*
X143844006Y-55608001D03*
X141844006Y-55608001D03*
X139844006Y-55608001D03*
X137844006Y-55608001D03*
X135844006Y-55608001D03*
X133844006Y-55608001D03*
X131844006Y-55608001D03*
%TD*%
D18*
%TO.C,J11*%
X101468006Y-69144001D03*
X101468006Y-66604001D03*
X101468006Y-64064001D03*
X118928006Y-51684001D03*
X118928006Y-54224001D03*
%TD*%
D19*
%TO.C,M1*%
X115405006Y-74130001D03*
%TD*%
D10*
%TO.C,D3*%
X55295001Y-75400001D03*
X60795001Y-75400001D03*
%TD*%
%TO.C,D1*%
X60795001Y-72860001D03*
X55295001Y-72860001D03*
%TD*%
D11*
%TO.C,U2*%
X62446001Y-59652001D03*
D12*
X64986001Y-52032001D03*
X64986001Y-59652001D03*
X62446001Y-52032001D03*
%TD*%
%TO.C,U1*%
X54318001Y-52032001D03*
X56858001Y-59652001D03*
X56858001Y-52032001D03*
D11*
X54318001Y-59652001D03*
%TD*%
D13*
%TO.C,J8*%
X64732001Y-78194001D03*
D14*
X67272001Y-78194001D03*
X69812001Y-78194001D03*
%TD*%
%TO.C,J7*%
X97752001Y-78194001D03*
X95212001Y-78194001D03*
D13*
X92672001Y-78194001D03*
%TD*%
%TO.C,J4*%
X51778001Y-73368001D03*
D14*
X51778001Y-75908001D03*
%TD*%
%TO.C,J3*%
X70320001Y-74638001D03*
D13*
X70320001Y-72098001D03*
%TD*%
%TO.C,J2*%
X72352001Y-78194001D03*
D14*
X74892001Y-78194001D03*
X77432001Y-78194001D03*
X79972001Y-78194001D03*
%TD*%
%TO.C,J1*%
X90132001Y-78194001D03*
X87592001Y-78194001D03*
X85052001Y-78194001D03*
D13*
X82512001Y-78194001D03*
%TD*%
D15*
%TO.C,D5*%
X66002001Y-67716001D03*
X66002001Y-63716001D03*
%TD*%
%TO.C,D4*%
X60922001Y-67748001D03*
X60922001Y-63748001D03*
%TD*%
%TO.C,D2*%
X55842001Y-63716001D03*
X55842001Y-67716001D03*
%TD*%
D16*
%TO.C,U4*%
X82314001Y-70808001D03*
X84314001Y-70808001D03*
X86314001Y-70808001D03*
X88314001Y-70808001D03*
X90314001Y-70808001D03*
X92314001Y-70808001D03*
X94314001Y-70808001D03*
X96314001Y-70808001D03*
D17*
X97814001Y-68208001D03*
X97814001Y-66208001D03*
X97814001Y-64208001D03*
X97814001Y-62208001D03*
X97814001Y-60208001D03*
X97814001Y-58208001D03*
D16*
X96314001Y-55608001D03*
X94314001Y-55608001D03*
X92314001Y-55608001D03*
X90314001Y-55608001D03*
X88314001Y-55608001D03*
X86314001Y-55608001D03*
X84314001Y-55608001D03*
X82314001Y-55608001D03*
%TD*%
D18*
%TO.C,J11*%
X51938001Y-69144001D03*
X51938001Y-66604001D03*
X51938001Y-64064001D03*
X69398001Y-51684001D03*
X69398001Y-54224001D03*
%TD*%
D19*
%TO.C,M1*%
X65875001Y-74130001D03*
%TD*%
M02*
