%TF.GenerationSoftware,KiCad,Pcbnew,5.1.6-c6e7f7d~87~ubuntu18.04.1*%
%TF.CreationDate,2020-09-18T10:49:30+02:00*%
%TF.ProjectId,panel,70616e65-6c2e-46b6-9963-61645f706362,rev?*%
%TF.SameCoordinates,Original*%
%TF.FileFunction,Legend,Top*%
%TF.FilePolarity,Positive*%
%FSLAX46Y46*%
G04 Gerber Fmt 4.6, Leading zero omitted, Abs format (unit mm)*
G04 Created by KiCad (PCBNEW 5.1.6-c6e7f7d~87~ubuntu18.04.1) date 2020-09-18 10:49:30*
%MOMM*%
%LPD*%
G01*
G04 APERTURE LIST*
%ADD10C,0.120000*%
%ADD11C,0.150000*%
G04 APERTURE END LIST*
D10*
%TO.C,D3*%
X112125006Y-134400011D02*
X104825006Y-134400011D01*
X112125006Y-136400011D02*
X112125006Y-134400011D01*
X104825006Y-136400011D02*
X112125006Y-136400011D01*
%TO.C,D1*%
X104825006Y-133860011D02*
X112125006Y-133860011D01*
X112125006Y-133860011D02*
X112125006Y-131860011D01*
X112125006Y-131860011D02*
X104825006Y-131860011D01*
%TO.C,U2*%
X110646006Y-113192011D02*
X110646006Y-114842011D01*
X115846006Y-113192011D02*
X110646006Y-113192011D01*
X115846006Y-118492011D02*
X115846006Y-113192011D01*
X110646006Y-118492011D02*
X115846006Y-118492011D01*
X110646006Y-116842011D02*
X110646006Y-118492011D01*
X110646006Y-114842011D02*
G75*
G02*
X110646006Y-116842011I0J-1000000D01*
G01*
%TO.C,U1*%
X102518006Y-116842011D02*
X102518006Y-118492011D01*
X102518006Y-118492011D02*
X107718006Y-118492011D01*
X107718006Y-118492011D02*
X107718006Y-113192011D01*
X107718006Y-113192011D02*
X102518006Y-113192011D01*
X102518006Y-113192011D02*
X102518006Y-114842011D01*
X102518006Y-114842011D02*
G75*
G02*
X102518006Y-116842011I0J-1000000D01*
G01*
%TO.C,J8*%
X112932006Y-138194011D02*
X112932006Y-136864011D01*
X112932006Y-136864011D02*
X114262006Y-136864011D01*
X115532006Y-136864011D02*
X120672006Y-136864011D01*
X120672006Y-139524011D02*
X120672006Y-136864011D01*
X115532006Y-139524011D02*
X120672006Y-139524011D01*
X115532006Y-139524011D02*
X115532006Y-136864011D01*
%TO.C,J7*%
X143472006Y-139524011D02*
X143472006Y-136864011D01*
X143472006Y-139524011D02*
X148612006Y-139524011D01*
X148612006Y-139524011D02*
X148612006Y-136864011D01*
X143472006Y-136864011D02*
X148612006Y-136864011D01*
X140872006Y-136864011D02*
X142202006Y-136864011D01*
X140872006Y-138194011D02*
X140872006Y-136864011D01*
%TO.C,J4*%
X101308006Y-132038011D02*
X102638006Y-132038011D01*
X102638006Y-132038011D02*
X102638006Y-133368011D01*
X102638006Y-134638011D02*
X102638006Y-137238011D01*
X99978006Y-137238011D02*
X102638006Y-137238011D01*
X99978006Y-134638011D02*
X99978006Y-137238011D01*
X99978006Y-134638011D02*
X102638006Y-134638011D01*
%TO.C,J3*%
X118520006Y-133368011D02*
X121180006Y-133368011D01*
X118520006Y-133368011D02*
X118520006Y-135968011D01*
X118520006Y-135968011D02*
X121180006Y-135968011D01*
X121180006Y-133368011D02*
X121180006Y-135968011D01*
X121180006Y-130768011D02*
X121180006Y-132098011D01*
X119850006Y-130768011D02*
X121180006Y-130768011D01*
%TO.C,J2*%
X120552006Y-138194011D02*
X120552006Y-136864011D01*
X120552006Y-136864011D02*
X121882006Y-136864011D01*
X123152006Y-136864011D02*
X130832006Y-136864011D01*
X130832006Y-139524011D02*
X130832006Y-136864011D01*
X123152006Y-139524011D02*
X130832006Y-139524011D01*
X123152006Y-139524011D02*
X123152006Y-136864011D01*
%TO.C,J1*%
X133312006Y-139524011D02*
X133312006Y-136864011D01*
X133312006Y-139524011D02*
X140992006Y-139524011D01*
X140992006Y-139524011D02*
X140992006Y-136864011D01*
X133312006Y-136864011D02*
X140992006Y-136864011D01*
X130712006Y-136864011D02*
X132042006Y-136864011D01*
X130712006Y-138194011D02*
X130712006Y-136864011D01*
%TO.C,D5*%
X117182006Y-122316011D02*
X113882006Y-122316011D01*
X113882006Y-122316011D02*
X113882006Y-127716011D01*
X117182006Y-122316011D02*
X117182006Y-127716011D01*
%TO.C,D4*%
X112102006Y-122348011D02*
X108802006Y-122348011D01*
X108802006Y-122348011D02*
X108802006Y-127748011D01*
X112102006Y-122348011D02*
X112102006Y-127748011D01*
%TO.C,D2*%
X107022006Y-122316011D02*
X107022006Y-127716011D01*
X103722006Y-122316011D02*
X103722006Y-127716011D01*
X107022006Y-122316011D02*
X103722006Y-122316011D01*
%TO.C,U4*%
X130844006Y-131328011D02*
X130844006Y-131938011D01*
X130844006Y-131328011D02*
X123224006Y-131328011D01*
X147464006Y-131328011D02*
X146844006Y-131328011D01*
X147464006Y-129208011D02*
X147464006Y-131328011D01*
X147464006Y-115088011D02*
X147464006Y-117208011D01*
X146844006Y-115088011D02*
X147464006Y-115088011D01*
X123224006Y-115088011D02*
X130844006Y-115088011D01*
X123224006Y-131328011D02*
X123224006Y-115088011D01*
%TO.C,J11*%
X120198006Y-130414011D02*
X120198006Y-110414011D01*
X100198006Y-110414011D02*
X100198006Y-130414011D01*
X100198006Y-130414011D02*
X120198006Y-130414011D01*
X100198006Y-110414011D02*
X120198006Y-110414011D01*
%TO.C,D3*%
X62595001Y-134400011D02*
X55295001Y-134400011D01*
X62595001Y-136400011D02*
X62595001Y-134400011D01*
X55295001Y-136400011D02*
X62595001Y-136400011D01*
%TO.C,D1*%
X55295001Y-133860011D02*
X62595001Y-133860011D01*
X62595001Y-133860011D02*
X62595001Y-131860011D01*
X62595001Y-131860011D02*
X55295001Y-131860011D01*
%TO.C,U2*%
X61116001Y-113192011D02*
X61116001Y-114842011D01*
X66316001Y-113192011D02*
X61116001Y-113192011D01*
X66316001Y-118492011D02*
X66316001Y-113192011D01*
X61116001Y-118492011D02*
X66316001Y-118492011D01*
X61116001Y-116842011D02*
X61116001Y-118492011D01*
X61116001Y-114842011D02*
G75*
G02*
X61116001Y-116842011I0J-1000000D01*
G01*
%TO.C,U1*%
X52988001Y-116842011D02*
X52988001Y-118492011D01*
X52988001Y-118492011D02*
X58188001Y-118492011D01*
X58188001Y-118492011D02*
X58188001Y-113192011D01*
X58188001Y-113192011D02*
X52988001Y-113192011D01*
X52988001Y-113192011D02*
X52988001Y-114842011D01*
X52988001Y-114842011D02*
G75*
G02*
X52988001Y-116842011I0J-1000000D01*
G01*
%TO.C,J8*%
X63402001Y-138194011D02*
X63402001Y-136864011D01*
X63402001Y-136864011D02*
X64732001Y-136864011D01*
X66002001Y-136864011D02*
X71142001Y-136864011D01*
X71142001Y-139524011D02*
X71142001Y-136864011D01*
X66002001Y-139524011D02*
X71142001Y-139524011D01*
X66002001Y-139524011D02*
X66002001Y-136864011D01*
%TO.C,J7*%
X93942001Y-139524011D02*
X93942001Y-136864011D01*
X93942001Y-139524011D02*
X99082001Y-139524011D01*
X99082001Y-139524011D02*
X99082001Y-136864011D01*
X93942001Y-136864011D02*
X99082001Y-136864011D01*
X91342001Y-136864011D02*
X92672001Y-136864011D01*
X91342001Y-138194011D02*
X91342001Y-136864011D01*
%TO.C,J4*%
X51778001Y-132038011D02*
X53108001Y-132038011D01*
X53108001Y-132038011D02*
X53108001Y-133368011D01*
X53108001Y-134638011D02*
X53108001Y-137238011D01*
X50448001Y-137238011D02*
X53108001Y-137238011D01*
X50448001Y-134638011D02*
X50448001Y-137238011D01*
X50448001Y-134638011D02*
X53108001Y-134638011D01*
%TO.C,J3*%
X68990001Y-133368011D02*
X71650001Y-133368011D01*
X68990001Y-133368011D02*
X68990001Y-135968011D01*
X68990001Y-135968011D02*
X71650001Y-135968011D01*
X71650001Y-133368011D02*
X71650001Y-135968011D01*
X71650001Y-130768011D02*
X71650001Y-132098011D01*
X70320001Y-130768011D02*
X71650001Y-130768011D01*
%TO.C,J2*%
X71022001Y-138194011D02*
X71022001Y-136864011D01*
X71022001Y-136864011D02*
X72352001Y-136864011D01*
X73622001Y-136864011D02*
X81302001Y-136864011D01*
X81302001Y-139524011D02*
X81302001Y-136864011D01*
X73622001Y-139524011D02*
X81302001Y-139524011D01*
X73622001Y-139524011D02*
X73622001Y-136864011D01*
%TO.C,J1*%
X83782001Y-139524011D02*
X83782001Y-136864011D01*
X83782001Y-139524011D02*
X91462001Y-139524011D01*
X91462001Y-139524011D02*
X91462001Y-136864011D01*
X83782001Y-136864011D02*
X91462001Y-136864011D01*
X81182001Y-136864011D02*
X82512001Y-136864011D01*
X81182001Y-138194011D02*
X81182001Y-136864011D01*
%TO.C,D5*%
X67652001Y-122316011D02*
X64352001Y-122316011D01*
X64352001Y-122316011D02*
X64352001Y-127716011D01*
X67652001Y-122316011D02*
X67652001Y-127716011D01*
%TO.C,D4*%
X62572001Y-122348011D02*
X59272001Y-122348011D01*
X59272001Y-122348011D02*
X59272001Y-127748011D01*
X62572001Y-122348011D02*
X62572001Y-127748011D01*
%TO.C,D2*%
X57492001Y-122316011D02*
X57492001Y-127716011D01*
X54192001Y-122316011D02*
X54192001Y-127716011D01*
X57492001Y-122316011D02*
X54192001Y-122316011D01*
%TO.C,U4*%
X81314001Y-131328011D02*
X81314001Y-131938011D01*
X81314001Y-131328011D02*
X73694001Y-131328011D01*
X97934001Y-131328011D02*
X97314001Y-131328011D01*
X97934001Y-129208011D02*
X97934001Y-131328011D01*
X97934001Y-115088011D02*
X97934001Y-117208011D01*
X97314001Y-115088011D02*
X97934001Y-115088011D01*
X73694001Y-115088011D02*
X81314001Y-115088011D01*
X73694001Y-131328011D02*
X73694001Y-115088011D01*
%TO.C,J11*%
X70668001Y-130414011D02*
X70668001Y-110414011D01*
X50668001Y-110414011D02*
X50668001Y-130414011D01*
X50668001Y-130414011D02*
X70668001Y-130414011D01*
X50668001Y-110414011D02*
X70668001Y-110414011D01*
%TO.C,D3*%
X112125006Y-104400006D02*
X104825006Y-104400006D01*
X112125006Y-106400006D02*
X112125006Y-104400006D01*
X104825006Y-106400006D02*
X112125006Y-106400006D01*
%TO.C,D1*%
X104825006Y-103860006D02*
X112125006Y-103860006D01*
X112125006Y-103860006D02*
X112125006Y-101860006D01*
X112125006Y-101860006D02*
X104825006Y-101860006D01*
%TO.C,U2*%
X110646006Y-83192006D02*
X110646006Y-84842006D01*
X115846006Y-83192006D02*
X110646006Y-83192006D01*
X115846006Y-88492006D02*
X115846006Y-83192006D01*
X110646006Y-88492006D02*
X115846006Y-88492006D01*
X110646006Y-86842006D02*
X110646006Y-88492006D01*
X110646006Y-84842006D02*
G75*
G02*
X110646006Y-86842006I0J-1000000D01*
G01*
%TO.C,U1*%
X102518006Y-86842006D02*
X102518006Y-88492006D01*
X102518006Y-88492006D02*
X107718006Y-88492006D01*
X107718006Y-88492006D02*
X107718006Y-83192006D01*
X107718006Y-83192006D02*
X102518006Y-83192006D01*
X102518006Y-83192006D02*
X102518006Y-84842006D01*
X102518006Y-84842006D02*
G75*
G02*
X102518006Y-86842006I0J-1000000D01*
G01*
%TO.C,J8*%
X112932006Y-108194006D02*
X112932006Y-106864006D01*
X112932006Y-106864006D02*
X114262006Y-106864006D01*
X115532006Y-106864006D02*
X120672006Y-106864006D01*
X120672006Y-109524006D02*
X120672006Y-106864006D01*
X115532006Y-109524006D02*
X120672006Y-109524006D01*
X115532006Y-109524006D02*
X115532006Y-106864006D01*
%TO.C,J7*%
X143472006Y-109524006D02*
X143472006Y-106864006D01*
X143472006Y-109524006D02*
X148612006Y-109524006D01*
X148612006Y-109524006D02*
X148612006Y-106864006D01*
X143472006Y-106864006D02*
X148612006Y-106864006D01*
X140872006Y-106864006D02*
X142202006Y-106864006D01*
X140872006Y-108194006D02*
X140872006Y-106864006D01*
%TO.C,J4*%
X101308006Y-102038006D02*
X102638006Y-102038006D01*
X102638006Y-102038006D02*
X102638006Y-103368006D01*
X102638006Y-104638006D02*
X102638006Y-107238006D01*
X99978006Y-107238006D02*
X102638006Y-107238006D01*
X99978006Y-104638006D02*
X99978006Y-107238006D01*
X99978006Y-104638006D02*
X102638006Y-104638006D01*
%TO.C,J3*%
X118520006Y-103368006D02*
X121180006Y-103368006D01*
X118520006Y-103368006D02*
X118520006Y-105968006D01*
X118520006Y-105968006D02*
X121180006Y-105968006D01*
X121180006Y-103368006D02*
X121180006Y-105968006D01*
X121180006Y-100768006D02*
X121180006Y-102098006D01*
X119850006Y-100768006D02*
X121180006Y-100768006D01*
%TO.C,J2*%
X120552006Y-108194006D02*
X120552006Y-106864006D01*
X120552006Y-106864006D02*
X121882006Y-106864006D01*
X123152006Y-106864006D02*
X130832006Y-106864006D01*
X130832006Y-109524006D02*
X130832006Y-106864006D01*
X123152006Y-109524006D02*
X130832006Y-109524006D01*
X123152006Y-109524006D02*
X123152006Y-106864006D01*
%TO.C,J1*%
X133312006Y-109524006D02*
X133312006Y-106864006D01*
X133312006Y-109524006D02*
X140992006Y-109524006D01*
X140992006Y-109524006D02*
X140992006Y-106864006D01*
X133312006Y-106864006D02*
X140992006Y-106864006D01*
X130712006Y-106864006D02*
X132042006Y-106864006D01*
X130712006Y-108194006D02*
X130712006Y-106864006D01*
%TO.C,D5*%
X117182006Y-92316006D02*
X113882006Y-92316006D01*
X113882006Y-92316006D02*
X113882006Y-97716006D01*
X117182006Y-92316006D02*
X117182006Y-97716006D01*
%TO.C,D4*%
X112102006Y-92348006D02*
X108802006Y-92348006D01*
X108802006Y-92348006D02*
X108802006Y-97748006D01*
X112102006Y-92348006D02*
X112102006Y-97748006D01*
%TO.C,D2*%
X107022006Y-92316006D02*
X107022006Y-97716006D01*
X103722006Y-92316006D02*
X103722006Y-97716006D01*
X107022006Y-92316006D02*
X103722006Y-92316006D01*
%TO.C,U4*%
X130844006Y-101328006D02*
X130844006Y-101938006D01*
X130844006Y-101328006D02*
X123224006Y-101328006D01*
X147464006Y-101328006D02*
X146844006Y-101328006D01*
X147464006Y-99208006D02*
X147464006Y-101328006D01*
X147464006Y-85088006D02*
X147464006Y-87208006D01*
X146844006Y-85088006D02*
X147464006Y-85088006D01*
X123224006Y-85088006D02*
X130844006Y-85088006D01*
X123224006Y-101328006D02*
X123224006Y-85088006D01*
%TO.C,J11*%
X120198006Y-100414006D02*
X120198006Y-80414006D01*
X100198006Y-80414006D02*
X100198006Y-100414006D01*
X100198006Y-100414006D02*
X120198006Y-100414006D01*
X100198006Y-80414006D02*
X120198006Y-80414006D01*
%TO.C,D3*%
X62595001Y-104400006D02*
X55295001Y-104400006D01*
X62595001Y-106400006D02*
X62595001Y-104400006D01*
X55295001Y-106400006D02*
X62595001Y-106400006D01*
%TO.C,D1*%
X55295001Y-103860006D02*
X62595001Y-103860006D01*
X62595001Y-103860006D02*
X62595001Y-101860006D01*
X62595001Y-101860006D02*
X55295001Y-101860006D01*
%TO.C,U2*%
X61116001Y-83192006D02*
X61116001Y-84842006D01*
X66316001Y-83192006D02*
X61116001Y-83192006D01*
X66316001Y-88492006D02*
X66316001Y-83192006D01*
X61116001Y-88492006D02*
X66316001Y-88492006D01*
X61116001Y-86842006D02*
X61116001Y-88492006D01*
X61116001Y-84842006D02*
G75*
G02*
X61116001Y-86842006I0J-1000000D01*
G01*
%TO.C,U1*%
X52988001Y-86842006D02*
X52988001Y-88492006D01*
X52988001Y-88492006D02*
X58188001Y-88492006D01*
X58188001Y-88492006D02*
X58188001Y-83192006D01*
X58188001Y-83192006D02*
X52988001Y-83192006D01*
X52988001Y-83192006D02*
X52988001Y-84842006D01*
X52988001Y-84842006D02*
G75*
G02*
X52988001Y-86842006I0J-1000000D01*
G01*
%TO.C,J8*%
X63402001Y-108194006D02*
X63402001Y-106864006D01*
X63402001Y-106864006D02*
X64732001Y-106864006D01*
X66002001Y-106864006D02*
X71142001Y-106864006D01*
X71142001Y-109524006D02*
X71142001Y-106864006D01*
X66002001Y-109524006D02*
X71142001Y-109524006D01*
X66002001Y-109524006D02*
X66002001Y-106864006D01*
%TO.C,J7*%
X93942001Y-109524006D02*
X93942001Y-106864006D01*
X93942001Y-109524006D02*
X99082001Y-109524006D01*
X99082001Y-109524006D02*
X99082001Y-106864006D01*
X93942001Y-106864006D02*
X99082001Y-106864006D01*
X91342001Y-106864006D02*
X92672001Y-106864006D01*
X91342001Y-108194006D02*
X91342001Y-106864006D01*
%TO.C,J4*%
X51778001Y-102038006D02*
X53108001Y-102038006D01*
X53108001Y-102038006D02*
X53108001Y-103368006D01*
X53108001Y-104638006D02*
X53108001Y-107238006D01*
X50448001Y-107238006D02*
X53108001Y-107238006D01*
X50448001Y-104638006D02*
X50448001Y-107238006D01*
X50448001Y-104638006D02*
X53108001Y-104638006D01*
%TO.C,J3*%
X68990001Y-103368006D02*
X71650001Y-103368006D01*
X68990001Y-103368006D02*
X68990001Y-105968006D01*
X68990001Y-105968006D02*
X71650001Y-105968006D01*
X71650001Y-103368006D02*
X71650001Y-105968006D01*
X71650001Y-100768006D02*
X71650001Y-102098006D01*
X70320001Y-100768006D02*
X71650001Y-100768006D01*
%TO.C,J2*%
X71022001Y-108194006D02*
X71022001Y-106864006D01*
X71022001Y-106864006D02*
X72352001Y-106864006D01*
X73622001Y-106864006D02*
X81302001Y-106864006D01*
X81302001Y-109524006D02*
X81302001Y-106864006D01*
X73622001Y-109524006D02*
X81302001Y-109524006D01*
X73622001Y-109524006D02*
X73622001Y-106864006D01*
%TO.C,J1*%
X83782001Y-109524006D02*
X83782001Y-106864006D01*
X83782001Y-109524006D02*
X91462001Y-109524006D01*
X91462001Y-109524006D02*
X91462001Y-106864006D01*
X83782001Y-106864006D02*
X91462001Y-106864006D01*
X81182001Y-106864006D02*
X82512001Y-106864006D01*
X81182001Y-108194006D02*
X81182001Y-106864006D01*
%TO.C,D5*%
X67652001Y-92316006D02*
X64352001Y-92316006D01*
X64352001Y-92316006D02*
X64352001Y-97716006D01*
X67652001Y-92316006D02*
X67652001Y-97716006D01*
%TO.C,D4*%
X62572001Y-92348006D02*
X59272001Y-92348006D01*
X59272001Y-92348006D02*
X59272001Y-97748006D01*
X62572001Y-92348006D02*
X62572001Y-97748006D01*
%TO.C,D2*%
X57492001Y-92316006D02*
X57492001Y-97716006D01*
X54192001Y-92316006D02*
X54192001Y-97716006D01*
X57492001Y-92316006D02*
X54192001Y-92316006D01*
%TO.C,U4*%
X81314001Y-101328006D02*
X81314001Y-101938006D01*
X81314001Y-101328006D02*
X73694001Y-101328006D01*
X97934001Y-101328006D02*
X97314001Y-101328006D01*
X97934001Y-99208006D02*
X97934001Y-101328006D01*
X97934001Y-85088006D02*
X97934001Y-87208006D01*
X97314001Y-85088006D02*
X97934001Y-85088006D01*
X73694001Y-85088006D02*
X81314001Y-85088006D01*
X73694001Y-101328006D02*
X73694001Y-85088006D01*
%TO.C,J11*%
X70668001Y-100414006D02*
X70668001Y-80414006D01*
X50668001Y-80414006D02*
X50668001Y-100414006D01*
X50668001Y-100414006D02*
X70668001Y-100414006D01*
X50668001Y-80414006D02*
X70668001Y-80414006D01*
%TO.C,D3*%
X112125006Y-74400001D02*
X104825006Y-74400001D01*
X112125006Y-76400001D02*
X112125006Y-74400001D01*
X104825006Y-76400001D02*
X112125006Y-76400001D01*
%TO.C,D1*%
X104825006Y-73860001D02*
X112125006Y-73860001D01*
X112125006Y-73860001D02*
X112125006Y-71860001D01*
X112125006Y-71860001D02*
X104825006Y-71860001D01*
%TO.C,U2*%
X110646006Y-53192001D02*
X110646006Y-54842001D01*
X115846006Y-53192001D02*
X110646006Y-53192001D01*
X115846006Y-58492001D02*
X115846006Y-53192001D01*
X110646006Y-58492001D02*
X115846006Y-58492001D01*
X110646006Y-56842001D02*
X110646006Y-58492001D01*
X110646006Y-54842001D02*
G75*
G02*
X110646006Y-56842001I0J-1000000D01*
G01*
%TO.C,U1*%
X102518006Y-56842001D02*
X102518006Y-58492001D01*
X102518006Y-58492001D02*
X107718006Y-58492001D01*
X107718006Y-58492001D02*
X107718006Y-53192001D01*
X107718006Y-53192001D02*
X102518006Y-53192001D01*
X102518006Y-53192001D02*
X102518006Y-54842001D01*
X102518006Y-54842001D02*
G75*
G02*
X102518006Y-56842001I0J-1000000D01*
G01*
%TO.C,J8*%
X112932006Y-78194001D02*
X112932006Y-76864001D01*
X112932006Y-76864001D02*
X114262006Y-76864001D01*
X115532006Y-76864001D02*
X120672006Y-76864001D01*
X120672006Y-79524001D02*
X120672006Y-76864001D01*
X115532006Y-79524001D02*
X120672006Y-79524001D01*
X115532006Y-79524001D02*
X115532006Y-76864001D01*
%TO.C,J7*%
X143472006Y-79524001D02*
X143472006Y-76864001D01*
X143472006Y-79524001D02*
X148612006Y-79524001D01*
X148612006Y-79524001D02*
X148612006Y-76864001D01*
X143472006Y-76864001D02*
X148612006Y-76864001D01*
X140872006Y-76864001D02*
X142202006Y-76864001D01*
X140872006Y-78194001D02*
X140872006Y-76864001D01*
%TO.C,J4*%
X101308006Y-72038001D02*
X102638006Y-72038001D01*
X102638006Y-72038001D02*
X102638006Y-73368001D01*
X102638006Y-74638001D02*
X102638006Y-77238001D01*
X99978006Y-77238001D02*
X102638006Y-77238001D01*
X99978006Y-74638001D02*
X99978006Y-77238001D01*
X99978006Y-74638001D02*
X102638006Y-74638001D01*
%TO.C,J3*%
X118520006Y-73368001D02*
X121180006Y-73368001D01*
X118520006Y-73368001D02*
X118520006Y-75968001D01*
X118520006Y-75968001D02*
X121180006Y-75968001D01*
X121180006Y-73368001D02*
X121180006Y-75968001D01*
X121180006Y-70768001D02*
X121180006Y-72098001D01*
X119850006Y-70768001D02*
X121180006Y-70768001D01*
%TO.C,J2*%
X120552006Y-78194001D02*
X120552006Y-76864001D01*
X120552006Y-76864001D02*
X121882006Y-76864001D01*
X123152006Y-76864001D02*
X130832006Y-76864001D01*
X130832006Y-79524001D02*
X130832006Y-76864001D01*
X123152006Y-79524001D02*
X130832006Y-79524001D01*
X123152006Y-79524001D02*
X123152006Y-76864001D01*
%TO.C,J1*%
X133312006Y-79524001D02*
X133312006Y-76864001D01*
X133312006Y-79524001D02*
X140992006Y-79524001D01*
X140992006Y-79524001D02*
X140992006Y-76864001D01*
X133312006Y-76864001D02*
X140992006Y-76864001D01*
X130712006Y-76864001D02*
X132042006Y-76864001D01*
X130712006Y-78194001D02*
X130712006Y-76864001D01*
%TO.C,D5*%
X117182006Y-62316001D02*
X113882006Y-62316001D01*
X113882006Y-62316001D02*
X113882006Y-67716001D01*
X117182006Y-62316001D02*
X117182006Y-67716001D01*
%TO.C,D4*%
X112102006Y-62348001D02*
X108802006Y-62348001D01*
X108802006Y-62348001D02*
X108802006Y-67748001D01*
X112102006Y-62348001D02*
X112102006Y-67748001D01*
%TO.C,D2*%
X107022006Y-62316001D02*
X107022006Y-67716001D01*
X103722006Y-62316001D02*
X103722006Y-67716001D01*
X107022006Y-62316001D02*
X103722006Y-62316001D01*
%TO.C,U4*%
X130844006Y-71328001D02*
X130844006Y-71938001D01*
X130844006Y-71328001D02*
X123224006Y-71328001D01*
X147464006Y-71328001D02*
X146844006Y-71328001D01*
X147464006Y-69208001D02*
X147464006Y-71328001D01*
X147464006Y-55088001D02*
X147464006Y-57208001D01*
X146844006Y-55088001D02*
X147464006Y-55088001D01*
X123224006Y-55088001D02*
X130844006Y-55088001D01*
X123224006Y-71328001D02*
X123224006Y-55088001D01*
%TO.C,J11*%
X120198006Y-70414001D02*
X120198006Y-50414001D01*
X100198006Y-50414001D02*
X100198006Y-70414001D01*
X100198006Y-70414001D02*
X120198006Y-70414001D01*
X100198006Y-50414001D02*
X120198006Y-50414001D01*
%TO.C,D3*%
X62595001Y-74400001D02*
X55295001Y-74400001D01*
X62595001Y-76400001D02*
X62595001Y-74400001D01*
X55295001Y-76400001D02*
X62595001Y-76400001D01*
%TO.C,D1*%
X55295001Y-73860001D02*
X62595001Y-73860001D01*
X62595001Y-73860001D02*
X62595001Y-71860001D01*
X62595001Y-71860001D02*
X55295001Y-71860001D01*
%TO.C,U2*%
X61116001Y-53192001D02*
X61116001Y-54842001D01*
X66316001Y-53192001D02*
X61116001Y-53192001D01*
X66316001Y-58492001D02*
X66316001Y-53192001D01*
X61116001Y-58492001D02*
X66316001Y-58492001D01*
X61116001Y-56842001D02*
X61116001Y-58492001D01*
X61116001Y-54842001D02*
G75*
G02*
X61116001Y-56842001I0J-1000000D01*
G01*
%TO.C,U1*%
X52988001Y-56842001D02*
X52988001Y-58492001D01*
X52988001Y-58492001D02*
X58188001Y-58492001D01*
X58188001Y-58492001D02*
X58188001Y-53192001D01*
X58188001Y-53192001D02*
X52988001Y-53192001D01*
X52988001Y-53192001D02*
X52988001Y-54842001D01*
X52988001Y-54842001D02*
G75*
G02*
X52988001Y-56842001I0J-1000000D01*
G01*
%TO.C,J8*%
X63402001Y-78194001D02*
X63402001Y-76864001D01*
X63402001Y-76864001D02*
X64732001Y-76864001D01*
X66002001Y-76864001D02*
X71142001Y-76864001D01*
X71142001Y-79524001D02*
X71142001Y-76864001D01*
X66002001Y-79524001D02*
X71142001Y-79524001D01*
X66002001Y-79524001D02*
X66002001Y-76864001D01*
%TO.C,J7*%
X93942001Y-79524001D02*
X93942001Y-76864001D01*
X93942001Y-79524001D02*
X99082001Y-79524001D01*
X99082001Y-79524001D02*
X99082001Y-76864001D01*
X93942001Y-76864001D02*
X99082001Y-76864001D01*
X91342001Y-76864001D02*
X92672001Y-76864001D01*
X91342001Y-78194001D02*
X91342001Y-76864001D01*
%TO.C,J4*%
X51778001Y-72038001D02*
X53108001Y-72038001D01*
X53108001Y-72038001D02*
X53108001Y-73368001D01*
X53108001Y-74638001D02*
X53108001Y-77238001D01*
X50448001Y-77238001D02*
X53108001Y-77238001D01*
X50448001Y-74638001D02*
X50448001Y-77238001D01*
X50448001Y-74638001D02*
X53108001Y-74638001D01*
%TO.C,J3*%
X68990001Y-73368001D02*
X71650001Y-73368001D01*
X68990001Y-73368001D02*
X68990001Y-75968001D01*
X68990001Y-75968001D02*
X71650001Y-75968001D01*
X71650001Y-73368001D02*
X71650001Y-75968001D01*
X71650001Y-70768001D02*
X71650001Y-72098001D01*
X70320001Y-70768001D02*
X71650001Y-70768001D01*
%TO.C,J2*%
X71022001Y-78194001D02*
X71022001Y-76864001D01*
X71022001Y-76864001D02*
X72352001Y-76864001D01*
X73622001Y-76864001D02*
X81302001Y-76864001D01*
X81302001Y-79524001D02*
X81302001Y-76864001D01*
X73622001Y-79524001D02*
X81302001Y-79524001D01*
X73622001Y-79524001D02*
X73622001Y-76864001D01*
%TO.C,J1*%
X83782001Y-79524001D02*
X83782001Y-76864001D01*
X83782001Y-79524001D02*
X91462001Y-79524001D01*
X91462001Y-79524001D02*
X91462001Y-76864001D01*
X83782001Y-76864001D02*
X91462001Y-76864001D01*
X81182001Y-76864001D02*
X82512001Y-76864001D01*
X81182001Y-78194001D02*
X81182001Y-76864001D01*
%TO.C,D5*%
X67652001Y-62316001D02*
X64352001Y-62316001D01*
X64352001Y-62316001D02*
X64352001Y-67716001D01*
X67652001Y-62316001D02*
X67652001Y-67716001D01*
%TO.C,D4*%
X62572001Y-62348001D02*
X59272001Y-62348001D01*
X59272001Y-62348001D02*
X59272001Y-67748001D01*
X62572001Y-62348001D02*
X62572001Y-67748001D01*
%TO.C,D2*%
X57492001Y-62316001D02*
X57492001Y-67716001D01*
X54192001Y-62316001D02*
X54192001Y-67716001D01*
X57492001Y-62316001D02*
X54192001Y-62316001D01*
%TO.C,U4*%
X81314001Y-71328001D02*
X81314001Y-71938001D01*
X81314001Y-71328001D02*
X73694001Y-71328001D01*
X97934001Y-71328001D02*
X97314001Y-71328001D01*
X97934001Y-69208001D02*
X97934001Y-71328001D01*
X97934001Y-55088001D02*
X97934001Y-57208001D01*
X97314001Y-55088001D02*
X97934001Y-55088001D01*
X73694001Y-55088001D02*
X81314001Y-55088001D01*
X73694001Y-71328001D02*
X73694001Y-55088001D01*
%TO.C,J11*%
X70668001Y-70414001D02*
X70668001Y-50414001D01*
X50668001Y-50414001D02*
X50668001Y-70414001D01*
X50668001Y-70414001D02*
X70668001Y-70414001D01*
X50668001Y-50414001D02*
X70668001Y-50414001D01*
%TO.C,D3*%
D11*
X106836910Y-137602391D02*
X106836910Y-136602391D01*
X107075006Y-136602391D01*
X107217863Y-136650011D01*
X107313101Y-136745249D01*
X107360720Y-136840487D01*
X107408339Y-137030963D01*
X107408339Y-137173820D01*
X107360720Y-137364296D01*
X107313101Y-137459534D01*
X107217863Y-137554772D01*
X107075006Y-137602391D01*
X106836910Y-137602391D01*
X107741672Y-136602391D02*
X108360720Y-136602391D01*
X108027386Y-136983344D01*
X108170244Y-136983344D01*
X108265482Y-137030963D01*
X108313101Y-137078582D01*
X108360720Y-137173820D01*
X108360720Y-137411915D01*
X108313101Y-137507153D01*
X108265482Y-137554772D01*
X108170244Y-137602391D01*
X107884529Y-137602391D01*
X107789291Y-137554772D01*
X107741672Y-137507153D01*
X106836910Y-135852391D02*
X106836910Y-134852391D01*
X107075006Y-134852391D01*
X107217863Y-134900011D01*
X107313101Y-134995249D01*
X107360720Y-135090487D01*
X107408339Y-135280963D01*
X107408339Y-135423820D01*
X107360720Y-135614296D01*
X107313101Y-135709534D01*
X107217863Y-135804772D01*
X107075006Y-135852391D01*
X106836910Y-135852391D01*
X107741672Y-134852391D02*
X108360720Y-134852391D01*
X108027386Y-135233344D01*
X108170244Y-135233344D01*
X108265482Y-135280963D01*
X108313101Y-135328582D01*
X108360720Y-135423820D01*
X108360720Y-135661915D01*
X108313101Y-135757153D01*
X108265482Y-135804772D01*
X108170244Y-135852391D01*
X107884529Y-135852391D01*
X107789291Y-135804772D01*
X107741672Y-135757153D01*
%TO.C,D1*%
X107046910Y-131407391D02*
X107046910Y-130407391D01*
X107285006Y-130407391D01*
X107427863Y-130455011D01*
X107523101Y-130550249D01*
X107570720Y-130645487D01*
X107618339Y-130835963D01*
X107618339Y-130978820D01*
X107570720Y-131169296D01*
X107523101Y-131264534D01*
X107427863Y-131359772D01*
X107285006Y-131407391D01*
X107046910Y-131407391D01*
X108570720Y-131407391D02*
X107999291Y-131407391D01*
X108285006Y-131407391D02*
X108285006Y-130407391D01*
X108189767Y-130550249D01*
X108094529Y-130645487D01*
X107999291Y-130693106D01*
%TO.C,U2*%
X112190386Y-116603915D02*
X112999910Y-116603915D01*
X113095148Y-116556296D01*
X113142767Y-116508677D01*
X113190386Y-116413439D01*
X113190386Y-116222963D01*
X113142767Y-116127725D01*
X113095148Y-116080106D01*
X112999910Y-116032487D01*
X112190386Y-116032487D01*
X112285625Y-115603915D02*
X112238006Y-115556296D01*
X112190386Y-115461058D01*
X112190386Y-115222963D01*
X112238006Y-115127725D01*
X112285625Y-115080106D01*
X112380863Y-115032487D01*
X112476101Y-115032487D01*
X112618958Y-115080106D01*
X113190386Y-115651534D01*
X113190386Y-115032487D01*
%TO.C,U1*%
X103808386Y-116603915D02*
X104617910Y-116603915D01*
X104713148Y-116556296D01*
X104760767Y-116508677D01*
X104808386Y-116413439D01*
X104808386Y-116222963D01*
X104760767Y-116127725D01*
X104713148Y-116080106D01*
X104617910Y-116032487D01*
X103808386Y-116032487D01*
X104808386Y-115032487D02*
X104808386Y-115603915D01*
X104808386Y-115318201D02*
X103808386Y-115318201D01*
X103951244Y-115413439D01*
X104046482Y-115508677D01*
X104094101Y-115603915D01*
%TO.C,J4*%
X100569910Y-138844677D02*
X101046101Y-138844677D01*
X100474672Y-139130391D02*
X100808006Y-138130391D01*
X101141339Y-139130391D01*
X101808006Y-138606582D02*
X101950863Y-138654201D01*
X101998482Y-138701820D01*
X102046101Y-138797058D01*
X102046101Y-138939915D01*
X101998482Y-139035153D01*
X101950863Y-139082772D01*
X101855625Y-139130391D01*
X101474672Y-139130391D01*
X101474672Y-138130391D01*
X101808006Y-138130391D01*
X101903244Y-138178011D01*
X101950863Y-138225630D01*
X101998482Y-138320868D01*
X101998482Y-138416106D01*
X101950863Y-138511344D01*
X101903244Y-138558963D01*
X101808006Y-138606582D01*
X101474672Y-138606582D01*
%TO.C,J3*%
X116452863Y-131994772D02*
X116595720Y-132042391D01*
X116833815Y-132042391D01*
X116929053Y-131994772D01*
X116976672Y-131947153D01*
X117024291Y-131851915D01*
X117024291Y-131756677D01*
X116976672Y-131661439D01*
X116929053Y-131613820D01*
X116833815Y-131566201D01*
X116643339Y-131518582D01*
X116548101Y-131470963D01*
X116500482Y-131423344D01*
X116452863Y-131328106D01*
X116452863Y-131232868D01*
X116500482Y-131137630D01*
X116548101Y-131090011D01*
X116643339Y-131042391D01*
X116881434Y-131042391D01*
X117024291Y-131090011D01*
X117357625Y-131042391D02*
X117595720Y-132042391D01*
X117786196Y-131328106D01*
X117976672Y-132042391D01*
X118214767Y-131042391D01*
%TO.C,D5*%
X118484386Y-126454106D02*
X117484386Y-126454106D01*
X117484386Y-126216011D01*
X117532006Y-126073153D01*
X117627244Y-125977915D01*
X117722482Y-125930296D01*
X117912958Y-125882677D01*
X118055815Y-125882677D01*
X118246291Y-125930296D01*
X118341529Y-125977915D01*
X118436767Y-126073153D01*
X118484386Y-126216011D01*
X118484386Y-126454106D01*
X117484386Y-124977915D02*
X117484386Y-125454106D01*
X117960577Y-125501725D01*
X117912958Y-125454106D01*
X117865339Y-125358868D01*
X117865339Y-125120772D01*
X117912958Y-125025534D01*
X117960577Y-124977915D01*
X118055815Y-124930296D01*
X118293910Y-124930296D01*
X118389148Y-124977915D01*
X118436767Y-125025534D01*
X118484386Y-125120772D01*
X118484386Y-125358868D01*
X118436767Y-125454106D01*
X118389148Y-125501725D01*
%TO.C,D4*%
X113404386Y-126486106D02*
X112404386Y-126486106D01*
X112404386Y-126248011D01*
X112452006Y-126105153D01*
X112547244Y-126009915D01*
X112642482Y-125962296D01*
X112832958Y-125914677D01*
X112975815Y-125914677D01*
X113166291Y-125962296D01*
X113261529Y-126009915D01*
X113356767Y-126105153D01*
X113404386Y-126248011D01*
X113404386Y-126486106D01*
X112737720Y-125057534D02*
X113404386Y-125057534D01*
X112356767Y-125295630D02*
X113071053Y-125533725D01*
X113071053Y-124914677D01*
%TO.C,D2*%
X108324386Y-126454106D02*
X107324386Y-126454106D01*
X107324386Y-126216011D01*
X107372006Y-126073153D01*
X107467244Y-125977915D01*
X107562482Y-125930296D01*
X107752958Y-125882677D01*
X107895815Y-125882677D01*
X108086291Y-125930296D01*
X108181529Y-125977915D01*
X108276767Y-126073153D01*
X108324386Y-126216011D01*
X108324386Y-126454106D01*
X107419625Y-125501725D02*
X107372006Y-125454106D01*
X107324386Y-125358868D01*
X107324386Y-125120772D01*
X107372006Y-125025534D01*
X107419625Y-124977915D01*
X107514863Y-124930296D01*
X107610101Y-124930296D01*
X107752958Y-124977915D01*
X108324386Y-125549344D01*
X108324386Y-124930296D01*
%TO.C,J11*%
X116810101Y-130010391D02*
X116810101Y-129010391D01*
X117191053Y-129010391D01*
X117286291Y-129058011D01*
X117333910Y-129105630D01*
X117381529Y-129200868D01*
X117381529Y-129343725D01*
X117333910Y-129438963D01*
X117286291Y-129486582D01*
X117191053Y-129534201D01*
X116810101Y-129534201D01*
X117762482Y-129962772D02*
X117905339Y-130010391D01*
X118143434Y-130010391D01*
X118238672Y-129962772D01*
X118286291Y-129915153D01*
X118333910Y-129819915D01*
X118333910Y-129724677D01*
X118286291Y-129629439D01*
X118238672Y-129581820D01*
X118143434Y-129534201D01*
X117952958Y-129486582D01*
X117857720Y-129438963D01*
X117810101Y-129391344D01*
X117762482Y-129296106D01*
X117762482Y-129200868D01*
X117810101Y-129105630D01*
X117857720Y-129058011D01*
X117952958Y-129010391D01*
X118191053Y-129010391D01*
X118333910Y-129058011D01*
X118762482Y-129010391D02*
X118762482Y-129819915D01*
X118810101Y-129915153D01*
X118857720Y-129962772D01*
X118952958Y-130010391D01*
X119143434Y-130010391D01*
X119238672Y-129962772D01*
X119286291Y-129915153D01*
X119333910Y-129819915D01*
X119333910Y-129010391D01*
%TO.C,D3*%
X57306905Y-137602391D02*
X57306905Y-136602391D01*
X57545001Y-136602391D01*
X57687858Y-136650011D01*
X57783096Y-136745249D01*
X57830715Y-136840487D01*
X57878334Y-137030963D01*
X57878334Y-137173820D01*
X57830715Y-137364296D01*
X57783096Y-137459534D01*
X57687858Y-137554772D01*
X57545001Y-137602391D01*
X57306905Y-137602391D01*
X58211667Y-136602391D02*
X58830715Y-136602391D01*
X58497381Y-136983344D01*
X58640239Y-136983344D01*
X58735477Y-137030963D01*
X58783096Y-137078582D01*
X58830715Y-137173820D01*
X58830715Y-137411915D01*
X58783096Y-137507153D01*
X58735477Y-137554772D01*
X58640239Y-137602391D01*
X58354524Y-137602391D01*
X58259286Y-137554772D01*
X58211667Y-137507153D01*
X57306905Y-135852391D02*
X57306905Y-134852391D01*
X57545001Y-134852391D01*
X57687858Y-134900011D01*
X57783096Y-134995249D01*
X57830715Y-135090487D01*
X57878334Y-135280963D01*
X57878334Y-135423820D01*
X57830715Y-135614296D01*
X57783096Y-135709534D01*
X57687858Y-135804772D01*
X57545001Y-135852391D01*
X57306905Y-135852391D01*
X58211667Y-134852391D02*
X58830715Y-134852391D01*
X58497381Y-135233344D01*
X58640239Y-135233344D01*
X58735477Y-135280963D01*
X58783096Y-135328582D01*
X58830715Y-135423820D01*
X58830715Y-135661915D01*
X58783096Y-135757153D01*
X58735477Y-135804772D01*
X58640239Y-135852391D01*
X58354524Y-135852391D01*
X58259286Y-135804772D01*
X58211667Y-135757153D01*
%TO.C,D1*%
X57516905Y-131407391D02*
X57516905Y-130407391D01*
X57755001Y-130407391D01*
X57897858Y-130455011D01*
X57993096Y-130550249D01*
X58040715Y-130645487D01*
X58088334Y-130835963D01*
X58088334Y-130978820D01*
X58040715Y-131169296D01*
X57993096Y-131264534D01*
X57897858Y-131359772D01*
X57755001Y-131407391D01*
X57516905Y-131407391D01*
X59040715Y-131407391D02*
X58469286Y-131407391D01*
X58755001Y-131407391D02*
X58755001Y-130407391D01*
X58659762Y-130550249D01*
X58564524Y-130645487D01*
X58469286Y-130693106D01*
%TO.C,U2*%
X62660381Y-116603915D02*
X63469905Y-116603915D01*
X63565143Y-116556296D01*
X63612762Y-116508677D01*
X63660381Y-116413439D01*
X63660381Y-116222963D01*
X63612762Y-116127725D01*
X63565143Y-116080106D01*
X63469905Y-116032487D01*
X62660381Y-116032487D01*
X62755620Y-115603915D02*
X62708001Y-115556296D01*
X62660381Y-115461058D01*
X62660381Y-115222963D01*
X62708001Y-115127725D01*
X62755620Y-115080106D01*
X62850858Y-115032487D01*
X62946096Y-115032487D01*
X63088953Y-115080106D01*
X63660381Y-115651534D01*
X63660381Y-115032487D01*
%TO.C,U1*%
X54278381Y-116603915D02*
X55087905Y-116603915D01*
X55183143Y-116556296D01*
X55230762Y-116508677D01*
X55278381Y-116413439D01*
X55278381Y-116222963D01*
X55230762Y-116127725D01*
X55183143Y-116080106D01*
X55087905Y-116032487D01*
X54278381Y-116032487D01*
X55278381Y-115032487D02*
X55278381Y-115603915D01*
X55278381Y-115318201D02*
X54278381Y-115318201D01*
X54421239Y-115413439D01*
X54516477Y-115508677D01*
X54564096Y-115603915D01*
%TO.C,J4*%
X51039905Y-138844677D02*
X51516096Y-138844677D01*
X50944667Y-139130391D02*
X51278001Y-138130391D01*
X51611334Y-139130391D01*
X52278001Y-138606582D02*
X52420858Y-138654201D01*
X52468477Y-138701820D01*
X52516096Y-138797058D01*
X52516096Y-138939915D01*
X52468477Y-139035153D01*
X52420858Y-139082772D01*
X52325620Y-139130391D01*
X51944667Y-139130391D01*
X51944667Y-138130391D01*
X52278001Y-138130391D01*
X52373239Y-138178011D01*
X52420858Y-138225630D01*
X52468477Y-138320868D01*
X52468477Y-138416106D01*
X52420858Y-138511344D01*
X52373239Y-138558963D01*
X52278001Y-138606582D01*
X51944667Y-138606582D01*
%TO.C,J3*%
X66922858Y-131994772D02*
X67065715Y-132042391D01*
X67303810Y-132042391D01*
X67399048Y-131994772D01*
X67446667Y-131947153D01*
X67494286Y-131851915D01*
X67494286Y-131756677D01*
X67446667Y-131661439D01*
X67399048Y-131613820D01*
X67303810Y-131566201D01*
X67113334Y-131518582D01*
X67018096Y-131470963D01*
X66970477Y-131423344D01*
X66922858Y-131328106D01*
X66922858Y-131232868D01*
X66970477Y-131137630D01*
X67018096Y-131090011D01*
X67113334Y-131042391D01*
X67351429Y-131042391D01*
X67494286Y-131090011D01*
X67827620Y-131042391D02*
X68065715Y-132042391D01*
X68256191Y-131328106D01*
X68446667Y-132042391D01*
X68684762Y-131042391D01*
%TO.C,D5*%
X68954381Y-126454106D02*
X67954381Y-126454106D01*
X67954381Y-126216011D01*
X68002001Y-126073153D01*
X68097239Y-125977915D01*
X68192477Y-125930296D01*
X68382953Y-125882677D01*
X68525810Y-125882677D01*
X68716286Y-125930296D01*
X68811524Y-125977915D01*
X68906762Y-126073153D01*
X68954381Y-126216011D01*
X68954381Y-126454106D01*
X67954381Y-124977915D02*
X67954381Y-125454106D01*
X68430572Y-125501725D01*
X68382953Y-125454106D01*
X68335334Y-125358868D01*
X68335334Y-125120772D01*
X68382953Y-125025534D01*
X68430572Y-124977915D01*
X68525810Y-124930296D01*
X68763905Y-124930296D01*
X68859143Y-124977915D01*
X68906762Y-125025534D01*
X68954381Y-125120772D01*
X68954381Y-125358868D01*
X68906762Y-125454106D01*
X68859143Y-125501725D01*
%TO.C,D4*%
X63874381Y-126486106D02*
X62874381Y-126486106D01*
X62874381Y-126248011D01*
X62922001Y-126105153D01*
X63017239Y-126009915D01*
X63112477Y-125962296D01*
X63302953Y-125914677D01*
X63445810Y-125914677D01*
X63636286Y-125962296D01*
X63731524Y-126009915D01*
X63826762Y-126105153D01*
X63874381Y-126248011D01*
X63874381Y-126486106D01*
X63207715Y-125057534D02*
X63874381Y-125057534D01*
X62826762Y-125295630D02*
X63541048Y-125533725D01*
X63541048Y-124914677D01*
%TO.C,D2*%
X58794381Y-126454106D02*
X57794381Y-126454106D01*
X57794381Y-126216011D01*
X57842001Y-126073153D01*
X57937239Y-125977915D01*
X58032477Y-125930296D01*
X58222953Y-125882677D01*
X58365810Y-125882677D01*
X58556286Y-125930296D01*
X58651524Y-125977915D01*
X58746762Y-126073153D01*
X58794381Y-126216011D01*
X58794381Y-126454106D01*
X57889620Y-125501725D02*
X57842001Y-125454106D01*
X57794381Y-125358868D01*
X57794381Y-125120772D01*
X57842001Y-125025534D01*
X57889620Y-124977915D01*
X57984858Y-124930296D01*
X58080096Y-124930296D01*
X58222953Y-124977915D01*
X58794381Y-125549344D01*
X58794381Y-124930296D01*
%TO.C,J11*%
X67280096Y-130010391D02*
X67280096Y-129010391D01*
X67661048Y-129010391D01*
X67756286Y-129058011D01*
X67803905Y-129105630D01*
X67851524Y-129200868D01*
X67851524Y-129343725D01*
X67803905Y-129438963D01*
X67756286Y-129486582D01*
X67661048Y-129534201D01*
X67280096Y-129534201D01*
X68232477Y-129962772D02*
X68375334Y-130010391D01*
X68613429Y-130010391D01*
X68708667Y-129962772D01*
X68756286Y-129915153D01*
X68803905Y-129819915D01*
X68803905Y-129724677D01*
X68756286Y-129629439D01*
X68708667Y-129581820D01*
X68613429Y-129534201D01*
X68422953Y-129486582D01*
X68327715Y-129438963D01*
X68280096Y-129391344D01*
X68232477Y-129296106D01*
X68232477Y-129200868D01*
X68280096Y-129105630D01*
X68327715Y-129058011D01*
X68422953Y-129010391D01*
X68661048Y-129010391D01*
X68803905Y-129058011D01*
X69232477Y-129010391D02*
X69232477Y-129819915D01*
X69280096Y-129915153D01*
X69327715Y-129962772D01*
X69422953Y-130010391D01*
X69613429Y-130010391D01*
X69708667Y-129962772D01*
X69756286Y-129915153D01*
X69803905Y-129819915D01*
X69803905Y-129010391D01*
%TO.C,D3*%
X106836910Y-107602386D02*
X106836910Y-106602386D01*
X107075006Y-106602386D01*
X107217863Y-106650006D01*
X107313101Y-106745244D01*
X107360720Y-106840482D01*
X107408339Y-107030958D01*
X107408339Y-107173815D01*
X107360720Y-107364291D01*
X107313101Y-107459529D01*
X107217863Y-107554767D01*
X107075006Y-107602386D01*
X106836910Y-107602386D01*
X107741672Y-106602386D02*
X108360720Y-106602386D01*
X108027386Y-106983339D01*
X108170244Y-106983339D01*
X108265482Y-107030958D01*
X108313101Y-107078577D01*
X108360720Y-107173815D01*
X108360720Y-107411910D01*
X108313101Y-107507148D01*
X108265482Y-107554767D01*
X108170244Y-107602386D01*
X107884529Y-107602386D01*
X107789291Y-107554767D01*
X107741672Y-107507148D01*
X106836910Y-105852386D02*
X106836910Y-104852386D01*
X107075006Y-104852386D01*
X107217863Y-104900006D01*
X107313101Y-104995244D01*
X107360720Y-105090482D01*
X107408339Y-105280958D01*
X107408339Y-105423815D01*
X107360720Y-105614291D01*
X107313101Y-105709529D01*
X107217863Y-105804767D01*
X107075006Y-105852386D01*
X106836910Y-105852386D01*
X107741672Y-104852386D02*
X108360720Y-104852386D01*
X108027386Y-105233339D01*
X108170244Y-105233339D01*
X108265482Y-105280958D01*
X108313101Y-105328577D01*
X108360720Y-105423815D01*
X108360720Y-105661910D01*
X108313101Y-105757148D01*
X108265482Y-105804767D01*
X108170244Y-105852386D01*
X107884529Y-105852386D01*
X107789291Y-105804767D01*
X107741672Y-105757148D01*
%TO.C,D1*%
X107046910Y-101407386D02*
X107046910Y-100407386D01*
X107285006Y-100407386D01*
X107427863Y-100455006D01*
X107523101Y-100550244D01*
X107570720Y-100645482D01*
X107618339Y-100835958D01*
X107618339Y-100978815D01*
X107570720Y-101169291D01*
X107523101Y-101264529D01*
X107427863Y-101359767D01*
X107285006Y-101407386D01*
X107046910Y-101407386D01*
X108570720Y-101407386D02*
X107999291Y-101407386D01*
X108285006Y-101407386D02*
X108285006Y-100407386D01*
X108189767Y-100550244D01*
X108094529Y-100645482D01*
X107999291Y-100693101D01*
%TO.C,U2*%
X112190386Y-86603910D02*
X112999910Y-86603910D01*
X113095148Y-86556291D01*
X113142767Y-86508672D01*
X113190386Y-86413434D01*
X113190386Y-86222958D01*
X113142767Y-86127720D01*
X113095148Y-86080101D01*
X112999910Y-86032482D01*
X112190386Y-86032482D01*
X112285625Y-85603910D02*
X112238006Y-85556291D01*
X112190386Y-85461053D01*
X112190386Y-85222958D01*
X112238006Y-85127720D01*
X112285625Y-85080101D01*
X112380863Y-85032482D01*
X112476101Y-85032482D01*
X112618958Y-85080101D01*
X113190386Y-85651529D01*
X113190386Y-85032482D01*
%TO.C,U1*%
X103808386Y-86603910D02*
X104617910Y-86603910D01*
X104713148Y-86556291D01*
X104760767Y-86508672D01*
X104808386Y-86413434D01*
X104808386Y-86222958D01*
X104760767Y-86127720D01*
X104713148Y-86080101D01*
X104617910Y-86032482D01*
X103808386Y-86032482D01*
X104808386Y-85032482D02*
X104808386Y-85603910D01*
X104808386Y-85318196D02*
X103808386Y-85318196D01*
X103951244Y-85413434D01*
X104046482Y-85508672D01*
X104094101Y-85603910D01*
%TO.C,J4*%
X100569910Y-108844672D02*
X101046101Y-108844672D01*
X100474672Y-109130386D02*
X100808006Y-108130386D01*
X101141339Y-109130386D01*
X101808006Y-108606577D02*
X101950863Y-108654196D01*
X101998482Y-108701815D01*
X102046101Y-108797053D01*
X102046101Y-108939910D01*
X101998482Y-109035148D01*
X101950863Y-109082767D01*
X101855625Y-109130386D01*
X101474672Y-109130386D01*
X101474672Y-108130386D01*
X101808006Y-108130386D01*
X101903244Y-108178006D01*
X101950863Y-108225625D01*
X101998482Y-108320863D01*
X101998482Y-108416101D01*
X101950863Y-108511339D01*
X101903244Y-108558958D01*
X101808006Y-108606577D01*
X101474672Y-108606577D01*
%TO.C,J3*%
X116452863Y-101994767D02*
X116595720Y-102042386D01*
X116833815Y-102042386D01*
X116929053Y-101994767D01*
X116976672Y-101947148D01*
X117024291Y-101851910D01*
X117024291Y-101756672D01*
X116976672Y-101661434D01*
X116929053Y-101613815D01*
X116833815Y-101566196D01*
X116643339Y-101518577D01*
X116548101Y-101470958D01*
X116500482Y-101423339D01*
X116452863Y-101328101D01*
X116452863Y-101232863D01*
X116500482Y-101137625D01*
X116548101Y-101090006D01*
X116643339Y-101042386D01*
X116881434Y-101042386D01*
X117024291Y-101090006D01*
X117357625Y-101042386D02*
X117595720Y-102042386D01*
X117786196Y-101328101D01*
X117976672Y-102042386D01*
X118214767Y-101042386D01*
%TO.C,D5*%
X118484386Y-96454101D02*
X117484386Y-96454101D01*
X117484386Y-96216006D01*
X117532006Y-96073148D01*
X117627244Y-95977910D01*
X117722482Y-95930291D01*
X117912958Y-95882672D01*
X118055815Y-95882672D01*
X118246291Y-95930291D01*
X118341529Y-95977910D01*
X118436767Y-96073148D01*
X118484386Y-96216006D01*
X118484386Y-96454101D01*
X117484386Y-94977910D02*
X117484386Y-95454101D01*
X117960577Y-95501720D01*
X117912958Y-95454101D01*
X117865339Y-95358863D01*
X117865339Y-95120767D01*
X117912958Y-95025529D01*
X117960577Y-94977910D01*
X118055815Y-94930291D01*
X118293910Y-94930291D01*
X118389148Y-94977910D01*
X118436767Y-95025529D01*
X118484386Y-95120767D01*
X118484386Y-95358863D01*
X118436767Y-95454101D01*
X118389148Y-95501720D01*
%TO.C,D4*%
X113404386Y-96486101D02*
X112404386Y-96486101D01*
X112404386Y-96248006D01*
X112452006Y-96105148D01*
X112547244Y-96009910D01*
X112642482Y-95962291D01*
X112832958Y-95914672D01*
X112975815Y-95914672D01*
X113166291Y-95962291D01*
X113261529Y-96009910D01*
X113356767Y-96105148D01*
X113404386Y-96248006D01*
X113404386Y-96486101D01*
X112737720Y-95057529D02*
X113404386Y-95057529D01*
X112356767Y-95295625D02*
X113071053Y-95533720D01*
X113071053Y-94914672D01*
%TO.C,D2*%
X108324386Y-96454101D02*
X107324386Y-96454101D01*
X107324386Y-96216006D01*
X107372006Y-96073148D01*
X107467244Y-95977910D01*
X107562482Y-95930291D01*
X107752958Y-95882672D01*
X107895815Y-95882672D01*
X108086291Y-95930291D01*
X108181529Y-95977910D01*
X108276767Y-96073148D01*
X108324386Y-96216006D01*
X108324386Y-96454101D01*
X107419625Y-95501720D02*
X107372006Y-95454101D01*
X107324386Y-95358863D01*
X107324386Y-95120767D01*
X107372006Y-95025529D01*
X107419625Y-94977910D01*
X107514863Y-94930291D01*
X107610101Y-94930291D01*
X107752958Y-94977910D01*
X108324386Y-95549339D01*
X108324386Y-94930291D01*
%TO.C,J11*%
X116810101Y-100010386D02*
X116810101Y-99010386D01*
X117191053Y-99010386D01*
X117286291Y-99058006D01*
X117333910Y-99105625D01*
X117381529Y-99200863D01*
X117381529Y-99343720D01*
X117333910Y-99438958D01*
X117286291Y-99486577D01*
X117191053Y-99534196D01*
X116810101Y-99534196D01*
X117762482Y-99962767D02*
X117905339Y-100010386D01*
X118143434Y-100010386D01*
X118238672Y-99962767D01*
X118286291Y-99915148D01*
X118333910Y-99819910D01*
X118333910Y-99724672D01*
X118286291Y-99629434D01*
X118238672Y-99581815D01*
X118143434Y-99534196D01*
X117952958Y-99486577D01*
X117857720Y-99438958D01*
X117810101Y-99391339D01*
X117762482Y-99296101D01*
X117762482Y-99200863D01*
X117810101Y-99105625D01*
X117857720Y-99058006D01*
X117952958Y-99010386D01*
X118191053Y-99010386D01*
X118333910Y-99058006D01*
X118762482Y-99010386D02*
X118762482Y-99819910D01*
X118810101Y-99915148D01*
X118857720Y-99962767D01*
X118952958Y-100010386D01*
X119143434Y-100010386D01*
X119238672Y-99962767D01*
X119286291Y-99915148D01*
X119333910Y-99819910D01*
X119333910Y-99010386D01*
%TO.C,D3*%
X57306905Y-107602386D02*
X57306905Y-106602386D01*
X57545001Y-106602386D01*
X57687858Y-106650006D01*
X57783096Y-106745244D01*
X57830715Y-106840482D01*
X57878334Y-107030958D01*
X57878334Y-107173815D01*
X57830715Y-107364291D01*
X57783096Y-107459529D01*
X57687858Y-107554767D01*
X57545001Y-107602386D01*
X57306905Y-107602386D01*
X58211667Y-106602386D02*
X58830715Y-106602386D01*
X58497381Y-106983339D01*
X58640239Y-106983339D01*
X58735477Y-107030958D01*
X58783096Y-107078577D01*
X58830715Y-107173815D01*
X58830715Y-107411910D01*
X58783096Y-107507148D01*
X58735477Y-107554767D01*
X58640239Y-107602386D01*
X58354524Y-107602386D01*
X58259286Y-107554767D01*
X58211667Y-107507148D01*
X57306905Y-105852386D02*
X57306905Y-104852386D01*
X57545001Y-104852386D01*
X57687858Y-104900006D01*
X57783096Y-104995244D01*
X57830715Y-105090482D01*
X57878334Y-105280958D01*
X57878334Y-105423815D01*
X57830715Y-105614291D01*
X57783096Y-105709529D01*
X57687858Y-105804767D01*
X57545001Y-105852386D01*
X57306905Y-105852386D01*
X58211667Y-104852386D02*
X58830715Y-104852386D01*
X58497381Y-105233339D01*
X58640239Y-105233339D01*
X58735477Y-105280958D01*
X58783096Y-105328577D01*
X58830715Y-105423815D01*
X58830715Y-105661910D01*
X58783096Y-105757148D01*
X58735477Y-105804767D01*
X58640239Y-105852386D01*
X58354524Y-105852386D01*
X58259286Y-105804767D01*
X58211667Y-105757148D01*
%TO.C,D1*%
X57516905Y-101407386D02*
X57516905Y-100407386D01*
X57755001Y-100407386D01*
X57897858Y-100455006D01*
X57993096Y-100550244D01*
X58040715Y-100645482D01*
X58088334Y-100835958D01*
X58088334Y-100978815D01*
X58040715Y-101169291D01*
X57993096Y-101264529D01*
X57897858Y-101359767D01*
X57755001Y-101407386D01*
X57516905Y-101407386D01*
X59040715Y-101407386D02*
X58469286Y-101407386D01*
X58755001Y-101407386D02*
X58755001Y-100407386D01*
X58659762Y-100550244D01*
X58564524Y-100645482D01*
X58469286Y-100693101D01*
%TO.C,U2*%
X62660381Y-86603910D02*
X63469905Y-86603910D01*
X63565143Y-86556291D01*
X63612762Y-86508672D01*
X63660381Y-86413434D01*
X63660381Y-86222958D01*
X63612762Y-86127720D01*
X63565143Y-86080101D01*
X63469905Y-86032482D01*
X62660381Y-86032482D01*
X62755620Y-85603910D02*
X62708001Y-85556291D01*
X62660381Y-85461053D01*
X62660381Y-85222958D01*
X62708001Y-85127720D01*
X62755620Y-85080101D01*
X62850858Y-85032482D01*
X62946096Y-85032482D01*
X63088953Y-85080101D01*
X63660381Y-85651529D01*
X63660381Y-85032482D01*
%TO.C,U1*%
X54278381Y-86603910D02*
X55087905Y-86603910D01*
X55183143Y-86556291D01*
X55230762Y-86508672D01*
X55278381Y-86413434D01*
X55278381Y-86222958D01*
X55230762Y-86127720D01*
X55183143Y-86080101D01*
X55087905Y-86032482D01*
X54278381Y-86032482D01*
X55278381Y-85032482D02*
X55278381Y-85603910D01*
X55278381Y-85318196D02*
X54278381Y-85318196D01*
X54421239Y-85413434D01*
X54516477Y-85508672D01*
X54564096Y-85603910D01*
%TO.C,J4*%
X51039905Y-108844672D02*
X51516096Y-108844672D01*
X50944667Y-109130386D02*
X51278001Y-108130386D01*
X51611334Y-109130386D01*
X52278001Y-108606577D02*
X52420858Y-108654196D01*
X52468477Y-108701815D01*
X52516096Y-108797053D01*
X52516096Y-108939910D01*
X52468477Y-109035148D01*
X52420858Y-109082767D01*
X52325620Y-109130386D01*
X51944667Y-109130386D01*
X51944667Y-108130386D01*
X52278001Y-108130386D01*
X52373239Y-108178006D01*
X52420858Y-108225625D01*
X52468477Y-108320863D01*
X52468477Y-108416101D01*
X52420858Y-108511339D01*
X52373239Y-108558958D01*
X52278001Y-108606577D01*
X51944667Y-108606577D01*
%TO.C,J3*%
X66922858Y-101994767D02*
X67065715Y-102042386D01*
X67303810Y-102042386D01*
X67399048Y-101994767D01*
X67446667Y-101947148D01*
X67494286Y-101851910D01*
X67494286Y-101756672D01*
X67446667Y-101661434D01*
X67399048Y-101613815D01*
X67303810Y-101566196D01*
X67113334Y-101518577D01*
X67018096Y-101470958D01*
X66970477Y-101423339D01*
X66922858Y-101328101D01*
X66922858Y-101232863D01*
X66970477Y-101137625D01*
X67018096Y-101090006D01*
X67113334Y-101042386D01*
X67351429Y-101042386D01*
X67494286Y-101090006D01*
X67827620Y-101042386D02*
X68065715Y-102042386D01*
X68256191Y-101328101D01*
X68446667Y-102042386D01*
X68684762Y-101042386D01*
%TO.C,D5*%
X68954381Y-96454101D02*
X67954381Y-96454101D01*
X67954381Y-96216006D01*
X68002001Y-96073148D01*
X68097239Y-95977910D01*
X68192477Y-95930291D01*
X68382953Y-95882672D01*
X68525810Y-95882672D01*
X68716286Y-95930291D01*
X68811524Y-95977910D01*
X68906762Y-96073148D01*
X68954381Y-96216006D01*
X68954381Y-96454101D01*
X67954381Y-94977910D02*
X67954381Y-95454101D01*
X68430572Y-95501720D01*
X68382953Y-95454101D01*
X68335334Y-95358863D01*
X68335334Y-95120767D01*
X68382953Y-95025529D01*
X68430572Y-94977910D01*
X68525810Y-94930291D01*
X68763905Y-94930291D01*
X68859143Y-94977910D01*
X68906762Y-95025529D01*
X68954381Y-95120767D01*
X68954381Y-95358863D01*
X68906762Y-95454101D01*
X68859143Y-95501720D01*
%TO.C,D4*%
X63874381Y-96486101D02*
X62874381Y-96486101D01*
X62874381Y-96248006D01*
X62922001Y-96105148D01*
X63017239Y-96009910D01*
X63112477Y-95962291D01*
X63302953Y-95914672D01*
X63445810Y-95914672D01*
X63636286Y-95962291D01*
X63731524Y-96009910D01*
X63826762Y-96105148D01*
X63874381Y-96248006D01*
X63874381Y-96486101D01*
X63207715Y-95057529D02*
X63874381Y-95057529D01*
X62826762Y-95295625D02*
X63541048Y-95533720D01*
X63541048Y-94914672D01*
%TO.C,D2*%
X58794381Y-96454101D02*
X57794381Y-96454101D01*
X57794381Y-96216006D01*
X57842001Y-96073148D01*
X57937239Y-95977910D01*
X58032477Y-95930291D01*
X58222953Y-95882672D01*
X58365810Y-95882672D01*
X58556286Y-95930291D01*
X58651524Y-95977910D01*
X58746762Y-96073148D01*
X58794381Y-96216006D01*
X58794381Y-96454101D01*
X57889620Y-95501720D02*
X57842001Y-95454101D01*
X57794381Y-95358863D01*
X57794381Y-95120767D01*
X57842001Y-95025529D01*
X57889620Y-94977910D01*
X57984858Y-94930291D01*
X58080096Y-94930291D01*
X58222953Y-94977910D01*
X58794381Y-95549339D01*
X58794381Y-94930291D01*
%TO.C,J11*%
X67280096Y-100010386D02*
X67280096Y-99010386D01*
X67661048Y-99010386D01*
X67756286Y-99058006D01*
X67803905Y-99105625D01*
X67851524Y-99200863D01*
X67851524Y-99343720D01*
X67803905Y-99438958D01*
X67756286Y-99486577D01*
X67661048Y-99534196D01*
X67280096Y-99534196D01*
X68232477Y-99962767D02*
X68375334Y-100010386D01*
X68613429Y-100010386D01*
X68708667Y-99962767D01*
X68756286Y-99915148D01*
X68803905Y-99819910D01*
X68803905Y-99724672D01*
X68756286Y-99629434D01*
X68708667Y-99581815D01*
X68613429Y-99534196D01*
X68422953Y-99486577D01*
X68327715Y-99438958D01*
X68280096Y-99391339D01*
X68232477Y-99296101D01*
X68232477Y-99200863D01*
X68280096Y-99105625D01*
X68327715Y-99058006D01*
X68422953Y-99010386D01*
X68661048Y-99010386D01*
X68803905Y-99058006D01*
X69232477Y-99010386D02*
X69232477Y-99819910D01*
X69280096Y-99915148D01*
X69327715Y-99962767D01*
X69422953Y-100010386D01*
X69613429Y-100010386D01*
X69708667Y-99962767D01*
X69756286Y-99915148D01*
X69803905Y-99819910D01*
X69803905Y-99010386D01*
%TO.C,D3*%
X106836910Y-77602381D02*
X106836910Y-76602381D01*
X107075006Y-76602381D01*
X107217863Y-76650001D01*
X107313101Y-76745239D01*
X107360720Y-76840477D01*
X107408339Y-77030953D01*
X107408339Y-77173810D01*
X107360720Y-77364286D01*
X107313101Y-77459524D01*
X107217863Y-77554762D01*
X107075006Y-77602381D01*
X106836910Y-77602381D01*
X107741672Y-76602381D02*
X108360720Y-76602381D01*
X108027386Y-76983334D01*
X108170244Y-76983334D01*
X108265482Y-77030953D01*
X108313101Y-77078572D01*
X108360720Y-77173810D01*
X108360720Y-77411905D01*
X108313101Y-77507143D01*
X108265482Y-77554762D01*
X108170244Y-77602381D01*
X107884529Y-77602381D01*
X107789291Y-77554762D01*
X107741672Y-77507143D01*
X106836910Y-75852381D02*
X106836910Y-74852381D01*
X107075006Y-74852381D01*
X107217863Y-74900001D01*
X107313101Y-74995239D01*
X107360720Y-75090477D01*
X107408339Y-75280953D01*
X107408339Y-75423810D01*
X107360720Y-75614286D01*
X107313101Y-75709524D01*
X107217863Y-75804762D01*
X107075006Y-75852381D01*
X106836910Y-75852381D01*
X107741672Y-74852381D02*
X108360720Y-74852381D01*
X108027386Y-75233334D01*
X108170244Y-75233334D01*
X108265482Y-75280953D01*
X108313101Y-75328572D01*
X108360720Y-75423810D01*
X108360720Y-75661905D01*
X108313101Y-75757143D01*
X108265482Y-75804762D01*
X108170244Y-75852381D01*
X107884529Y-75852381D01*
X107789291Y-75804762D01*
X107741672Y-75757143D01*
%TO.C,D1*%
X107046910Y-71407381D02*
X107046910Y-70407381D01*
X107285006Y-70407381D01*
X107427863Y-70455001D01*
X107523101Y-70550239D01*
X107570720Y-70645477D01*
X107618339Y-70835953D01*
X107618339Y-70978810D01*
X107570720Y-71169286D01*
X107523101Y-71264524D01*
X107427863Y-71359762D01*
X107285006Y-71407381D01*
X107046910Y-71407381D01*
X108570720Y-71407381D02*
X107999291Y-71407381D01*
X108285006Y-71407381D02*
X108285006Y-70407381D01*
X108189767Y-70550239D01*
X108094529Y-70645477D01*
X107999291Y-70693096D01*
%TO.C,U2*%
X112190386Y-56603905D02*
X112999910Y-56603905D01*
X113095148Y-56556286D01*
X113142767Y-56508667D01*
X113190386Y-56413429D01*
X113190386Y-56222953D01*
X113142767Y-56127715D01*
X113095148Y-56080096D01*
X112999910Y-56032477D01*
X112190386Y-56032477D01*
X112285625Y-55603905D02*
X112238006Y-55556286D01*
X112190386Y-55461048D01*
X112190386Y-55222953D01*
X112238006Y-55127715D01*
X112285625Y-55080096D01*
X112380863Y-55032477D01*
X112476101Y-55032477D01*
X112618958Y-55080096D01*
X113190386Y-55651524D01*
X113190386Y-55032477D01*
%TO.C,U1*%
X103808386Y-56603905D02*
X104617910Y-56603905D01*
X104713148Y-56556286D01*
X104760767Y-56508667D01*
X104808386Y-56413429D01*
X104808386Y-56222953D01*
X104760767Y-56127715D01*
X104713148Y-56080096D01*
X104617910Y-56032477D01*
X103808386Y-56032477D01*
X104808386Y-55032477D02*
X104808386Y-55603905D01*
X104808386Y-55318191D02*
X103808386Y-55318191D01*
X103951244Y-55413429D01*
X104046482Y-55508667D01*
X104094101Y-55603905D01*
%TO.C,J4*%
X100569910Y-78844667D02*
X101046101Y-78844667D01*
X100474672Y-79130381D02*
X100808006Y-78130381D01*
X101141339Y-79130381D01*
X101808006Y-78606572D02*
X101950863Y-78654191D01*
X101998482Y-78701810D01*
X102046101Y-78797048D01*
X102046101Y-78939905D01*
X101998482Y-79035143D01*
X101950863Y-79082762D01*
X101855625Y-79130381D01*
X101474672Y-79130381D01*
X101474672Y-78130381D01*
X101808006Y-78130381D01*
X101903244Y-78178001D01*
X101950863Y-78225620D01*
X101998482Y-78320858D01*
X101998482Y-78416096D01*
X101950863Y-78511334D01*
X101903244Y-78558953D01*
X101808006Y-78606572D01*
X101474672Y-78606572D01*
%TO.C,J3*%
X116452863Y-71994762D02*
X116595720Y-72042381D01*
X116833815Y-72042381D01*
X116929053Y-71994762D01*
X116976672Y-71947143D01*
X117024291Y-71851905D01*
X117024291Y-71756667D01*
X116976672Y-71661429D01*
X116929053Y-71613810D01*
X116833815Y-71566191D01*
X116643339Y-71518572D01*
X116548101Y-71470953D01*
X116500482Y-71423334D01*
X116452863Y-71328096D01*
X116452863Y-71232858D01*
X116500482Y-71137620D01*
X116548101Y-71090001D01*
X116643339Y-71042381D01*
X116881434Y-71042381D01*
X117024291Y-71090001D01*
X117357625Y-71042381D02*
X117595720Y-72042381D01*
X117786196Y-71328096D01*
X117976672Y-72042381D01*
X118214767Y-71042381D01*
%TO.C,D5*%
X118484386Y-66454096D02*
X117484386Y-66454096D01*
X117484386Y-66216001D01*
X117532006Y-66073143D01*
X117627244Y-65977905D01*
X117722482Y-65930286D01*
X117912958Y-65882667D01*
X118055815Y-65882667D01*
X118246291Y-65930286D01*
X118341529Y-65977905D01*
X118436767Y-66073143D01*
X118484386Y-66216001D01*
X118484386Y-66454096D01*
X117484386Y-64977905D02*
X117484386Y-65454096D01*
X117960577Y-65501715D01*
X117912958Y-65454096D01*
X117865339Y-65358858D01*
X117865339Y-65120762D01*
X117912958Y-65025524D01*
X117960577Y-64977905D01*
X118055815Y-64930286D01*
X118293910Y-64930286D01*
X118389148Y-64977905D01*
X118436767Y-65025524D01*
X118484386Y-65120762D01*
X118484386Y-65358858D01*
X118436767Y-65454096D01*
X118389148Y-65501715D01*
%TO.C,D4*%
X113404386Y-66486096D02*
X112404386Y-66486096D01*
X112404386Y-66248001D01*
X112452006Y-66105143D01*
X112547244Y-66009905D01*
X112642482Y-65962286D01*
X112832958Y-65914667D01*
X112975815Y-65914667D01*
X113166291Y-65962286D01*
X113261529Y-66009905D01*
X113356767Y-66105143D01*
X113404386Y-66248001D01*
X113404386Y-66486096D01*
X112737720Y-65057524D02*
X113404386Y-65057524D01*
X112356767Y-65295620D02*
X113071053Y-65533715D01*
X113071053Y-64914667D01*
%TO.C,D2*%
X108324386Y-66454096D02*
X107324386Y-66454096D01*
X107324386Y-66216001D01*
X107372006Y-66073143D01*
X107467244Y-65977905D01*
X107562482Y-65930286D01*
X107752958Y-65882667D01*
X107895815Y-65882667D01*
X108086291Y-65930286D01*
X108181529Y-65977905D01*
X108276767Y-66073143D01*
X108324386Y-66216001D01*
X108324386Y-66454096D01*
X107419625Y-65501715D02*
X107372006Y-65454096D01*
X107324386Y-65358858D01*
X107324386Y-65120762D01*
X107372006Y-65025524D01*
X107419625Y-64977905D01*
X107514863Y-64930286D01*
X107610101Y-64930286D01*
X107752958Y-64977905D01*
X108324386Y-65549334D01*
X108324386Y-64930286D01*
%TO.C,J11*%
X116810101Y-70010381D02*
X116810101Y-69010381D01*
X117191053Y-69010381D01*
X117286291Y-69058001D01*
X117333910Y-69105620D01*
X117381529Y-69200858D01*
X117381529Y-69343715D01*
X117333910Y-69438953D01*
X117286291Y-69486572D01*
X117191053Y-69534191D01*
X116810101Y-69534191D01*
X117762482Y-69962762D02*
X117905339Y-70010381D01*
X118143434Y-70010381D01*
X118238672Y-69962762D01*
X118286291Y-69915143D01*
X118333910Y-69819905D01*
X118333910Y-69724667D01*
X118286291Y-69629429D01*
X118238672Y-69581810D01*
X118143434Y-69534191D01*
X117952958Y-69486572D01*
X117857720Y-69438953D01*
X117810101Y-69391334D01*
X117762482Y-69296096D01*
X117762482Y-69200858D01*
X117810101Y-69105620D01*
X117857720Y-69058001D01*
X117952958Y-69010381D01*
X118191053Y-69010381D01*
X118333910Y-69058001D01*
X118762482Y-69010381D02*
X118762482Y-69819905D01*
X118810101Y-69915143D01*
X118857720Y-69962762D01*
X118952958Y-70010381D01*
X119143434Y-70010381D01*
X119238672Y-69962762D01*
X119286291Y-69915143D01*
X119333910Y-69819905D01*
X119333910Y-69010381D01*
%TO.C,D3*%
X57306905Y-77602381D02*
X57306905Y-76602381D01*
X57545001Y-76602381D01*
X57687858Y-76650001D01*
X57783096Y-76745239D01*
X57830715Y-76840477D01*
X57878334Y-77030953D01*
X57878334Y-77173810D01*
X57830715Y-77364286D01*
X57783096Y-77459524D01*
X57687858Y-77554762D01*
X57545001Y-77602381D01*
X57306905Y-77602381D01*
X58211667Y-76602381D02*
X58830715Y-76602381D01*
X58497381Y-76983334D01*
X58640239Y-76983334D01*
X58735477Y-77030953D01*
X58783096Y-77078572D01*
X58830715Y-77173810D01*
X58830715Y-77411905D01*
X58783096Y-77507143D01*
X58735477Y-77554762D01*
X58640239Y-77602381D01*
X58354524Y-77602381D01*
X58259286Y-77554762D01*
X58211667Y-77507143D01*
X57306905Y-75852381D02*
X57306905Y-74852381D01*
X57545001Y-74852381D01*
X57687858Y-74900001D01*
X57783096Y-74995239D01*
X57830715Y-75090477D01*
X57878334Y-75280953D01*
X57878334Y-75423810D01*
X57830715Y-75614286D01*
X57783096Y-75709524D01*
X57687858Y-75804762D01*
X57545001Y-75852381D01*
X57306905Y-75852381D01*
X58211667Y-74852381D02*
X58830715Y-74852381D01*
X58497381Y-75233334D01*
X58640239Y-75233334D01*
X58735477Y-75280953D01*
X58783096Y-75328572D01*
X58830715Y-75423810D01*
X58830715Y-75661905D01*
X58783096Y-75757143D01*
X58735477Y-75804762D01*
X58640239Y-75852381D01*
X58354524Y-75852381D01*
X58259286Y-75804762D01*
X58211667Y-75757143D01*
%TO.C,D1*%
X57516905Y-71407381D02*
X57516905Y-70407381D01*
X57755001Y-70407381D01*
X57897858Y-70455001D01*
X57993096Y-70550239D01*
X58040715Y-70645477D01*
X58088334Y-70835953D01*
X58088334Y-70978810D01*
X58040715Y-71169286D01*
X57993096Y-71264524D01*
X57897858Y-71359762D01*
X57755001Y-71407381D01*
X57516905Y-71407381D01*
X59040715Y-71407381D02*
X58469286Y-71407381D01*
X58755001Y-71407381D02*
X58755001Y-70407381D01*
X58659762Y-70550239D01*
X58564524Y-70645477D01*
X58469286Y-70693096D01*
%TO.C,U2*%
X62660381Y-56603905D02*
X63469905Y-56603905D01*
X63565143Y-56556286D01*
X63612762Y-56508667D01*
X63660381Y-56413429D01*
X63660381Y-56222953D01*
X63612762Y-56127715D01*
X63565143Y-56080096D01*
X63469905Y-56032477D01*
X62660381Y-56032477D01*
X62755620Y-55603905D02*
X62708001Y-55556286D01*
X62660381Y-55461048D01*
X62660381Y-55222953D01*
X62708001Y-55127715D01*
X62755620Y-55080096D01*
X62850858Y-55032477D01*
X62946096Y-55032477D01*
X63088953Y-55080096D01*
X63660381Y-55651524D01*
X63660381Y-55032477D01*
%TO.C,U1*%
X54278381Y-56603905D02*
X55087905Y-56603905D01*
X55183143Y-56556286D01*
X55230762Y-56508667D01*
X55278381Y-56413429D01*
X55278381Y-56222953D01*
X55230762Y-56127715D01*
X55183143Y-56080096D01*
X55087905Y-56032477D01*
X54278381Y-56032477D01*
X55278381Y-55032477D02*
X55278381Y-55603905D01*
X55278381Y-55318191D02*
X54278381Y-55318191D01*
X54421239Y-55413429D01*
X54516477Y-55508667D01*
X54564096Y-55603905D01*
%TO.C,J4*%
X51039905Y-78844667D02*
X51516096Y-78844667D01*
X50944667Y-79130381D02*
X51278001Y-78130381D01*
X51611334Y-79130381D01*
X52278001Y-78606572D02*
X52420858Y-78654191D01*
X52468477Y-78701810D01*
X52516096Y-78797048D01*
X52516096Y-78939905D01*
X52468477Y-79035143D01*
X52420858Y-79082762D01*
X52325620Y-79130381D01*
X51944667Y-79130381D01*
X51944667Y-78130381D01*
X52278001Y-78130381D01*
X52373239Y-78178001D01*
X52420858Y-78225620D01*
X52468477Y-78320858D01*
X52468477Y-78416096D01*
X52420858Y-78511334D01*
X52373239Y-78558953D01*
X52278001Y-78606572D01*
X51944667Y-78606572D01*
%TO.C,J3*%
X66922858Y-71994762D02*
X67065715Y-72042381D01*
X67303810Y-72042381D01*
X67399048Y-71994762D01*
X67446667Y-71947143D01*
X67494286Y-71851905D01*
X67494286Y-71756667D01*
X67446667Y-71661429D01*
X67399048Y-71613810D01*
X67303810Y-71566191D01*
X67113334Y-71518572D01*
X67018096Y-71470953D01*
X66970477Y-71423334D01*
X66922858Y-71328096D01*
X66922858Y-71232858D01*
X66970477Y-71137620D01*
X67018096Y-71090001D01*
X67113334Y-71042381D01*
X67351429Y-71042381D01*
X67494286Y-71090001D01*
X67827620Y-71042381D02*
X68065715Y-72042381D01*
X68256191Y-71328096D01*
X68446667Y-72042381D01*
X68684762Y-71042381D01*
%TO.C,D5*%
X68954381Y-66454096D02*
X67954381Y-66454096D01*
X67954381Y-66216001D01*
X68002001Y-66073143D01*
X68097239Y-65977905D01*
X68192477Y-65930286D01*
X68382953Y-65882667D01*
X68525810Y-65882667D01*
X68716286Y-65930286D01*
X68811524Y-65977905D01*
X68906762Y-66073143D01*
X68954381Y-66216001D01*
X68954381Y-66454096D01*
X67954381Y-64977905D02*
X67954381Y-65454096D01*
X68430572Y-65501715D01*
X68382953Y-65454096D01*
X68335334Y-65358858D01*
X68335334Y-65120762D01*
X68382953Y-65025524D01*
X68430572Y-64977905D01*
X68525810Y-64930286D01*
X68763905Y-64930286D01*
X68859143Y-64977905D01*
X68906762Y-65025524D01*
X68954381Y-65120762D01*
X68954381Y-65358858D01*
X68906762Y-65454096D01*
X68859143Y-65501715D01*
%TO.C,D4*%
X63874381Y-66486096D02*
X62874381Y-66486096D01*
X62874381Y-66248001D01*
X62922001Y-66105143D01*
X63017239Y-66009905D01*
X63112477Y-65962286D01*
X63302953Y-65914667D01*
X63445810Y-65914667D01*
X63636286Y-65962286D01*
X63731524Y-66009905D01*
X63826762Y-66105143D01*
X63874381Y-66248001D01*
X63874381Y-66486096D01*
X63207715Y-65057524D02*
X63874381Y-65057524D01*
X62826762Y-65295620D02*
X63541048Y-65533715D01*
X63541048Y-64914667D01*
%TO.C,D2*%
X58794381Y-66454096D02*
X57794381Y-66454096D01*
X57794381Y-66216001D01*
X57842001Y-66073143D01*
X57937239Y-65977905D01*
X58032477Y-65930286D01*
X58222953Y-65882667D01*
X58365810Y-65882667D01*
X58556286Y-65930286D01*
X58651524Y-65977905D01*
X58746762Y-66073143D01*
X58794381Y-66216001D01*
X58794381Y-66454096D01*
X57889620Y-65501715D02*
X57842001Y-65454096D01*
X57794381Y-65358858D01*
X57794381Y-65120762D01*
X57842001Y-65025524D01*
X57889620Y-64977905D01*
X57984858Y-64930286D01*
X58080096Y-64930286D01*
X58222953Y-64977905D01*
X58794381Y-65549334D01*
X58794381Y-64930286D01*
%TO.C,J11*%
X67280096Y-70010381D02*
X67280096Y-69010381D01*
X67661048Y-69010381D01*
X67756286Y-69058001D01*
X67803905Y-69105620D01*
X67851524Y-69200858D01*
X67851524Y-69343715D01*
X67803905Y-69438953D01*
X67756286Y-69486572D01*
X67661048Y-69534191D01*
X67280096Y-69534191D01*
X68232477Y-69962762D02*
X68375334Y-70010381D01*
X68613429Y-70010381D01*
X68708667Y-69962762D01*
X68756286Y-69915143D01*
X68803905Y-69819905D01*
X68803905Y-69724667D01*
X68756286Y-69629429D01*
X68708667Y-69581810D01*
X68613429Y-69534191D01*
X68422953Y-69486572D01*
X68327715Y-69438953D01*
X68280096Y-69391334D01*
X68232477Y-69296096D01*
X68232477Y-69200858D01*
X68280096Y-69105620D01*
X68327715Y-69058001D01*
X68422953Y-69010381D01*
X68661048Y-69010381D01*
X68803905Y-69058001D01*
X69232477Y-69010381D02*
X69232477Y-69819905D01*
X69280096Y-69915143D01*
X69327715Y-69962762D01*
X69422953Y-70010381D01*
X69613429Y-70010381D01*
X69708667Y-69962762D01*
X69756286Y-69915143D01*
X69803905Y-69819905D01*
X69803905Y-69010381D01*
%TD*%
M02*
