M48
; DRILL file {KiCad 5.1.6-c6e7f7d~87~ubuntu18.04.1} date Fri Sep 18 00:51:55 2020
; FORMAT={-:-/ absolute / inch / decimal}
; #@! TF.CreationDate,2020-09-18T00:51:55+02:00
; #@! TF.GenerationSoftware,Kicad,Pcbnew,5.1.6-c6e7f7d~87~ubuntu18.04.1
; #@! TF.FileFunction,Plated,1,2,PTH
FMAT,2
INCH
T1C0.0157
T2C0.0300
T3C0.0315
T4C0.0394
T5C0.0866
%
G90
G05
T1
X2.1706Y-1.095
X2.426Y-1.3598
X2.5285Y-1.2475
X2.5608Y-1.0823
X2.8244Y-1.0409
X2.934Y-1.5331
X2.9953Y-1.3499
T2
X2.0763Y-1.1037
X2.0763Y-1.2037
X2.0763Y-1.3037
X2.7637Y-0.6163
X2.7637Y-0.7163
T3
X2.49Y-0.63
X2.49Y-0.93
X2.59Y-0.63
X2.59Y-0.93
X2.17Y-0.63
X2.17Y-0.93
X2.27Y-0.63
X2.27Y-0.93
T4
X3.28Y-1.66
X3.38Y-1.66
X3.48Y-1.66
X3.58Y-1.66
X2.07Y-1.47
X2.07Y-1.57
X3.68Y-1.66
X3.78Y-1.66
X3.88Y-1.66
X3.2Y-0.62
X3.2Y-1.52
X3.3Y-0.62
X3.3Y-1.52
X3.4Y-0.62
X3.4Y-1.52
X3.5Y-0.62
X3.5Y-1.52
X3.6Y-0.62
X3.6Y-1.52
X3.7Y-0.62
X3.7Y-1.52
X3.8Y-0.62
X3.8Y-1.52
X3.9Y-0.62
X3.9Y-1.52
X2.88Y-1.66
X2.98Y-1.66
X3.08Y-1.66
X3.18Y-1.66
X2.58Y-1.66
X2.68Y-1.66
X2.78Y-1.66
X2.8Y-1.42
X2.8Y-1.52
T5
X2.625Y-1.5
T0
M30
