%TF.GenerationSoftware,KiCad,Pcbnew,5.1.6-c6e7f7d~87~ubuntu18.04.1*%
%TF.CreationDate,2020-09-18T00:52:06+02:00*%
%TF.ProjectId,airpcb_smd,61697270-6362-45f7-936d-642e6b696361,rev?*%
%TF.SameCoordinates,Original*%
%TF.FileFunction,Soldermask,Top*%
%TF.FilePolarity,Negative*%
%FSLAX46Y46*%
G04 Gerber Fmt 4.6, Leading zero omitted, Abs format (unit mm)*
G04 Created by KiCad (PCBNEW 5.1.6-c6e7f7d~87~ubuntu18.04.1) date 2020-09-18 00:52:06*
%MOMM*%
%LPD*%
G01*
G04 APERTURE LIST*
%ADD10C,3.900000*%
%ADD11C,1.624000*%
%ADD12O,1.700000X2.100000*%
%ADD13R,2.100000X2.100000*%
%ADD14R,1.100000X2.600000*%
%ADD15R,1.900000X1.100000*%
%ADD16R,1.900000X2.600000*%
%ADD17R,1.800000X1.800000*%
%ADD18O,1.800000X1.800000*%
%ADD19R,1.700000X1.700000*%
%ADD20O,1.700000X1.700000*%
%ADD21R,3.400000X1.800000*%
G04 APERTURE END LIST*
D10*
%TO.C,M1*%
X66675000Y-38100000D03*
%TD*%
D11*
%TO.C,J11*%
X70198000Y-18194000D03*
X70198000Y-15654000D03*
X52738000Y-28034000D03*
X52738000Y-30574000D03*
X52738000Y-33114000D03*
%TD*%
D12*
%TO.C,U3*%
X81280000Y-15748000D03*
X83820000Y-15748000D03*
X86360000Y-15748000D03*
X88900000Y-15748000D03*
X91440000Y-15748000D03*
X93980000Y-15748000D03*
X96520000Y-15748000D03*
X99060000Y-15748000D03*
X99060000Y-38608000D03*
X96520000Y-38608000D03*
X93980000Y-38608000D03*
X91440000Y-38608000D03*
X88900000Y-38608000D03*
X86360000Y-38608000D03*
D13*
X81280000Y-38608000D03*
D12*
X83820000Y-38608000D03*
%TD*%
D14*
%TO.C,U4*%
X83114000Y-19578000D03*
X85114000Y-19578000D03*
X87114000Y-19578000D03*
X89114000Y-19578000D03*
X91114000Y-19578000D03*
X93114000Y-19578000D03*
X95114000Y-19578000D03*
X97114000Y-19578000D03*
D15*
X98614000Y-22178000D03*
X98614000Y-24178000D03*
X98614000Y-26178000D03*
X98614000Y-28178000D03*
X98614000Y-30178000D03*
X98614000Y-32178000D03*
D14*
X97114000Y-34778000D03*
X95114000Y-34778000D03*
X93114000Y-34778000D03*
X91114000Y-34778000D03*
X89114000Y-34778000D03*
X87114000Y-34778000D03*
X85114000Y-34778000D03*
X83114000Y-34778000D03*
%TD*%
D16*
%TO.C,D2*%
X56642000Y-31686000D03*
X56642000Y-27686000D03*
%TD*%
%TO.C,D4*%
X61722000Y-27718000D03*
X61722000Y-31718000D03*
%TD*%
%TO.C,D5*%
X66802000Y-27686000D03*
X66802000Y-31686000D03*
%TD*%
D17*
%TO.C,J1*%
X83312000Y-42164000D03*
D18*
X85852000Y-42164000D03*
X88392000Y-42164000D03*
X90932000Y-42164000D03*
%TD*%
%TO.C,J2*%
X80772000Y-42164000D03*
X78232000Y-42164000D03*
X75692000Y-42164000D03*
D17*
X73152000Y-42164000D03*
%TD*%
%TO.C,J3*%
X71120000Y-36068000D03*
D18*
X71120000Y-38608000D03*
%TD*%
%TO.C,J4*%
X52578000Y-39878000D03*
D17*
X52578000Y-37338000D03*
%TD*%
%TO.C,J7*%
X93472000Y-42164000D03*
D18*
X96012000Y-42164000D03*
X98552000Y-42164000D03*
%TD*%
%TO.C,J8*%
X70612000Y-42164000D03*
X68072000Y-42164000D03*
D17*
X65532000Y-42164000D03*
%TD*%
D19*
%TO.C,U1*%
X55118000Y-23622000D03*
D20*
X57658000Y-16002000D03*
X57658000Y-23622000D03*
X55118000Y-16002000D03*
%TD*%
%TO.C,U2*%
X63246000Y-16002000D03*
X65786000Y-23622000D03*
X65786000Y-16002000D03*
D19*
X63246000Y-23622000D03*
%TD*%
D21*
%TO.C,D1*%
X56095000Y-36830000D03*
X61595000Y-36830000D03*
%TD*%
%TO.C,D3*%
X61595000Y-39370000D03*
X56095000Y-39370000D03*
%TD*%
M02*
