%TF.GenerationSoftware,KiCad,Pcbnew,5.1.6-c6e7f7d~87~ubuntu18.04.1*%
%TF.CreationDate,2020-09-18T00:52:06+02:00*%
%TF.ProjectId,airpcb_smd,61697270-6362-45f7-936d-642e6b696361,rev?*%
%TF.SameCoordinates,Original*%
%TF.FileFunction,Paste,Bot*%
%TF.FilePolarity,Positive*%
%FSLAX46Y46*%
G04 Gerber Fmt 4.6, Leading zero omitted, Abs format (unit mm)*
G04 Created by KiCad (PCBNEW 5.1.6-c6e7f7d~87~ubuntu18.04.1) date 2020-09-18 00:52:06*
%MOMM*%
%LPD*%
G01*
G04 APERTURE LIST*
%ADD10R,1.900000X0.800000*%
G04 APERTURE END LIST*
D10*
%TO.C,Q1*%
X72390000Y-24450000D03*
X75390000Y-25400000D03*
X75390000Y-23500000D03*
%TD*%
%TO.C,Q2*%
X75390000Y-29530000D03*
X75390000Y-31430000D03*
X72390000Y-30480000D03*
%TD*%
%TO.C,R1*%
G36*
G01*
X56759500Y-33222250D02*
X56759500Y-32309750D01*
G75*
G02*
X57003250Y-32066000I243750J0D01*
G01*
X57490750Y-32066000D01*
G75*
G02*
X57734500Y-32309750I0J-243750D01*
G01*
X57734500Y-33222250D01*
G75*
G02*
X57490750Y-33466000I-243750J0D01*
G01*
X57003250Y-33466000D01*
G75*
G02*
X56759500Y-33222250I0J243750D01*
G01*
G37*
G36*
G01*
X54884500Y-33222250D02*
X54884500Y-32309750D01*
G75*
G02*
X55128250Y-32066000I243750J0D01*
G01*
X55615750Y-32066000D01*
G75*
G02*
X55859500Y-32309750I0J-243750D01*
G01*
X55859500Y-33222250D01*
G75*
G02*
X55615750Y-33466000I-243750J0D01*
G01*
X55128250Y-33466000D01*
G75*
G02*
X54884500Y-33222250I0J243750D01*
G01*
G37*
%TD*%
%TO.C,R2*%
G36*
G01*
X54884500Y-29920250D02*
X54884500Y-29007750D01*
G75*
G02*
X55128250Y-28764000I243750J0D01*
G01*
X55615750Y-28764000D01*
G75*
G02*
X55859500Y-29007750I0J-243750D01*
G01*
X55859500Y-29920250D01*
G75*
G02*
X55615750Y-30164000I-243750J0D01*
G01*
X55128250Y-30164000D01*
G75*
G02*
X54884500Y-29920250I0J243750D01*
G01*
G37*
G36*
G01*
X56759500Y-29920250D02*
X56759500Y-29007750D01*
G75*
G02*
X57003250Y-28764000I243750J0D01*
G01*
X57490750Y-28764000D01*
G75*
G02*
X57734500Y-29007750I0J-243750D01*
G01*
X57734500Y-29920250D01*
G75*
G02*
X57490750Y-30164000I-243750J0D01*
G01*
X57003250Y-30164000D01*
G75*
G02*
X56759500Y-29920250I0J243750D01*
G01*
G37*
%TD*%
%TO.C,R3*%
G36*
G01*
X54884500Y-26618250D02*
X54884500Y-25705750D01*
G75*
G02*
X55128250Y-25462000I243750J0D01*
G01*
X55615750Y-25462000D01*
G75*
G02*
X55859500Y-25705750I0J-243750D01*
G01*
X55859500Y-26618250D01*
G75*
G02*
X55615750Y-26862000I-243750J0D01*
G01*
X55128250Y-26862000D01*
G75*
G02*
X54884500Y-26618250I0J243750D01*
G01*
G37*
G36*
G01*
X56759500Y-26618250D02*
X56759500Y-25705750D01*
G75*
G02*
X57003250Y-25462000I243750J0D01*
G01*
X57490750Y-25462000D01*
G75*
G02*
X57734500Y-25705750I0J-243750D01*
G01*
X57734500Y-26618250D01*
G75*
G02*
X57490750Y-26862000I-243750J0D01*
G01*
X57003250Y-26862000D01*
G75*
G02*
X56759500Y-26618250I0J243750D01*
G01*
G37*
%TD*%
%TO.C,R4*%
G36*
G01*
X61742500Y-33222250D02*
X61742500Y-32309750D01*
G75*
G02*
X61986250Y-32066000I243750J0D01*
G01*
X62473750Y-32066000D01*
G75*
G02*
X62717500Y-32309750I0J-243750D01*
G01*
X62717500Y-33222250D01*
G75*
G02*
X62473750Y-33466000I-243750J0D01*
G01*
X61986250Y-33466000D01*
G75*
G02*
X61742500Y-33222250I0J243750D01*
G01*
G37*
G36*
G01*
X59867500Y-33222250D02*
X59867500Y-32309750D01*
G75*
G02*
X60111250Y-32066000I243750J0D01*
G01*
X60598750Y-32066000D01*
G75*
G02*
X60842500Y-32309750I0J-243750D01*
G01*
X60842500Y-33222250D01*
G75*
G02*
X60598750Y-33466000I-243750J0D01*
G01*
X60111250Y-33466000D01*
G75*
G02*
X59867500Y-33222250I0J243750D01*
G01*
G37*
%TD*%
%TO.C,R5*%
G36*
G01*
X61839500Y-29920250D02*
X61839500Y-29007750D01*
G75*
G02*
X62083250Y-28764000I243750J0D01*
G01*
X62570750Y-28764000D01*
G75*
G02*
X62814500Y-29007750I0J-243750D01*
G01*
X62814500Y-29920250D01*
G75*
G02*
X62570750Y-30164000I-243750J0D01*
G01*
X62083250Y-30164000D01*
G75*
G02*
X61839500Y-29920250I0J243750D01*
G01*
G37*
G36*
G01*
X59964500Y-29920250D02*
X59964500Y-29007750D01*
G75*
G02*
X60208250Y-28764000I243750J0D01*
G01*
X60695750Y-28764000D01*
G75*
G02*
X60939500Y-29007750I0J-243750D01*
G01*
X60939500Y-29920250D01*
G75*
G02*
X60695750Y-30164000I-243750J0D01*
G01*
X60208250Y-30164000D01*
G75*
G02*
X59964500Y-29920250I0J243750D01*
G01*
G37*
%TD*%
%TO.C,R6*%
G36*
G01*
X59964500Y-26618250D02*
X59964500Y-25705750D01*
G75*
G02*
X60208250Y-25462000I243750J0D01*
G01*
X60695750Y-25462000D01*
G75*
G02*
X60939500Y-25705750I0J-243750D01*
G01*
X60939500Y-26618250D01*
G75*
G02*
X60695750Y-26862000I-243750J0D01*
G01*
X60208250Y-26862000D01*
G75*
G02*
X59964500Y-26618250I0J243750D01*
G01*
G37*
G36*
G01*
X61839500Y-26618250D02*
X61839500Y-25705750D01*
G75*
G02*
X62083250Y-25462000I243750J0D01*
G01*
X62570750Y-25462000D01*
G75*
G02*
X62814500Y-25705750I0J-243750D01*
G01*
X62814500Y-26618250D01*
G75*
G02*
X62570750Y-26862000I-243750J0D01*
G01*
X62083250Y-26862000D01*
G75*
G02*
X61839500Y-26618250I0J243750D01*
G01*
G37*
%TD*%
%TO.C,R7*%
G36*
G01*
X64917500Y-29920250D02*
X64917500Y-29007750D01*
G75*
G02*
X65161250Y-28764000I243750J0D01*
G01*
X65648750Y-28764000D01*
G75*
G02*
X65892500Y-29007750I0J-243750D01*
G01*
X65892500Y-29920250D01*
G75*
G02*
X65648750Y-30164000I-243750J0D01*
G01*
X65161250Y-30164000D01*
G75*
G02*
X64917500Y-29920250I0J243750D01*
G01*
G37*
G36*
G01*
X66792500Y-29920250D02*
X66792500Y-29007750D01*
G75*
G02*
X67036250Y-28764000I243750J0D01*
G01*
X67523750Y-28764000D01*
G75*
G02*
X67767500Y-29007750I0J-243750D01*
G01*
X67767500Y-29920250D01*
G75*
G02*
X67523750Y-30164000I-243750J0D01*
G01*
X67036250Y-30164000D01*
G75*
G02*
X66792500Y-29920250I0J243750D01*
G01*
G37*
%TD*%
%TO.C,R8*%
G36*
G01*
X66792500Y-26618250D02*
X66792500Y-25705750D01*
G75*
G02*
X67036250Y-25462000I243750J0D01*
G01*
X67523750Y-25462000D01*
G75*
G02*
X67767500Y-25705750I0J-243750D01*
G01*
X67767500Y-26618250D01*
G75*
G02*
X67523750Y-26862000I-243750J0D01*
G01*
X67036250Y-26862000D01*
G75*
G02*
X66792500Y-26618250I0J243750D01*
G01*
G37*
G36*
G01*
X64917500Y-26618250D02*
X64917500Y-25705750D01*
G75*
G02*
X65161250Y-25462000I243750J0D01*
G01*
X65648750Y-25462000D01*
G75*
G02*
X65892500Y-25705750I0J-243750D01*
G01*
X65892500Y-26618250D01*
G75*
G02*
X65648750Y-26862000I-243750J0D01*
G01*
X65161250Y-26862000D01*
G75*
G02*
X64917500Y-26618250I0J243750D01*
G01*
G37*
%TD*%
M02*
