%TF.GenerationSoftware,KiCad,Pcbnew,5.1.6-c6e7f7d~87~ubuntu18.04.1*%
%TF.CreationDate,2020-09-18T00:52:06+02:00*%
%TF.ProjectId,airpcb_smd,61697270-6362-45f7-936d-642e6b696361,rev?*%
%TF.SameCoordinates,Original*%
%TF.FileFunction,Legend,Top*%
%TF.FilePolarity,Positive*%
%FSLAX46Y46*%
G04 Gerber Fmt 4.6, Leading zero omitted, Abs format (unit mm)*
G04 Created by KiCad (PCBNEW 5.1.6-c6e7f7d~87~ubuntu18.04.1) date 2020-09-18 00:52:06*
%MOMM*%
%LPD*%
G01*
G04 APERTURE LIST*
%ADD10C,0.120000*%
%ADD11C,0.150000*%
G04 APERTURE END LIST*
D10*
%TO.C,J11*%
X71468000Y-34384000D02*
X71468000Y-14384000D01*
X51468000Y-14384000D02*
X51468000Y-34384000D01*
X51468000Y-34384000D02*
X71468000Y-34384000D01*
X51468000Y-14384000D02*
X71468000Y-14384000D01*
%TO.C,U3*%
X100500000Y-37568000D02*
X107400000Y-37568000D01*
X100500000Y-40108000D02*
X100500000Y-37568000D01*
D11*
G36*
X80645000Y-41148000D02*
G01*
X81915000Y-41148000D01*
X81280000Y-40513000D01*
X80645000Y-41148000D01*
G37*
X80645000Y-41148000D02*
X81915000Y-41148000D01*
X81280000Y-40513000D01*
X80645000Y-41148000D01*
D10*
X72940000Y-16368000D02*
X72940000Y-37978000D01*
X107400000Y-14248000D02*
X75070000Y-14248000D01*
X100500000Y-40108000D02*
X75070000Y-40108000D01*
X107400000Y-37568000D02*
X107400000Y-14248000D01*
X72940000Y-16378000D02*
G75*
G02*
X75070000Y-14248000I2130000J0D01*
G01*
X75070000Y-40108000D02*
G75*
G02*
X72940000Y-37978000I0J2130000D01*
G01*
%TO.C,U4*%
X82114000Y-35298000D02*
X82114000Y-35908000D01*
X82114000Y-35298000D02*
X74494000Y-35298000D01*
X98734000Y-35298000D02*
X98114000Y-35298000D01*
X98734000Y-33178000D02*
X98734000Y-35298000D01*
X98734000Y-19058000D02*
X98734000Y-21178000D01*
X98114000Y-19058000D02*
X98734000Y-19058000D01*
X74494000Y-19058000D02*
X82114000Y-19058000D01*
X74494000Y-35298000D02*
X74494000Y-19058000D01*
%TO.C,D2*%
X58292000Y-26286000D02*
X58292000Y-31686000D01*
X54992000Y-26286000D02*
X54992000Y-31686000D01*
X58292000Y-26286000D02*
X54992000Y-26286000D01*
%TO.C,D4*%
X63372000Y-26318000D02*
X60072000Y-26318000D01*
X60072000Y-26318000D02*
X60072000Y-31718000D01*
X63372000Y-26318000D02*
X63372000Y-31718000D01*
%TO.C,D5*%
X68452000Y-26286000D02*
X65152000Y-26286000D01*
X65152000Y-26286000D02*
X65152000Y-31686000D01*
X68452000Y-26286000D02*
X68452000Y-31686000D01*
%TO.C,J1*%
X84582000Y-43494000D02*
X84582000Y-40834000D01*
X84582000Y-43494000D02*
X92262000Y-43494000D01*
X92262000Y-43494000D02*
X92262000Y-40834000D01*
X84582000Y-40834000D02*
X92262000Y-40834000D01*
X81982000Y-40834000D02*
X83312000Y-40834000D01*
X81982000Y-42164000D02*
X81982000Y-40834000D01*
%TO.C,J2*%
X71822000Y-42164000D02*
X71822000Y-40834000D01*
X71822000Y-40834000D02*
X73152000Y-40834000D01*
X74422000Y-40834000D02*
X82102000Y-40834000D01*
X82102000Y-43494000D02*
X82102000Y-40834000D01*
X74422000Y-43494000D02*
X82102000Y-43494000D01*
X74422000Y-43494000D02*
X74422000Y-40834000D01*
%TO.C,J3*%
X69790000Y-37338000D02*
X72450000Y-37338000D01*
X69790000Y-37338000D02*
X69790000Y-39938000D01*
X69790000Y-39938000D02*
X72450000Y-39938000D01*
X72450000Y-37338000D02*
X72450000Y-39938000D01*
X72450000Y-34738000D02*
X72450000Y-36068000D01*
X71120000Y-34738000D02*
X72450000Y-34738000D01*
%TO.C,J4*%
X52578000Y-36008000D02*
X53908000Y-36008000D01*
X53908000Y-36008000D02*
X53908000Y-37338000D01*
X53908000Y-38608000D02*
X53908000Y-41208000D01*
X51248000Y-41208000D02*
X53908000Y-41208000D01*
X51248000Y-38608000D02*
X51248000Y-41208000D01*
X51248000Y-38608000D02*
X53908000Y-38608000D01*
%TO.C,J7*%
X94742000Y-43494000D02*
X94742000Y-40834000D01*
X94742000Y-43494000D02*
X99882000Y-43494000D01*
X99882000Y-43494000D02*
X99882000Y-40834000D01*
X94742000Y-40834000D02*
X99882000Y-40834000D01*
X92142000Y-40834000D02*
X93472000Y-40834000D01*
X92142000Y-42164000D02*
X92142000Y-40834000D01*
%TO.C,J8*%
X64202000Y-42164000D02*
X64202000Y-40834000D01*
X64202000Y-40834000D02*
X65532000Y-40834000D01*
X66802000Y-40834000D02*
X71942000Y-40834000D01*
X71942000Y-43494000D02*
X71942000Y-40834000D01*
X66802000Y-43494000D02*
X71942000Y-43494000D01*
X66802000Y-43494000D02*
X66802000Y-40834000D01*
%TO.C,U1*%
X53788000Y-20812000D02*
X53788000Y-22462000D01*
X53788000Y-22462000D02*
X58988000Y-22462000D01*
X58988000Y-22462000D02*
X58988000Y-17162000D01*
X58988000Y-17162000D02*
X53788000Y-17162000D01*
X53788000Y-17162000D02*
X53788000Y-18812000D01*
X53788000Y-18812000D02*
G75*
G02*
X53788000Y-20812000I0J-1000000D01*
G01*
%TO.C,U2*%
X61916000Y-17162000D02*
X61916000Y-18812000D01*
X67116000Y-17162000D02*
X61916000Y-17162000D01*
X67116000Y-22462000D02*
X67116000Y-17162000D01*
X61916000Y-22462000D02*
X67116000Y-22462000D01*
X61916000Y-20812000D02*
X61916000Y-22462000D01*
X61916000Y-18812000D02*
G75*
G02*
X61916000Y-20812000I0J-1000000D01*
G01*
%TO.C,D1*%
X56095000Y-37830000D02*
X63395000Y-37830000D01*
X63395000Y-37830000D02*
X63395000Y-35830000D01*
X63395000Y-35830000D02*
X56095000Y-35830000D01*
%TO.C,D3*%
X63395000Y-38370000D02*
X56095000Y-38370000D01*
X63395000Y-40370000D02*
X63395000Y-38370000D01*
X56095000Y-40370000D02*
X63395000Y-40370000D01*
%TO.C,J11*%
D11*
X68080095Y-33980380D02*
X68080095Y-32980380D01*
X68461047Y-32980380D01*
X68556285Y-33028000D01*
X68603904Y-33075619D01*
X68651523Y-33170857D01*
X68651523Y-33313714D01*
X68603904Y-33408952D01*
X68556285Y-33456571D01*
X68461047Y-33504190D01*
X68080095Y-33504190D01*
X69032476Y-33932761D02*
X69175333Y-33980380D01*
X69413428Y-33980380D01*
X69508666Y-33932761D01*
X69556285Y-33885142D01*
X69603904Y-33789904D01*
X69603904Y-33694666D01*
X69556285Y-33599428D01*
X69508666Y-33551809D01*
X69413428Y-33504190D01*
X69222952Y-33456571D01*
X69127714Y-33408952D01*
X69080095Y-33361333D01*
X69032476Y-33266095D01*
X69032476Y-33170857D01*
X69080095Y-33075619D01*
X69127714Y-33028000D01*
X69222952Y-32980380D01*
X69461047Y-32980380D01*
X69603904Y-33028000D01*
X70032476Y-32980380D02*
X70032476Y-33789904D01*
X70080095Y-33885142D01*
X70127714Y-33932761D01*
X70222952Y-33980380D01*
X70413428Y-33980380D01*
X70508666Y-33932761D01*
X70556285Y-33885142D01*
X70603904Y-33789904D01*
X70603904Y-32980380D01*
%TO.C,U3*%
X107732380Y-17369904D02*
X108541904Y-17369904D01*
X108637142Y-17322285D01*
X108684761Y-17274666D01*
X108732380Y-17179428D01*
X108732380Y-16988952D01*
X108684761Y-16893714D01*
X108637142Y-16846095D01*
X108541904Y-16798476D01*
X107732380Y-16798476D01*
X107732380Y-16417523D02*
X107732380Y-15798476D01*
X108113333Y-16131809D01*
X108113333Y-15988952D01*
X108160952Y-15893714D01*
X108208571Y-15846095D01*
X108303809Y-15798476D01*
X108541904Y-15798476D01*
X108637142Y-15846095D01*
X108684761Y-15893714D01*
X108732380Y-15988952D01*
X108732380Y-16274666D01*
X108684761Y-16369904D01*
X108637142Y-16417523D01*
%TO.C,D2*%
X59594380Y-30424095D02*
X58594380Y-30424095D01*
X58594380Y-30186000D01*
X58642000Y-30043142D01*
X58737238Y-29947904D01*
X58832476Y-29900285D01*
X59022952Y-29852666D01*
X59165809Y-29852666D01*
X59356285Y-29900285D01*
X59451523Y-29947904D01*
X59546761Y-30043142D01*
X59594380Y-30186000D01*
X59594380Y-30424095D01*
X58689619Y-29471714D02*
X58642000Y-29424095D01*
X58594380Y-29328857D01*
X58594380Y-29090761D01*
X58642000Y-28995523D01*
X58689619Y-28947904D01*
X58784857Y-28900285D01*
X58880095Y-28900285D01*
X59022952Y-28947904D01*
X59594380Y-29519333D01*
X59594380Y-28900285D01*
%TO.C,D4*%
X64674380Y-30456095D02*
X63674380Y-30456095D01*
X63674380Y-30218000D01*
X63722000Y-30075142D01*
X63817238Y-29979904D01*
X63912476Y-29932285D01*
X64102952Y-29884666D01*
X64245809Y-29884666D01*
X64436285Y-29932285D01*
X64531523Y-29979904D01*
X64626761Y-30075142D01*
X64674380Y-30218000D01*
X64674380Y-30456095D01*
X64007714Y-29027523D02*
X64674380Y-29027523D01*
X63626761Y-29265619D02*
X64341047Y-29503714D01*
X64341047Y-28884666D01*
%TO.C,D5*%
X69754380Y-30424095D02*
X68754380Y-30424095D01*
X68754380Y-30186000D01*
X68802000Y-30043142D01*
X68897238Y-29947904D01*
X68992476Y-29900285D01*
X69182952Y-29852666D01*
X69325809Y-29852666D01*
X69516285Y-29900285D01*
X69611523Y-29947904D01*
X69706761Y-30043142D01*
X69754380Y-30186000D01*
X69754380Y-30424095D01*
X68754380Y-28947904D02*
X68754380Y-29424095D01*
X69230571Y-29471714D01*
X69182952Y-29424095D01*
X69135333Y-29328857D01*
X69135333Y-29090761D01*
X69182952Y-28995523D01*
X69230571Y-28947904D01*
X69325809Y-28900285D01*
X69563904Y-28900285D01*
X69659142Y-28947904D01*
X69706761Y-28995523D01*
X69754380Y-29090761D01*
X69754380Y-29328857D01*
X69706761Y-29424095D01*
X69659142Y-29471714D01*
%TO.C,J3*%
X67722857Y-35964761D02*
X67865714Y-36012380D01*
X68103809Y-36012380D01*
X68199047Y-35964761D01*
X68246666Y-35917142D01*
X68294285Y-35821904D01*
X68294285Y-35726666D01*
X68246666Y-35631428D01*
X68199047Y-35583809D01*
X68103809Y-35536190D01*
X67913333Y-35488571D01*
X67818095Y-35440952D01*
X67770476Y-35393333D01*
X67722857Y-35298095D01*
X67722857Y-35202857D01*
X67770476Y-35107619D01*
X67818095Y-35060000D01*
X67913333Y-35012380D01*
X68151428Y-35012380D01*
X68294285Y-35060000D01*
X68627619Y-35012380D02*
X68865714Y-36012380D01*
X69056190Y-35298095D01*
X69246666Y-36012380D01*
X69484761Y-35012380D01*
%TO.C,J4*%
X51839904Y-42814666D02*
X52316095Y-42814666D01*
X51744666Y-43100380D02*
X52078000Y-42100380D01*
X52411333Y-43100380D01*
X53078000Y-42576571D02*
X53220857Y-42624190D01*
X53268476Y-42671809D01*
X53316095Y-42767047D01*
X53316095Y-42909904D01*
X53268476Y-43005142D01*
X53220857Y-43052761D01*
X53125619Y-43100380D01*
X52744666Y-43100380D01*
X52744666Y-42100380D01*
X53078000Y-42100380D01*
X53173238Y-42148000D01*
X53220857Y-42195619D01*
X53268476Y-42290857D01*
X53268476Y-42386095D01*
X53220857Y-42481333D01*
X53173238Y-42528952D01*
X53078000Y-42576571D01*
X52744666Y-42576571D01*
%TO.C,U1*%
X55078380Y-20573904D02*
X55887904Y-20573904D01*
X55983142Y-20526285D01*
X56030761Y-20478666D01*
X56078380Y-20383428D01*
X56078380Y-20192952D01*
X56030761Y-20097714D01*
X55983142Y-20050095D01*
X55887904Y-20002476D01*
X55078380Y-20002476D01*
X56078380Y-19002476D02*
X56078380Y-19573904D01*
X56078380Y-19288190D02*
X55078380Y-19288190D01*
X55221238Y-19383428D01*
X55316476Y-19478666D01*
X55364095Y-19573904D01*
%TO.C,U2*%
X63460380Y-20573904D02*
X64269904Y-20573904D01*
X64365142Y-20526285D01*
X64412761Y-20478666D01*
X64460380Y-20383428D01*
X64460380Y-20192952D01*
X64412761Y-20097714D01*
X64365142Y-20050095D01*
X64269904Y-20002476D01*
X63460380Y-20002476D01*
X63555619Y-19573904D02*
X63508000Y-19526285D01*
X63460380Y-19431047D01*
X63460380Y-19192952D01*
X63508000Y-19097714D01*
X63555619Y-19050095D01*
X63650857Y-19002476D01*
X63746095Y-19002476D01*
X63888952Y-19050095D01*
X64460380Y-19621523D01*
X64460380Y-19002476D01*
%TO.C,D1*%
X58316904Y-35377380D02*
X58316904Y-34377380D01*
X58555000Y-34377380D01*
X58697857Y-34425000D01*
X58793095Y-34520238D01*
X58840714Y-34615476D01*
X58888333Y-34805952D01*
X58888333Y-34948809D01*
X58840714Y-35139285D01*
X58793095Y-35234523D01*
X58697857Y-35329761D01*
X58555000Y-35377380D01*
X58316904Y-35377380D01*
X59840714Y-35377380D02*
X59269285Y-35377380D01*
X59555000Y-35377380D02*
X59555000Y-34377380D01*
X59459761Y-34520238D01*
X59364523Y-34615476D01*
X59269285Y-34663095D01*
%TO.C,D3*%
X58106904Y-41572380D02*
X58106904Y-40572380D01*
X58345000Y-40572380D01*
X58487857Y-40620000D01*
X58583095Y-40715238D01*
X58630714Y-40810476D01*
X58678333Y-41000952D01*
X58678333Y-41143809D01*
X58630714Y-41334285D01*
X58583095Y-41429523D01*
X58487857Y-41524761D01*
X58345000Y-41572380D01*
X58106904Y-41572380D01*
X59011666Y-40572380D02*
X59630714Y-40572380D01*
X59297380Y-40953333D01*
X59440238Y-40953333D01*
X59535476Y-41000952D01*
X59583095Y-41048571D01*
X59630714Y-41143809D01*
X59630714Y-41381904D01*
X59583095Y-41477142D01*
X59535476Y-41524761D01*
X59440238Y-41572380D01*
X59154523Y-41572380D01*
X59059285Y-41524761D01*
X59011666Y-41477142D01*
X58106904Y-39822380D02*
X58106904Y-38822380D01*
X58345000Y-38822380D01*
X58487857Y-38870000D01*
X58583095Y-38965238D01*
X58630714Y-39060476D01*
X58678333Y-39250952D01*
X58678333Y-39393809D01*
X58630714Y-39584285D01*
X58583095Y-39679523D01*
X58487857Y-39774761D01*
X58345000Y-39822380D01*
X58106904Y-39822380D01*
X59011666Y-38822380D02*
X59630714Y-38822380D01*
X59297380Y-39203333D01*
X59440238Y-39203333D01*
X59535476Y-39250952D01*
X59583095Y-39298571D01*
X59630714Y-39393809D01*
X59630714Y-39631904D01*
X59583095Y-39727142D01*
X59535476Y-39774761D01*
X59440238Y-39822380D01*
X59154523Y-39822380D01*
X59059285Y-39774761D01*
X59011666Y-39727142D01*
%TD*%
M02*
